<svg width="150" height="55" viewBox="0 0 150 55" fill="none" xmlns="http://www.w3.org/2000/svg">
<g clip-path="url(#clip0_1278_11262)">
<path d="M82.0768 0.805263C81.2944 1.58764 81.2674 1.72253 81.4293 3.04447C81.5372 3.82685 82.3466 7.0103 83.2369 10.1398C85.1254 16.8304 85.6379 19.3394 85.6379 21.8754C85.6379 25.6254 84.4779 26.6776 79.4599 27.5409C78.6236 27.6758 75.2782 27.8107 72.0138 27.8107C68.7495 27.8107 64.9995 27.9186 63.6505 28.0535C61.5192 28.2693 61.1415 28.3772 60.629 28.9977C59.5768 30.2117 59.8736 31.8574 61.3034 32.6128C62.1667 33.0715 63.5966 32.8286 69.9905 30.9941C76.87 29.0517 79.1362 28.593 81.7261 28.593C84.2081 28.593 85.3682 29.0247 86.1236 30.2657C87.3646 32.2621 87.5804 33.8808 87.7962 43.1614C87.9041 48.3412 88.12 52.2261 88.2818 52.6308C88.9023 54.1956 90.6559 54.6812 91.9509 53.656C92.9491 52.8736 92.8951 51.12 91.6811 46.7765C88.066 33.8808 87.7153 31.3448 89.2531 29.0786C90.7099 26.9204 93.2728 26.4348 103.633 26.2999C112.589 26.165 113.453 26.0301 113.965 24.6542C114.343 23.7099 114.1 22.5768 113.372 21.9563C112.481 21.147 110.593 21.3898 104.307 23.1704C97.1038 25.2207 94.9455 25.6524 92.3556 25.6794C87.1757 25.7063 86.1775 23.0625 86.1775 9.30346C86.1775 5.68836 86.0426 2.39699 85.9077 1.83044C85.3682 -0.112003 83.5067 -0.597614 82.0768 0.805263Z" fill="white"/>
<path d="M76.814 49.4945H79L78.9688 40.7863L78.9219 32.0936L76.814 32V49.4945Z" fill="white"/>
<path d="M32 49.4945H42.7741V47.4657H34.186V41.8475H42.3056V39.8187H34.186V34.6687H42.7741V32.6399H32V49.4945Z" fill="white"/>
<path d="M57.9203 37.1656H55.8904V39.1945H57.9203V42.8931C57.9203 45.1248 57.9983 46.8571 58.092 47.2316C58.5136 48.7142 59.4661 49.3541 61.4804 49.4633L62.7608 49.5414V47.4657H61.8395C61.0744 47.4657 60.8246 47.4033 60.4654 47.0912L60.0282 46.7166L59.9345 39.1945H62.7608V37.1656H60.1063V34.0444H57.9203V37.1656Z" fill="white"/>
<path d="M44.1169 37.3529C44.1794 37.4622 45.1475 38.8355 46.2561 40.3961C47.3648 41.9567 48.2704 43.2833 48.2548 43.3613C48.2548 43.4237 47.3023 44.7971 46.1312 46.3889C44.9757 47.9963 44.0232 49.3541 44.0232 49.4009C44.0232 49.4477 44.5698 49.4945 45.2412 49.4945H46.4435L48.0674 47.2316C48.9575 45.9831 49.707 44.9687 49.7226 44.9687C49.7538 44.9687 50.5189 45.9831 51.4246 47.2316L53.0953 49.4945H54.3445C55.297 49.4945 55.5625 49.4477 55.4844 49.2917C55.4219 49.198 54.4538 47.8247 53.3452 46.2641C52.2365 44.7034 51.3309 43.3925 51.3309 43.3301C51.3309 43.2677 52.2365 41.9567 53.3452 40.3961C54.4538 38.8355 55.4219 37.4622 55.4844 37.3529C55.5625 37.2125 55.3126 37.1656 54.3601 37.1656H53.111L51.5026 39.4285C50.6126 40.6614 49.8475 41.6758 49.8007 41.6758C49.7538 41.6758 49.0043 40.6614 48.1143 39.4129L46.506 37.1656H45.2568C44.3043 37.1656 44.0389 37.2125 44.1169 37.3529Z" fill="white"/>
<path d="M65.6651 42.8931C66.9143 45.9675 67.9917 48.6206 68.0698 48.7923C68.1478 49.0264 67.9448 49.7286 67.2734 51.3673C66.7737 52.6158 66.3678 53.7238 66.3522 53.8331C66.3522 53.9891 66.6332 54.0203 67.4608 53.9891L68.5538 53.9423L71.911 45.671C73.7379 41.114 75.2525 37.3841 75.2525 37.3529C75.2525 37.3373 74.7372 37.3217 74.1282 37.3217H72.9884L71.1927 41.8475C70.209 44.3289 69.3502 46.3109 69.3033 46.2484C69.2409 46.186 68.4133 44.1572 67.4452 41.7227L65.6963 37.3217H63.401L65.6651 42.8931Z" fill="white"/>
</g>
<defs>
<clipPath id="clip0_1278_11262">
<rect width="150" height="54.2266" fill="white"/>
</clipPath>
</defs>
</svg>
