<svg width="160" height="60" viewBox="0 0 160 60" fill="none" xmlns="http://www.w3.org/2000/svg">
<path d="M16.9821 37.6899L11.0457 20H8.59107L2.61823 37.3865V20H0V40.7792H3.65462L8.57289 26.3165C9.06381 24.8546 9.43653 23.7421 9.66382 22.9882C9.87291 23.6685 10.2002 24.6891 10.6456 26.0591L15.5094 40.7701H19.6004V20H16.9821V37.6899Z" fill="white"/>
<path d="M25.0073 31.2539H36.3711V28.8174H25.0073V22.4549H37.1438V20H22.2891V40.7792H37.6166V38.3244H25.0073V31.2539Z" fill="white"/>
<path d="M50.5978 34.4535C50.1069 35.9154 49.7342 37.0279 49.5069 37.7818C49.2978 37.1015 48.9705 36.0809 48.5251 34.711L43.6613 20H39.5703V40.7792H42.1886V23.0893L48.1342 40.7792H50.5887L56.5616 23.3927V40.7792H59.1798V20H55.5252L50.5978 34.4535Z" fill="white"/>
<path d="M67.4614 20L59.5703 40.7792H62.4613L64.7159 34.4903H73.3069L75.707 40.7792H78.8071L70.3978 20H67.4614ZM65.5068 32.2469L67.7614 26.151C68.2341 24.8362 68.6069 23.5122 68.8705 22.1791C69.1887 23.3008 69.6705 24.7351 70.3251 26.4912L72.4706 32.2469H65.5068Z" fill="white"/>
<path d="M95.7448 20H92.063L81.8628 30.3069V20H79.1445V40.7792H81.8628V33.58L85.2265 30.2609L92.5357 40.7792H96.1266L87.1266 28.422L95.7448 20Z" fill="white"/>
<path d="M99.4448 31.2539H110.809V28.8174H99.4448V22.4549H111.582V20H96.7266V40.7792H112.063V38.3244H99.4448V31.2539Z" fill="white"/>
<path d="M126.018 28.8817H116.372V22.4549H127.518V20H113.654V40.7792H116.372V31.3366H126.018V28.8817Z" fill="white"/>
<path d="M132.809 20L124.918 40.7792H127.809L130.064 34.4903H138.655L141.055 40.7792H144.154L135.737 20H132.809ZM130.845 32.2469L133.1 26.151C133.573 24.8362 133.945 23.5122 134.209 22.1791C134.527 23.3008 135.009 24.7351 135.664 26.4912L137.809 32.2469H130.845Z" fill="white"/>
<path d="M158.991 31.6032C158.327 30.7114 157.363 30.0862 156.126 29.7184C157.09 29.2403 157.808 28.6059 158.281 27.8152C158.754 27.0337 158.999 26.197 158.999 25.3051C158.999 24.3489 158.727 23.4387 158.191 22.5652C157.653 21.6918 156.909 21.0482 155.963 20.6252C155.018 20.2115 153.754 20 152.191 20H144.48V40.7792H152.317C153.626 40.7792 154.727 40.6597 155.636 40.4298C156.536 40.2 157.29 39.8597 157.881 39.4001C158.481 38.9495 158.981 38.306 159.391 37.4693C159.8 36.6326 159.999 35.7315 159.999 34.7569C159.99 33.5433 159.653 32.4951 158.991 31.6032ZM147.199 22.4549H151.309C152.781 22.4549 153.827 22.556 154.436 22.7491C155.045 22.9422 155.508 23.3008 155.835 23.8248C156.163 24.3489 156.327 24.9557 156.327 25.6453C156.327 26.3717 156.154 26.9785 155.799 27.4566C155.445 27.9347 154.926 28.2841 154.235 28.4956C153.709 28.6519 152.845 28.7346 151.645 28.7346H147.199V22.4549ZM156.772 36.5039C156.499 37.0096 156.154 37.3957 155.736 37.6623C155.318 37.9289 154.79 38.1128 154.163 38.2324C153.808 38.2967 153.19 38.3335 152.317 38.3335H147.199V31.1895H151.954C153.263 31.1895 154.263 31.3091 154.963 31.5389C155.663 31.7687 156.199 32.1733 156.599 32.7434C156.991 33.3134 157.19 33.9846 157.19 34.7661C157.172 35.4189 157.045 35.9981 156.772 36.5039Z" fill="white"/>
</svg>
