<svg width="160" height="60" viewBox="0 0 160 60" fill="none" xmlns="http://www.w3.org/2000/svg">
<path fill-rule="evenodd" clip-rule="evenodd" d="M147.947 18.011L139.551 18.0096V40.9967L147.947 40.9981C155.524 40.9981 159.063 36.4148 159.063 30.5005V28.5085C159.063 22.5943 155.524 18.011 147.947 18.011ZM153.489 32.6456C153.489 34.6125 151.832 36.2074 149.787 36.2074H144.735V22.7997H149.787C151.832 22.7997 153.489 24.3945 153.489 26.3614V32.6456ZM124.754 31.6609L115.565 18.0096H110.756V40.9973H115.939V27.3462L125.127 40.9973H129.936V18.0096H124.754V31.6609ZM85.6384 22.8001H90.983V36.2071H85.6384V40.9971H101.511V36.2071H96.1658V22.8001H101.511V18.0094H85.6384V22.8001ZM69.6755 18.0075H63.2795L56.1866 35.179C55.8903 35.8964 55.7377 36.6616 55.7377 37.4335V41H60.9204V37.1301L61.2654 36.2106H71.6896L72.0339 37.1301V41H77.2167V37.4335C77.2167 36.6616 77.0647 35.8964 76.7685 35.179L69.6755 18.0075ZM63.0298 31.5011L66.2904 22.9664H66.6629L69.9227 31.5011H63.0298ZM17.0641 28.5784C18.1769 27.4283 18.8521 25.8804 18.8195 24.1788C18.7531 20.7136 15.6636 18.0027 12.0616 18.0027H0.9375V40.9904H12.7078C16.8096 40.9904 20.1119 37.6987 19.9168 33.7112C19.8142 31.6069 18.7064 29.7761 17.0641 28.5784ZM6.11813 22.7923H12.4773C13.0591 22.7923 13.5342 23.2507 13.5342 23.8104V25.6828C13.5342 26.2425 13.0591 26.7002 12.4773 26.7002H6.11813V22.7923ZM14.6449 34.9275C14.6449 35.6294 14.0531 36.1994 13.3228 36.1994H6.11813V31.2115H13.3228C14.0531 31.2115 14.6449 31.7807 14.6449 32.4832V34.9275ZM46.6521 24.6046C46.6521 20.9571 43.5782 18 39.7861 18H28.252V40.9871H33.4347V31.2098H36.6245L43.1131 40.9884H49.2608L49.2616 40.9871L42.4343 30.699C44.9116 29.702 46.6521 27.3495 46.6521 24.6046ZM41.3687 25.6803C41.3687 26.2393 40.8929 26.697 40.3112 26.697H33.4352V22.7898H40.3112C40.895 22.7898 41.3687 23.2455 41.3687 23.8072V25.6803Z" fill="white"/>
</svg>
