<svg width="160" height="60" viewBox="0 0 160 60" fill="none" xmlns="http://www.w3.org/2000/svg">
<path fill-rule="evenodd" clip-rule="evenodd" d="M128.753 25.6133C134.431 22.3283 136.756 32.971 132.216 34.8061C126.654 37.0546 124.257 28.2145 128.753 25.6133ZM128.004 21.5072C116.142 24.6274 120.527 42.3333 133.451 38.7711C144.339 35.7701 140.594 18.196 128.004 21.5072Z" fill="white"/>
<path fill-rule="evenodd" clip-rule="evenodd" d="M22.207 38.8754H27.3009L27.3563 32.0415L33.2126 32.1176L33.2086 38.8754L38.3045 38.7422L38.3005 21.5072L33.2086 21.3906V27.9335L27.3559 28.0054L27.3563 21.3906H22.2051L22.207 38.8754Z" fill="white"/>
<path fill-rule="evenodd" clip-rule="evenodd" d="M43.9805 31.2911C43.9805 36.4805 46.5685 39.1252 51.8548 39.1389C61.4874 39.164 59.7848 30.751 59.7848 21.3906H54.6408L54.6355 30.8279C54.6355 36.9752 49.0725 37.0465 49.0725 30.8279V21.3906H43.9785L43.9805 31.2911Z" fill="white"/>
<path fill-rule="evenodd" clip-rule="evenodd" d="M102.872 38.8177L108.031 38.875L108.065 31.9257C109.511 33.6781 112.079 36.8543 112.832 38.875H118.795C116.967 35.5738 113.616 32.3962 112.365 29.4377L118.444 21.507C110.222 20.842 114.164 22.4569 108.023 27.9906V21.3903L102.871 21.4139L102.871 38.8177H102.872Z" fill="white"/>
<path fill-rule="evenodd" clip-rule="evenodd" d="M89.6301 25.7502L91.3497 32.1746L87.5693 32.0816L89.6302 25.7502H89.6301ZM80.8711 38.8196L85.2086 38.8755L86.7705 35.6327L92.3916 35.6528L93.4641 38.7307L98.7577 38.8989L93.1887 21.5306L86.5979 21.4277L80.8711 38.8196Z" fill="white"/>
<path fill-rule="evenodd" clip-rule="evenodd" d="M17.5133 32.277H12.8821C11.8027 33.627 11.2442 35.5183 8.40951 34.9829C2.1245 33.7958 6.46162 20.1076 11.8908 26.7901C13.0191 28.1789 12.0873 27.8145 17.2252 27.8145C16.1444 17.6476 -0.232661 19.1536 0.0025083 30.3552C0.234893 41.4295 16.1902 42.4403 17.5133 32.2771V32.277Z" fill="white"/>
<path fill-rule="evenodd" clip-rule="evenodd" d="M149.139 38.8754H154.29L160 21.421L155.24 22.0301C153.856 24.8117 153.005 30.5937 151.57 33.0889C146.601 21.3117 151.57 21.3906 142.596 21.3906C143.104 23.4201 147.281 37.7932 149.139 38.8754H149.139Z" fill="white"/>
<path fill-rule="evenodd" clip-rule="evenodd" d="M65.4064 38.7586L67.1393 38.8989L75.4795 38.8754L77.2747 38.7855L77.273 35.0565L70.5539 34.9362L70.5556 21.3906L65.4043 21.4607L65.4064 38.7586Z" fill="white"/>
</svg>
