<svg width="160" height="60" viewBox="0 0 160 60" fill="none" xmlns="http://www.w3.org/2000/svg">
<path fill-rule="evenodd" clip-rule="evenodd" d="M0.000687544 39.1764L0.0166774 39.8877L4.78765 39.8794L4.79558 32.237L6.4554 32.2371C6.68541 32.5465 6.81177 32.6897 7.12338 33.0958L11.558 39.0812C11.8191 39.4476 11.8866 39.8876 12.4461 39.8876C17.4561 39.8876 21.4304 40.7539 24.3146 34.8439C25.9176 31.5592 26.1361 28.9032 26.5689 24.7706L31.9041 24.6094L31.9054 39.819L36.6704 39.8931C36.8479 34.7328 36.6922 25.636 36.6909 20.0617C32.1951 20.0617 26.1523 19.9357 21.842 20.08C21.8422 24.8993 21.748 29.3103 19.6203 32.6322C18.7602 33.9749 17.3069 35.2076 15.1851 35.239C13.9479 35.2573 13.8789 34.5423 13.2258 33.6936C12.8082 33.1509 11.9592 32.0972 11.7989 31.4567C13.4646 29.2879 13.5138 28.7855 14.7614 26.0032C15.6758 23.9642 16.5619 22.1592 17.3953 20.131L12.4461 20.0616C11.1061 22.4171 10.2692 25.7231 8.7284 27.6319L4.78761 27.7186L4.78756 20.131C3.55958 19.9562 1.33231 20.0574 0 20.0617L0.000687544 39.1764Z" fill="white"/>
<path fill-rule="evenodd" clip-rule="evenodd" d="M96.6588 39.1762L96.6749 39.8875L101.446 39.8792L101.627 27.7742L104.722 36.9874C104.911 37.5641 105.078 38.0498 105.25 38.5944C105.696 40.0113 105.251 40.1022 109.528 39.8533C110.171 37.9618 113.207 28.273 113.752 27.3662L113.754 39.8874H118.52C118.695 34.6791 118.541 25.6701 118.539 20.0615L111.227 20.0798L107.638 31.0411L103.945 20.073L96.6582 20.0615L96.6588 39.1762V39.1762Z" fill="white"/>
<path fill-rule="evenodd" clip-rule="evenodd" d="M78.8985 35.3397C79.1 34.6623 79.5751 33.81 79.8773 32.9541C80.7756 30.4104 81.2258 27.4267 81.323 24.616L87.3652 24.6092L87.3646 35.363L78.8985 35.3397V35.3397ZM76.7376 22.4502C76.7376 27.6005 75.7783 35.0672 71.4844 35.3864L72.2788 39.8858L94.011 39.8854L94.0069 35.4089L92.1526 35.3468L92.1527 20.0615H76.7369L76.7376 22.4502L76.7376 22.4502Z" fill="white"/>
<path fill-rule="evenodd" clip-rule="evenodd" d="M121.633 39.8186C124.591 40.3735 124.745 39.587 125.834 38.348L131.492 31.915C132.315 30.9782 133.574 29.7184 134.241 28.7903L134.285 39.8871H139.011L139.049 20.0612C135.382 20.0612 136.766 19.5344 132.079 24.8634C131.057 26.0256 127.277 30.6244 126.4 31.1586V20.0612L121.633 20.0773L121.633 39.8185V39.8186Z" fill="white"/>
<path fill-rule="evenodd" clip-rule="evenodd" d="M47.7465 24.5133L50.2087 32.2617L45.107 32.2407L47.7465 24.5133ZM37.541 39.8648L42.3491 39.8874C42.7534 39.7943 42.6147 39.877 43.058 38.5133C43.261 37.8888 43.4443 37.3241 43.621 36.786H51.7645L52.7303 39.8811L57.8048 39.8797L51.3748 20.0806L43.9655 20.0615C43.3273 22.9693 41.7005 27.0556 40.7817 30.0454C39.7727 33.3287 38.6438 36.7356 37.541 39.8648Z" fill="white"/>
<path fill-rule="evenodd" clip-rule="evenodd" d="M145.131 22.2665C145.131 25.5908 144.718 32.6494 142.033 34.7165C140.515 35.8857 140.827 34.3422 140.827 39.8649C144.277 40.0229 146.369 37.048 147.556 34.9263C149.013 32.3207 149.653 28.3398 149.858 24.6552L155.212 24.6093L155.213 39.8649L159.98 39.8703L160 20.085C156.078 19.9093 149.339 20.0602 145.12 20.0616L145.131 22.2665V22.2665Z" fill="white"/>
<path fill-rule="evenodd" clip-rule="evenodd" d="M60.028 33.9374L64.6348 33.9417L62.7573 39.9051L67.7661 39.8875L74.2107 20.0615L69.1804 20.0671L67.0455 26.6438C66.698 27.7745 65.2388 32.6517 64.8162 33.2608L60.4226 20.0825L55.3008 20.0656C55.839 21.7902 59.5876 33.2467 60.028 33.9374L60.028 33.9374Z" fill="white"/>
</svg>
