<svg width="160" height="60" viewBox="0 0 160 60" fill="none" xmlns="http://www.w3.org/2000/svg">
<path fill-rule="evenodd" clip-rule="evenodd" d="M65.583 35.4187C65.2064 37.4617 64.5522 36.7742 63.4919 38.2089C60.6924 41.9966 63.3548 46.6524 67.2835 46.9918C70.2442 47.2476 72.5624 45.2371 73.1336 42.9119C74.1707 38.6925 71.0704 37.8562 70.0698 35.824C70.4411 34.5987 72.5686 32.4393 73.7839 32.1099C75.8029 32.9137 75.7487 34.763 78.8063 35.304C87.7125 36.8789 84.1239 40.2752 86.3042 44.1016C90.6484 51.7267 101.189 43.0569 94.7267 37.2959C92.5922 35.3923 90.9793 36.572 88.51 35.4016C86.8328 34.6064 85.1897 32.7765 85.0463 30.3141C84.6277 23.1169 92.5209 23.9904 94.2245 22.8147C98.0269 20.1919 96.993 13.7124 92.2411 12.78C85.2827 11.4143 85.9089 19.7044 84.6448 21.6862C83.6163 23.2983 81.9057 24.0075 79.2884 24.3586C78.0018 24.5306 77.0206 24.8957 76.1432 25.5072C73.9978 27.0015 74.6272 29.1647 71.7827 26.1366C70.8713 25.1662 69.8792 24.9406 70.2574 23.6114C70.6178 22.3458 73.2081 21.5963 73.2995 18.2899C73.4406 13.2156 67.1099 10.8873 63.8981 14.2472C62.6905 15.5105 61.7481 18.2077 62.8145 20.4957C63.7446 22.493 66.7464 23.2169 65.0382 25.0941C64.4902 25.6963 61.9721 27.0263 62.3844 30.6133C62.7254 33.5779 64.6073 33.7027 65.5823 35.421L65.583 35.4187Z" fill="white"/>
<path fill-rule="evenodd" clip-rule="evenodd" d="M78.2737 37.9564C73.3389 39.7499 75.9632 46.7789 80.6523 45.2946C85.3507 43.8081 83.2627 36.1435 78.2737 37.9564Z" fill="white"/>
<path fill-rule="evenodd" clip-rule="evenodd" d="M78.7031 14.607C73.4877 15.8982 75.4556 23.3024 80.4904 22.0879C85.35 20.916 83.4433 13.4328 78.7031 14.607Z" fill="white"/>
<path fill-rule="evenodd" clip-rule="evenodd" d="M90.0602 26.305C85.0169 27.8094 87.4002 35.319 92.3799 33.634C96.6784 32.18 95.0074 24.8293 90.0602 26.305Z" fill="white"/>
<path fill-rule="evenodd" clip-rule="evenodd" d="M55.7472 27.8193C52.9585 28.3912 53.6669 32.813 56.7454 32.1193C59.4868 31.5016 58.7017 27.2132 55.7472 27.8193Z" fill="white"/>
<path fill-rule="evenodd" clip-rule="evenodd" d="M102.098 27.9475C99.2398 29.0209 100.655 32.8373 103.472 32.0669C106.175 31.3275 105.03 26.8469 102.098 27.9475Z" fill="white"/>
<path fill-rule="evenodd" clip-rule="evenodd" d="M81.3224 5.13373C77.9633 3.53789 76.2148 6.21727 77.73 8.16189C78.967 9.75076 82.3509 9.30277 81.3224 5.13373Z" fill="white"/>
<path fill-rule="evenodd" clip-rule="evenodd" d="M77.8756 55.0443C79.4095 55.4512 79.5373 55.455 81.0875 55.0636C83.5033 49.6801 75.4939 49.47 77.8756 55.0443Z" fill="white"/>
</svg>
