<svg width="20" height="20" viewBox="0 0 20 20" fill="none" xmlns="http://www.w3.org/2000/svg">
<g clip-path="url(#clip0_721_37226)">
<path d="M0 9.6C0 5.07458 0 2.81167 1.40583 1.40583C2.81167 0 5.075 0 9.6 0H10.4C14.9254 0 17.1883 0 18.5942 1.40583C20 2.81167 20 5.075 20 9.6V10.4C20 14.9254 20 17.1883 18.5942 18.5942C17.1883 20 14.925 20 10.4 20H9.6C5.07458 20 2.81167 20 1.40583 18.5942C0 17.1883 0 14.925 0 10.4V9.6Z" fill="#0A0A0A"/>
<path d="M10.6417 14.4085C6.08333 14.4085 3.48333 11.2835 3.375 6.0835H5.65833C5.73333 9.90016 7.41667 11.5168 8.75 11.8502V6.0835H10.9V9.37516C12.2167 9.2335 13.6 7.7335 14.0667 6.0835H16.2167C15.8583 8.11683 14.3583 9.61683 13.2917 10.2335C14.3583 10.7335 16.0667 12.0418 16.7167 14.4085H14.35C13.8417 12.8252 12.575 11.6002 10.9 11.4335V14.4085H10.6417Z" fill="white"/>
</g>
<defs>
<clipPath id="clip0_721_37226">
<rect width="20" height="20" fill="white"/>
</clipPath>
</defs>
</svg>
