<svg width="52" height="54" viewBox="0 0 52 54" fill="none" xmlns="http://www.w3.org/2000/svg">
<path d="M50 27.2738L39.1908 3L27.8321 27.2738L39.1908 51L50 27.2738Z" stroke="#0AB451" stroke-width="2"/>
<path d="M50 27.2738L39.1908 3L27.8321 27.2738L39.1908 51L50 27.2738Z" stroke="#0AB451" stroke-width="2"/>
<path d="M41.3893 27.2738L30.5802 3L19.2214 27.2738L30.5802 51L41.3893 27.2738Z" stroke="#0AB451" stroke-width="2"/>
<path d="M41.3893 27.2738L30.5802 3L19.2214 27.2738L30.5802 51L41.3893 27.2738Z" stroke="#0AB451" stroke-width="2"/>
<path d="M32.7786 27.2738L21.9695 3L10.6107 27.2738L21.9695 51L32.7786 27.2738Z" stroke="#0AB451" stroke-width="2"/>
<path d="M32.7786 27.2738L21.9695 3L10.6107 27.2738L21.9695 51L32.7786 27.2738Z" stroke="#0AB451" stroke-width="2"/>
<path d="M24.1679 27.2738L13.3588 3L2 27.2738L13.3588 51L24.1679 27.2738Z" stroke="#0AB451" stroke-width="2"/>
<path d="M24.1679 27.2738L13.3588 3L2 27.2738L13.3588 51L24.1679 27.2738Z" stroke="#0AB451" stroke-width="2"/>
</svg>
