<svg width="54" height="52" viewBox="0 0 54 52" fill="none" xmlns="http://www.w3.org/2000/svg">
<path d="M27.2738 2L3 12.8092L27.2738 24.1679L51 12.8092L27.2738 2Z" stroke="#0AB451" stroke-width="2"/>
<path d="M27.2738 2L3 12.8092L27.2738 24.1679L51 12.8092L27.2738 2Z" stroke="#0AB451" stroke-width="2"/>
<path d="M27.2738 10.6107L3 21.4198L27.2738 32.7786L51 21.4198L27.2738 10.6107Z" stroke="#0AB451" stroke-width="2"/>
<path d="M27.2738 10.6107L3 21.4198L27.2738 32.7786L51 21.4198L27.2738 10.6107Z" stroke="#0AB451" stroke-width="2"/>
<path d="M27.2738 19.2214L3 30.0305L27.2738 41.3893L51 30.0305L27.2738 19.2214Z" stroke="#0AB451" stroke-width="2"/>
<path d="M27.2738 19.2214L3 30.0305L27.2738 41.3893L51 30.0305L27.2738 19.2214Z" stroke="#0AB451" stroke-width="2"/>
<path d="M27.2738 27.8321L3 38.6412L27.2738 50L51 38.6412L27.2738 27.8321Z" stroke="#0AB451" stroke-width="2"/>
<path d="M27.2738 27.8321L3 38.6412L27.2738 50L51 38.6412L27.2738 27.8321Z" stroke="#0AB451" stroke-width="2"/>
</svg>
