<svg width="760" height="93" viewBox="0 0 760 93" fill="none" xmlns="http://www.w3.org/2000/svg">
<path d="M246.302 92.0387V0.950652H274.987V92.0387H246.302Z" fill="#0A0A0A"/>
<path d="M299.57 92.0387V0.950652H345.068L379.403 61.4484L413.598 0.950652H458.814V92.0387H430.836L432.25 21.7084L390.425 92.0387H367.535L326.416 21.7084L327.265 92.0387H299.57Z" fill="#0A0A0A"/>
<path d="M543.553 0C570.684 0 579.02 0.273124 585.66 1.36564C600.216 3.96035 607.279 11.1982 609.259 25.8105C609.824 29.4978 610.105 36.8722 610.105 47.9338C610.105 69.9207 607.705 78.7974 599.65 85.2158C593.998 89.859 586.086 92.044 572.379 92.5903C567.292 92.8634 554.718 93 545.532 93C523.065 93 511.62 92.5903 505.97 91.4977C495.513 89.7224 489.438 85.8987 485.905 79.207C482.231 72.5154 481.383 65.8238 481.383 45.8854C481.383 30.5904 481.666 26.7665 483.362 20.6211C486.047 10.9251 491.557 5.73569 502.154 2.73127C510.066 0.546257 518.686 0 543.553 0ZM545.815 22.2598C524.761 22.2598 518.969 22.9428 515.295 25.5375C511.48 28.4052 510.349 32.9118 510.349 46.0221C510.349 59.4054 511.48 64.3215 515.013 67.1894C518.826 70.1938 523.49 70.7401 545.109 70.7401C569.836 70.7401 574.923 69.9207 578.171 65.5507C580.856 62.2731 581.564 57.63 581.564 45.4758C581.564 22.5331 581.139 22.2598 545.815 22.2598Z" fill="#0A0A0A"/>
<path d="M671.547 92.0387L621.245 0.950652H652.895L690.058 69.7788L728.067 0.950652H760L707.861 92.0387H671.547Z" fill="#0A0A0A"/>
<path d="M0 0.95468H104.419V21.5758H28.2597V37.2806H100.039V55.3071H28.2597V71.4215H105.408V92.0427H0V0.95468Z" fill="#0A0A0A"/>
<path d="M126.951 92.0427V0.95468H226.991V21.5758H155.494V39.7388H223.317V60.3599H155.494V92.0427H126.951Z" fill="#0A0A0A"/>
</svg>
