<svg width="135" height="18" viewBox="0 0 135 18" fill="none" xmlns="http://www.w3.org/2000/svg">
<path d="M43.5566 16.9559V0.175781H48.6294V16.9559H43.5566Z" fill="white"/>
<path d="M52.9766 16.9559V0.175781H61.0225L67.0944 11.3206L73.1416 0.175781H81.1375V16.9559H76.19L76.4399 3.99975L69.0436 16.9559H64.9957L57.7241 3.99975L57.8741 16.9559H52.9766Z" fill="white"/>
<path d="M96.1232 0C100.921 0 102.395 0.0503145 103.57 0.251575C106.144 0.72957 107.393 2.06292 107.743 4.75477C107.843 5.43403 107.892 6.79253 107.892 8.83029C107.892 12.8807 107.468 14.5159 106.044 15.6983C105.044 16.5537 103.645 16.9562 101.221 17.0568C100.321 17.1071 98.0976 17.1323 96.4732 17.1323C92.5001 17.1323 90.4761 17.0568 89.4769 16.8556C87.6277 16.5285 86.5533 15.8241 85.9285 14.5914C85.2789 13.3587 85.1289 12.1259 85.1289 8.45294C85.1289 5.63531 85.1789 4.93088 85.4789 3.79879C85.9537 2.01261 86.9281 1.05662 88.8021 0.503149C90.2013 0.100631 91.7256 0 96.1232 0ZM96.5232 4.10067C92.8 4.10067 91.7756 4.22648 91.126 4.70447C90.4513 5.23276 90.2513 6.06296 90.2513 8.47811C90.2513 10.9436 90.4513 11.8492 91.076 12.3775C91.7505 12.931 92.5752 13.0316 96.3984 13.0316C100.771 13.0316 101.671 12.8807 102.245 12.0756C102.72 11.4718 102.845 10.6165 102.845 8.37747C102.845 4.15101 102.77 4.10067 96.5232 4.10067Z" fill="white"/>
<path d="M118.759 16.9559L109.863 0.175781H115.46L122.032 12.8552L128.754 0.175781H134.401L125.181 16.9559H118.759Z" fill="white"/>
<path d="M0 0.175781H18.4658V3.97458H4.99751V6.86768H17.6911V10.1885H4.99751V13.1571H18.6406V16.9559H0V0.175781Z" fill="white"/>
<path d="M22.4492 16.9559V0.175781H40.1404V3.97458H27.4967V7.32053H39.4908V11.1193H27.4967V16.9559H22.4492Z" fill="white"/>
</svg>
