<svg width="360" height="755" viewBox="0 0 360 755" fill="none" xmlns="http://www.w3.org/2000/svg">
<rect x="16.5" y="0.5" width="327" height="139" rx="19.5" stroke="#333333"/>
<path d="M36.039 78.57C35.6423 78.57 35.255 78.5093 34.877 78.388C34.499 78.2667 34.1513 78.0823 33.834 77.835C33.5213 77.5923 33.26 77.2843 33.05 76.911L34.191 76.309C34.3777 76.6777 34.6413 76.946 34.982 77.114C35.3273 77.282 35.682 77.366 36.046 77.366C36.5267 77.366 36.9257 77.2773 37.243 77.1C37.5603 76.9273 37.7937 76.6683 37.943 76.323C38.097 75.9777 38.1717 75.5483 38.167 75.035V72.97H38.314V67.44H39.42V75.049C39.42 75.2543 39.413 75.4527 39.399 75.644C39.3897 75.8353 39.3663 76.0243 39.329 76.211C39.231 76.7477 39.0373 77.1887 38.748 77.534C38.4587 77.884 38.0853 78.143 37.628 78.311C37.1707 78.4837 36.641 78.57 36.039 78.57ZM35.948 75.21C35.2433 75.21 34.639 75.035 34.135 74.685C33.631 74.3303 33.2413 73.852 32.966 73.25C32.6953 72.648 32.56 71.969 32.56 71.213C32.56 70.457 32.6953 69.778 32.966 69.176C33.2413 68.574 33.631 68.1003 34.135 67.755C34.639 67.405 35.241 67.23 35.941 67.23C36.655 67.23 37.2547 67.4027 37.74 67.748C38.2253 68.0933 38.5917 68.567 38.839 69.169C39.091 69.771 39.217 70.4523 39.217 71.213C39.217 71.9643 39.091 72.6433 38.839 73.25C38.5917 73.852 38.2253 74.3303 37.74 74.685C37.2547 75.035 36.6573 75.21 35.948 75.21ZM36.102 74.069C36.6107 74.069 37.0283 73.9477 37.355 73.705C37.6817 73.4577 37.922 73.1193 38.076 72.69C38.2347 72.256 38.314 71.7637 38.314 71.213C38.314 70.653 38.2347 70.1607 38.076 69.736C37.922 69.3067 37.684 68.973 37.362 68.735C37.04 68.4923 36.6317 68.371 36.137 68.371C35.6237 68.371 35.199 68.497 34.863 68.749C34.5317 69.001 34.2843 69.3417 34.121 69.771C33.9623 70.2003 33.883 70.681 33.883 71.213C33.883 71.7497 33.9647 72.235 34.128 72.669C34.2913 73.0983 34.5363 73.439 34.863 73.691C35.1943 73.943 35.6073 74.069 36.102 74.069ZM44.5945 75.21C43.8432 75.21 43.1945 75.0397 42.6485 74.699C42.1072 74.3583 41.6895 73.887 41.3955 73.285C41.1015 72.683 40.9545 71.9923 40.9545 71.213C40.9545 70.4197 41.1039 69.7243 41.4025 69.127C41.7012 68.5297 42.1235 68.0653 42.6695 67.734C43.2155 67.398 43.8572 67.23 44.5945 67.23C45.3505 67.23 46.0015 67.4003 46.5475 67.741C47.0935 68.077 47.5112 68.546 47.8005 69.148C48.0945 69.7453 48.2415 70.4337 48.2415 71.213C48.2415 72.0017 48.0945 72.697 47.8005 73.299C47.5065 73.8963 47.0865 74.3653 46.5405 74.706C45.9945 75.042 45.3459 75.21 44.5945 75.21ZM44.5945 74.027C45.3785 74.027 45.9619 73.7657 46.3445 73.243C46.7272 72.7203 46.9185 72.0437 46.9185 71.213C46.9185 70.359 46.7249 69.68 46.3375 69.176C45.9502 68.6673 45.3692 68.413 44.5945 68.413C44.0672 68.413 43.6332 68.532 43.2925 68.77C42.9519 69.008 42.6975 69.337 42.5295 69.757C42.3615 70.177 42.2775 70.6623 42.2775 71.213C42.2775 72.0623 42.4735 72.7437 42.8655 73.257C43.2575 73.7703 43.8339 74.027 44.5945 74.027ZM54.0037 75C53.5557 75.0887 53.1124 75.1237 52.6737 75.105C52.2397 75.091 51.8524 75.0047 51.5117 74.846C51.1711 74.6827 50.9121 74.4307 50.7347 74.09C50.5854 73.7913 50.5037 73.4903 50.4897 73.187C50.4804 72.879 50.4757 72.5313 50.4757 72.144V65.34H51.7217V72.088C51.7217 72.396 51.7241 72.6597 51.7287 72.879C51.7381 73.0983 51.7871 73.2873 51.8757 73.446C52.0437 73.7447 52.3097 73.9197 52.6737 73.971C53.0424 74.0223 53.4857 74.0083 54.0037 73.929V75ZM48.9427 68.469V67.44H54.0037V68.469H48.9427ZM60.9216 75V71.213C60.9216 70.8537 60.8889 70.5083 60.8236 70.177C60.7629 69.8457 60.6533 69.5493 60.4946 69.288C60.3406 69.022 60.1306 68.812 59.8646 68.658C59.6033 68.504 59.2719 68.427 58.8706 68.427C58.5579 68.427 58.2733 68.4807 58.0166 68.588C57.7646 68.6907 57.5476 68.8493 57.3656 69.064C57.1836 69.2787 57.0413 69.5493 56.9386 69.876C56.8406 70.198 56.7916 70.5783 56.7916 71.017L55.9726 70.765C55.9726 70.0323 56.1033 69.4047 56.3646 68.882C56.6306 68.3547 57.0016 67.951 57.4776 67.671C57.9583 67.3863 58.5229 67.244 59.1716 67.244C59.6616 67.244 60.0793 67.321 60.4246 67.475C60.7699 67.629 61.0569 67.8343 61.2856 68.091C61.5143 68.343 61.6939 68.6277 61.8246 68.945C61.9553 69.2577 62.0463 69.5773 62.0976 69.904C62.1536 70.226 62.1816 70.5317 62.1816 70.821V75H60.9216ZM55.5316 75V64.92H56.6516V70.485H56.7916V75H55.5316ZM64.1415 66.103V64.815H65.3875V66.103H64.1415ZM64.1415 75V67.44H65.3875V75H64.1415ZM70.6728 75.21C69.9075 75.21 69.2565 75.0397 68.7198 74.699C68.1878 74.3537 67.7818 73.88 67.5018 73.278C67.2218 72.676 67.0771 71.99 67.0678 71.22C67.0771 70.4313 67.2241 69.7383 67.5088 69.141C67.7981 68.539 68.2111 68.07 68.7478 67.734C69.2845 67.398 69.9308 67.23 70.6868 67.23C71.4848 67.23 72.1708 67.426 72.7448 67.818C73.3235 68.21 73.7108 68.7467 73.9068 69.428L72.6748 69.799C72.5161 69.3603 72.2571 69.0197 71.8978 68.777C71.5431 68.5343 71.1348 68.413 70.6728 68.413C70.1548 68.413 69.7278 68.5343 69.3918 68.777C69.0558 69.015 68.8061 69.3463 68.6428 69.771C68.4795 70.191 68.3955 70.674 68.3908 71.22C68.4001 72.06 68.5938 72.739 68.9718 73.257C69.3545 73.7703 69.9215 74.027 70.6728 74.027C71.1675 74.027 71.5781 73.915 71.9048 73.691C72.2315 73.4623 72.4788 73.1333 72.6468 72.704L73.9068 73.033C73.6455 73.7377 73.2371 74.2767 72.6818 74.65C72.1265 75.0233 71.4568 75.21 70.6728 75.21ZM78.1382 75V64.92H79.3982L84.6552 72.795V64.92H85.9152V75H84.6552L79.3982 67.118V75H78.1382ZM89.5482 69.75C89.0862 69.75 88.6639 69.638 88.2812 69.414C87.8985 69.1853 87.5929 68.882 87.3642 68.504C87.1402 68.1213 87.0282 67.6967 87.0282 67.23C87.0282 66.7727 87.1449 66.3527 87.3782 65.97C87.6115 65.5873 87.9195 65.2817 88.3022 65.053C88.6849 64.8243 89.1002 64.71 89.5482 64.71C90.0102 64.71 90.4302 64.8243 90.8082 65.053C91.1909 65.277 91.4965 65.5803 91.7252 65.963C91.9539 66.341 92.0682 66.7633 92.0682 67.23C92.0682 67.6967 91.9539 68.1213 91.7252 68.504C91.4965 68.882 91.1909 69.1853 90.8082 69.414C90.4302 69.638 90.0102 69.75 89.5482 69.75ZM89.5482 68.651C89.8049 68.651 90.0405 68.5857 90.2552 68.455C90.4745 68.3243 90.6472 68.1517 90.7732 67.937C90.9039 67.7223 90.9692 67.4867 90.9692 67.23C90.9692 66.9733 90.9039 66.7377 90.7732 66.523C90.6472 66.3037 90.4745 66.131 90.2552 66.005C90.0405 65.8743 89.8049 65.809 89.5482 65.809C89.2915 65.809 89.0559 65.8743 88.8412 66.005C88.6265 66.131 88.4539 66.3037 88.3232 66.523C88.1925 66.7377 88.1272 66.9733 88.1272 67.23C88.1272 67.4867 88.1925 67.7223 88.3232 67.937C88.4539 68.1517 88.6265 68.3243 88.8412 68.455C89.0559 68.5857 89.2915 68.651 89.5482 68.651ZM87.4482 71.367V70.338H91.6482V71.367H87.4482ZM97.1885 75.21C96.5492 75.21 95.9682 75.056 95.4455 74.748C94.9275 74.44 94.5145 74.02 94.2065 73.488C93.9032 72.9513 93.7515 72.347 93.7515 71.675V68.322C93.7515 67.6173 93.9032 66.9943 94.2065 66.453C94.5145 65.907 94.9345 65.4823 95.4665 65.179C96.0032 64.871 96.6145 64.717 97.3005 64.717C97.8558 64.717 98.3715 64.8313 98.8475 65.06C99.3282 65.284 99.7318 65.6083 100.058 66.033L99.1275 66.859C98.9268 66.565 98.6655 66.3317 98.3435 66.159C98.0215 65.9863 97.6738 65.9 97.3005 65.9C96.8572 65.9 96.4628 66.0073 96.1175 66.222C95.7768 66.432 95.5085 66.712 95.3125 67.062C95.1165 67.4073 95.0185 67.7807 95.0185 68.182V70.205L94.7455 69.897C95.0395 69.477 95.4128 69.141 95.8655 68.889C96.3182 68.637 96.8082 68.511 97.3355 68.511C97.9608 68.511 98.5208 68.658 99.0155 68.952C99.5148 69.246 99.9068 69.645 100.191 70.149C100.481 70.6483 100.625 71.2107 100.625 71.836C100.625 72.4613 100.469 73.0283 100.156 73.537C99.8438 74.0457 99.4262 74.4517 98.9035 74.755C98.3855 75.0583 97.8138 75.21 97.1885 75.21ZM97.1885 74.006C97.5898 74.006 97.9562 73.9103 98.2875 73.719C98.6188 73.523 98.8802 73.2617 99.0715 72.935C99.2675 72.6037 99.3655 72.2373 99.3655 71.836C99.3655 71.4347 99.2675 71.0683 99.0715 70.737C98.8802 70.4057 98.6188 70.1443 98.2875 69.953C97.9608 69.757 97.5968 69.659 97.1955 69.659C96.7942 69.659 96.4278 69.757 96.0965 69.953C95.7698 70.1443 95.5085 70.4057 95.3125 70.737C95.1165 71.0683 95.0185 71.4347 95.0185 71.836C95.0185 72.2327 95.1142 72.5967 95.3055 72.928C95.5015 73.2547 95.7628 73.516 96.0895 73.712C96.4208 73.908 96.7872 74.006 97.1885 74.006ZM105.849 75.21C105.195 75.21 104.612 75.063 104.099 74.769C103.59 74.4703 103.186 74.0667 102.888 73.558C102.594 73.0447 102.447 72.4613 102.447 71.808V68.112C102.447 67.4587 102.594 66.8753 102.888 66.362C103.186 65.8487 103.59 65.445 104.099 65.151C104.612 64.857 105.195 64.71 105.849 64.71C106.502 64.71 107.085 64.857 107.599 65.151C108.112 65.445 108.516 65.8487 108.81 66.362C109.104 66.8753 109.251 67.4587 109.251 68.112V71.808C109.251 72.4613 109.104 73.0447 108.81 73.558C108.516 74.0667 108.112 74.4703 107.599 74.769C107.085 75.063 106.502 75.21 105.849 75.21ZM105.849 74.013C106.245 74.013 106.605 73.9173 106.927 73.726C107.249 73.5347 107.505 73.278 107.697 72.956C107.888 72.6293 107.984 72.27 107.984 71.878V68.035C107.984 67.6383 107.888 67.279 107.697 66.957C107.505 66.635 107.249 66.3783 106.927 66.187C106.605 65.9957 106.245 65.9 105.849 65.9C105.457 65.9 105.097 65.9957 104.771 66.187C104.449 66.3783 104.192 66.635 104.001 66.957C103.809 67.279 103.714 67.6383 103.714 68.035V71.878C103.714 72.27 103.809 72.6293 104.001 72.956C104.192 73.278 104.449 73.5347 104.771 73.726C105.097 73.9173 105.457 74.013 105.849 74.013Z" fill="white"/>
<path d="M155 115.551L190.253 24.5793H203.166L239.839 115.551H227.959L218.791 92.5479H175.661L166.751 115.551H155ZM179.922 81.5014H214.401L196.839 37.4453L179.922 81.5014Z" fill="white"/>
<path d="M303.982 115.551L302.69 97.0964V79.6819V79.0322L302.819 96.8365L302.69 97.0964C296.75 109.053 279.705 117.5 266.275 117.5C252.458 117.5 238.512 108.533 238.512 92.028C238.512 80.2018 246.776 69.4152 260.206 64.4767C272.086 60.1881 291.327 57.5889 302.561 57.5889L302.69 65.9063H302.561V56.9391C302.561 51.091 302.174 32.8967 276.993 32.8967C255.17 32.8967 251.683 48.8817 249.875 56.8092L238.641 54.3399C240.061 45.5027 247.293 22.5 277.51 22.5C302.819 22.5 314.183 38.355 314.183 59.7982V97.0964C314.183 102.945 314.183 105.414 321.931 105.414L328 105.544V115.551H303.982ZM250.392 92.288C250.392 98.656 253.491 106.324 266.275 106.324C284.095 106.324 301.27 91.7681 302.69 79.6819L302.561 65.9063C295.846 66.2962 274.927 70.4549 263.434 74.7435C252.975 78.6423 250.392 86.5698 250.392 92.288Z" fill="white"/>
<rect x="16.5" y="140.5" width="327" height="224" rx="19.5" stroke="#333333"/>
<g clip-path="url(#clip0_2558_49349)">
<path d="M51.2417 276.5V268.94H52.3547V270.767L52.1727 270.529C52.2614 270.296 52.3757 270.081 52.5157 269.885C52.6604 269.689 52.8214 269.528 52.9987 269.402C53.1947 269.243 53.4164 269.122 53.6637 269.038C53.9111 268.954 54.1631 268.905 54.4197 268.891C54.6764 268.872 54.9167 268.889 55.1407 268.94V270.109C54.8794 270.039 54.5924 270.02 54.2797 270.053C53.9671 270.086 53.6777 270.2 53.4117 270.396C53.1691 270.569 52.9801 270.779 52.8447 271.026C52.7141 271.273 52.6231 271.542 52.5717 271.831C52.5204 272.116 52.4947 272.407 52.4947 272.706V276.5H51.2417ZM59.2499 280.07C58.8533 280.07 58.4659 280.009 58.0879 279.888C57.7099 279.767 57.3623 279.582 57.0449 279.335C56.7323 279.092 56.4709 278.784 56.2609 278.411L57.4019 277.809C57.5886 278.178 57.8523 278.446 58.1929 278.614C58.5383 278.782 58.8929 278.866 59.2569 278.866C59.7376 278.866 60.1366 278.777 60.4539 278.6C60.7713 278.427 61.0046 278.168 61.1539 277.823C61.3079 277.478 61.3826 277.048 61.3779 276.535V274.47H61.5249V268.94H62.6309V276.549C62.6309 276.754 62.6239 276.953 62.6099 277.144C62.6006 277.335 62.5773 277.524 62.5399 277.711C62.4419 278.248 62.2483 278.689 61.9589 279.034C61.6696 279.384 61.2963 279.643 60.8389 279.811C60.3816 279.984 59.8519 280.07 59.2499 280.07ZM59.1589 276.71C58.4543 276.71 57.8499 276.535 57.3459 276.185C56.8419 275.83 56.4523 275.352 56.1769 274.75C55.9063 274.148 55.7709 273.469 55.7709 272.713C55.7709 271.957 55.9063 271.278 56.1769 270.676C56.4523 270.074 56.8419 269.6 57.3459 269.255C57.8499 268.905 58.4519 268.73 59.1519 268.73C59.8659 268.73 60.4656 268.903 60.9509 269.248C61.4363 269.593 61.8026 270.067 62.0499 270.669C62.3019 271.271 62.4279 271.952 62.4279 272.713C62.4279 273.464 62.3019 274.143 62.0499 274.75C61.8026 275.352 61.4363 275.83 60.9509 276.185C60.4656 276.535 59.8683 276.71 59.1589 276.71ZM59.3129 275.569C59.8216 275.569 60.2393 275.448 60.5659 275.205C60.8926 274.958 61.1329 274.619 61.2869 274.19C61.4456 273.756 61.5249 273.264 61.5249 272.713C61.5249 272.153 61.4456 271.661 61.2869 271.236C61.1329 270.807 60.8949 270.473 60.5729 270.235C60.2509 269.992 59.8426 269.871 59.3479 269.871C58.8346 269.871 58.4099 269.997 58.0739 270.249C57.7426 270.501 57.4953 270.842 57.3319 271.271C57.1733 271.7 57.0939 272.181 57.0939 272.713C57.0939 273.25 57.1756 273.735 57.3389 274.169C57.5023 274.598 57.7473 274.939 58.0739 275.191C58.4053 275.443 58.8183 275.569 59.3129 275.569ZM68.0575 276.71C67.3481 276.71 66.7508 276.535 66.2655 276.185C65.7801 275.83 65.4115 275.352 65.1595 274.75C64.9121 274.143 64.7885 273.464 64.7885 272.713C64.7885 271.952 64.9121 271.271 65.1595 270.669C65.4115 270.067 65.7801 269.593 66.2655 269.248C66.7555 268.903 67.3551 268.73 68.0645 268.73C68.7645 268.73 69.3665 268.905 69.8705 269.255C70.3791 269.6 70.7688 270.074 71.0395 270.676C71.3101 271.278 71.4455 271.957 71.4455 272.713C71.4455 273.469 71.3101 274.148 71.0395 274.75C70.7688 275.352 70.3791 275.83 69.8705 276.185C69.3665 276.535 68.7621 276.71 68.0575 276.71ZM64.5785 276.5V266.42H65.8315V270.935H65.6915V276.5H64.5785ZM67.9035 275.569C68.4028 275.569 68.8158 275.443 69.1425 275.191C69.4691 274.939 69.7141 274.598 69.8775 274.169C70.0408 273.735 70.1225 273.25 70.1225 272.713C70.1225 272.181 70.0408 271.7 69.8775 271.271C69.7188 270.842 69.4715 270.501 69.1355 270.249C68.8041 269.997 68.3818 269.871 67.8685 269.871C67.3785 269.871 66.9725 269.992 66.6505 270.235C66.3285 270.473 66.0881 270.807 65.9295 271.236C65.7708 271.661 65.6915 272.153 65.6915 272.713C65.6915 273.264 65.7685 273.756 65.9225 274.19C66.0811 274.619 66.3238 274.958 66.6505 275.205C66.9771 275.448 67.3948 275.569 67.9035 275.569Z" fill="white"/>
<path d="M41.8076 302.71C41.0422 302.71 40.3912 302.54 39.8546 302.199C39.3226 301.854 38.9166 301.38 38.6366 300.778C38.3566 300.176 38.2119 299.49 38.2026 298.72C38.2119 297.931 38.3589 297.238 38.6436 296.641C38.9329 296.039 39.3459 295.57 39.8826 295.234C40.4192 294.898 41.0656 294.73 41.8216 294.73C42.6196 294.73 43.3056 294.926 43.8796 295.318C44.4582 295.71 44.8456 296.247 45.0416 296.928L43.8096 297.299C43.6509 296.86 43.3919 296.52 43.0326 296.277C42.6779 296.034 42.2696 295.913 41.8076 295.913C41.2896 295.913 40.8626 296.034 40.5266 296.277C40.1906 296.515 39.9409 296.846 39.7776 297.271C39.6142 297.691 39.5302 298.174 39.5256 298.72C39.5349 299.56 39.7286 300.239 40.1066 300.757C40.4892 301.27 41.0562 301.527 41.8076 301.527C42.3022 301.527 42.7129 301.415 43.0396 301.191C43.3662 300.962 43.6136 300.633 43.7816 300.204L45.0416 300.533C44.7802 301.238 44.3719 301.777 43.8166 302.15C43.2612 302.523 42.5916 302.71 41.8076 302.71ZM55.5072 302.5L55.5142 297.663C55.5142 297.098 55.3626 296.657 55.0592 296.34C54.7606 296.018 54.3709 295.857 53.8902 295.857C53.6102 295.857 53.3442 295.922 53.0922 296.053C52.8402 296.179 52.6349 296.38 52.4762 296.655C52.3176 296.926 52.2382 297.273 52.2382 297.698L51.5802 297.432C51.5709 296.895 51.6806 296.426 51.9092 296.025C52.1426 295.619 52.4599 295.304 52.8612 295.08C53.2626 294.856 53.7152 294.744 54.2192 294.744C55.0079 294.744 55.6286 294.984 56.0812 295.465C56.5339 295.941 56.7602 296.583 56.7602 297.39L56.7532 302.5H55.5072ZM46.4632 302.5V294.94H47.5762V296.963H47.7162V302.5H46.4632ZM50.9922 302.5L50.9992 297.712C50.9992 297.133 50.8499 296.681 50.5512 296.354C50.2526 296.023 49.8559 295.857 49.3612 295.857C48.8712 295.857 48.4746 296.025 48.1712 296.361C47.8679 296.697 47.7162 297.143 47.7162 297.698L47.0582 297.306C47.0582 296.816 47.1749 296.377 47.4082 295.99C47.6416 295.603 47.9589 295.299 48.3602 295.08C48.7616 294.856 49.2166 294.744 49.7252 294.744C50.2339 294.744 50.6772 294.851 51.0552 295.066C51.4332 295.281 51.7249 295.589 51.9302 295.99C52.1356 296.387 52.2382 296.86 52.2382 297.411L52.2312 302.5H50.9922ZM59.3601 305.86L60.8231 301.884L60.8441 303.06L57.5401 294.94H58.8491L61.4391 301.471H60.9911L63.4201 294.94H64.6871L60.5711 305.86H59.3601ZM65.8363 302.5L65.8433 292.42H67.1033V298.58L70.2743 294.94H71.8913L68.5523 298.72L72.2833 302.5H70.5403L67.1033 298.86V302.5H65.8363Z" fill="white"/>
<path d="M54.3962 328.5V324.713C54.3962 324.354 54.3635 324.008 54.2982 323.677C54.2375 323.346 54.1279 323.049 53.9692 322.788C53.8152 322.522 53.6052 322.312 53.3392 322.158C53.0779 322.004 52.7465 321.927 52.3452 321.927C52.0325 321.927 51.7479 321.981 51.4912 322.088C51.2392 322.191 51.0222 322.349 50.8402 322.564C50.6582 322.779 50.5159 323.049 50.4132 323.376C50.3152 323.698 50.2662 324.078 50.2662 324.517L49.4472 324.265C49.4472 323.532 49.5779 322.905 49.8392 322.382C50.1052 321.855 50.4762 321.451 50.9522 321.171C51.4329 320.886 51.9975 320.744 52.6462 320.744C53.1362 320.744 53.5539 320.821 53.8992 320.975C54.2445 321.129 54.5315 321.334 54.7602 321.591C54.9889 321.843 55.1685 322.128 55.2992 322.445C55.4299 322.758 55.5209 323.077 55.5722 323.404C55.6282 323.726 55.6562 324.032 55.6562 324.321V328.5H54.3962ZM49.0062 328.5V318.42H50.1262V323.985H50.2662V328.5H49.0062ZM60.7521 328.71C60.0101 328.71 59.3614 328.547 58.8061 328.22C58.2554 327.889 57.8261 327.429 57.5181 326.841C57.2101 326.248 57.0561 325.558 57.0561 324.769C57.0561 323.943 57.2078 323.229 57.5111 322.627C57.8144 322.02 58.2368 321.554 58.7781 321.227C59.3241 320.896 59.9634 320.73 60.6961 320.73C61.4568 320.73 62.1031 320.905 62.6351 321.255C63.1718 321.605 63.5731 322.104 63.8391 322.753C64.1098 323.402 64.2264 324.174 64.1891 325.07H62.9291V324.622C62.9151 323.693 62.7261 323 62.3621 322.543C61.9981 322.081 61.4568 321.85 60.7381 321.85C59.9681 321.85 59.3824 322.097 58.9811 322.592C58.5798 323.087 58.3791 323.796 58.3791 324.72C58.3791 325.611 58.5798 326.302 58.9811 326.792C59.3824 327.282 59.9541 327.527 60.6961 327.527C61.1954 327.527 61.6294 327.413 61.9981 327.184C62.3668 326.955 62.6561 326.626 62.8661 326.197L64.0631 326.61C63.7691 327.277 63.3258 327.795 62.7331 328.164C62.1451 328.528 61.4848 328.71 60.7521 328.71ZM57.9591 325.07V324.069H63.5451V325.07H57.9591ZM64.6341 328.5L67.5251 324.678L64.6971 320.94H66.1811L68.2531 323.712L70.3041 320.94H71.7881L68.9601 324.678L71.8581 328.5H70.3671L68.2531 325.644L66.1251 328.5H64.6341Z" fill="white"/>
</g>
<g clip-path="url(#clip1_2558_49349)">
<rect x="80" y="172.5" width="120" height="82" rx="8" fill="#0D3062"/>
<path d="M82.737 276.5V267.799L80.84 268.947V267.554L82.737 266.42H84.004V276.5H82.737ZM89.4325 276.696C88.9332 276.696 88.4688 276.605 88.0395 276.423C87.6102 276.236 87.2392 275.975 86.9265 275.639C86.6185 275.298 86.3922 274.895 86.2475 274.428L87.4445 274.085C87.5985 274.552 87.8552 274.906 88.2145 275.149C88.5738 275.392 88.9775 275.511 89.4255 275.506C89.8362 275.497 90.1908 275.403 90.4895 275.226C90.7928 275.044 91.0262 274.797 91.1895 274.484C91.3575 274.171 91.4415 273.81 91.4415 273.399C91.4415 272.774 91.2548 272.267 90.8815 271.88C90.5082 271.488 90.0182 271.292 89.4115 271.292C89.2435 271.292 89.0662 271.315 88.8795 271.362C88.6975 271.409 88.5272 271.474 88.3685 271.558L87.7665 270.571L91.5045 267.19L91.6655 267.61H86.6465V266.42H92.5895V267.617L89.4045 270.669L89.3905 270.228C90.0578 270.181 90.6412 270.291 91.1405 270.557C91.6398 270.823 92.0272 271.203 92.3025 271.698C92.5825 272.193 92.7225 272.76 92.7225 273.399C92.7225 274.043 92.5778 274.612 92.2885 275.107C91.9992 275.602 91.6072 275.991 91.1125 276.276C90.6178 276.556 90.0578 276.696 89.4325 276.696ZM101.699 276.5V274.645H97.0652V273.462L100.39 266.42H101.804L98.4792 273.462H101.699V270.627H102.959V273.462H104.009V274.645H102.959V276.5H101.699ZM108.835 276.71C108.191 276.71 107.622 276.582 107.127 276.325C106.632 276.064 106.245 275.702 105.965 275.24C105.685 274.778 105.545 274.239 105.545 273.623C105.545 273.021 105.687 272.477 105.972 271.992C106.261 271.507 106.695 271.133 107.274 270.872L107.253 271.327C106.782 271.098 106.42 270.776 106.168 270.361C105.916 269.941 105.79 269.477 105.79 268.968C105.79 268.399 105.921 267.909 106.182 267.498C106.443 267.087 106.803 266.77 107.26 266.546C107.717 266.322 108.242 266.21 108.835 266.21C109.428 266.21 109.953 266.322 110.41 266.546C110.867 266.77 111.227 267.087 111.488 267.498C111.749 267.909 111.88 268.399 111.88 268.968C111.88 269.477 111.761 269.939 111.523 270.354C111.285 270.765 110.919 271.089 110.424 271.327L110.396 270.879C110.975 271.131 111.409 271.502 111.698 271.992C111.992 272.477 112.139 273.021 112.139 273.623C112.139 274.239 111.997 274.778 111.712 275.24C111.432 275.702 111.042 276.064 110.543 276.325C110.048 276.582 109.479 276.71 108.835 276.71ZM108.835 275.52C109.423 275.52 109.899 275.359 110.263 275.037C110.632 274.71 110.816 274.239 110.816 273.623C110.816 273.002 110.634 272.531 110.27 272.209C109.911 271.882 109.432 271.719 108.835 271.719C108.242 271.719 107.764 271.882 107.4 272.209C107.041 272.531 106.861 273.002 106.861 273.623C106.861 274.239 107.043 274.71 107.407 275.037C107.771 275.359 108.247 275.52 108.835 275.52ZM108.835 270.522C109.348 270.522 109.764 270.394 110.081 270.137C110.398 269.876 110.557 269.486 110.557 268.968C110.557 268.45 110.398 268.063 110.081 267.806C109.764 267.545 109.348 267.414 108.835 267.414C108.326 267.414 107.911 267.545 107.589 267.806C107.272 268.063 107.113 268.45 107.113 268.968C107.113 269.486 107.272 269.876 107.589 270.137C107.911 270.394 108.326 270.522 108.835 270.522ZM120.056 266.217C120.7 266.217 121.281 266.371 121.799 266.679C122.317 266.987 122.728 267.407 123.031 267.939C123.339 268.471 123.493 269.075 123.493 269.752V273.105C123.493 273.81 123.342 274.433 123.038 274.974C122.735 275.515 122.315 275.94 121.778 276.248C121.246 276.556 120.635 276.71 119.944 276.71C119.394 276.71 118.878 276.596 118.397 276.367C117.921 276.138 117.518 275.814 117.186 275.394L118.117 274.568C118.323 274.857 118.586 275.091 118.908 275.268C119.23 275.441 119.576 275.527 119.944 275.527C120.392 275.527 120.787 275.42 121.127 275.205C121.473 274.99 121.741 274.71 121.932 274.365C122.128 274.02 122.226 273.646 122.226 273.245V271.222L122.499 271.53C122.21 271.95 121.839 272.286 121.386 272.538C120.934 272.79 120.441 272.916 119.909 272.916C119.284 272.916 118.724 272.769 118.229 272.475C117.735 272.181 117.343 271.784 117.053 271.285C116.764 270.781 116.619 270.216 116.619 269.591C116.619 268.966 116.776 268.399 117.088 267.89C117.401 267.377 117.816 266.971 118.334 266.672C118.857 266.369 119.431 266.217 120.056 266.217ZM120.056 267.421C119.655 267.421 119.289 267.519 118.957 267.715C118.631 267.906 118.369 268.168 118.173 268.499C117.977 268.826 117.879 269.19 117.879 269.591C117.879 269.992 117.975 270.359 118.166 270.69C118.362 271.017 118.624 271.278 118.95 271.474C119.282 271.67 119.648 271.768 120.049 271.768C120.451 271.768 120.817 271.67 121.148 271.474C121.48 271.278 121.741 271.017 121.932 270.69C122.128 270.359 122.226 269.992 122.226 269.591C122.226 269.194 122.128 268.833 121.932 268.506C121.741 268.175 121.48 267.911 121.148 267.715C120.822 267.519 120.458 267.421 120.056 267.421ZM128.605 276.71C127.961 276.71 127.391 276.582 126.897 276.325C126.402 276.064 126.015 275.702 125.735 275.24C125.455 274.778 125.315 274.239 125.315 273.623C125.315 273.021 125.457 272.477 125.742 271.992C126.031 271.507 126.465 271.133 127.044 270.872L127.023 271.327C126.551 271.098 126.19 270.776 125.938 270.361C125.686 269.941 125.56 269.477 125.56 268.968C125.56 268.399 125.69 267.909 125.952 267.498C126.213 267.087 126.572 266.77 127.03 266.546C127.487 266.322 128.012 266.21 128.605 266.21C129.197 266.21 129.722 266.322 130.18 266.546C130.637 266.77 130.996 267.087 131.258 267.498C131.519 267.909 131.65 268.399 131.65 268.968C131.65 269.477 131.531 269.939 131.293 270.354C131.055 270.765 130.688 271.089 130.194 271.327L130.166 270.879C130.744 271.131 131.178 271.502 131.468 271.992C131.762 272.477 131.909 273.021 131.909 273.623C131.909 274.239 131.766 274.778 131.482 275.24C131.202 275.702 130.812 276.064 130.313 276.325C129.818 276.582 129.249 276.71 128.605 276.71ZM128.605 275.52C129.193 275.52 129.669 275.359 130.033 275.037C130.401 274.71 130.586 274.239 130.586 273.623C130.586 273.002 130.404 272.531 130.04 272.209C129.68 271.882 129.202 271.719 128.605 271.719C128.012 271.719 127.534 271.882 127.17 272.209C126.81 272.531 126.631 273.002 126.631 273.623C126.631 274.239 126.813 274.71 127.177 275.037C127.541 275.359 128.017 275.52 128.605 275.52ZM128.605 270.522C129.118 270.522 129.533 270.394 129.851 270.137C130.168 269.876 130.327 269.486 130.327 268.968C130.327 268.45 130.168 268.063 129.851 267.806C129.533 267.545 129.118 267.414 128.605 267.414C128.096 267.414 127.681 267.545 127.359 267.806C127.041 268.063 126.883 268.45 126.883 268.968C126.883 269.486 127.041 269.876 127.359 270.137C127.681 270.394 128.096 270.522 128.605 270.522Z" fill="#999999"/>
<path d="M84.13 302.71C83.486 302.71 82.9167 302.582 82.422 302.325C81.9273 302.064 81.54 301.702 81.26 301.24C80.98 300.778 80.84 300.239 80.84 299.623C80.84 299.021 80.9823 298.477 81.267 297.992C81.5563 297.507 81.9903 297.133 82.569 296.872L82.548 297.327C82.0767 297.098 81.715 296.776 81.463 296.361C81.211 295.941 81.085 295.477 81.085 294.968C81.085 294.399 81.2157 293.909 81.477 293.498C81.7383 293.087 82.0977 292.77 82.555 292.546C83.0123 292.322 83.5373 292.21 84.13 292.21C84.7227 292.21 85.2477 292.322 85.705 292.546C86.1623 292.77 86.5217 293.087 86.783 293.498C87.0443 293.909 87.175 294.399 87.175 294.968C87.175 295.477 87.056 295.939 86.818 296.354C86.58 296.765 86.2137 297.089 85.719 297.327L85.691 296.879C86.2697 297.131 86.7037 297.502 86.993 297.992C87.287 298.477 87.434 299.021 87.434 299.623C87.434 300.239 87.2917 300.778 87.007 301.24C86.727 301.702 86.3373 302.064 85.838 302.325C85.3433 302.582 84.774 302.71 84.13 302.71ZM84.13 301.52C84.718 301.52 85.194 301.359 85.558 301.037C85.9267 300.71 86.111 300.239 86.111 299.623C86.111 299.002 85.929 298.531 85.565 298.209C85.2057 297.882 84.7273 297.719 84.13 297.719C83.5373 297.719 83.059 297.882 82.695 298.209C82.3357 298.531 82.156 299.002 82.156 299.623C82.156 300.239 82.338 300.71 82.702 301.037C83.066 301.359 83.542 301.52 84.13 301.52ZM84.13 296.522C84.6433 296.522 85.0587 296.394 85.376 296.137C85.6933 295.876 85.852 295.486 85.852 294.968C85.852 294.45 85.6933 294.063 85.376 293.806C85.0587 293.545 84.6433 293.414 84.13 293.414C83.6213 293.414 83.206 293.545 82.884 293.806C82.5667 294.063 82.408 294.45 82.408 294.968C82.408 295.486 82.5667 295.876 82.884 296.137C83.206 296.394 83.6213 296.522 84.13 296.522ZM89.7835 302.5L93.4095 293.617H88.8315V292.42H94.7465V293.617L91.1275 302.5H89.7835ZM97.5492 302.5L96.7092 301.66L105.963 292.42L106.803 293.26L97.5492 302.5ZM104.703 302.71C104.241 302.71 103.819 302.598 103.436 302.374C103.058 302.145 102.755 301.842 102.526 301.464C102.298 301.081 102.183 300.657 102.183 300.19C102.183 299.733 102.3 299.313 102.533 298.93C102.767 298.547 103.075 298.242 103.457 298.013C103.84 297.784 104.255 297.67 104.703 297.67C105.165 297.67 105.588 297.784 105.97 298.013C106.353 298.237 106.656 298.54 106.88 298.923C107.109 299.301 107.223 299.723 107.223 300.19C107.223 300.657 107.109 301.081 106.88 301.464C106.656 301.842 106.353 302.145 105.97 302.374C105.588 302.598 105.165 302.71 104.703 302.71ZM104.703 301.611C104.96 301.611 105.196 301.546 105.41 301.415C105.63 301.284 105.802 301.112 105.928 300.897C106.059 300.682 106.124 300.447 106.124 300.19C106.124 299.933 106.059 299.698 105.928 299.483C105.802 299.264 105.63 299.091 105.41 298.965C105.196 298.834 104.96 298.769 104.703 298.769C104.447 298.769 104.211 298.834 103.996 298.965C103.782 299.091 103.609 299.264 103.478 299.483C103.348 299.698 103.282 299.933 103.282 300.19C103.282 300.447 103.348 300.682 103.478 300.897C103.609 301.112 103.782 301.284 103.996 301.415C104.211 301.546 104.447 301.611 104.703 301.611ZM98.8092 297.25C98.3472 297.25 97.9249 297.138 97.5422 296.914C97.1596 296.685 96.8539 296.382 96.6252 296.004C96.4012 295.621 96.2892 295.197 96.2892 294.73C96.2892 294.273 96.4059 293.853 96.6392 293.47C96.8726 293.087 97.1806 292.782 97.5632 292.553C97.9459 292.324 98.3612 292.21 98.8092 292.21C99.2712 292.21 99.6912 292.324 100.069 292.553C100.452 292.777 100.758 293.08 100.986 293.463C101.215 293.841 101.329 294.263 101.329 294.73C101.329 295.197 101.215 295.621 100.986 296.004C100.758 296.382 100.452 296.685 100.069 296.914C99.6912 297.138 99.2712 297.25 98.8092 297.25ZM98.8092 296.151C99.0659 296.151 99.3016 296.086 99.5162 295.955C99.7356 295.824 99.9082 295.652 100.034 295.437C100.165 295.222 100.23 294.987 100.23 294.73C100.23 294.473 100.165 294.238 100.034 294.023C99.9082 293.804 99.7356 293.631 99.5162 293.505C99.3016 293.374 99.0659 293.309 98.8092 293.309C98.5526 293.309 98.3169 293.374 98.1022 293.505C97.8876 293.631 97.7149 293.804 97.5842 294.023C97.4536 294.238 97.3882 294.473 97.3882 294.73C97.3882 294.987 97.4536 295.222 97.5842 295.437C97.7149 295.652 97.8876 295.824 98.1022 295.955C98.3169 296.086 98.5526 296.151 98.8092 296.151ZM114.833 302.71C114.315 302.71 113.832 302.603 113.384 302.388C112.941 302.173 112.56 301.879 112.243 301.506C111.93 301.128 111.706 300.694 111.571 300.204L112.768 299.882C112.852 300.213 113.001 300.5 113.216 300.743C113.431 300.981 113.68 301.168 113.965 301.303C114.254 301.434 114.555 301.499 114.868 301.499C115.279 301.499 115.647 301.401 115.974 301.205C116.305 301.004 116.567 300.741 116.758 300.414C116.949 300.083 117.045 299.721 117.045 299.329C117.045 298.923 116.945 298.557 116.744 298.23C116.548 297.899 116.284 297.637 115.953 297.446C115.622 297.255 115.26 297.159 114.868 297.159C114.425 297.159 114.044 297.252 113.727 297.439C113.414 297.621 113.167 297.845 112.985 298.111L111.879 297.691L112.187 292.42H117.598V293.603H112.789L113.342 293.085L113.083 297.306L112.81 296.949C113.09 296.65 113.424 296.419 113.811 296.256C114.203 296.093 114.602 296.011 115.008 296.011C115.633 296.011 116.193 296.158 116.688 296.452C117.183 296.741 117.575 297.138 117.864 297.642C118.153 298.141 118.298 298.704 118.298 299.329C118.298 299.95 118.139 300.517 117.822 301.03C117.505 301.539 117.082 301.947 116.555 302.255C116.032 302.558 115.458 302.71 114.833 302.71ZM121.729 302.5V293.799L119.832 294.947V293.554L121.729 292.42H122.996V302.5H121.729ZM126.78 302.5L125.94 301.66L135.194 292.42L136.034 293.26L126.78 302.5ZM133.934 302.71C133.472 302.71 133.049 302.598 132.667 302.374C132.289 302.145 131.985 301.842 131.757 301.464C131.528 301.081 131.414 300.657 131.414 300.19C131.414 299.733 131.53 299.313 131.764 298.93C131.997 298.547 132.305 298.242 132.688 298.013C133.07 297.784 133.486 297.67 133.934 297.67C134.396 297.67 134.818 297.784 135.201 298.013C135.583 298.237 135.887 298.54 136.111 298.923C136.339 299.301 136.454 299.723 136.454 300.19C136.454 300.657 136.339 301.081 136.111 301.464C135.887 301.842 135.583 302.145 135.201 302.374C134.818 302.598 134.396 302.71 133.934 302.71ZM133.934 301.611C134.19 301.611 134.426 301.546 134.641 301.415C134.86 301.284 135.033 301.112 135.159 300.897C135.289 300.682 135.355 300.447 135.355 300.19C135.355 299.933 135.289 299.698 135.159 299.483C135.033 299.264 134.86 299.091 134.641 298.965C134.426 298.834 134.19 298.769 133.934 298.769C133.677 298.769 133.441 298.834 133.227 298.965C133.012 299.091 132.839 299.264 132.709 299.483C132.578 299.698 132.513 299.933 132.513 300.19C132.513 300.447 132.578 300.682 132.709 300.897C132.839 301.112 133.012 301.284 133.227 301.415C133.441 301.546 133.677 301.611 133.934 301.611ZM128.04 297.25C127.578 297.25 127.155 297.138 126.773 296.914C126.39 296.685 126.084 296.382 125.856 296.004C125.632 295.621 125.52 295.197 125.52 294.73C125.52 294.273 125.636 293.853 125.87 293.47C126.103 293.087 126.411 292.782 126.794 292.553C127.176 292.324 127.592 292.21 128.04 292.21C128.502 292.21 128.922 292.324 129.3 292.553C129.682 292.777 129.988 293.08 130.217 293.463C130.445 293.841 130.56 294.263 130.56 294.73C130.56 295.197 130.445 295.621 130.217 296.004C129.988 296.382 129.682 296.685 129.3 296.914C128.922 297.138 128.502 297.25 128.04 297.25ZM128.04 296.151C128.296 296.151 128.532 296.086 128.747 295.955C128.966 295.824 129.139 295.652 129.265 295.437C129.395 295.222 129.461 294.987 129.461 294.73C129.461 294.473 129.395 294.238 129.265 294.023C129.139 293.804 128.966 293.631 128.747 293.505C128.532 293.374 128.296 293.309 128.04 293.309C127.783 293.309 127.547 293.374 127.333 293.505C127.118 293.631 126.945 293.804 126.815 294.023C126.684 294.238 126.619 294.473 126.619 294.73C126.619 294.987 126.684 295.222 126.815 295.437C126.945 295.652 127.118 295.824 127.333 295.955C127.547 296.086 127.783 296.151 128.04 296.151ZM144.484 302.71C143.83 302.71 143.247 302.563 142.734 302.269C142.225 301.97 141.821 301.567 141.523 301.058C141.229 300.545 141.082 299.961 141.082 299.308V295.612C141.082 294.959 141.229 294.375 141.523 293.862C141.821 293.349 142.225 292.945 142.734 292.651C143.247 292.357 143.83 292.21 144.484 292.21C145.137 292.21 145.72 292.357 146.234 292.651C146.747 292.945 147.151 293.349 147.445 293.862C147.739 294.375 147.886 294.959 147.886 295.612V299.308C147.886 299.961 147.739 300.545 147.445 301.058C147.151 301.567 146.747 301.97 146.234 302.269C145.72 302.563 145.137 302.71 144.484 302.71ZM144.484 301.513C144.88 301.513 145.24 301.417 145.562 301.226C145.884 301.035 146.14 300.778 146.332 300.456C146.523 300.129 146.619 299.77 146.619 299.378V295.535C146.619 295.138 146.523 294.779 146.332 294.457C146.14 294.135 145.884 293.878 145.562 293.687C145.24 293.496 144.88 293.4 144.484 293.4C144.092 293.4 143.732 293.496 143.406 293.687C143.084 293.878 142.827 294.135 142.636 294.457C142.444 294.779 142.349 295.138 142.349 295.535V299.378C142.349 299.77 142.444 300.129 142.636 300.456C142.827 300.778 143.084 301.035 143.406 301.226C143.732 301.417 144.092 301.513 144.484 301.513ZM150.965 302.5L150.125 301.66L159.379 292.42L160.219 293.26L150.965 302.5ZM158.119 302.71C157.657 302.71 157.235 302.598 156.852 302.374C156.474 302.145 156.171 301.842 155.942 301.464C155.714 301.081 155.599 300.657 155.599 300.19C155.599 299.733 155.716 299.313 155.949 298.93C156.183 298.547 156.491 298.242 156.873 298.013C157.256 297.784 157.671 297.67 158.119 297.67C158.581 297.67 159.004 297.784 159.386 298.013C159.769 298.237 160.072 298.54 160.296 298.923C160.525 299.301 160.639 299.723 160.639 300.19C160.639 300.657 160.525 301.081 160.296 301.464C160.072 301.842 159.769 302.145 159.386 302.374C159.004 302.598 158.581 302.71 158.119 302.71ZM158.119 301.611C158.376 301.611 158.612 301.546 158.826 301.415C159.046 301.284 159.218 301.112 159.344 300.897C159.475 300.682 159.54 300.447 159.54 300.19C159.54 299.933 159.475 299.698 159.344 299.483C159.218 299.264 159.046 299.091 158.826 298.965C158.612 298.834 158.376 298.769 158.119 298.769C157.863 298.769 157.627 298.834 157.412 298.965C157.198 299.091 157.025 299.264 156.894 299.483C156.764 299.698 156.698 299.933 156.698 300.19C156.698 300.447 156.764 300.682 156.894 300.897C157.025 301.112 157.198 301.284 157.412 301.415C157.627 301.546 157.863 301.611 158.119 301.611ZM152.225 297.25C151.763 297.25 151.341 297.138 150.958 296.914C150.576 296.685 150.27 296.382 150.041 296.004C149.817 295.621 149.705 295.197 149.705 294.73C149.705 294.273 149.822 293.853 150.055 293.47C150.289 293.087 150.597 292.782 150.979 292.553C151.362 292.324 151.777 292.21 152.225 292.21C152.687 292.21 153.107 292.324 153.485 292.553C153.868 292.777 154.174 293.08 154.402 293.463C154.631 293.841 154.745 294.263 154.745 294.73C154.745 295.197 154.631 295.621 154.402 296.004C154.174 296.382 153.868 296.685 153.485 296.914C153.107 297.138 152.687 297.25 152.225 297.25ZM152.225 296.151C152.482 296.151 152.718 296.086 152.932 295.955C153.152 295.824 153.324 295.652 153.45 295.437C153.581 295.222 153.646 294.987 153.646 294.73C153.646 294.473 153.581 294.238 153.45 294.023C153.324 293.804 153.152 293.631 152.932 293.505C152.718 293.374 152.482 293.309 152.225 293.309C151.969 293.309 151.733 293.374 151.518 293.505C151.304 293.631 151.131 293.804 151 294.023C150.87 294.238 150.804 294.473 150.804 294.73C150.804 294.987 150.87 295.222 151 295.437C151.131 295.652 151.304 295.824 151.518 295.955C151.733 296.086 151.969 296.151 152.225 296.151ZM168.704 302.71C168.065 302.71 167.484 302.556 166.961 302.248C166.443 301.94 166.03 301.52 165.722 300.988C165.419 300.451 165.267 299.847 165.267 299.175V295.822C165.267 295.117 165.419 294.494 165.722 293.953C166.03 293.407 166.45 292.982 166.982 292.679C167.519 292.371 168.13 292.217 168.816 292.217C169.371 292.217 169.887 292.331 170.363 292.56C170.844 292.784 171.247 293.108 171.574 293.533L170.643 294.359C170.442 294.065 170.181 293.832 169.859 293.659C169.537 293.486 169.189 293.4 168.816 293.4C168.373 293.4 167.978 293.507 167.633 293.722C167.292 293.932 167.024 294.212 166.828 294.562C166.632 294.907 166.534 295.281 166.534 295.682V297.705L166.261 297.397C166.555 296.977 166.928 296.641 167.381 296.389C167.834 296.137 168.324 296.011 168.851 296.011C169.476 296.011 170.036 296.158 170.531 296.452C171.03 296.746 171.422 297.145 171.707 297.649C171.996 298.148 172.141 298.711 172.141 299.336C172.141 299.961 171.985 300.528 171.672 301.037C171.359 301.546 170.942 301.952 170.419 302.255C169.901 302.558 169.329 302.71 168.704 302.71ZM168.704 301.506C169.105 301.506 169.472 301.41 169.803 301.219C170.134 301.023 170.396 300.762 170.587 300.435C170.783 300.104 170.881 299.737 170.881 299.336C170.881 298.935 170.783 298.568 170.587 298.237C170.396 297.906 170.134 297.644 169.803 297.453C169.476 297.257 169.112 297.159 168.711 297.159C168.31 297.159 167.943 297.257 167.612 297.453C167.285 297.644 167.024 297.906 166.828 298.237C166.632 298.568 166.534 298.935 166.534 299.336C166.534 299.733 166.63 300.097 166.821 300.428C167.017 300.755 167.278 301.016 167.605 301.212C167.936 301.408 168.303 301.506 168.704 301.506ZM173.682 302.493L173.689 301.373L178.162 297.348C178.536 297.012 178.785 296.695 178.911 296.396C179.042 296.093 179.107 295.782 179.107 295.465C179.107 295.078 179.019 294.728 178.841 294.415C178.664 294.102 178.421 293.855 178.113 293.673C177.81 293.491 177.465 293.4 177.077 293.4C176.676 293.4 176.319 293.496 176.006 293.687C175.694 293.874 175.446 294.123 175.264 294.436C175.087 294.749 175.001 295.089 175.005 295.458H173.731C173.731 294.823 173.878 294.263 174.172 293.778C174.466 293.288 174.865 292.905 175.369 292.63C175.878 292.35 176.454 292.21 177.098 292.21C177.724 292.21 178.284 292.355 178.778 292.644C179.273 292.929 179.663 293.318 179.947 293.813C180.237 294.303 180.381 294.858 180.381 295.479C180.381 295.918 180.325 296.298 180.213 296.62C180.106 296.942 179.938 297.241 179.709 297.516C179.481 297.787 179.194 298.076 178.848 298.384L175.131 301.723L174.97 301.303H180.381V302.493H173.682ZM183.176 302.5L182.336 301.66L191.59 292.42L192.43 293.26L183.176 302.5ZM190.33 302.71C189.868 302.71 189.446 302.598 189.063 302.374C188.685 302.145 188.382 301.842 188.153 301.464C187.925 301.081 187.81 300.657 187.81 300.19C187.81 299.733 187.927 299.313 188.16 298.93C188.394 298.547 188.702 298.242 189.084 298.013C189.467 297.784 189.882 297.67 190.33 297.67C190.792 297.67 191.215 297.784 191.597 298.013C191.98 298.237 192.283 298.54 192.507 298.923C192.736 299.301 192.85 299.723 192.85 300.19C192.85 300.657 192.736 301.081 192.507 301.464C192.283 301.842 191.98 302.145 191.597 302.374C191.215 302.598 190.792 302.71 190.33 302.71ZM190.33 301.611C190.587 301.611 190.823 301.546 191.037 301.415C191.257 301.284 191.429 301.112 191.555 300.897C191.686 300.682 191.751 300.447 191.751 300.19C191.751 299.933 191.686 299.698 191.555 299.483C191.429 299.264 191.257 299.091 191.037 298.965C190.823 298.834 190.587 298.769 190.33 298.769C190.074 298.769 189.838 298.834 189.623 298.965C189.409 299.091 189.236 299.264 189.105 299.483C188.975 299.698 188.909 299.933 188.909 300.19C188.909 300.447 188.975 300.682 189.105 300.897C189.236 301.112 189.409 301.284 189.623 301.415C189.838 301.546 190.074 301.611 190.33 301.611ZM184.436 297.25C183.974 297.25 183.552 297.138 183.169 296.914C182.787 296.685 182.481 296.382 182.252 296.004C182.028 295.621 181.916 295.197 181.916 294.73C181.916 294.273 182.033 293.853 182.266 293.47C182.5 293.087 182.808 292.782 183.19 292.553C183.573 292.324 183.988 292.21 184.436 292.21C184.898 292.21 185.318 292.324 185.696 292.553C186.079 292.777 186.385 293.08 186.613 293.463C186.842 293.841 186.956 294.263 186.956 294.73C186.956 295.197 186.842 295.621 186.613 296.004C186.385 296.382 186.079 296.685 185.696 296.914C185.318 297.138 184.898 297.25 184.436 297.25ZM184.436 296.151C184.693 296.151 184.929 296.086 185.143 295.955C185.363 295.824 185.535 295.652 185.661 295.437C185.792 295.222 185.857 294.987 185.857 294.73C185.857 294.473 185.792 294.238 185.661 294.023C185.535 293.804 185.363 293.631 185.143 293.505C184.929 293.374 184.693 293.309 184.436 293.309C184.18 293.309 183.944 293.374 183.729 293.505C183.515 293.631 183.342 293.804 183.211 294.023C183.081 294.238 183.015 294.473 183.015 294.73C183.015 294.987 183.081 295.222 183.211 295.437C183.342 295.652 183.515 295.824 183.729 295.955C183.944 296.086 184.18 296.151 184.436 296.151Z" fill="#999999"/>
<path d="M84.382 328.71C83.7287 328.71 83.1453 328.563 82.632 328.269C82.1233 327.97 81.7197 327.567 81.421 327.058C81.127 326.545 80.98 325.961 80.98 325.308V321.612C80.98 320.959 81.127 320.375 81.421 319.862C81.7197 319.349 82.1233 318.945 82.632 318.651C83.1453 318.357 83.7287 318.21 84.382 318.21C85.0353 318.21 85.6187 318.357 86.132 318.651C86.6453 318.945 87.049 319.349 87.343 319.862C87.637 320.375 87.784 320.959 87.784 321.612V325.308C87.784 325.961 87.637 326.545 87.343 327.058C87.049 327.567 86.6453 327.97 86.132 328.269C85.6187 328.563 85.0353 328.71 84.382 328.71ZM84.382 327.513C84.7787 327.513 85.138 327.417 85.46 327.226C85.782 327.035 86.0387 326.778 86.23 326.456C86.4213 326.129 86.517 325.77 86.517 325.378V321.535C86.517 321.138 86.4213 320.779 86.23 320.457C86.0387 320.135 85.782 319.878 85.46 319.687C85.138 319.496 84.7787 319.4 84.382 319.4C83.99 319.4 83.6307 319.496 83.304 319.687C82.982 319.878 82.7253 320.135 82.534 320.457C82.3427 320.779 82.247 321.138 82.247 321.535V325.378C82.247 325.77 82.3427 326.129 82.534 326.456C82.7253 326.778 82.982 327.035 83.304 327.226C83.6307 327.417 83.99 327.513 84.382 327.513ZM92.7117 328.71C92.007 328.71 91.4027 328.535 90.8987 328.185C90.3947 327.83 90.005 327.352 89.7297 326.75C89.459 326.148 89.3237 325.469 89.3237 324.713C89.3237 323.957 89.459 323.278 89.7297 322.676C90.005 322.074 90.3947 321.6 90.8987 321.255C91.4027 320.905 92.0047 320.73 92.7047 320.73C93.4187 320.73 94.0183 320.903 94.5037 321.248C94.989 321.593 95.3553 322.067 95.6027 322.669C95.8547 323.271 95.9807 323.952 95.9807 324.713C95.9807 325.464 95.8547 326.143 95.6027 326.75C95.3553 327.352 94.989 327.83 94.5037 328.185C94.0183 328.535 93.421 328.71 92.7117 328.71ZM92.8657 327.569C93.3743 327.569 93.792 327.448 94.1187 327.205C94.4453 326.958 94.6857 326.619 94.8397 326.19C94.9983 325.756 95.0777 325.264 95.0777 324.713C95.0777 324.153 94.9983 323.661 94.8397 323.236C94.6857 322.807 94.4477 322.473 94.1257 322.235C93.8037 321.992 93.3953 321.871 92.9007 321.871C92.3873 321.871 91.9627 321.997 91.6267 322.249C91.2953 322.501 91.048 322.842 90.8847 323.271C90.726 323.7 90.6467 324.181 90.6467 324.713C90.6467 325.25 90.7283 325.735 90.8917 326.169C91.055 326.598 91.3 326.939 91.6267 327.191C91.958 327.443 92.371 327.569 92.8657 327.569ZM95.0777 328.5V322.935H94.9377V318.42H96.1907V328.5H95.0777ZM100.917 328.696C100.418 328.696 99.9532 328.605 99.5239 328.423C99.0945 328.236 98.7235 327.975 98.4109 327.639C98.1029 327.298 97.8765 326.895 97.7319 326.428L98.9289 326.085C99.0829 326.552 99.3395 326.906 99.6989 327.149C100.058 327.392 100.462 327.511 100.91 327.506C101.321 327.497 101.675 327.403 101.974 327.226C102.277 327.044 102.511 326.797 102.674 326.484C102.842 326.171 102.926 325.81 102.926 325.399C102.926 324.774 102.739 324.267 102.366 323.88C101.993 323.488 101.503 323.292 100.896 323.292C100.728 323.292 100.551 323.315 100.364 323.362C100.182 323.409 100.012 323.474 99.8529 323.558L99.2509 322.571L102.989 319.19L103.15 319.61H98.1309V318.42H104.074V319.617L100.889 322.669L100.875 322.228C101.542 322.181 102.126 322.291 102.625 322.557C103.124 322.823 103.512 323.203 103.787 323.698C104.067 324.193 104.207 324.76 104.207 325.399C104.207 326.043 104.062 326.612 103.773 327.107C103.484 327.602 103.092 327.991 102.597 328.276C102.102 328.556 101.542 328.696 100.917 328.696ZM109.429 328.71C108.776 328.71 108.192 328.563 107.679 328.269C107.17 327.97 106.767 327.567 106.468 327.058C106.174 326.545 106.027 325.961 106.027 325.308V321.612C106.027 320.959 106.174 320.375 106.468 319.862C106.767 319.349 107.17 318.945 107.679 318.651C108.192 318.357 108.776 318.21 109.429 318.21C110.082 318.21 110.666 318.357 111.179 318.651C111.692 318.945 112.096 319.349 112.39 319.862C112.684 320.375 112.831 320.959 112.831 321.612V325.308C112.831 325.961 112.684 326.545 112.39 327.058C112.096 327.567 111.692 327.97 111.179 328.269C110.666 328.563 110.082 328.71 109.429 328.71ZM109.429 327.513C109.826 327.513 110.185 327.417 110.507 327.226C110.829 327.035 111.086 326.778 111.277 326.456C111.468 326.129 111.564 325.77 111.564 325.378V321.535C111.564 321.138 111.468 320.779 111.277 320.457C111.086 320.135 110.829 319.878 110.507 319.687C110.185 319.496 109.826 319.4 109.429 319.4C109.037 319.4 108.678 319.496 108.351 319.687C108.029 319.878 107.772 320.135 107.581 320.457C107.39 320.779 107.294 321.138 107.294 321.535V325.378C107.294 325.77 107.39 326.129 107.581 326.456C107.772 326.778 108.029 327.035 108.351 327.226C108.678 327.417 109.037 327.513 109.429 327.513ZM118.228 328.71C117.588 328.71 117.007 328.556 116.485 328.248C115.967 327.94 115.554 327.52 115.246 326.988C114.942 326.451 114.791 325.847 114.791 325.175V321.822C114.791 321.117 114.942 320.494 115.246 319.953C115.554 319.407 115.974 318.982 116.506 318.679C117.042 318.371 117.654 318.217 118.34 318.217C118.895 318.217 119.411 318.331 119.887 318.56C120.367 318.784 120.771 319.108 121.098 319.533L120.167 320.359C119.966 320.065 119.705 319.832 119.383 319.659C119.061 319.486 118.713 319.4 118.34 319.4C117.896 319.4 117.502 319.507 117.157 319.722C116.816 319.932 116.548 320.212 116.352 320.562C116.156 320.907 116.058 321.281 116.058 321.682V323.705L115.785 323.397C116.079 322.977 116.452 322.641 116.905 322.389C117.357 322.137 117.847 322.011 118.375 322.011C119 322.011 119.56 322.158 120.055 322.452C120.554 322.746 120.946 323.145 121.231 323.649C121.52 324.148 121.665 324.711 121.665 325.336C121.665 325.961 121.508 326.528 121.196 327.037C120.883 327.546 120.465 327.952 119.943 328.255C119.425 328.558 118.853 328.71 118.228 328.71ZM118.228 327.506C118.629 327.506 118.995 327.41 119.327 327.219C119.658 327.023 119.919 326.762 120.111 326.435C120.307 326.104 120.405 325.737 120.405 325.336C120.405 324.935 120.307 324.568 120.111 324.237C119.919 323.906 119.658 323.644 119.327 323.453C119 323.257 118.636 323.159 118.235 323.159C117.833 323.159 117.467 323.257 117.136 323.453C116.809 323.644 116.548 323.906 116.352 324.237C116.156 324.568 116.058 324.935 116.058 325.336C116.058 325.733 116.153 326.097 116.345 326.428C116.541 326.755 116.802 327.016 117.129 327.212C117.46 327.408 117.826 327.506 118.228 327.506ZM123.206 328.493L123.213 327.373L127.686 323.348C128.059 323.012 128.309 322.695 128.435 322.396C128.566 322.093 128.631 321.782 128.631 321.465C128.631 321.078 128.542 320.728 128.365 320.415C128.188 320.102 127.945 319.855 127.637 319.673C127.334 319.491 126.988 319.4 126.601 319.4C126.2 319.4 125.843 319.496 125.53 319.687C125.217 319.874 124.97 320.123 124.788 320.436C124.611 320.749 124.524 321.089 124.529 321.458H123.255C123.255 320.823 123.402 320.263 123.696 319.778C123.99 319.288 124.389 318.905 124.893 318.63C125.402 318.35 125.978 318.21 126.622 318.21C127.247 318.21 127.807 318.355 128.302 318.644C128.797 318.929 129.186 319.318 129.471 319.813C129.76 320.303 129.905 320.858 129.905 321.479C129.905 321.918 129.849 322.298 129.737 322.62C129.63 322.942 129.462 323.241 129.233 323.516C129.004 323.787 128.717 324.076 128.372 324.384L124.655 327.723L124.494 327.303H129.905V328.493H123.206Z" fill="#999999"/>
</g>
<g clip-path="url(#clip2_2558_49349)">
<rect x="208" y="172.5" width="120" height="82" rx="8" fill="white"/>
<path d="M208.7 276.493L208.707 275.373L213.18 271.348C213.553 271.012 213.803 270.695 213.929 270.396C214.06 270.093 214.125 269.782 214.125 269.465C214.125 269.078 214.036 268.728 213.859 268.415C213.682 268.102 213.439 267.855 213.131 267.673C212.828 267.491 212.482 267.4 212.095 267.4C211.694 267.4 211.337 267.496 211.024 267.687C210.711 267.874 210.464 268.123 210.282 268.436C210.105 268.749 210.018 269.089 210.023 269.458H208.749C208.749 268.823 208.896 268.263 209.19 267.778C209.484 267.288 209.883 266.905 210.387 266.63C210.896 266.35 211.472 266.21 212.116 266.21C212.741 266.21 213.301 266.355 213.796 266.644C214.291 266.929 214.68 267.318 214.965 267.813C215.254 268.303 215.399 268.858 215.399 269.479C215.399 269.918 215.343 270.298 215.231 270.62C215.124 270.942 214.956 271.241 214.727 271.516C214.498 271.787 214.211 272.076 213.866 272.384L210.149 275.723L209.988 275.303H215.399V276.493H208.7ZM220.056 276.71C219.538 276.71 219.055 276.603 218.607 276.388C218.163 276.173 217.783 275.879 217.466 275.506C217.153 275.128 216.929 274.694 216.794 274.204L217.991 273.882C218.075 274.213 218.224 274.5 218.439 274.743C218.653 274.981 218.903 275.168 219.188 275.303C219.477 275.434 219.778 275.499 220.091 275.499C220.501 275.499 220.87 275.401 221.197 275.205C221.528 275.004 221.789 274.741 221.981 274.414C222.172 274.083 222.268 273.721 222.268 273.329C222.268 272.923 222.167 272.557 221.967 272.23C221.771 271.899 221.507 271.637 221.176 271.446C220.844 271.255 220.483 271.159 220.091 271.159C219.647 271.159 219.267 271.252 218.95 271.439C218.637 271.621 218.39 271.845 218.208 272.111L217.102 271.691L217.41 266.42H222.821V267.603H218.012L218.565 267.085L218.306 271.306L218.033 270.949C218.313 270.65 218.646 270.419 219.034 270.256C219.426 270.093 219.825 270.011 220.231 270.011C220.856 270.011 221.416 270.158 221.911 270.452C222.405 270.741 222.797 271.138 223.087 271.642C223.376 272.141 223.521 272.704 223.521 273.329C223.521 273.95 223.362 274.517 223.045 275.03C222.727 275.539 222.305 275.947 221.778 276.255C221.255 276.558 220.681 276.71 220.056 276.71ZM228.177 276.71C227.659 276.71 227.176 276.603 226.728 276.388C226.285 276.173 225.904 275.879 225.587 275.506C225.274 275.128 225.05 274.694 224.915 274.204L226.112 273.882C226.196 274.213 226.345 274.5 226.56 274.743C226.775 274.981 227.024 275.168 227.309 275.303C227.598 275.434 227.899 275.499 228.212 275.499C228.623 275.499 228.991 275.401 229.318 275.205C229.649 275.004 229.911 274.741 230.102 274.414C230.293 274.083 230.389 273.721 230.389 273.329C230.389 272.923 230.289 272.557 230.088 272.23C229.892 271.899 229.628 271.637 229.297 271.446C228.966 271.255 228.604 271.159 228.212 271.159C227.769 271.159 227.388 271.252 227.071 271.439C226.758 271.621 226.511 271.845 226.329 272.111L225.223 271.691L225.531 266.42H230.942V267.603H226.133L226.686 267.085L226.427 271.306L226.154 270.949C226.434 270.65 226.768 270.419 227.155 270.256C227.547 270.093 227.946 270.011 228.352 270.011C228.977 270.011 229.537 270.158 230.032 270.452C230.527 270.741 230.919 271.138 231.208 271.642C231.497 272.141 231.642 272.704 231.642 273.329C231.642 273.95 231.483 274.517 231.166 275.03C230.849 275.539 230.426 275.947 229.899 276.255C229.376 276.558 228.802 276.71 228.177 276.71ZM235.839 276.493L235.846 275.373L240.319 271.348C240.692 271.012 240.942 270.695 241.068 270.396C241.198 270.093 241.264 269.782 241.264 269.465C241.264 269.078 241.175 268.728 240.998 268.415C240.82 268.102 240.578 267.855 240.27 267.673C239.966 267.491 239.621 267.4 239.234 267.4C238.832 267.4 238.475 267.496 238.163 267.687C237.85 267.874 237.603 268.123 237.421 268.436C237.243 268.749 237.157 269.089 237.162 269.458H235.888C235.888 268.823 236.035 268.263 236.329 267.778C236.623 267.288 237.022 266.905 237.526 266.63C238.034 266.35 238.611 266.21 239.255 266.21C239.88 266.21 240.44 266.355 240.935 266.644C241.429 266.929 241.819 267.318 242.104 267.813C242.393 268.303 242.538 268.858 242.538 269.479C242.538 269.918 242.482 270.298 242.37 270.62C242.262 270.942 242.094 271.241 241.866 271.516C241.637 271.787 241.35 272.076 241.005 272.384L237.288 275.723L237.127 275.303H242.538V276.493H235.839ZM247.194 276.71C246.676 276.71 246.193 276.603 245.745 276.388C245.302 276.173 244.922 275.879 244.604 275.506C244.292 275.128 244.068 274.694 243.932 274.204L245.129 273.882C245.213 274.213 245.363 274.5 245.577 274.743C245.792 274.981 246.042 275.168 246.326 275.303C246.616 275.434 246.917 275.499 247.229 275.499C247.64 275.499 248.009 275.401 248.335 275.205C248.667 275.004 248.928 274.741 249.119 274.414C249.311 274.083 249.406 273.721 249.406 273.329C249.406 272.923 249.306 272.557 249.105 272.23C248.909 271.899 248.646 271.637 248.314 271.446C247.983 271.255 247.621 271.159 247.229 271.159C246.786 271.159 246.406 271.252 246.088 271.439C245.776 271.621 245.528 271.845 245.346 272.111L244.24 271.691L244.548 266.42H249.959V267.603H245.15L245.703 267.085L245.444 271.306L245.171 270.949C245.451 270.65 245.785 270.419 246.172 270.256C246.564 270.093 246.963 270.011 247.369 270.011C247.995 270.011 248.555 270.158 249.049 270.452C249.544 270.741 249.936 271.138 250.225 271.642C250.515 272.141 250.659 272.704 250.659 273.329C250.659 273.95 250.501 274.517 250.183 275.03C249.866 275.539 249.444 275.947 248.916 276.255C248.394 276.558 247.82 276.71 247.194 276.71ZM255.316 276.71C254.798 276.71 254.315 276.603 253.867 276.388C253.423 276.173 253.043 275.879 252.726 275.506C252.413 275.128 252.189 274.694 252.054 274.204L253.251 273.882C253.335 274.213 253.484 274.5 253.699 274.743C253.913 274.981 254.163 275.168 254.448 275.303C254.737 275.434 255.038 275.499 255.351 275.499C255.761 275.499 256.13 275.401 256.457 275.205C256.788 275.004 257.049 274.741 257.241 274.414C257.432 274.083 257.528 273.721 257.528 273.329C257.528 272.923 257.427 272.557 257.227 272.23C257.031 271.899 256.767 271.637 256.436 271.446C256.104 271.255 255.743 271.159 255.351 271.159C254.907 271.159 254.527 271.252 254.21 271.439C253.897 271.621 253.65 271.845 253.468 272.111L252.362 271.691L252.67 266.42H258.081V267.603H253.272L253.825 267.085L253.566 271.306L253.293 270.949C253.573 270.65 253.906 270.419 254.294 270.256C254.686 270.093 255.085 270.011 255.491 270.011C256.116 270.011 256.676 270.158 257.171 270.452C257.665 270.741 258.057 271.138 258.347 271.642C258.636 272.141 258.781 272.704 258.781 273.329C258.781 273.95 258.622 274.517 258.305 275.03C257.987 275.539 257.565 275.947 257.038 276.255C256.515 276.558 255.941 276.71 255.316 276.71ZM262.977 276.493L262.984 275.373L267.457 271.348C267.831 271.012 268.08 270.695 268.206 270.396C268.337 270.093 268.402 269.782 268.402 269.465C268.402 269.078 268.314 268.728 268.136 268.415C267.959 268.102 267.716 267.855 267.408 267.673C267.105 267.491 266.76 267.4 266.372 267.4C265.971 267.4 265.614 267.496 265.301 267.687C264.989 267.874 264.741 268.123 264.559 268.436C264.382 268.749 264.296 269.089 264.3 269.458H263.026C263.026 268.823 263.173 268.263 263.467 267.778C263.761 267.288 264.16 266.905 264.664 266.63C265.173 266.35 265.749 266.21 266.393 266.21C267.019 266.21 267.579 266.355 268.073 266.644C268.568 266.929 268.958 267.318 269.242 267.813C269.532 268.303 269.676 268.858 269.676 269.479C269.676 269.918 269.62 270.298 269.508 270.62C269.401 270.942 269.233 271.241 269.004 271.516C268.776 271.787 268.489 272.076 268.143 272.384L264.426 275.723L264.265 275.303H269.676V276.493H262.977ZM274.333 276.71C273.815 276.71 273.332 276.603 272.884 276.388C272.441 276.173 272.06 275.879 271.743 275.506C271.43 275.128 271.206 274.694 271.071 274.204L272.268 273.882C272.352 274.213 272.501 274.5 272.716 274.743C272.931 274.981 273.18 275.168 273.465 275.303C273.754 275.434 274.055 275.499 274.368 275.499C274.779 275.499 275.147 275.401 275.474 275.205C275.805 275.004 276.067 274.741 276.258 274.414C276.449 274.083 276.545 273.721 276.545 273.329C276.545 272.923 276.445 272.557 276.244 272.23C276.048 271.899 275.784 271.637 275.453 271.446C275.122 271.255 274.76 271.159 274.368 271.159C273.925 271.159 273.544 271.252 273.227 271.439C272.914 271.621 272.667 271.845 272.485 272.111L271.379 271.691L271.687 266.42H277.098V267.603H272.289L272.842 267.085L272.583 271.306L272.31 270.949C272.59 270.65 272.924 270.419 273.311 270.256C273.703 270.093 274.102 270.011 274.508 270.011C275.133 270.011 275.693 270.158 276.188 270.452C276.683 270.741 277.075 271.138 277.364 271.642C277.653 272.141 277.798 272.704 277.798 273.329C277.798 273.95 277.639 274.517 277.322 275.03C277.005 275.539 276.582 275.947 276.055 276.255C275.532 276.558 274.958 276.71 274.333 276.71ZM282.454 276.71C281.936 276.71 281.453 276.603 281.005 276.388C280.562 276.173 280.182 275.879 279.864 275.506C279.552 275.128 279.328 274.694 279.192 274.204L280.389 273.882C280.473 274.213 280.623 274.5 280.837 274.743C281.052 274.981 281.302 275.168 281.586 275.303C281.876 275.434 282.177 275.499 282.489 275.499C282.9 275.499 283.269 275.401 283.595 275.205C283.927 275.004 284.188 274.741 284.379 274.414C284.571 274.083 284.666 273.721 284.666 273.329C284.666 272.923 284.566 272.557 284.365 272.23C284.169 271.899 283.906 271.637 283.574 271.446C283.243 271.255 282.881 271.159 282.489 271.159C282.046 271.159 281.666 271.252 281.348 271.439C281.036 271.621 280.788 271.845 280.606 272.111L279.5 271.691L279.808 266.42H285.219V267.603H280.41L280.963 267.085L280.704 271.306L280.431 270.949C280.711 270.65 281.045 270.419 281.432 270.256C281.824 270.093 282.223 270.011 282.629 270.011C283.255 270.011 283.815 270.158 284.309 270.452C284.804 270.741 285.196 271.138 285.485 271.642C285.775 272.141 285.919 272.704 285.919 273.329C285.919 273.95 285.761 274.517 285.443 275.03C285.126 275.539 284.704 275.947 284.176 276.255C283.654 276.558 283.08 276.71 282.454 276.71Z" fill="#999999"/>
<path d="M212.382 302.71C211.729 302.71 211.145 302.563 210.632 302.269C210.123 301.97 209.72 301.567 209.421 301.058C209.127 300.545 208.98 299.961 208.98 299.308V295.612C208.98 294.959 209.127 294.375 209.421 293.862C209.72 293.349 210.123 292.945 210.632 292.651C211.145 292.357 211.729 292.21 212.382 292.21C213.035 292.21 213.619 292.357 214.132 292.651C214.645 292.945 215.049 293.349 215.343 293.862C215.637 294.375 215.784 294.959 215.784 295.612V299.308C215.784 299.961 215.637 300.545 215.343 301.058C215.049 301.567 214.645 301.97 214.132 302.269C213.619 302.563 213.035 302.71 212.382 302.71ZM212.382 301.513C212.779 301.513 213.138 301.417 213.46 301.226C213.782 301.035 214.039 300.778 214.23 300.456C214.421 300.129 214.517 299.77 214.517 299.378V295.535C214.517 295.138 214.421 294.779 214.23 294.457C214.039 294.135 213.782 293.878 213.46 293.687C213.138 293.496 212.779 293.4 212.382 293.4C211.99 293.4 211.631 293.496 211.304 293.687C210.982 293.878 210.725 294.135 210.534 294.457C210.343 294.779 210.247 295.138 210.247 295.535V299.378C210.247 299.77 210.343 300.129 210.534 300.456C210.725 300.778 210.982 301.035 211.304 301.226C211.631 301.417 211.99 301.513 212.382 301.513ZM218.864 302.5L218.024 301.66L227.278 292.42L228.118 293.26L218.864 302.5ZM226.018 302.71C225.556 302.71 225.133 302.598 224.751 302.374C224.373 302.145 224.069 301.842 223.841 301.464C223.612 301.081 223.498 300.657 223.498 300.19C223.498 299.733 223.614 299.313 223.848 298.93C224.081 298.547 224.389 298.242 224.772 298.013C225.154 297.784 225.57 297.67 226.018 297.67C226.48 297.67 226.902 297.784 227.285 298.013C227.667 298.237 227.971 298.54 228.195 298.923C228.423 299.301 228.538 299.723 228.538 300.19C228.538 300.657 228.423 301.081 228.195 301.464C227.971 301.842 227.667 302.145 227.285 302.374C226.902 302.598 226.48 302.71 226.018 302.71ZM226.018 301.611C226.274 301.611 226.51 301.546 226.725 301.415C226.944 301.284 227.117 301.112 227.243 300.897C227.373 300.682 227.439 300.447 227.439 300.19C227.439 299.933 227.373 299.698 227.243 299.483C227.117 299.264 226.944 299.091 226.725 298.965C226.51 298.834 226.274 298.769 226.018 298.769C225.761 298.769 225.525 298.834 225.311 298.965C225.096 299.091 224.923 299.264 224.793 299.483C224.662 299.698 224.597 299.933 224.597 300.19C224.597 300.447 224.662 300.682 224.793 300.897C224.923 301.112 225.096 301.284 225.311 301.415C225.525 301.546 225.761 301.611 226.018 301.611ZM220.124 297.25C219.662 297.25 219.239 297.138 218.857 296.914C218.474 296.685 218.168 296.382 217.94 296.004C217.716 295.621 217.604 295.197 217.604 294.73C217.604 294.273 217.72 293.853 217.954 293.47C218.187 293.087 218.495 292.782 218.878 292.553C219.26 292.324 219.676 292.21 220.124 292.21C220.586 292.21 221.006 292.324 221.384 292.553C221.766 292.777 222.072 293.08 222.301 293.463C222.529 293.841 222.644 294.263 222.644 294.73C222.644 295.197 222.529 295.621 222.301 296.004C222.072 296.382 221.766 296.685 221.384 296.914C221.006 297.138 220.586 297.25 220.124 297.25ZM220.124 296.151C220.38 296.151 220.616 296.086 220.831 295.955C221.05 295.824 221.223 295.652 221.349 295.437C221.479 295.222 221.545 294.987 221.545 294.73C221.545 294.473 221.479 294.238 221.349 294.023C221.223 293.804 221.05 293.631 220.831 293.505C220.616 293.374 220.38 293.309 220.124 293.309C219.867 293.309 219.631 293.374 219.417 293.505C219.202 293.631 219.029 293.804 218.899 294.023C218.768 294.238 218.703 294.473 218.703 294.73C218.703 294.987 218.768 295.222 218.899 295.437C219.029 295.652 219.202 295.824 219.417 295.955C219.631 296.086 219.867 296.151 220.124 296.151ZM236.568 302.71C235.914 302.71 235.331 302.563 234.818 302.269C234.309 301.97 233.905 301.567 233.607 301.058C233.313 300.545 233.166 299.961 233.166 299.308V295.612C233.166 294.959 233.313 294.375 233.607 293.862C233.905 293.349 234.309 292.945 234.818 292.651C235.331 292.357 235.914 292.21 236.568 292.21C237.221 292.21 237.804 292.357 238.318 292.651C238.831 292.945 239.235 293.349 239.529 293.862C239.823 294.375 239.97 294.959 239.97 295.612V299.308C239.97 299.961 239.823 300.545 239.529 301.058C239.235 301.567 238.831 301.97 238.318 302.269C237.804 302.563 237.221 302.71 236.568 302.71ZM236.568 301.513C236.964 301.513 237.324 301.417 237.646 301.226C237.968 301.035 238.224 300.778 238.416 300.456C238.607 300.129 238.703 299.77 238.703 299.378V295.535C238.703 295.138 238.607 294.779 238.416 294.457C238.224 294.135 237.968 293.878 237.646 293.687C237.324 293.496 236.964 293.4 236.568 293.4C236.176 293.4 235.816 293.496 235.49 293.687C235.168 293.878 234.911 294.135 234.72 294.457C234.528 294.779 234.433 295.138 234.433 295.535V299.378C234.433 299.77 234.528 300.129 234.72 300.456C234.911 300.778 235.168 301.035 235.49 301.226C235.816 301.417 236.176 301.513 236.568 301.513ZM243.049 302.5L242.209 301.66L251.463 292.42L252.303 293.26L243.049 302.5ZM250.203 302.71C249.741 302.71 249.319 302.598 248.936 302.374C248.558 302.145 248.255 301.842 248.026 301.464C247.798 301.081 247.683 300.657 247.683 300.19C247.683 299.733 247.8 299.313 248.033 298.93C248.267 298.547 248.575 298.242 248.957 298.013C249.34 297.784 249.755 297.67 250.203 297.67C250.665 297.67 251.088 297.784 251.47 298.013C251.853 298.237 252.156 298.54 252.38 298.923C252.609 299.301 252.723 299.723 252.723 300.19C252.723 300.657 252.609 301.081 252.38 301.464C252.156 301.842 251.853 302.145 251.47 302.374C251.088 302.598 250.665 302.71 250.203 302.71ZM250.203 301.611C250.46 301.611 250.696 301.546 250.91 301.415C251.13 301.284 251.302 301.112 251.428 300.897C251.559 300.682 251.624 300.447 251.624 300.19C251.624 299.933 251.559 299.698 251.428 299.483C251.302 299.264 251.13 299.091 250.91 298.965C250.696 298.834 250.46 298.769 250.203 298.769C249.947 298.769 249.711 298.834 249.496 298.965C249.282 299.091 249.109 299.264 248.978 299.483C248.848 299.698 248.782 299.933 248.782 300.19C248.782 300.447 248.848 300.682 248.978 300.897C249.109 301.112 249.282 301.284 249.496 301.415C249.711 301.546 249.947 301.611 250.203 301.611ZM244.309 297.25C243.847 297.25 243.425 297.138 243.042 296.914C242.66 296.685 242.354 296.382 242.125 296.004C241.901 295.621 241.789 295.197 241.789 294.73C241.789 294.273 241.906 293.853 242.139 293.47C242.373 293.087 242.681 292.782 243.063 292.553C243.446 292.324 243.861 292.21 244.309 292.21C244.771 292.21 245.191 292.324 245.569 292.553C245.952 292.777 246.258 293.08 246.486 293.463C246.715 293.841 246.829 294.263 246.829 294.73C246.829 295.197 246.715 295.621 246.486 296.004C246.258 296.382 245.952 296.685 245.569 296.914C245.191 297.138 244.771 297.25 244.309 297.25ZM244.309 296.151C244.566 296.151 244.802 296.086 245.016 295.955C245.236 295.824 245.408 295.652 245.534 295.437C245.665 295.222 245.73 294.987 245.73 294.73C245.73 294.473 245.665 294.238 245.534 294.023C245.408 293.804 245.236 293.631 245.016 293.505C244.802 293.374 244.566 293.309 244.309 293.309C244.053 293.309 243.817 293.374 243.602 293.505C243.388 293.631 243.215 293.804 243.084 294.023C242.954 294.238 242.888 294.473 242.888 294.73C242.888 294.987 242.954 295.222 243.084 295.437C243.215 295.652 243.388 295.824 243.602 295.955C243.817 296.086 244.053 296.151 244.309 296.151ZM260.753 302.71C260.1 302.71 259.516 302.563 259.003 302.269C258.494 301.97 258.091 301.567 257.792 301.058C257.498 300.545 257.351 299.961 257.351 299.308V295.612C257.351 294.959 257.498 294.375 257.792 293.862C258.091 293.349 258.494 292.945 259.003 292.651C259.516 292.357 260.1 292.21 260.753 292.21C261.406 292.21 261.99 292.357 262.503 292.651C263.016 292.945 263.42 293.349 263.714 293.862C264.008 294.375 264.155 294.959 264.155 295.612V299.308C264.155 299.961 264.008 300.545 263.714 301.058C263.42 301.567 263.016 301.97 262.503 302.269C261.99 302.563 261.406 302.71 260.753 302.71ZM260.753 301.513C261.15 301.513 261.509 301.417 261.831 301.226C262.153 301.035 262.41 300.778 262.601 300.456C262.792 300.129 262.888 299.77 262.888 299.378V295.535C262.888 295.138 262.792 294.779 262.601 294.457C262.41 294.135 262.153 293.878 261.831 293.687C261.509 293.496 261.15 293.4 260.753 293.4C260.361 293.4 260.002 293.496 259.675 293.687C259.353 293.878 259.096 294.135 258.905 294.457C258.714 294.779 258.618 295.138 258.618 295.535V299.378C258.618 299.77 258.714 300.129 258.905 300.456C259.096 300.778 259.353 301.035 259.675 301.226C260.002 301.417 260.361 301.513 260.753 301.513ZM267.235 302.5L266.395 301.66L275.649 292.42L276.489 293.26L267.235 302.5ZM274.389 302.71C273.927 302.71 273.504 302.598 273.122 302.374C272.744 302.145 272.44 301.842 272.212 301.464C271.983 301.081 271.869 300.657 271.869 300.19C271.869 299.733 271.985 299.313 272.219 298.93C272.452 298.547 272.76 298.242 273.143 298.013C273.525 297.784 273.941 297.67 274.389 297.67C274.851 297.67 275.273 297.784 275.656 298.013C276.038 298.237 276.342 298.54 276.566 298.923C276.794 299.301 276.909 299.723 276.909 300.19C276.909 300.657 276.794 301.081 276.566 301.464C276.342 301.842 276.038 302.145 275.656 302.374C275.273 302.598 274.851 302.71 274.389 302.71ZM274.389 301.611C274.645 301.611 274.881 301.546 275.096 301.415C275.315 301.284 275.488 301.112 275.614 300.897C275.744 300.682 275.81 300.447 275.81 300.19C275.81 299.933 275.744 299.698 275.614 299.483C275.488 299.264 275.315 299.091 275.096 298.965C274.881 298.834 274.645 298.769 274.389 298.769C274.132 298.769 273.896 298.834 273.682 298.965C273.467 299.091 273.294 299.264 273.164 299.483C273.033 299.698 272.968 299.933 272.968 300.19C272.968 300.447 273.033 300.682 273.164 300.897C273.294 301.112 273.467 301.284 273.682 301.415C273.896 301.546 274.132 301.611 274.389 301.611ZM268.495 297.25C268.033 297.25 267.61 297.138 267.228 296.914C266.845 296.685 266.539 296.382 266.311 296.004C266.087 295.621 265.975 295.197 265.975 294.73C265.975 294.273 266.091 293.853 266.325 293.47C266.558 293.087 266.866 292.782 267.249 292.553C267.631 292.324 268.047 292.21 268.495 292.21C268.957 292.21 269.377 292.324 269.755 292.553C270.137 292.777 270.443 293.08 270.672 293.463C270.9 293.841 271.015 294.263 271.015 294.73C271.015 295.197 270.9 295.621 270.672 296.004C270.443 296.382 270.137 296.685 269.755 296.914C269.377 297.138 268.957 297.25 268.495 297.25ZM268.495 296.151C268.751 296.151 268.987 296.086 269.202 295.955C269.421 295.824 269.594 295.652 269.72 295.437C269.85 295.222 269.916 294.987 269.916 294.73C269.916 294.473 269.85 294.238 269.72 294.023C269.594 293.804 269.421 293.631 269.202 293.505C268.987 293.374 268.751 293.309 268.495 293.309C268.238 293.309 268.002 293.374 267.788 293.505C267.573 293.631 267.4 293.804 267.27 294.023C267.139 294.238 267.074 294.473 267.074 294.73C267.074 294.987 267.139 295.222 267.27 295.437C267.4 295.652 267.573 295.824 267.788 295.955C268.002 296.086 268.238 296.151 268.495 296.151ZM284.939 302.71C284.285 302.71 283.702 302.563 283.189 302.269C282.68 301.97 282.276 301.567 281.978 301.058C281.684 300.545 281.537 299.961 281.537 299.308V295.612C281.537 294.959 281.684 294.375 281.978 293.862C282.276 293.349 282.68 292.945 283.189 292.651C283.702 292.357 284.285 292.21 284.939 292.21C285.592 292.21 286.175 292.357 286.689 292.651C287.202 292.945 287.606 293.349 287.9 293.862C288.194 294.375 288.341 294.959 288.341 295.612V299.308C288.341 299.961 288.194 300.545 287.9 301.058C287.606 301.567 287.202 301.97 286.689 302.269C286.175 302.563 285.592 302.71 284.939 302.71ZM284.939 301.513C285.335 301.513 285.695 301.417 286.017 301.226C286.339 301.035 286.595 300.778 286.787 300.456C286.978 300.129 287.074 299.77 287.074 299.378V295.535C287.074 295.138 286.978 294.779 286.787 294.457C286.595 294.135 286.339 293.878 286.017 293.687C285.695 293.496 285.335 293.4 284.939 293.4C284.547 293.4 284.187 293.496 283.861 293.687C283.539 293.878 283.282 294.135 283.091 294.457C282.899 294.779 282.804 295.138 282.804 295.535V299.378C282.804 299.77 282.899 300.129 283.091 300.456C283.282 300.778 283.539 301.035 283.861 301.226C284.187 301.417 284.547 301.513 284.939 301.513ZM291.42 302.5L290.58 301.66L299.834 292.42L300.674 293.26L291.42 302.5ZM298.574 302.71C298.112 302.71 297.69 302.598 297.307 302.374C296.929 302.145 296.626 301.842 296.397 301.464C296.169 301.081 296.054 300.657 296.054 300.19C296.054 299.733 296.171 299.313 296.404 298.93C296.638 298.547 296.946 298.242 297.328 298.013C297.711 297.784 298.126 297.67 298.574 297.67C299.036 297.67 299.459 297.784 299.841 298.013C300.224 298.237 300.527 298.54 300.751 298.923C300.98 299.301 301.094 299.723 301.094 300.19C301.094 300.657 300.98 301.081 300.751 301.464C300.527 301.842 300.224 302.145 299.841 302.374C299.459 302.598 299.036 302.71 298.574 302.71ZM298.574 301.611C298.831 301.611 299.067 301.546 299.281 301.415C299.501 301.284 299.673 301.112 299.799 300.897C299.93 300.682 299.995 300.447 299.995 300.19C299.995 299.933 299.93 299.698 299.799 299.483C299.673 299.264 299.501 299.091 299.281 298.965C299.067 298.834 298.831 298.769 298.574 298.769C298.318 298.769 298.082 298.834 297.867 298.965C297.653 299.091 297.48 299.264 297.349 299.483C297.219 299.698 297.153 299.933 297.153 300.19C297.153 300.447 297.219 300.682 297.349 300.897C297.48 301.112 297.653 301.284 297.867 301.415C298.082 301.546 298.318 301.611 298.574 301.611ZM292.68 297.25C292.218 297.25 291.796 297.138 291.413 296.914C291.031 296.685 290.725 296.382 290.496 296.004C290.272 295.621 290.16 295.197 290.16 294.73C290.16 294.273 290.277 293.853 290.51 293.47C290.744 293.087 291.052 292.782 291.434 292.553C291.817 292.324 292.232 292.21 292.68 292.21C293.142 292.21 293.562 292.324 293.94 292.553C294.323 292.777 294.629 293.08 294.857 293.463C295.086 293.841 295.2 294.263 295.2 294.73C295.2 295.197 295.086 295.621 294.857 296.004C294.629 296.382 294.323 296.685 293.94 296.914C293.562 297.138 293.142 297.25 292.68 297.25ZM292.68 296.151C292.937 296.151 293.173 296.086 293.387 295.955C293.607 295.824 293.779 295.652 293.905 295.437C294.036 295.222 294.101 294.987 294.101 294.73C294.101 294.473 294.036 294.238 293.905 294.023C293.779 293.804 293.607 293.631 293.387 293.505C293.173 293.374 292.937 293.309 292.68 293.309C292.424 293.309 292.188 293.374 291.973 293.505C291.759 293.631 291.586 293.804 291.455 294.023C291.325 294.238 291.259 294.473 291.259 294.73C291.259 294.987 291.325 295.222 291.455 295.437C291.586 295.652 291.759 295.824 291.973 295.955C292.188 296.086 292.424 296.151 292.68 296.151Z" fill="#999999"/>
<path d="M209.701 328.5V320.527C209.701 320.331 209.71 320.133 209.729 319.932C209.748 319.727 209.79 319.528 209.855 319.337C209.92 319.141 210.028 318.961 210.177 318.798C210.35 318.607 210.539 318.471 210.744 318.392C210.949 318.308 211.157 318.257 211.367 318.238C211.582 318.219 211.785 318.21 211.976 318.21H212.935V319.246H212.046C211.677 319.246 211.402 319.337 211.22 319.519C211.038 319.696 210.947 319.967 210.947 320.331V328.5H209.701ZM208.42 321.969V320.94H212.935V321.969H208.42ZM214.146 328.5V320.527C214.146 320.331 214.155 320.133 214.174 319.932C214.193 319.727 214.235 319.528 214.3 319.337C214.365 319.141 214.473 318.961 214.622 318.798C214.795 318.607 214.984 318.471 215.189 318.392C215.394 318.308 215.602 318.257 215.812 318.238C216.027 318.219 216.23 318.21 216.421 318.21H217.38V319.246H216.491C216.122 319.246 215.847 319.337 215.665 319.519C215.483 319.696 215.392 319.967 215.392 320.331V328.5H214.146ZM212.865 321.969V320.94H217.38V321.969H212.865ZM219.217 328.5V320.527C219.217 320.331 219.226 320.133 219.245 319.932C219.263 319.727 219.305 319.528 219.371 319.337C219.436 319.141 219.543 318.961 219.693 318.798C219.865 318.607 220.054 318.471 220.26 318.392C220.465 318.308 220.673 318.257 220.883 318.238C221.097 318.219 221.3 318.21 221.492 318.21H222.451V319.246H221.562C221.193 319.246 220.918 319.337 220.736 319.519C220.554 319.696 220.463 319.967 220.463 320.331V328.5H219.217ZM217.936 321.969V320.94H222.451V321.969H217.936ZM223.662 328.5V320.527C223.662 320.331 223.671 320.133 223.69 319.932C223.708 319.727 223.75 319.528 223.816 319.337C223.881 319.141 223.988 318.961 224.138 318.798C224.31 318.607 224.499 318.471 224.705 318.392C224.91 318.308 225.118 318.257 225.328 318.238C225.542 318.219 225.745 318.21 225.937 318.21H226.896V319.246H226.007C225.638 319.246 225.363 319.337 225.181 319.519C224.999 319.696 224.908 319.967 224.908 320.331V328.5H223.662ZM222.381 321.969V320.94H226.896V321.969H222.381ZM228.732 328.5V320.527C228.732 320.331 228.742 320.133 228.76 319.932C228.779 319.727 228.821 319.528 228.886 319.337C228.952 319.141 229.059 318.961 229.208 318.798C229.381 318.607 229.57 318.471 229.775 318.392C229.981 318.308 230.188 318.257 230.398 318.238C230.613 318.219 230.816 318.21 231.007 318.21H231.966V319.246H231.077C230.709 319.246 230.433 319.337 230.251 319.519C230.069 319.696 229.978 319.967 229.978 320.331V328.5H228.732ZM227.451 321.969V320.94H231.966V321.969H227.451ZM233.177 328.5V320.527C233.177 320.331 233.187 320.133 233.205 319.932C233.224 319.727 233.266 319.528 233.331 319.337C233.397 319.141 233.504 318.961 233.653 318.798C233.826 318.607 234.015 318.471 234.22 318.392C234.426 318.308 234.633 318.257 234.843 318.238C235.058 318.219 235.261 318.21 235.452 318.21H236.411V319.246H235.522C235.154 319.246 234.878 319.337 234.696 319.519C234.514 319.696 234.423 319.967 234.423 320.331V328.5H233.177ZM231.896 321.969V320.94H236.411V321.969H231.896Z" fill="#999999"/>
</g>
<rect x="16.5" y="365.5" width="327" height="194" rx="19.5" stroke="#333333"/>
<path d="M184.82 488.856L184.54 484.918V481.202V481.063L184.568 484.862L184.54 484.918C183.252 487.469 179.557 489.272 176.645 489.272C173.649 489.272 170.626 487.358 170.626 483.836C170.626 481.313 172.418 479.011 175.329 477.957C177.905 477.042 182.076 476.487 184.512 476.487L184.54 478.262H184.512V476.348C184.512 475.1 184.428 471.218 178.969 471.218C174.237 471.218 173.481 474.629 173.09 476.321L170.654 475.794C170.962 473.908 172.53 468.999 179.081 468.999C184.568 468.999 187.032 472.382 187.032 476.958V484.918C187.032 486.166 187.032 486.693 188.711 486.693L190.027 486.721V488.856H184.82ZM173.201 483.892C173.201 485.251 173.873 486.887 176.645 486.887C180.508 486.887 184.232 483.781 184.54 481.202L184.512 478.262C183.056 478.345 178.521 479.233 176.029 480.148C173.761 480.98 173.201 482.672 173.201 483.892Z" fill="#0D3062"/>
<path d="M209.032 478.456V489.244H207.381L207.101 485.306C205.533 488.052 203.293 489.3 199.766 489.3C193.579 489.3 190.023 485.362 190.023 479.149C190.023 473.02 194.11 468.999 199.766 468.999C204.805 468.999 208.221 471.578 209.228 475.766L207.073 476.487C206.121 472.993 203.573 471.218 199.766 471.218C195.398 471.218 192.487 474.573 192.487 479.149C192.487 484.197 195.314 487.081 199.766 487.081C203.545 487.081 206.233 484.585 207.101 480.564H199.542V478.456H209.032Z" fill="#0D3062"/>
<path d="M223.608 484.585C223.608 482.866 222.936 480.675 219.548 480.675H214.537V488.856H212.018V469.443H214.537L220.836 469.47C224.952 469.498 227.387 471.689 227.387 474.989C227.387 477.513 225.988 479.205 223.636 479.87C225.764 481.146 225.988 483.198 225.988 485.556C225.988 486.36 225.988 486.915 227.667 486.97L228.423 486.998V488.856H223.608V484.585ZM214.537 478.511H220.388C223.608 478.511 224.812 477.291 224.812 475.183C224.812 472.937 223.44 471.634 220.248 471.634H214.537V478.511Z" fill="#0D3062"/>
<path d="M239.573 489.3C233.582 489.3 229.83 485.389 229.83 479.149C229.83 472.909 233.582 468.999 239.573 468.999C245.564 468.999 249.315 472.909 249.315 479.149C249.315 485.389 245.564 489.3 239.573 489.3ZM232.294 479.149C232.294 484.03 235.093 487.081 239.573 487.081C244.052 487.081 246.852 484.03 246.852 479.149C246.852 474.268 244.052 471.218 239.573 471.218C235.093 471.218 232.294 474.268 232.294 479.149Z" fill="#0D3062"/>
<path d="M181.376 500.199C187.032 500.199 189.271 503.971 189.271 508.88V520.029H186.808V509.545C186.808 504.331 184.596 502.418 181.18 502.418C176.085 502.418 174.265 506.689 174.237 510.682L174.153 520.056H171.746V500.643H173.873L174.041 505.108H174.125C174.265 503.888 175.777 500.199 181.376 500.199Z" fill="#0D3062"/>
<path d="M199.975 520.5C194.32 520.5 192.08 516.728 192.08 511.819V500.671H194.544V511.154C194.544 516.368 196.755 518.281 200.171 518.281C205.266 518.281 207.086 514.01 207.114 510.017L207.198 500.643H209.606V520.056H207.478L207.31 515.591H207.226C207.086 516.811 205.574 520.5 199.975 520.5Z" fill="#0D3062"/>
<path d="M227.588 500.643V502.945H220.841V520.056H218.322V502.945H211.575V500.643H227.588Z" fill="#0D3062"/>
<path d="M241.133 515.785C241.133 514.066 240.461 511.875 237.073 511.875H232.062V520.056H229.542V500.643H232.062L238.361 500.671C242.477 500.698 244.912 502.889 244.912 506.19C244.912 508.713 243.512 510.405 241.161 511.071C243.289 512.346 243.512 514.399 243.512 516.756C243.512 517.56 243.513 518.115 245.192 518.17L245.948 518.198V520.056H241.133V515.785ZM232.062 509.712H237.913C241.133 509.712 242.337 508.491 242.337 506.384C242.337 504.137 240.965 502.834 237.773 502.834H232.062V509.712Z" fill="#0D3062"/>
<path d="M247.915 500.643H250.435V520.056H247.915V500.643Z" fill="#0D3062"/>
<path d="M268.407 500.643V502.945H261.66V520.056H259.14V502.945H252.393V500.643H268.407Z" fill="#0D3062"/>
<path d="M270.361 500.643H272.881V520.056H270.361V500.643Z" fill="#0D3062"/>
<path d="M285.422 520.5C279.431 520.5 275.679 516.59 275.679 510.35C275.679 504.109 279.431 500.199 285.422 500.199C291.413 500.199 295.165 504.109 295.165 510.35C295.165 516.59 291.413 520.5 285.422 520.5ZM278.143 510.35C278.143 515.231 280.942 518.281 285.422 518.281C289.901 518.281 292.701 515.231 292.701 510.35C292.701 505.468 289.901 502.418 285.422 502.418C280.942 502.418 278.143 505.468 278.143 510.35Z" fill="#0D3062"/>
<path d="M307.605 500.199C313.26 500.199 315.5 503.971 315.5 508.88V520.029H313.036V509.545C313.036 504.331 310.825 502.418 307.409 502.418C302.314 502.418 300.494 506.689 300.466 510.682L300.382 520.056H297.974V500.643H300.102L300.27 505.108H300.354C300.494 503.888 302.006 500.199 307.605 500.199Z" fill="#0D3062"/>
<path d="M43.5 416.056C43.5 409.674 48.7226 404.5 55.1651 404.5H148.486C154.928 404.5 160.151 409.674 160.151 416.056V508.501C160.151 514.883 154.928 520.056 148.486 520.056H55.1651C48.7226 520.056 43.5 514.883 43.5 508.501V416.056Z" fill="#0A0A0A"/>
<path d="M160.151 457.223L134.305 487.123H160.151V457.223Z" fill="#0D3062"/>
<path fill-rule="evenodd" clip-rule="evenodd" d="M113.203 517.974C113.203 519.124 112.262 520.056 111.101 520.056H51.9072C47.2641 520.056 43.5 516.328 43.5 511.728V446.275C43.5 444.937 44.8467 444.024 45.9695 444.767L108.186 485.949C111.32 488.024 113.203 491.52 113.203 495.264V517.974ZM160.151 469.591C160.151 469.591 160.151 472.05 160.151 473.714V511.728C160.151 516.328 156.387 520.056 151.743 520.056H132.866C131.706 520.056 130.765 519.124 130.765 517.974V495.264C130.765 491.52 132.648 488.024 135.781 485.949L160.151 469.591ZM131.226 405.785C131.464 404.989 132.239 404.5 133.077 404.5H151.743C156.387 404.5 160.151 408.229 160.151 412.828V452.895C160.151 452.895 159.699 452.991 158.986 453.343L147.009 459.252C139.533 462.94 130.765 457.53 130.765 449.228V408.959C130.765 407.87 130.924 406.803 131.226 405.785ZM110.89 404.5C111.729 404.5 112.504 404.989 112.741 405.785C113.044 406.803 113.203 407.87 113.203 408.959V449.228C113.203 457.53 104.434 462.94 96.9583 459.252L44.6648 433.452C43.9511 433.1 43.5 432.379 43.5 431.589V412.828C43.5 408.229 47.2641 404.5 51.9072 404.5H110.89Z" fill="#0D3062"/>
<path d="M256.387 411.867C192.084 439.311 169.628 451.589 133.175 487.701L147.754 458.886C190.042 431.945 207.394 429.056 256.387 411.867Z" fill="#0A0A0A"/>
<rect x="16.5" y="560.5" width="327" height="194" rx="19.5" stroke="#333333"/>
<path d="M184.82 683.856L184.54 679.918V676.202V676.063L184.568 679.862L184.54 679.918C183.252 682.469 179.557 684.272 176.645 684.272C173.649 684.272 170.626 682.358 170.626 678.836C170.626 676.313 172.418 674.011 175.329 672.957C177.905 672.042 182.076 671.487 184.512 671.487L184.54 673.262H184.512V671.348C184.512 670.1 184.428 666.218 178.969 666.218C174.237 666.218 173.481 669.629 173.09 671.321L170.654 670.794C170.962 668.908 172.53 663.999 179.081 663.999C184.568 663.999 187.032 667.382 187.032 671.958V679.918C187.032 681.166 187.032 681.693 188.711 681.693L190.027 681.721V683.856H184.82ZM173.201 678.892C173.201 680.251 173.873 681.887 176.645 681.887C180.508 681.887 184.232 678.781 184.54 676.202L184.512 673.262C183.056 673.345 178.521 674.233 176.029 675.148C173.761 675.98 173.201 677.672 173.201 678.892Z" fill="white"/>
<path d="M209.032 673.456V684.244H207.381L207.101 680.306C205.533 683.052 203.293 684.3 199.766 684.3C193.579 684.3 190.023 680.362 190.023 674.149C190.023 668.02 194.11 663.999 199.766 663.999C204.805 663.999 208.221 666.578 209.228 670.766L207.073 671.487C206.121 667.993 203.573 666.218 199.766 666.218C195.398 666.218 192.487 669.573 192.487 674.149C192.487 679.197 195.314 682.081 199.766 682.081C203.545 682.081 206.233 679.585 207.101 675.564H199.542V673.456H209.032Z" fill="white"/>
<path d="M223.608 679.585C223.608 677.866 222.936 675.675 219.548 675.675H214.537V683.856H212.018V664.443H214.537L220.836 664.47C224.952 664.498 227.387 666.689 227.387 669.989C227.387 672.513 225.988 674.205 223.636 674.87C225.764 676.146 225.988 678.198 225.988 680.556C225.988 681.36 225.988 681.915 227.667 681.97L228.423 681.998V683.856H223.608V679.585ZM214.537 673.511H220.388C223.608 673.511 224.812 672.291 224.812 670.183C224.812 667.937 223.44 666.634 220.248 666.634H214.537V673.511Z" fill="white"/>
<path d="M239.573 684.3C233.582 684.3 229.83 680.389 229.83 674.149C229.83 667.909 233.582 663.999 239.573 663.999C245.564 663.999 249.315 667.909 249.315 674.149C249.315 680.389 245.564 684.3 239.573 684.3ZM232.294 674.149C232.294 679.03 235.093 682.081 239.573 682.081C244.052 682.081 246.852 679.03 246.852 674.149C246.852 669.268 244.052 666.218 239.573 666.218C235.093 666.218 232.294 669.268 232.294 674.149Z" fill="white"/>
<path d="M181.376 695.199C187.032 695.199 189.271 698.971 189.271 703.88V715.029H186.808V704.545C186.808 699.331 184.596 697.418 181.18 697.418C176.085 697.418 174.265 701.689 174.237 705.682L174.153 715.056H171.746V695.643H173.873L174.041 700.108H174.125C174.265 698.888 175.777 695.199 181.376 695.199Z" fill="white"/>
<path d="M199.975 715.5C194.32 715.5 192.08 711.728 192.08 706.819V695.671H194.544V706.154C194.544 711.368 196.755 713.281 200.171 713.281C205.266 713.281 207.086 709.01 207.114 705.017L207.198 695.643H209.606V715.056H207.478L207.31 710.591H207.226C207.086 711.811 205.574 715.5 199.975 715.5Z" fill="white"/>
<path d="M227.588 695.643V697.945H220.841V715.056H218.322V697.945H211.575V695.643H227.588Z" fill="white"/>
<path d="M241.133 710.785C241.133 709.066 240.461 706.875 237.073 706.875H232.062V715.056H229.542V695.643H232.062L238.361 695.671C242.477 695.698 244.912 697.889 244.912 701.19C244.912 703.713 243.512 705.405 241.161 706.071C243.289 707.346 243.512 709.399 243.512 711.756C243.512 712.56 243.513 713.115 245.192 713.17L245.948 713.198V715.056H241.133V710.785ZM232.062 704.712H237.913C241.133 704.712 242.337 703.491 242.337 701.384C242.337 699.137 240.965 697.834 237.773 697.834H232.062V704.712Z" fill="white"/>
<path d="M247.915 695.643H250.435V715.056H247.915V695.643Z" fill="white"/>
<path d="M268.407 695.643V697.945H261.66V715.056H259.14V697.945H252.393V695.643H268.407Z" fill="white"/>
<path d="M270.361 695.643H272.881V715.056H270.361V695.643Z" fill="white"/>
<path d="M285.422 715.5C279.431 715.5 275.679 711.59 275.679 705.35C275.679 699.109 279.431 695.199 285.422 695.199C291.413 695.199 295.165 699.109 295.165 705.35C295.165 711.59 291.413 715.5 285.422 715.5ZM278.143 705.35C278.143 710.231 280.942 713.281 285.422 713.281C289.901 713.281 292.701 710.231 292.701 705.35C292.701 700.468 289.901 697.418 285.422 697.418C280.942 697.418 278.143 700.468 278.143 705.35Z" fill="white"/>
<path d="M307.605 695.199C313.26 695.199 315.5 698.971 315.5 703.88V715.029H313.036V704.545C313.036 699.331 310.825 697.418 307.409 697.418C302.314 697.418 300.494 701.689 300.466 705.682L300.382 715.056H297.974V695.643H300.102L300.27 700.108H300.354C300.494 698.888 302.006 695.199 307.605 695.199Z" fill="white"/>
<path d="M43.5 611.056C43.5 604.674 48.7226 599.5 55.1651 599.5H148.486C154.928 599.5 160.151 604.674 160.151 611.056V703.501C160.151 709.883 154.928 715.056 148.486 715.056H55.1651C48.7226 715.056 43.5 709.883 43.5 703.501V611.056Z" fill="#0A0A0A"/>
<path d="M160.151 652.223L134.305 682.123H160.151V652.223Z" fill="white"/>
<path fill-rule="evenodd" clip-rule="evenodd" d="M113.203 712.974C113.203 714.124 112.262 715.056 111.101 715.056H51.9072C47.2641 715.056 43.5 711.328 43.5 706.728V641.275C43.5 639.937 44.8467 639.024 45.9695 639.767L108.186 680.949C111.32 683.024 113.203 686.52 113.203 690.264V712.974ZM160.151 664.591C160.151 664.591 160.151 667.05 160.151 668.714V706.728C160.151 711.328 156.387 715.056 151.743 715.056H132.866C131.706 715.056 130.765 714.124 130.765 712.974V690.264C130.765 686.52 132.648 683.024 135.781 680.949L160.151 664.591ZM131.226 600.785C131.464 599.989 132.239 599.5 133.077 599.5H151.743C156.387 599.5 160.151 603.229 160.151 607.828V647.895C160.151 647.895 159.699 647.991 158.986 648.343L147.009 654.252C139.533 657.94 130.765 652.53 130.765 644.228V603.959C130.765 602.87 130.924 601.803 131.226 600.785ZM110.89 599.5C111.729 599.5 112.504 599.989 112.741 600.785C113.044 601.803 113.203 602.87 113.203 603.959V644.228C113.203 652.53 104.434 657.94 96.9583 654.252L44.6648 628.452C43.9511 628.1 43.5 627.379 43.5 626.589V607.828C43.5 603.229 47.2641 599.5 51.9072 599.5H110.89Z" fill="white"/>
<path d="M256.387 606.867C192.084 634.311 169.628 646.589 133.175 682.701L147.754 653.886C190.042 626.945 207.394 624.056 256.387 606.867Z" fill="#0A0A0A"/>
<defs>
<clipPath id="clip0_2558_49349">
<rect x="19" y="172.5" width="53" height="160" rx="8" fill="white"/>
</clipPath>
<clipPath id="clip1_2558_49349">
<rect x="80" y="172.5" width="120" height="160" rx="8" fill="white"/>
</clipPath>
<clipPath id="clip2_2558_49349">
<rect x="208" y="172.5" width="120" height="160" rx="8" fill="white"/>
</clipPath>
</defs>
</svg>
