<svg width="20" height="20" viewBox="0 0 20 20" fill="none" xmlns="http://www.w3.org/2000/svg">
<g clip-path="url(#clip0_721_37230)">
<path d="M10 0C4.47711 0 0 4.47711 0 10C0 15.5229 4.47711 20 10 20C15.5229 20 20 15.5229 20 10C20 4.47711 15.5229 0 10 0Z" fill="#0A0A0A"/>
<path d="M14.8658 5.75251L13.0797 14.7577C13.0797 14.7577 12.8299 15.3823 12.143 15.0825L8.02126 11.9225L6.52251 11.1981L3.99954 10.3488C3.99954 10.3488 3.61236 10.2114 3.57486 9.91165C3.53743 9.61189 4.01204 9.44954 4.01204 9.44954L14.0414 5.51517C14.0414 5.51517 14.8658 5.15298 14.8658 5.75251Z" fill="white"/>
<path d="M7.70454 14.6566C7.70454 14.6566 7.58422 14.6454 7.4343 14.1707C7.28446 13.6961 6.52258 11.1981 6.52258 11.1981L12.5802 7.35121C12.5802 7.35121 12.9299 7.13887 12.9174 7.35121C12.9174 7.35121 12.9798 7.38863 12.7925 7.56348C12.6052 7.7384 8.03383 11.8475 8.03383 11.8475" fill="#0A0A0A"/>
<path d="M9.60166 13.134L7.97134 14.6204C7.97134 14.6204 7.84392 14.7171 7.70447 14.6565L8.01666 11.8955" fill="#0A0A0A"/>
</g>
<defs>
<clipPath id="clip0_721_37230">
<rect width="20" height="20" fill="white"/>
</clipPath>
</defs>
</svg>
