<svg width="20" height="20" viewBox="0 0 20 20" fill="none" xmlns="http://www.w3.org/2000/svg">
<g clip-path="url(#clip0_721_37241)">
<path fill-rule="evenodd" clip-rule="evenodd" d="M0.916626 9.99984C0.916626 4.98325 4.98337 0.916504 9.99996 0.916504C15.0165 0.916504 19.0833 4.98325 19.0833 9.99984C19.0833 15.0164 15.0165 19.0832 9.99996 19.0832C4.98337 19.0832 0.916626 15.0164 0.916626 9.99984ZM10.75 6.6665C10.75 6.25229 10.4142 5.9165 9.99996 5.9165C9.58575 5.9165 9.24996 6.25229 9.24996 6.6665V9.99984C9.24996 10.2506 9.37529 10.4848 9.58393 10.6239L12.0839 12.2905C12.4286 12.5203 12.8942 12.4272 13.124 12.0825C13.3538 11.7379 13.2606 11.2722 12.916 11.0425L10.75 9.59845V6.6665Z" fill="white"/>
</g>
<defs>
<clipPath id="clip0_721_37241">
<rect width="20" height="20" fill="white"/>
</clipPath>
</defs>
</svg>
