<svg width="162" height="60" viewBox="0 0 162 60" fill="none" xmlns="http://www.w3.org/2000/svg">
<path d="M15.9488 36.2794V36.7529H12.8606L11.6253 33.9529H4.87236L3.63706 36.7529H0.548828V36.2794L6.54 23.2471H9.95765L15.9488 36.2794ZM10.4518 31.2765L8.24883 26.2529L6.04589 31.2765H10.4518Z" fill="white"/>
<path d="M22.8568 23.2471V36.7529H19.748V23.2471H22.8568Z" fill="white"/>
<path d="M41.7533 27.8382C41.7533 28.9363 41.4033 29.8353 40.7033 30.5353C40.017 31.2353 39.0356 31.6745 37.7592 31.8529L41.6915 36.2794V36.7529H38.1503L33.9503 31.9147H31.1298V36.7529H28.0415V23.2471H36.6062C38.2121 23.2471 39.468 23.6382 40.3739 24.4206C41.2935 25.1892 41.7533 26.2529 41.7533 27.6118V27.8382ZM38.6033 27.55C38.6033 27.0422 38.4249 26.6578 38.068 26.3971C37.7248 26.1225 37.2101 25.9853 36.5239 25.9853H31.1298V29.3618H36.5239C37.1964 29.3618 37.7111 29.2314 38.068 28.9706C38.4249 28.6961 38.6033 28.298 38.6033 27.7765V27.55Z" fill="white"/>
<path d="M48.5199 37C47.9983 37 47.566 36.8422 47.2228 36.5265C46.8934 36.1971 46.7287 35.7784 46.7287 35.2706C46.7287 34.7627 46.8934 34.351 47.2228 34.0353C47.566 33.7059 47.9983 33.5412 48.5199 33.5412C49.0552 33.5412 49.4875 33.7059 49.8169 34.0353C50.1464 34.351 50.3111 34.7627 50.3111 35.2706C50.3111 35.7922 50.1464 36.2108 49.8169 36.5265C49.4875 36.8422 49.0552 37 48.5199 37Z" fill="white"/>
<path d="M69.6431 36.2794V36.7529H66.5549L65.3196 33.9529H58.5666L57.3313 36.7529H54.2431V36.2794L60.2343 23.2471H63.6519L69.6431 36.2794ZM64.146 31.2765L61.9431 26.2529L59.7402 31.2765H64.146Z" fill="white"/>
<path d="M88.2027 29.3412V36.7529H85.4233L85.3204 35.5588C84.0576 36.5196 82.4106 37 80.3792 37C78.7047 37 77.2429 36.7255 75.9939 36.1765C74.7449 35.6137 73.7841 34.8176 73.1116 33.7882C72.439 32.7451 72.1028 31.5235 72.1028 30.1235V29.8971C72.1028 28.5108 72.439 27.3029 73.1116 26.2735C73.7978 25.2304 74.7586 24.4275 75.9939 23.8647C77.2429 23.2882 78.691 23 80.338 23C81.9165 23 83.2959 23.2059 84.4763 23.6176C85.6567 24.0157 86.5694 24.5853 87.2145 25.3265C87.8596 26.0676 88.1822 26.9324 88.1822 27.9206V28.0029H85.0322V27.9206C85.0322 27.55 84.8194 27.2069 84.3939 26.8912C83.9822 26.5618 83.4194 26.301 82.7057 26.1088C82.0057 25.9167 81.2439 25.8206 80.4204 25.8206C78.7596 25.8206 77.4831 26.1706 76.591 26.8706C75.6988 27.5569 75.2527 28.552 75.2527 29.8559V30.1647C75.2527 31.4961 75.6851 32.498 76.5498 33.1706C77.4282 33.8431 78.7184 34.1794 80.4204 34.1794C81.4498 34.1794 82.3626 34.0559 83.1586 33.8088C83.9684 33.548 84.641 33.1912 85.1763 32.7382V31.8941H78.4439V29.3412H88.2027Z" fill="white"/>
<path d="M104.877 23.2471V25.9647H95.9626V28.6412H104.466V31.3382H95.9626V34.0353H104.877V36.7529H92.8743V23.2471H104.877Z" fill="white"/>
<path d="M123.461 23.2471V36.7529H120.497L112.776 27.5912V36.7529H109.811V23.2471H112.776L120.497 32.3882V23.2471H123.461Z" fill="white"/>
<path d="M136.274 37C134.641 37 133.207 36.7186 131.971 36.1559C130.736 35.5931 129.782 34.7971 129.109 33.7676C128.451 32.7245 128.121 31.5098 128.121 30.1235V29.8971C128.121 28.5108 128.451 27.3029 129.109 26.2735C129.782 25.2304 130.736 24.4275 131.971 23.8647C133.207 23.2882 134.641 23 136.274 23C137.784 23 139.136 23.2471 140.33 23.7412C141.538 24.2353 142.478 24.9216 143.151 25.8C143.837 26.6784 144.18 27.6667 144.18 28.7647V28.9294H141.03V28.7647C141.03 28.202 140.824 27.701 140.412 27.2618C140.014 26.8225 139.452 26.4794 138.724 26.2324C138.01 25.9853 137.187 25.8618 136.254 25.8618C134.62 25.8618 133.378 26.2049 132.527 26.8912C131.69 27.5775 131.271 28.5657 131.271 29.8559V30.1647C131.271 31.4686 131.69 32.4569 132.527 33.1294C133.364 33.802 134.613 34.1382 136.274 34.1382C137.715 34.1382 138.868 33.8775 139.733 33.3559C140.598 32.8206 141.03 32.1206 141.03 31.2559V31.1118H144.18V31.2559C144.18 32.3539 143.837 33.3422 143.151 34.2206C142.478 35.0853 141.538 35.7647 140.33 36.2588C139.136 36.7529 137.784 37 136.274 37Z" fill="white"/>
<path d="M161.45 23.2471V23.7206L155.521 31.5029V36.7529H152.412V31.5029L146.462 23.7206V23.2471H149.818L153.956 28.7029L158.094 23.2471H161.45Z" fill="white"/>
</svg>
