<svg width="160" height="60" viewBox="0 0 160 60" fill="none" xmlns="http://www.w3.org/2000/svg">
<path d="M7.65424 11.1813C4.90685 11.7856 2.59953 13.6953 1.23178 16.5235C0.351669 18.3607 0.0186525 19.8352 0.0067591 21.8658C0.0067591 24.0534 0.482496 25.951 1.48154 27.7277C2.80172 30.0846 4.57384 31.5833 7.0001 32.3931C7.83264 32.6711 7.83264 32.6711 15.9202 32.7195L24.0077 32.7557L24.864 33.1667C26.1366 33.7952 26.9692 34.8588 27.4449 36.4784C27.6828 37.2882 27.6947 38.9803 27.4687 39.8263C27.1 41.2525 26.0296 42.6183 24.7927 43.2226L24.1266 43.5611H8.18944L7.51152 43.2347C6.00105 42.5216 4.77603 40.7328 4.60952 38.9924L4.52626 38.1826H2.30219C1.07717 38.1826 0.0543328 38.2067 0.030546 38.243C-0.0883884 38.3518 0.161374 40.2856 0.411136 41.2525C1.33882 44.806 3.64615 47.5133 6.71465 48.6011L7.83264 49H15.9796C24.7451 49 24.6381 49.0121 26.1485 48.3594C27.207 47.9001 28.1942 47.1991 29.0981 46.2563C30.3826 44.9027 31.2389 43.3798 31.8693 41.2525C32.1666 40.2856 32.1904 39.9834 32.2023 38.243C32.2023 36.7563 32.1547 36.1279 32.0001 35.5235C30.9297 31.5471 28.5629 28.7793 25.1971 27.631C24.5191 27.3893 24.1147 27.3772 16.3364 27.3168L8.18944 27.2443L7.51152 26.9179C6.22702 26.3136 5.13283 24.9237 4.72845 23.4008C4.38354 22.0833 4.58573 20.3066 5.22798 19.0254C5.64425 18.2036 6.58383 17.2487 7.40447 16.8378L8.07051 16.4873H24.1266L24.8165 16.8257C26.3983 17.6234 27.3617 19.1463 27.6947 21.4065L27.766 21.8658H29.9663C31.7028 21.8658 32.1785 21.8295 32.2261 21.6966C32.3331 21.4186 32.0596 19.6781 31.7384 18.542C31.1794 16.5961 30.228 14.9402 28.8721 13.5865C27.4806 12.1966 25.8988 11.3747 24.1029 11.1088C23.639 11.0483 20.1304 11 15.8607 11C9.93778 11 8.2727 11.0363 7.65424 11.1813Z" fill="white"/>
<path d="M15.5634 37.1552C15.3017 37.2519 15.0757 37.3365 15.0638 37.3365C14.9568 37.3365 14.5524 38.3518 14.5524 38.6177C14.5524 39.4396 15.3136 40.2373 16.1105 40.2373C16.6576 40.2373 17.05 40.0076 17.3712 39.5242C17.8826 38.7506 17.5971 37.5299 16.836 37.2398C16.2294 36.9981 16.0391 36.986 15.5634 37.1552Z" fill="white"/>
<path fill-rule="evenodd" clip-rule="evenodd" d="M46.0029 19.409C44.3535 19.7113 42.8568 20.4463 41.8201 21.4633C40.5642 22.6952 40.0549 24.0453 40.1414 25.9118C40.2143 27.4811 40.5128 28.2516 41.4364 29.255C42.597 30.5158 43.9979 31.1367 47.8449 32.0949C50.8385 32.8406 51.7682 33.4147 51.7693 34.5187C51.7708 35.9912 50.1035 36.9215 47.726 36.7745C45.7976 36.6554 43.7914 35.8365 42.4492 34.6208C42.0748 34.2817 41.7543 34.0243 41.7371 34.0489C41.7199 34.0736 41.3112 34.6648 40.8289 35.3628C40.3465 36.0608 39.8245 36.8046 39.6688 37.0158L39.3857 37.3998L40.1891 38.0731C42.3499 39.8845 45.4821 40.8262 48.7267 40.6402C51.3016 40.4925 53.1438 39.7912 54.4513 38.4607C55.7159 37.1739 56.2572 35.5977 56.1417 33.5384C56.0889 32.5984 56.0206 32.3244 55.6486 31.5593C55.1217 30.476 54.2409 29.6126 53.0306 28.993C51.8789 28.4035 51.2474 28.1917 48.5874 27.5022C45.2444 26.6358 44.5148 26.2088 44.5148 25.1188C44.5148 24.4946 44.9125 23.9025 45.5849 23.5253C45.9898 23.2981 46.3414 23.2181 47.1146 23.1767C49.0025 23.076 50.9385 23.6406 52.4815 24.7418C52.9538 25.0789 53.3798 25.3085 53.4281 25.2522C53.7555 24.8703 55.6946 22.2157 55.6946 22.1494C55.6946 22.0046 54.2323 20.9663 53.4948 20.5876C51.8612 19.7484 50.386 19.4016 48.2017 19.3431C47.3186 19.3196 46.3291 19.3492 46.0029 19.409ZM136.332 25.331H133.953V28.7153H136.332V32.8024C136.332 36.8977 136.411 37.9525 136.772 38.6842C137.098 39.3432 137.894 40.0652 138.588 40.3301C139.866 40.8182 141.924 40.747 143.04 40.1762C143.848 39.7626 143.832 39.8409 143.409 38.3168C143.196 37.551 143 36.9018 142.973 36.8741C142.946 36.8466 142.685 36.9077 142.393 37.0102C141.781 37.2251 141.167 37.162 140.82 36.8486C140.297 36.3752 140.257 36.0496 140.257 32.2846V28.7153H143.23V25.331H140.257V21.2216H136.332V25.331ZM63.7504 25.1575C61.2947 25.7622 59.3631 27.618 58.4749 30.2261C58.1776 31.0992 58.1458 31.3513 58.1483 32.8247C58.1507 34.2686 58.1879 34.5706 58.4728 35.4493C59.0922 37.3604 60.3767 38.8838 62.1213 39.7766C63.4152 40.4388 64.2234 40.6104 66.0419 40.6093C68.3091 40.608 69.7696 40.1899 71.4234 39.0693C71.7341 38.8589 71.9882 38.6397 71.9884 38.5824C71.9885 38.5057 70.6149 36.3961 70.3781 36.1094C70.3604 36.088 70.0598 36.2613 69.7103 36.4945C68.726 37.1513 67.7137 37.4528 66.4582 37.4633C65.8694 37.4683 65.1652 37.405 64.8933 37.3224C64.2473 37.1265 63.3536 36.5042 62.912 35.9424C62.5577 35.4919 62.0865 34.3022 62.1928 34.1273C62.2243 34.0756 64.6892 34.0333 67.6706 34.0333H73.0911L73.0283 32.5527C72.9238 30.0907 72.3031 28.5495 70.8004 27.0211C69.8084 26.0121 68.8584 25.4614 67.5817 25.1557C66.6333 24.9285 64.6765 24.9294 63.7504 25.1575ZM80.5776 25.2125C76.9881 26.1681 74.7787 29.3732 74.9967 33.3081C75.16 36.2541 76.6081 38.5613 79.0573 39.7776C82.3023 41.3889 86.341 40.7504 88.3252 38.3123L88.6299 37.9381L86.1348 35.5803L85.5942 36.0867C84.8025 36.8284 84.1228 37.1009 83.0495 37.1069C81.3389 37.1165 80.0865 36.3414 79.4112 34.8552C79.0955 34.1605 79.0652 33.9771 79.0652 32.7642C79.0652 31.5787 79.0993 31.3607 79.3801 30.7521C79.5533 30.3767 79.92 29.8409 80.1949 29.5614C80.8887 28.8564 81.5972 28.5626 82.7522 28.501C83.9766 28.4354 84.8385 28.7394 85.5875 29.5006L86.1065 30.028L87.3135 28.8783C87.9773 28.2459 88.5205 27.6572 88.5205 27.5702C88.5205 27.2876 87.1603 26.1229 86.3668 25.726C85.9417 25.5133 85.2489 25.2567 84.8272 25.1557C83.7357 24.8942 81.6689 24.9218 80.5776 25.2125ZM98.0352 25.2435C97.0308 25.5928 96.2925 26.0404 95.6116 26.7129L95.0619 27.2558V25.331H91.137V40.3183H95.0619V30.3115L95.5023 29.9186C95.7444 29.7025 96.2855 29.3626 96.7045 29.1634C97.3285 28.8666 97.6683 28.7903 98.5833 28.7417L99.7003 28.6823V24.9684L99.2543 24.9716C99.0091 24.9733 98.4604 25.0957 98.0352 25.2435ZM106.741 25.2128C105.407 25.5682 104.52 26.1026 103.444 27.1989C102.378 28.2852 101.747 29.405 101.432 30.77C101.197 31.7852 101.197 33.8651 101.432 34.8776C102.059 37.5843 104.079 39.6503 106.836 40.4071C107.981 40.7213 110.496 40.6832 111.772 40.3326C112.88 40.028 113.941 39.5387 114.658 39.0022L115.165 38.6226L114.328 37.3553C113.868 36.6583 113.471 36.088 113.446 36.088C113.422 36.088 113.125 36.2774 112.786 36.509C112.068 36.9998 110.883 37.4015 109.863 37.4996C107.966 37.6821 106.117 36.6314 105.53 35.0382C105.398 34.6799 105.29 34.3073 105.29 34.21C105.29 34.0575 106.04 34.0333 110.761 34.0333H116.232L116.23 33.2779C116.217 29.1366 114.105 26.0295 110.706 25.1515C109.711 24.8945 107.828 24.9236 106.741 25.2128ZM123.091 25.1653C121.701 25.4682 120.079 26.235 119.242 26.9851L118.862 27.3253L120.313 29.9094L121.04 29.3819C121.44 29.0917 122.051 28.7408 122.398 28.6019C124.246 27.8615 126.447 28.127 127.333 29.1971C127.751 29.7015 127.886 30.2727 127.887 31.5292L127.888 32.5908L127.239 32.0933C126.326 31.3923 125.123 30.9905 123.725 30.9191C121.777 30.8196 120.322 31.3258 119.271 32.4682C118.606 33.191 118.31 33.8247 118.145 34.8814C117.732 37.5382 119.242 39.7959 121.905 40.5006C123.644 40.9611 126.166 40.3796 127.39 39.2361C127.606 39.0336 127.807 38.8679 127.836 38.8679C127.864 38.8679 127.888 39.1956 127.888 39.5961V40.3243L131.753 40.2579L131.786 35.5441C131.821 30.5512 131.745 29.3072 131.334 28.1913C130.794 26.7248 129.29 25.5407 127.471 25.1511C126.416 24.9249 124.16 24.9323 123.091 25.1653ZM150.509 25.2128C149.208 25.5591 148.286 26.1079 147.269 27.1399C145.743 28.6883 145.014 30.5261 145.014 32.8247C145.014 35.13 145.694 36.8975 147.157 38.3945C148.14 39.4006 149.207 40.0238 150.604 40.4071C151.743 40.7196 154.261 40.683 155.54 40.3355C156.636 40.0373 157.984 39.3953 158.542 38.9045L158.928 38.5658L158.089 37.3269C157.628 36.6456 157.207 36.088 157.154 36.088C157.1 36.088 156.986 36.1738 156.9 36.2787C156.703 36.5202 155.851 36.9554 155.005 37.2469C154.549 37.404 154.009 37.4724 153.221 37.4728C152.227 37.4733 152.001 37.4313 151.343 37.1244C150.43 36.6992 149.526 35.7479 149.249 34.9225C149.144 34.6092 149.058 34.281 149.058 34.1931C149.058 34.0629 150.073 34.0333 154.529 34.0333H160V33.2031C160 32.0308 159.693 30.3857 159.295 29.423C158.848 28.3408 157.988 27.1331 157.226 26.516C156.492 25.9224 155.188 25.2892 154.315 25.103C153.338 24.8945 151.507 24.9473 150.509 25.2128ZM64.4817 28.2707C63.4036 28.68 62.7412 29.345 62.3382 30.423C61.953 31.4528 61.6721 31.3743 65.7416 31.3743H69.3661L69.2981 30.9815C69.1877 30.3449 68.6744 29.3546 68.2796 29.0172C67.5534 28.3962 66.9973 28.1911 65.923 28.148C65.2723 28.1219 64.7587 28.1657 64.4817 28.2707ZM107.38 28.3548C106.393 28.7464 105.496 29.8722 105.24 31.0419L105.167 31.3743H108.797C112.903 31.3743 112.603 31.4619 112.237 30.3692C111.958 29.5359 111.13 28.6617 110.335 28.3594C109.481 28.0347 108.192 28.0326 107.38 28.3548ZM151.237 28.3089C150.245 28.6661 149.294 29.8349 149.012 31.0419L148.935 31.3743H156.225L156.146 30.8781C155.976 29.7978 155.116 28.7445 154.082 28.3514C153.323 28.0626 151.977 28.0425 151.237 28.3089ZM123.724 33.655C122.777 33.9724 122.233 34.5216 122.051 35.3426C121.83 36.3443 122.416 37.3311 123.479 37.7485C124.662 38.2125 126.624 37.8786 127.502 37.0641C127.875 36.7175 127.888 36.6749 127.888 35.743C127.888 34.8052 127.878 34.7713 127.501 34.448C126.84 33.8803 126.15 33.6413 125.039 33.5964C124.48 33.5737 123.888 33.6001 123.724 33.655Z" fill="white"/>
</svg>
