<svg width="160" height="60" viewBox="0 0 160 60" fill="none" xmlns="http://www.w3.org/2000/svg">
<path d="M32.6196 5.92399C33.7072 5.92399 34.5888 5.04557 34.5888 3.96199C34.5888 2.87841 33.7072 2 32.6196 2C31.5321 2 30.6504 2.87841 30.6504 3.96199C30.6504 5.04557 31.5321 5.92399 32.6196 5.92399Z" fill="white"/>
<path d="M74.6632 34.2367H70.2051L76.2349 3.49512L86.2097 25.7045L96.2804 3.49512L101.701 34.2367H97.2427L94.3241 17.0125L85.9851 34.5244L77.7103 16.9805L74.6632 34.2367Z" fill="white"/>
<path d="M104.01 3.78271H108.756L116.326 22.9244L124.055 3.49512L131.528 22.9244L139.354 3.81467H144.101L131.271 34.2367L123.799 13.9766L116.229 34.2367L104.01 3.78271Z" fill="white"/>
<path d="M149.516 3.49512H153.91V34.2367H149.516V3.49512Z" fill="white"/>
<path d="M73.1543 51.3526L74.8389 46.002H75.381L75.0583 47.4413L73.2963 52.9856H72.7541L73.1543 51.3526ZM71.4052 46.002L72.8832 51.3849L73.1995 52.9856H72.6379L70.6113 46.002H71.4052ZM77.4787 51.3655L78.918 46.002H79.7119L77.6853 52.9856H77.1302L77.4787 51.3655ZM75.4907 46.002L77.1496 51.3075L77.5691 52.9856H77.0269L75.2262 47.4348L74.9228 46.002H75.4907Z" fill="white"/>
<path d="M82.054 46.0019V52.9856H81.2859V46.0019H82.054ZM81.1504 43.9818C81.1504 43.8354 81.1955 43.7128 81.2859 43.6138C81.3806 43.5105 81.5096 43.459 81.6732 43.459C81.8366 43.459 81.9658 43.5105 82.0604 43.6138C82.1593 43.7128 82.2088 43.8354 82.2088 43.9818C82.2088 44.1238 82.1593 44.2463 82.0604 44.3496C81.9658 44.4486 81.8366 44.4981 81.6732 44.4981C81.5096 44.4981 81.3806 44.4486 81.2859 44.3496C81.1955 44.2463 81.1504 44.1238 81.1504 43.9818Z" fill="white"/>
<path d="M86.8048 46.0023V46.6348H83.3066V46.0023H86.8048ZM84.591 44.208H85.3591V51.2884C85.3591 51.6111 85.4022 51.8543 85.4882 52.0178C85.5742 52.1813 85.6861 52.291 85.8238 52.3469C85.9615 52.4029 86.1099 52.4309 86.2691 52.4309C86.3853 52.4309 86.4972 52.4244 86.6048 52.4115C86.7123 52.3943 86.8092 52.377 86.8952 52.3599L86.9275 53.0117C86.8329 53.0418 86.7102 53.0655 86.5596 53.0827C86.409 53.1042 86.2584 53.115 86.1078 53.115C85.8109 53.115 85.5484 53.0613 85.3204 52.9537C85.0923 52.8418 84.9137 52.6525 84.7847 52.3857C84.6556 52.1146 84.591 51.7467 84.591 51.282V44.208Z" fill="white"/>
<path d="M89.1918 43.0713V52.9852H88.4238V43.0713H89.1918ZM89.0176 49.061L88.6755 48.8673C88.7013 48.4542 88.7853 48.0669 88.9273 47.7055C89.0692 47.3441 89.2607 47.0257 89.5017 46.7503C89.7469 46.4749 90.0331 46.2598 90.3601 46.1048C90.6914 45.9499 91.0571 45.8725 91.4573 45.8725C91.8059 45.8725 92.1178 45.9198 92.3932 46.0145C92.6686 46.1091 92.9031 46.2598 93.0968 46.4663C93.2903 46.6729 93.4367 46.9374 93.5356 47.2601C93.6389 47.5829 93.6905 47.9766 93.6905 48.4413V52.9852H92.916V48.4349C92.916 47.9529 92.8493 47.5764 92.716 47.3054C92.5826 47.0299 92.3933 46.8342 92.148 46.718C91.9027 46.6019 91.6122 46.5437 91.2766 46.5437C90.9065 46.5437 90.5817 46.6255 90.302 46.789C90.0266 46.9482 89.7942 47.1568 89.6049 47.4151C89.4199 47.669 89.2779 47.9422 89.179 48.2348C89.0799 48.5231 89.0262 48.7985 89.0176 49.061Z" fill="white"/>
<path d="M101.534 40.9033V52.9859H99.9316V40.9033H101.534Z" fill="white"/>
<path d="M105.749 45.9237V52.9857H104.215V44.0067H105.667L105.749 45.9237ZM105.385 48.156L104.745 48.1311C104.751 47.517 104.843 46.9499 105.019 46.4299C105.197 45.9043 105.445 45.4479 105.766 45.0606C106.087 44.6734 106.469 44.3747 106.911 44.1644C107.36 43.9486 107.855 43.8408 108.397 43.8408C108.839 43.8408 109.238 43.9016 109.592 44.0233C109.946 44.1396 110.247 44.3276 110.496 44.5877C110.75 44.8477 110.944 45.1851 111.077 45.6C111.21 46.0094 111.276 46.5101 111.276 47.1021V52.9857H109.733V47.0855C109.733 46.6152 109.664 46.239 109.526 45.9569C109.387 45.6692 109.185 45.4617 108.92 45.3345C108.654 45.2018 108.328 45.1353 107.941 45.1353C107.558 45.1353 107.21 45.2155 106.894 45.376C106.585 45.5365 106.317 45.7577 106.09 46.0399C105.868 46.322 105.694 46.6457 105.567 47.0108C105.445 47.3704 105.385 47.7521 105.385 48.156Z" fill="white"/>
<path d="M119.266 51.243V40.2393H120.81V52.9857H119.399L119.266 51.243ZM113.225 48.5958V48.4215C113.225 47.7356 113.308 47.1132 113.474 46.5544C113.646 45.9901 113.886 45.506 114.196 45.1022C114.512 44.6983 114.884 44.3885 115.316 44.1727C115.753 43.9514 116.24 43.8408 116.777 43.8408C117.341 43.8408 117.833 43.9403 118.254 44.1396C118.68 44.3331 119.04 44.6181 119.332 44.9942C119.632 45.3649 119.867 45.813 120.038 46.3387C120.21 46.8642 120.329 47.4589 120.395 48.1228V48.8862C120.334 49.5446 120.215 50.1365 120.038 50.6621C119.867 51.1877 119.632 51.6358 119.332 52.0065C119.04 52.3771 118.68 52.662 118.254 52.8612C117.827 53.0548 117.33 53.1517 116.761 53.1517C116.235 53.1517 115.753 53.0383 115.316 52.8114C114.884 52.5846 114.512 52.2665 114.196 51.8571C113.886 51.4477 113.646 50.9664 113.474 50.4132C113.308 49.8544 113.225 49.2486 113.225 48.5958ZM114.768 48.4215V48.5958C114.768 49.0439 114.813 49.4644 114.901 49.8571C114.995 50.2499 115.139 50.5958 115.333 50.8945C115.527 51.1932 115.773 51.4283 116.071 51.5998C116.37 51.7658 116.727 51.8488 117.142 51.8488C117.651 51.8488 118.068 51.7409 118.395 51.5251C118.727 51.3094 118.993 51.0245 119.192 50.6705C119.391 50.3164 119.546 49.9318 119.656 49.5169V47.517C119.59 47.2127 119.493 46.9195 119.366 46.6374C119.244 46.3497 119.084 46.0951 118.885 45.8739C118.69 45.647 118.451 45.4673 118.163 45.3345C117.88 45.2018 117.546 45.1353 117.158 45.1353C116.738 45.1353 116.375 45.2239 116.071 45.4009C115.773 45.5724 115.527 45.8103 115.333 46.1146C115.139 46.4133 114.995 46.7618 114.901 47.1602C114.813 47.553 114.768 47.9734 114.768 48.4215Z" fill="white"/>
<path d="M124.868 44.0069V52.9858H123.325V44.0069H124.868ZM123.209 41.6253C123.209 41.3763 123.284 41.1661 123.433 40.9946C123.588 40.8231 123.814 40.7373 124.114 40.7373C124.406 40.7373 124.631 40.8231 124.786 40.9946C124.946 41.1661 125.026 41.3763 125.026 41.6253C125.026 41.8631 124.946 42.0678 124.786 42.2394C124.631 42.4053 124.406 42.4883 124.114 42.4883C123.814 42.4883 123.588 42.4053 123.433 42.2394C123.284 42.0678 123.209 41.8631 123.209 41.6253Z" fill="white"/>
<path d="M130.063 51.5999L132.52 44.0068H134.088L130.86 52.9858H129.831L130.063 51.5999ZM128.014 44.0068L130.545 51.6415L130.719 52.9858H129.69L126.438 44.0068H128.014Z" fill="white"/>
<path d="M137.234 44.0069V52.9858H135.69V44.0069H137.234ZM135.574 41.6253C135.574 41.3763 135.649 41.1661 135.799 40.9946C135.954 40.8231 136.18 40.7373 136.479 40.7373C136.772 40.7373 136.996 40.8231 137.151 40.9946C137.312 41.1661 137.392 41.3763 137.392 41.6253C137.392 41.8631 137.312 42.0678 137.151 42.2394C136.996 42.4053 136.772 42.4883 136.479 42.4883C136.18 42.4883 135.954 42.4053 135.799 42.2394C135.649 42.0678 135.574 41.8631 135.574 41.6253Z" fill="white"/>
<path d="M145.358 51.243V40.2393H146.901V52.9857H145.49L145.358 51.243ZM139.316 48.5958V48.4215C139.316 47.7356 139.4 47.1132 139.566 46.5544C139.738 45.9901 139.977 45.506 140.288 45.1022C140.603 44.6983 140.976 44.3885 141.408 44.1727C141.845 43.9514 142.332 43.8408 142.868 43.8408C143.433 43.8408 143.925 43.9403 144.345 44.1396C144.772 44.3331 145.131 44.6181 145.424 44.9942C145.723 45.3649 145.958 45.813 146.13 46.3387C146.301 46.8642 146.42 47.4589 146.487 48.1228V48.8862C146.426 49.5446 146.307 50.1365 146.13 50.6621C145.958 51.1877 145.723 51.6358 145.424 52.0065C145.131 52.3771 144.772 52.662 144.345 52.8612C143.919 53.0548 143.422 53.1517 142.851 53.1517C142.326 53.1517 141.845 53.0383 141.408 52.8114C140.976 52.5846 140.603 52.2665 140.288 51.8571C139.977 51.4477 139.738 50.9664 139.566 50.4132C139.4 49.8544 139.316 49.2486 139.316 48.5958ZM140.86 48.4215V48.5958C140.86 49.0439 140.905 49.4644 140.993 49.8571C141.087 50.2499 141.231 50.5958 141.425 50.8945C141.618 51.1932 141.864 51.4283 142.163 51.5998C142.461 51.7658 142.818 51.8488 143.234 51.8488C143.743 51.8488 144.16 51.7409 144.487 51.5251C144.818 51.3094 145.084 51.0245 145.284 50.6705C145.483 50.3164 145.638 49.9318 145.748 49.5169V47.517C145.681 47.2127 145.585 46.9195 145.457 46.6374C145.336 46.3497 145.175 46.0951 144.976 45.8739C144.782 45.647 144.541 45.4673 144.254 45.3345C143.972 45.2018 143.637 45.1353 143.25 45.1353C142.83 45.1353 142.467 45.2239 142.163 45.4009C141.864 45.5724 141.618 45.8103 141.425 46.1146C141.231 46.4133 141.087 46.7618 140.993 47.1602C140.905 47.553 140.86 47.9734 140.86 48.4215Z" fill="white"/>
<path d="M149.988 41.1836H151.28C151.573 41.1836 151.82 41.216 152.022 41.2808C152.226 41.3457 152.381 41.4417 152.486 41.5688C152.593 41.6946 152.647 41.8496 152.647 42.0337C152.647 42.1635 152.61 42.2821 152.537 42.3898C152.465 42.4961 152.362 42.5869 152.226 42.6621C152.092 42.736 151.931 42.7912 151.744 42.8275L151.599 42.8683H150.385L150.379 42.5629H151.296C151.482 42.5629 151.637 42.5395 151.76 42.4929C151.883 42.4449 151.976 42.3807 152.038 42.3003C152.1 42.2198 152.133 42.131 152.133 42.0337C152.133 41.9248 152.102 41.8295 152.044 41.7477C151.984 41.6661 151.892 41.6032 151.765 41.5591C151.64 41.5137 151.478 41.4909 151.28 41.4909H150.506V44.0161H149.988V41.1836ZM152.268 44.0161L151.321 42.7321L151.859 42.7302L152.821 43.9928V44.0161H152.268Z" fill="white"/>
<path d="M151.403 45.1959C152.837 45.1959 154 44.0334 154 42.5994C154 41.1654 152.837 40.0029 151.403 40.0029C149.969 40.0029 148.807 41.1654 148.807 42.5994C148.807 44.0334 149.969 45.1959 151.403 45.1959Z" stroke="white" stroke-width="0.5"/>
<path d="M49.8146 35.6689H57.5156L59.2738 32.7258H47.7752L42.7467 46.67L39.5468 40.9242L34.0964 50.8392V8.41113H31.1426V57.0054H34.0964L39.5468 46.6349L42.9225 53.677L43.7313 51.54L44.4346 49.7181" fill="white"/>
<path d="M15.4591 29.7477H7.72303L6 32.6908H17.4987L22.5271 18.7116L25.6919 24.4924L31.1422 14.5774V57.0054H34.1312V8.41113H31.1422L25.727 18.7817L22.3513 11.7395L21.5425 13.8767H21.5074L20.8392 15.6635V15.6985" fill="white"/>
</svg>
