<svg width="160" height="60" viewBox="0 0 160 60" fill="none" xmlns="http://www.w3.org/2000/svg">
<path d="M0 19.207V15.0026L159.741 15C159.81 15 159.875 15.0273 159.924 15.0759C159.973 15.1245 160 15.1905 160 15.2592V18.953C160 19.0218 159.973 19.0877 159.924 19.1363C159.875 19.1849 159.81 19.2122 159.741 19.2122L0 19.207Z" fill="white"/>
<path d="M0 38.1195V23.8627L4.39109 23.8498C4.45939 23.8498 4.52493 23.8767 4.57347 23.9248C4.62201 23.9728 4.64962 24.0381 4.6503 24.1064C4.67277 28.1743 4.67536 32.2397 4.65808 36.3024C4.64771 39.0008 5.39684 41.4063 8.48408 41.5722C11.1229 41.7096 12.9374 40.1025 12.997 37.43C13.0437 35.3286 13.0497 32.2794 13.0151 28.2823C13.0145 28.214 12.9869 28.1488 12.9383 28.1007C12.8898 28.0527 12.8242 28.0257 12.7559 28.0257H10.887C10.8183 28.0257 10.7523 27.9984 10.7037 27.9498C10.6551 27.9012 10.6278 27.8352 10.6278 27.7665V24.0727C10.6278 24.0039 10.6551 23.938 10.7037 23.8894C10.7523 23.8408 10.8183 23.8135 10.887 23.8135H17.4218C17.4905 23.8135 17.5565 23.8408 17.6051 23.8894C17.6537 23.938 17.681 24.0039 17.681 24.0727C17.7017 28.5208 17.6922 32.9681 17.6525 37.4144C17.5981 43.5526 13.0851 46.3625 7.36687 45.6652C3.11316 45.1494 0.321426 42.635 0 38.1195Z" fill="white"/>
<path d="M50.4327 31.4266C52.5271 29.7037 54.8937 29.2043 57.5325 29.9283C66.0063 32.2535 63.5774 48.0889 52.8615 45.4682C51.9059 45.2349 51.0608 44.8021 50.3264 44.1696C50.0395 43.9225 49.897 43.9881 49.8987 44.3666V45.1987C49.8987 45.2674 49.8714 45.3333 49.8228 45.3819C49.7741 45.4306 49.7082 45.4579 49.6395 45.4579H46.1401C46.0713 45.4579 46.0054 45.4306 45.9568 45.3819C45.9082 45.3333 45.8809 45.2674 45.8809 45.1987V24.0727C45.8809 24.0039 45.9082 23.938 45.9568 23.8894C46.0054 23.8408 46.0713 23.8135 46.1401 23.8135H49.8339C49.9026 23.8135 49.9686 23.8408 50.0172 23.8894C50.0658 23.938 50.0931 24.0039 50.0931 24.0727V31.2659C50.0931 31.5597 50.2063 31.6132 50.4327 31.4266ZM54.0975 42.0388C54.6213 42.036 55.1395 41.9205 55.6223 41.6987C56.1052 41.4769 56.5433 41.1533 56.9116 40.7463C57.2799 40.3392 57.5713 39.8568 57.769 39.3264C57.9667 38.7961 58.0669 38.2283 58.0639 37.6554C58.0609 37.0825 57.9547 36.5157 57.7515 35.9875C57.5482 35.4593 57.2519 34.9799 56.8793 34.5767C56.5067 34.1736 56.0653 33.8545 55.5801 33.6378C55.095 33.4211 54.5757 33.311 54.0518 33.3137C53.5279 33.3165 53.0098 33.432 52.5269 33.6538C52.044 33.8756 51.606 34.1992 51.2376 34.6063C50.8693 35.0133 50.578 35.4958 50.3803 36.0261C50.1826 36.5564 50.0824 37.1243 50.0854 37.6971C50.0884 38.27 50.1945 38.8368 50.3978 39.365C50.601 39.8933 50.8974 40.3726 51.2699 40.7758C51.6425 41.179 52.084 41.498 52.5691 41.7147C53.0542 41.9314 53.5736 42.0415 54.0975 42.0388Z" fill="white"/>
<path d="M96.7691 23.8135H92.715C92.6534 23.8135 92.6035 23.8634 92.6035 23.9249V45.3464C92.6035 45.408 92.6534 45.4579 92.715 45.4579H96.7691C96.8306 45.4579 96.8806 45.408 96.8806 45.3464V23.9249C96.8806 23.8634 96.8306 23.8135 96.7691 23.8135Z" fill="white"/>
<path d="M103.538 23.8135H99.4267C99.3809 23.8135 99.3438 23.8506 99.3438 23.8964V45.3749C99.3438 45.4207 99.3809 45.4579 99.4267 45.4579H103.538C103.584 45.4579 103.621 45.4207 103.621 45.3749V23.8964C103.621 23.8506 103.584 23.8135 103.538 23.8135Z" fill="white"/>
<path d="M135.25 28.0257H133.101C133.085 28.0257 133.068 28.0225 133.053 28.0162C133.038 28.01 133.025 28.0008 133.013 27.9893C133.001 27.9777 132.992 27.964 132.986 27.9489C132.98 27.9338 132.977 27.9176 132.977 27.9013V23.9379C132.977 23.9216 132.98 23.9054 132.986 23.8903C132.992 23.8752 133.001 23.8615 133.013 23.8499C133.025 23.8384 133.038 23.8292 133.053 23.8229C133.068 23.8167 133.085 23.8135 133.101 23.8135H142.249C142.282 23.8135 142.313 23.8266 142.337 23.8499C142.36 23.8733 142.373 23.9049 142.373 23.9379V27.9013C142.373 27.9343 142.36 27.9659 142.337 27.9893C142.313 28.0126 142.282 28.0257 142.249 28.0257H140.1C140.083 28.0257 140.067 28.0289 140.052 28.0352C140.037 28.0414 140.023 28.0506 140.012 28.0622C140 28.0737 139.991 28.0874 139.985 28.1025C139.979 28.1176 139.975 28.1338 139.975 28.1501V41.0564C139.975 41.0728 139.979 41.0889 139.985 41.104C139.991 41.1191 140 41.1328 140.012 41.1444C140.023 41.1559 140.037 41.1651 140.052 41.1714C140.067 41.1776 140.083 41.1808 140.1 41.1808H142.249C142.282 41.1808 142.313 41.1939 142.337 41.2173C142.36 41.2406 142.373 41.2723 142.373 41.3053V45.3334C142.373 45.3664 142.36 45.3981 142.337 45.4214C142.313 45.4448 142.282 45.4579 142.249 45.4579H133.101C133.085 45.4579 133.068 45.4547 133.053 45.4484C133.038 45.4421 133.025 45.433 133.013 45.4214C133.001 45.4099 132.992 45.3962 132.986 45.3811C132.98 45.366 132.977 45.3498 132.977 45.3334V41.3053C132.977 41.2889 132.98 41.2727 132.986 41.2576C132.992 41.2425 133.001 41.2288 133.013 41.2173C133.025 41.2057 133.038 41.1966 133.053 41.1903C133.068 41.1841 133.085 41.1808 133.101 41.1808H135.25C135.283 41.1808 135.315 41.1677 135.338 41.1444C135.361 41.1211 135.374 41.0894 135.374 41.0564V28.1501C135.374 28.1171 135.361 28.0855 135.338 28.0622C135.315 28.0388 135.283 28.0257 135.25 28.0257Z" fill="white"/>
<path d="M149.473 28.0257H143.892C143.867 28.0257 143.844 28.0159 143.826 27.9984C143.809 27.9809 143.799 27.9571 143.799 27.9324V23.9068C143.799 23.882 143.809 23.8583 143.826 23.8408C143.844 23.8233 143.867 23.8135 143.892 23.8135H159.906C159.931 23.8135 159.955 23.8233 159.972 23.8408C159.99 23.8583 160 23.882 160 23.9068V27.9324C160 27.9571 159.99 27.9809 159.972 27.9984C159.955 28.0159 159.931 28.0257 159.906 28.0257H154.326C154.301 28.0257 154.277 28.0355 154.26 28.053C154.242 28.0705 154.232 28.0943 154.232 28.119V45.3646C154.232 45.3768 154.23 45.3889 154.225 45.4003C154.22 45.4116 154.214 45.4219 154.205 45.4305C154.196 45.4392 154.186 45.4461 154.175 45.4508C154.163 45.4555 154.151 45.4579 154.139 45.4579H149.66C149.635 45.4579 149.611 45.448 149.594 45.4305C149.576 45.413 149.566 45.3893 149.566 45.3646V28.119C149.566 28.1068 149.564 28.0946 149.559 28.0833C149.555 28.072 149.548 28.0617 149.539 28.053C149.53 28.0444 149.52 28.0375 149.509 28.0328C149.497 28.0281 149.485 28.0257 149.473 28.0257Z" fill="white"/>
<path d="M23.8494 31.4493C23.8511 31.8053 23.9712 31.8511 24.2097 31.5867C25.7546 29.888 27.7134 29.2978 30.0861 29.8163C31.2923 30.0807 32.2376 30.7019 32.9219 31.68C32.9441 31.7119 32.9732 31.7384 33.007 31.7576C33.0407 31.7768 33.0783 31.7882 33.1169 31.7909C33.1555 31.7936 33.1941 31.7877 33.2299 31.7734C33.2657 31.7591 33.2977 31.737 33.3237 31.7085C35.209 29.6677 37.478 29.0844 40.1306 29.9588C42.1024 30.6086 43.1453 32.0775 43.2593 34.3655C43.3164 35.5078 43.3224 39.1195 43.2775 45.2006C43.2768 45.2689 43.2492 45.3342 43.2007 45.3823C43.1521 45.4303 43.0866 45.4573 43.0183 45.4573H39.34C39.2713 45.4573 39.2053 45.4299 39.1567 45.3813C39.1081 45.3327 39.0808 45.2668 39.0808 45.198C39.0791 42.1289 39.0739 39.0624 39.0653 35.9985C39.0575 33.2431 36.0039 32.678 34.5523 34.6454C34.0754 35.2909 33.9017 36.224 33.8991 37.1106C33.8887 39.8064 33.887 42.5022 33.8939 45.198C33.8939 45.2668 33.8666 45.3327 33.818 45.3813C33.7694 45.4299 33.7035 45.4573 33.6347 45.4573H29.9409C29.8722 45.4573 29.8062 45.4299 29.7576 45.3813C29.709 45.3327 29.6817 45.2668 29.6817 45.198C29.6834 40.0673 29.68 36.9792 29.6713 35.9337C29.6428 32.7972 25.7624 32.8672 24.6866 35.1431C24.4361 35.6771 24.3091 36.5351 24.3056 37.7171C24.297 40.2125 24.2961 42.7061 24.303 45.198C24.303 45.2668 24.2757 45.3327 24.2271 45.3813C24.1785 45.4299 24.1125 45.4573 24.0438 45.4573H20.3241C20.2553 45.4573 20.1894 45.4299 20.1408 45.3813C20.0922 45.3327 20.0649 45.2668 20.0649 45.198L20.0078 30.0988C20.0075 30.0649 20.0139 30.0313 20.0268 29.9998C20.0397 29.9684 20.0587 29.9398 20.0828 29.9157C20.1069 29.8916 20.1356 29.8724 20.1672 29.8594C20.1989 29.8463 20.2328 29.8396 20.267 29.8396H23.585C23.654 29.8396 23.7202 29.8668 23.7692 29.9154C23.8182 29.9639 23.8461 30.0298 23.8468 30.0988L23.8494 31.4493Z" fill="white"/>
<path d="M74.7475 40.1882C73.4904 34.273 76.9198 29.2701 83.2912 29.6589C86.8995 29.8793 89.502 31.9037 90.29 35.5301C90.532 36.6448 90.6253 37.7119 90.57 38.7314C90.5667 38.7979 90.5379 38.8606 90.4896 38.9064C90.4414 38.9523 90.3773 38.9778 90.3108 38.9777H79.1697C79.1313 38.9776 79.0933 38.9862 79.0586 39.0027C79.0238 39.0193 78.9932 39.0435 78.9689 39.0735C78.9446 39.1035 78.9272 39.1386 78.918 39.1763C78.9088 39.214 78.908 39.2533 78.9157 39.2913C79.6078 42.5756 83.6749 43.0888 85.6579 40.7533C85.6822 40.7249 85.7124 40.702 85.7464 40.6864C85.7804 40.6707 85.8174 40.6626 85.8549 40.6626H90.0593C90.1009 40.6623 90.1418 40.6721 90.1788 40.691C90.2158 40.7098 90.2477 40.7373 90.2718 40.7711C90.296 40.8049 90.3116 40.844 90.3175 40.8851C90.3234 40.9262 90.3193 40.9681 90.3056 41.0073C89.9548 42.0027 89.4208 42.8564 88.7036 43.5684C86.5003 45.7561 82.4358 46.2098 79.6208 45.3544C76.9284 44.5335 75.304 42.8115 74.7475 40.1882ZM79.6778 34.5425C79.4497 34.845 79.2898 35.1793 79.1983 35.5457C79.1884 35.5836 79.1874 35.6233 79.1954 35.6618C79.2034 35.7002 79.2202 35.7363 79.2445 35.7673C79.2687 35.7984 79.2999 35.8235 79.3354 35.8408C79.371 35.8581 79.4101 35.8671 79.4497 35.8671H85.6138C85.6528 35.8672 85.6913 35.8586 85.7265 35.8419C85.7617 35.8252 85.7926 35.8009 85.8171 35.7708C85.8415 35.7406 85.8587 35.7054 85.8675 35.6678C85.8763 35.6302 85.8764 35.5911 85.8678 35.5535C85.7451 34.9936 85.4998 34.5451 85.1317 34.2081C83.6308 32.8369 80.9868 32.8188 79.6778 34.5425Z" fill="white"/>
<path d="M117.665 43.9802C117.122 44.4952 116.653 44.8391 116.258 45.0119C114.303 45.8656 112.343 45.9865 110.376 45.3748C105.943 43.9958 104.642 38.954 105.902 34.8973C106.759 32.1376 108.582 30.4458 111.371 29.8219C113.73 29.2949 115.848 29.7303 117.725 31.1284C118.001 31.3357 118.139 31.2666 118.139 30.921L118.137 29.9049C118.137 29.8361 118.164 29.7702 118.213 29.7216C118.261 29.673 118.327 29.6457 118.396 29.6457H121.895C121.964 29.6457 122.03 29.673 122.079 29.7216C122.127 29.7702 122.155 29.8361 122.155 29.9049V45.1985C122.155 45.2673 122.127 45.3332 122.079 45.3818C122.03 45.4304 121.964 45.4577 121.895 45.4577H118.58C118.52 45.4577 118.462 45.4371 118.416 45.3993C118.37 45.3615 118.338 45.3089 118.326 45.2504L118.095 44.1176C118.035 43.8117 117.891 43.7659 117.665 43.9802ZM113.958 42.0646C115.016 42.0646 116.031 41.6055 116.779 40.7884C117.527 39.9712 117.948 38.8629 117.948 37.7072C117.948 36.5516 117.527 35.4433 116.779 34.6261C116.031 33.8089 115.016 33.3498 113.958 33.3498C112.9 33.3498 111.886 33.8089 111.137 34.6261C110.389 35.4433 109.969 36.5516 109.969 37.7072C109.969 38.8629 110.389 39.9712 111.137 40.7884C111.886 41.6055 112.9 42.0646 113.958 42.0646Z" fill="white"/>
<path d="M68.8657 31.9085C69.4584 30.9615 70.198 30.354 71.0845 30.0862C71.9106 29.8373 72.9552 29.757 74.2184 29.8451C74.2838 29.8491 74.3451 29.8779 74.3899 29.9256C74.4347 29.9733 74.4596 30.0363 74.4595 30.1017V33.5908C74.4595 33.6591 74.4326 33.7246 74.3845 33.7731C74.3365 33.8217 74.2712 33.8493 74.2029 33.85C73.5289 33.8569 72.8584 33.8681 72.1914 33.8837C69.3945 33.9433 68.946 35.9807 68.9305 38.2644C68.9149 40.5766 68.8942 42.8888 68.8683 45.201C68.8669 45.2695 68.8387 45.3348 68.7898 45.3828C68.7408 45.4307 68.675 45.4576 68.6065 45.4576H64.8686C64.7998 45.4576 64.7339 45.4303 64.6853 45.3817C64.6367 45.3331 64.6094 45.2671 64.6094 45.1984V30.0992C64.6094 30.0304 64.6367 29.9645 64.6853 29.9159C64.7339 29.8672 64.7998 29.8399 64.8686 29.8399H68.3991C68.4629 29.8397 68.5245 29.8634 68.572 29.9066C68.6194 29.9497 68.6493 30.0091 68.6557 30.0732C68.7127 30.647 68.7248 31.2172 68.692 31.784C68.6885 31.8376 68.6998 31.8817 68.7257 31.9162C68.7342 31.9271 68.7452 31.9357 68.7577 31.9413C68.7703 31.947 68.784 31.9496 68.7977 31.9488C68.8114 31.948 68.8248 31.944 68.8366 31.937C68.8485 31.9299 68.8584 31.9202 68.8657 31.9085Z" fill="white"/>
</svg>
