<svg width="160" height="60" viewBox="0 0 160 60" fill="none" xmlns="http://www.w3.org/2000/svg">
<path d="M56.8947 36.8076L52.0281 55.4781H45.2303L41.9086 44.0299L38.5099 55.4781H31.6348L27 36.8076H31.9438L35.3427 52.1743L38.7415 40.8797H45.2303L48.5519 52.251L52.0281 36.8844H56.8947V36.8076Z" fill="white"/>
<path d="M72.4221 47.5652V55.479H68.328V52.9435C67.1692 54.7106 65.1608 55.7863 62.3799 55.7863C58.7493 55.7863 56.9727 53.9423 56.9727 51.5605C56.9727 48.564 59.599 47.4115 63.8476 47.1042L68.0189 46.7969V46.6432C68.0189 45.2602 67.092 44.2613 65.0064 44.2613C63.2297 44.2613 62.1482 44.876 61.9164 45.9517H57.8224C58.0541 42.3405 61.4529 41.2648 65.0064 41.2648C69.6412 41.188 72.4221 43.1857 72.4221 47.5652ZM68.0189 49.7933V49.3323L64.3883 49.5628C62.4572 49.7165 61.2985 50.1775 61.2985 51.33C61.2985 52.252 62.0709 52.7898 63.6932 52.7898C66.3195 52.8667 68.0189 51.4068 68.0189 49.7933Z" fill="white"/>
<path d="M90.8824 41.4951L85.4751 55.4788H78.9091L73.6562 41.4951H78.4456L82.308 53.0201L86.2476 41.4951H90.8824Z" fill="white"/>
<path d="M108.187 49.7931H96.0593C96.5227 51.9445 98.145 52.7896 100.385 52.7896C102.085 52.7896 103.089 52.2518 103.784 51.4066L108.033 51.6372C107.183 54.2495 104.479 55.863 100.385 55.863C95.2096 55.863 91.6562 53.6348 91.6562 48.5638C91.6562 43.4929 95.2096 41.2646 100.153 41.2646C105.329 41.2646 108.187 43.6465 108.187 49.409V49.7931ZM96.0593 47.104H103.861C103.707 45.3369 102.394 44.2612 100.153 44.2612C98.0677 44.1843 96.5227 45.0295 96.0593 47.104Z" fill="white"/>
<path d="M44.9209 10.9152C44.9209 15.2946 41.6765 16.7545 37.7369 16.7545H31.9434V23.439H27.3086V4.76855H37.5825C41.522 4.76855 44.9209 6.45889 44.9209 10.9152ZM40.2861 10.9152C40.2861 9.22488 39.1274 8.53337 37.1962 8.53337H31.9434V13.2202H37.1962C39.1274 13.2202 40.2861 12.5287 40.2861 10.9152Z" fill="white"/>
<path d="M58.208 9.37894V13.2206C57.5128 13.0669 56.5085 12.9901 55.7361 12.9901C53.1097 12.9901 51.8737 14.2963 51.8737 17.677V23.4394H47.4707V9.45576H51.5648V12.4523C52.4917 10.3009 54.1911 9.14844 56.3541 9.14844C56.972 9.14844 57.6673 9.3021 58.208 9.37894Z" fill="white"/>
<path d="M68.0968 9.14844C73.2724 9.14844 76.594 11.9144 76.594 16.4476C76.594 20.9808 73.2724 23.7467 68.0968 23.7467C62.9985 23.7467 59.5996 20.9808 59.5996 16.4476C59.5996 11.9144 62.9985 9.14844 68.0968 9.14844ZM68.0968 20.4429C70.7233 20.4429 72.191 18.7525 72.191 16.5244C72.191 14.2963 70.7233 12.6059 68.0968 12.6059C65.4704 12.6059 64.0027 14.2963 64.0027 16.5244C64.0027 18.7525 65.4704 20.4429 68.0968 20.4429Z" fill="white"/>
<path d="M83.5452 10.2235C83.5452 15.7144 83.5452 20.8265 83.5452 24.284C83.5452 27.7414 82.3093 29.0476 78.8332 29.0476C78.138 29.0476 77.2883 28.9708 76.3613 28.9708V25.4364C76.8248 25.4364 77.1338 25.5133 77.3655 25.5133C78.5242 25.5133 79.1422 25.206 79.1422 23.362V9.53199H83.5452C83.5452 9.53199 83.5452 9.95344 83.5452 10.2235ZM79.0649 4H83.6998V7.76483H79.0649V4Z" fill="white"/>
<path d="M102.778 17.7531H90.573C91.0365 19.9044 92.6588 20.7496 94.8989 20.7496C96.5983 20.7496 97.6025 20.2117 98.2978 19.3666L102.546 19.597C101.697 22.2094 98.993 23.823 94.8989 23.823C89.7233 23.823 86.1699 21.5947 86.1699 16.5238C86.1699 11.4528 89.7233 9.22461 94.6671 9.22461C99.8427 9.22461 102.701 11.6064 102.701 17.3689V17.7531H102.778ZM90.6503 15.0639H98.4522C98.2978 13.2968 96.9846 12.2211 94.7444 12.2211C92.5815 12.2211 91.1138 12.9894 90.6503 15.0639Z" fill="white"/>
<path d="M112.975 23.823C107.877 23.823 104.633 21.2106 104.633 16.5238C104.633 11.8369 107.877 9.22461 112.821 9.22461C116.915 9.22461 120.082 11.0686 120.623 14.5261L116.374 14.8334C115.911 13.3736 114.598 12.6053 112.898 12.6053C110.504 12.6053 109.036 14.0651 109.036 16.5238C109.036 18.9825 110.504 20.4423 112.975 20.4423C114.907 20.4423 116.22 19.597 116.606 18.0605L120.932 18.2909C120.391 21.9021 117.224 23.823 112.975 23.823Z" fill="white"/>
<path d="M129.893 12.759V18.0605C129.893 19.5204 130.279 20.0581 131.901 20.0581C132.442 20.0581 133.137 19.9814 133.755 19.9045V23.4388C132.905 23.5925 131.978 23.6693 130.975 23.6693C127.266 23.6693 125.567 22.3632 125.567 18.6751V12.6822H122.168V9.53203H124.64C125.49 9.53203 125.799 9.22469 125.799 8.5332V6.15137H129.97V9.45519H132.442V12.759H129.893Z" fill="white"/>
</svg>
