<svg width="160" height="60" viewBox="0 0 160 60" fill="none" xmlns="http://www.w3.org/2000/svg">
<path fill-rule="evenodd" clip-rule="evenodd" d="M74.1143 14.0615L75.9067 14.0421C76.216 21.2541 75.8242 30.5981 75.9242 38.2583C75.9468 39.9878 76.9008 39.7244 76.8055 40.7878L74.151 40.7968L74.1144 14.0614L74.1143 14.0615ZM77.3618 31.1742C77.0813 30.2595 77.0649 30.2791 77.5919 29.7125C78.1459 29.1169 78.9896 27.987 79.7436 27.5391L79.6753 39.4121L77.3617 31.1742H77.3618ZM100.139 27.4497C99.2041 27.8353 86.4264 29.517 83.4911 29.9688C82.1639 30.173 82.0317 29.6014 81.3957 28.973C80.8544 28.438 80.2771 28.031 79.8837 27.3976C85.3367 27.3851 94.7414 27.2563 100.139 27.4496L100.139 27.4497ZM76.4902 24.6459C77.1427 24.4468 77.5915 25.0349 78.1936 25.7765C78.4076 26.04 79.4023 27.0695 79.5154 27.3788L76.4469 27.3407L76.4901 24.6459H76.4902ZM79.7719 15.3706C80.0837 15.8381 82.244 23.718 82.349 24.6938C81.8135 25.311 80.3836 26.9605 79.7581 27.3426L79.7719 15.3706ZM103.45 27.4895C103.035 27.1261 103.027 27.3719 102.604 27.0752C101.622 27.1831 83.4272 24.4237 82.7686 24.0968C82.2758 23.6577 80.3235 14.6392 79.7353 13.6354C79.1817 14.475 77.1259 23.6256 76.5369 24.1497C76.2959 23.6826 76.4441 14.8364 76.4442 13.4922L70.9025 13.5168C70.9234 16.5189 71.3281 14.6854 71.4669 16.1746L71.4874 25.5783L65.0059 27.3991L71.5189 29.1144C71.5952 30.2188 71.8153 38.172 71.3693 39.0186C70.7218 40.2473 70.3066 39.2124 70.3598 41.2743L77.259 41.2608C77.3942 39.2108 76.9124 40.3188 76.5194 39.0397C76.3749 38.5694 76.3136 30.9883 76.5369 30.5292C77.3082 30.9255 79.0206 39.6666 79.7353 41.1073C80.1614 40.503 82.3429 32.0804 82.8155 30.5102C85.6924 29.854 94.4245 28.7836 98.3231 28.221C99.6823 28.0249 102.384 27.4147 103.45 27.4895Z" fill="white"/>
<path fill-rule="evenodd" clip-rule="evenodd" d="M42.0007 53.0117L45.3524 53.0739C45.6768 52.3995 46.4366 51.5151 46.9472 50.8487L48.1264 49.2873C48.4875 48.8144 48.2023 49.0078 48.6849 48.7126L48.678 53.0346L51.4575 53.0729L51.4622 45.9796C47.5956 45.9791 48.645 45.2618 45.7883 49.2296C45.6334 49.4447 45.5958 49.5116 45.4125 49.7611L44.8012 50.3752L44.795 46.0548L42 45.9801L42.0007 53.0117V53.0117Z" fill="white"/>
<path fill-rule="evenodd" clip-rule="evenodd" d="M96.3945 45.9268L96.4428 53.0643C100.258 53.0652 99.2025 53.6526 101.344 50.874C101.605 50.536 102.791 48.8731 103.093 48.701L103.106 53.0683L105.88 53.049L105.875 46.0451L102.549 45.9798C102.322 46.5059 99.619 50.1603 99.2406 50.4206L99.2314 46.0085L96.3945 45.9268V45.9268Z" fill="white"/>
<path fill-rule="evenodd" clip-rule="evenodd" d="M77.2644 47.3031C80.9547 46.4549 81.413 51.1619 78.7756 51.7429C75.1072 52.551 74.5937 47.9169 77.2644 47.3031ZM83.4166 50.2809C84.6834 44.7589 73.5945 44.4695 72.6383 48.6541C71.3439 54.3196 82.4107 54.6655 83.4166 50.2809Z" fill="white"/>
<path fill-rule="evenodd" clip-rule="evenodd" d="M91.518 53.0617L94.5172 53.0604L94.5044 45.9697L91.5753 45.9753L91.5736 48.7732L87.9962 48.743L87.9866 45.9767L85.0629 45.9931L85.0586 53.0685L87.9937 53.0732L88.0271 50.1741L91.5705 50.2054L91.518 53.0617Z" fill="white"/>
<path fill-rule="evenodd" clip-rule="evenodd" d="M108.004 53.0623L110.935 53.062L110.941 49.3976C114.947 52.6821 112.344 53.2311 117.999 53.0611C117.342 51.8135 115.065 50.4203 114.25 49.0632C114.77 48.4805 115.412 48.0628 115.981 47.5372C116.527 47.0328 117.265 46.5703 117.668 45.9981C115.179 45.8673 114.609 45.7393 113.491 46.7217C112.595 47.5084 111.869 48.2914 110.989 49.0101L110.929 46.0116L108.015 45.9749L108.004 53.0624L108.004 53.0623Z" fill="white"/>
<path fill-rule="evenodd" clip-rule="evenodd" d="M65.3683 47.3638C66.6865 47.3643 68.5986 47.0105 68.425 48.6046C67.7244 49.3328 66.6256 49.1477 65.3517 49.144L65.3682 47.3638H65.3683ZM65.3576 50.5333C66.9006 50.5467 68.6673 50.6758 70.0436 50.1964C71.2226 49.7857 72.226 48.3619 71.1929 47.0932C69.9512 45.5682 63.6775 45.8262 62.4199 46.0396L62.4885 53.0777L65.3394 53.0554L65.3576 50.5333Z" fill="white"/>
<path fill-rule="evenodd" clip-rule="evenodd" d="M60.958 47.2962L61.0224 46.0722C60.1092 45.8959 54.2487 45.8559 53.4629 46.0807L53.4657 52.9684C54.1346 53.1587 55.6766 53.143 56.3676 52.9848L56.3651 47.3578L60.958 47.2962H60.958Z" fill="white"/>
<path fill-rule="evenodd" clip-rule="evenodd" d="M73.8676 6.6298C75.3586 6.50363 76.4997 7.93998 76.5092 9.46434C76.5188 11.0018 75.379 12.3406 73.8559 12.2837L73.8676 6.62973V6.6298ZM71.1753 7.21554C71.0199 7.74776 69.8691 9.24033 70.9811 11.2122C73.1099 14.987 78.3025 11.9583 76.737 8.04897C76.4087 7.22897 75.9497 7.09374 75.7314 6.54338C74.9654 6.31882 74.2851 5.88174 73.2341 6.03006C72.1926 6.17707 71.7453 6.84023 71.1753 7.21554H71.1753Z" fill="white"/>
</svg>
