<svg width="22" height="22" viewBox="0 0 22 22" fill="none" xmlns="http://www.w3.org/2000/svg">
<path fill-rule="evenodd" clip-rule="evenodd" d="M10.9999 0.343323C10.0589 0.343323 9.37892 0.921588 8.80116 1.66957C8.23431 2.40343 7.63288 3.47747 6.88758 4.80842L6.85547 4.86576L2.0133 13.5125L1.98149 13.5693C1.2661 14.8467 0.687187 15.8804 0.36863 16.719C0.0425893 17.5772 -0.0905863 18.4331 0.372951 19.2239C0.836489 20.0148 1.6483 20.3168 2.55643 20.4516C3.44369 20.5834 4.62846 20.5834 6.09254 20.5834H6.09259H6.15771H15.842H15.9072H15.9072C17.3713 20.5834 18.5561 20.5834 19.4433 20.4516C20.3515 20.3168 21.1633 20.0148 21.6268 19.2239C22.0903 18.4331 21.9572 17.5772 21.6311 16.719C21.3126 15.8805 20.7337 14.8468 20.0183 13.5694L20.0183 13.5693L19.9864 13.5125L15.1443 4.86576L15.1122 4.80838C14.3669 3.47744 13.7654 2.40343 13.1986 1.66957C12.6208 0.921587 11.9408 0.343323 10.9999 0.343323ZM11.7499 9.00003C11.7499 8.58581 11.4141 8.25003 10.9999 8.25003C10.5857 8.25003 10.2499 8.58581 10.2499 9.00003V12.3334C10.2499 12.7476 10.5857 13.0834 10.9999 13.0834C11.4141 13.0834 11.7499 12.7476 11.7499 12.3334V9.00003ZM11.8332 14.8334C11.8332 15.2936 11.4601 15.6667 10.9999 15.6667C10.5396 15.6667 10.1665 15.2936 10.1665 14.8334C10.1665 14.3731 10.5396 14 10.9999 14C11.4601 14 11.8332 14.3731 11.8332 14.8334Z" fill="#900018"/>
</svg>
