<svg width="43" height="108" viewBox="0 0 43 108" fill="none" xmlns="http://www.w3.org/2000/svg">
<path d="M0 15H43V105C40.5 108 4.5 109.5 0 105V15Z" fill="#0A0A0A"/>
<path d="M0 15H43L30.5 7.5L26.5 6.5H15.5L12 7.5L0 15Z" fill="#0A0A0A"/>
<path d="M17 1H26V7H17V1Z" fill="#0A0A0A"/>
<path fill-rule="evenodd" clip-rule="evenodd" d="M25.0145 0.106731C26.1198 0.206808 26.1985 0.406962 26.4041 3.63127L26.5695 6.22547L27.2364 6.34135C27.6034 6.40514 27.9552 6.57467 28.0185 6.71805C28.0818 6.86144 28.628 7.03584 29.2324 7.10548C30.6498 7.26896 31.231 7.70536 31.231 8.60664V9.3025L25.4524 9.19247C22.274 9.13219 19.2788 9.02704 18.7963 8.95915C17.8387 8.82435 12.9665 9.17062 12.3092 9.42013C12.0715 9.51026 11.6903 9.4769 11.3965 9.34015C10.3101 8.83469 11.416 7.18215 12.8408 7.18215C13.1842 7.18215 13.5001 7.27384 13.543 7.38562C13.5935 7.51711 14.7739 7.57505 16.8717 7.5493C18.6598 7.52745 21.7888 7.52315 23.8254 7.53993C26.6377 7.56315 27.427 7.51808 27.1074 7.35285C26.6579 7.12051 19.1553 6.7797 16.0055 6.84856C14.0201 6.89207 13.4514 6.72039 14.6725 6.44611L15.4099 6.28048L15.5748 3.75632C15.7916 0.440127 15.8006 0.41379 16.8143 0.168962C17.6024 -0.0212423 23.1344 -0.0631849 25.0145 0.106731ZM35.4499 12.6835C35.5981 12.8122 35.7192 13.0159 35.7192 13.136C35.7192 13.256 35.9757 13.5484 36.2895 13.7855C36.6032 14.0225 36.8085 14.2884 36.7459 14.3764C36.6833 14.4644 36.8878 14.6553 37.2001 14.8007C37.6815 15.0246 37.798 15.0231 37.9631 14.7907C38.0704 14.6397 38.1083 14.4464 38.0475 14.3608C37.9867 14.2751 38.0439 14.2051 38.1745 14.2051C38.3051 14.2051 38.4122 14.2981 38.4122 14.4117C38.4122 14.5252 38.5199 14.5603 38.6516 14.4895C38.7834 14.4189 38.9443 14.5369 39.0089 14.7521C39.089 15.0182 39.438 15.2113 40.1005 15.3565C41.1413 15.5841 41.5174 16.0611 41.148 16.685C41.0342 16.8769 40.9896 17.151 41.0484 17.2944C41.1336 17.502 40.8989 17.5271 39.896 17.4183C38.4946 17.2659 38.263 17.4807 39.1415 18.1177L39.6465 18.4838L38.9546 18.4905C37.8539 18.5008 35.7341 18.0757 35.785 17.8549C35.8106 17.7441 35.1245 17.4752 34.2606 17.2575C32.7671 16.881 32.0808 16.8613 20.347 16.859C8.9228 16.8568 4.92623 16.9877 2.1976 17.4532C1.75775 17.5281 1.60133 17.4944 1.70591 17.3473C1.79029 17.2285 1.72229 17.1313 1.55466 17.1313C1.34012 17.1313 1.27616 16.9347 1.339 16.4669C1.41911 15.8699 1.52413 15.7814 2.37129 15.596C3.02455 15.453 4.13809 15.4497 5.99578 15.5857C7.47085 15.6934 9.18244 15.7778 9.79958 15.7732C14.098 15.7402 15.9709 15.6711 15.9709 15.5451C15.9709 15.4653 16.1478 15.4019 16.3636 15.4045C16.5795 15.407 17.7157 15.3036 18.8883 15.1748C20.3281 15.0164 23.0235 14.9745 27.1916 15.0457C34.5828 15.1715 34.0507 14.885 26.4061 14.6226L21.2446 14.4454L27.1373 14.4716C30.3782 14.486 32.9183 14.4657 32.7824 14.4265C32.6461 14.3873 33.0745 14.1191 33.7343 13.8301C34.6537 13.4277 34.9295 13.2053 34.9161 12.8772C34.8959 12.3961 35.0536 12.3389 35.4499 12.6835ZM20.4592 16.1641L23.7132 16.2698L20.2348 16.3321C10.1077 16.5135 8.74169 16.5229 8.87252 16.4089C9.09873 16.2125 16.8845 16.048 20.4592 16.1641ZM24.5406 16.2892C24.3788 16.3455 24.1851 16.3385 24.1106 16.2737C24.0361 16.209 24.1685 16.1629 24.405 16.1713C24.6665 16.1807 24.7197 16.2269 24.5406 16.2892ZM8.56531 16.5461C8.56531 16.6534 8.45826 16.7412 8.32766 16.7412C8.19705 16.7412 8.15239 16.6534 8.22869 16.5461C8.30499 16.4388 8.41181 16.351 8.46634 16.351C8.52087 16.351 8.56531 16.4388 8.56531 16.5461ZM5.25522 16.8703C5.10082 16.9245 4.84836 16.9245 4.69419 16.8703C4.53979 16.8163 4.66614 16.772 4.9747 16.772C5.28327 16.772 5.40939 16.8163 5.25522 16.8703ZM35.9437 17.2993C35.9437 17.3918 35.6912 17.4255 35.3826 17.3742C35.0741 17.3229 34.8216 17.2472 34.8216 17.206C34.8216 17.1651 35.0741 17.1313 35.3826 17.1313C35.6912 17.1313 35.9437 17.207 35.9437 17.2993ZM34.6037 18.6013C34.7924 18.7989 34.897 19.6104 34.9116 20.991C34.9331 23.0165 34.9181 23.0833 34.4293 23.1435C33.7074 23.2327 33.5501 22.6564 33.6535 20.3014C33.7435 18.2565 33.9396 17.9056 34.6037 18.6013ZM2.73058 19.7813C3.16257 20.0482 4.07144 20.5006 4.75029 20.7868C5.42914 21.0729 6.03505 21.3552 6.09677 21.4139C6.37033 21.674 7.82497 22.3299 10.1362 23.235C11.0931 23.6098 11.4827 23.9978 11.4827 24.5766V25.1338L9.40686 24.1816C7.35864 23.2423 5.61069 22.4214 3.16167 21.2489C1.68795 20.5435 1.05421 19.9928 1.23756 19.5771C1.42113 19.1615 1.81363 19.2152 2.73058 19.7813ZM39.7822 20.0088C39.7952 20.0891 39.8442 20.9756 39.8913 21.9785C39.9712 23.682 39.9465 23.809 39.5188 23.9061C39.1795 23.9834 39.0787 24.1424 39.1294 24.5212C39.1822 24.9166 39.1088 25.0193 38.8049 24.9748C38.5888 24.9434 38.4122 25.0091 38.4122 25.1211C38.4122 25.5501 37.7811 25.299 37.5289 24.7696C37.2695 24.2253 37.5006 23.4342 38.2214 22.3985C38.3336 22.2376 38.484 21.9545 38.5556 21.7694C38.6727 21.467 38.7293 21.477 39.1121 21.8669L39.5381 22.301L39.4378 21.4814C39.3826 21.0308 39.2268 20.482 39.0913 20.2622C38.8808 19.9202 38.9111 19.8625 39.302 19.8625C39.5531 19.8625 39.7692 19.9284 39.7822 20.0088ZM29.3349 20.1323C29.4615 20.252 29.7813 20.9208 30.0452 21.6182C30.4731 22.7487 30.49 22.9338 30.1998 23.3252C29.5295 24.2288 28.9689 23.6353 28.7775 21.8191C28.6307 20.4266 28.8726 19.6947 29.3349 20.1323ZM42.0084 21.3383C42.312 22.0327 42.2983 24.1568 41.9925 23.7641C41.8219 23.5448 41.799 23.6006 41.902 23.9867C41.9774 24.2699 41.9343 24.5583 41.8062 24.6271C41.4184 24.8353 40.8807 23.6521 40.8807 22.5905C40.8807 21.03 41.549 20.2879 42.0084 21.3383ZM0.867504 23.9042C1.874 25.267 5.2146 28.0559 5.84049 28.0559C5.98142 28.0559 6.09677 28.1261 6.09677 28.2122C6.09677 28.298 6.52607 28.5651 7.05052 28.8058C7.57497 29.0463 8.61019 29.5492 9.35075 29.9234C10.0913 30.2976 11.0002 30.735 11.3705 30.8953C11.7407 31.0557 12.5486 31.4497 13.1658 31.7708C13.7829 32.0919 14.4647 32.4072 14.6806 32.4716C14.8964 32.5358 15.0733 32.6555 15.0733 32.7379C15.0733 32.8202 15.2501 32.9429 15.466 33.0108C16.8452 33.4443 18.834 34.8715 19.2164 35.7023C19.5514 36.4304 19.5463 36.4973 19.117 36.9717C18.8019 37.3199 18.6639 37.7647 18.6639 38.4331C18.6639 39.0238 18.5775 39.3472 18.4395 39.2731C18.316 39.2068 18.2151 38.8506 18.2151 38.4813C18.2151 38.112 18.1394 37.8106 18.0467 37.8114C17.6291 37.8145 16.5232 38.6375 15.0205 40.063C14.1238 40.9135 13.157 41.7861 12.872 42.0021C12.587 42.2179 11.7286 42.8964 10.9645 43.5101C10.2004 44.1236 9.45466 44.6285 9.30744 44.6318C9.16 44.6351 8.88241 44.8329 8.69031 45.0715L8.3409 45.505V45.0598C8.3409 44.475 7.99664 44.6798 7.52358 45.5465C7.31421 45.9301 6.80658 46.5278 6.39546 46.8749C5.98433 47.2219 5.64794 47.6041 5.64794 47.724C5.64794 47.8438 5.50679 47.8949 5.33444 47.8374C5.15177 47.7765 4.66008 48.0719 4.15627 48.5453C2.92963 49.6983 2.58403 49.826 2.44198 49.1799C2.3466 48.7465 2.55194 48.4562 3.66952 47.4445L5.01151 46.2295L4.57682 45.385C4.02274 44.3083 3.35108 43.7926 2.50325 43.7926C2.13454 43.7926 1.83293 43.7194 1.83293 43.6299C1.83293 43.5405 1.73194 43.4674 1.60851 43.4674C1.48509 43.4674 1.38365 43.6648 1.38298 43.9063C1.38253 44.1478 1.13366 44.8719 0.830254 45.5157L0.278419 46.6862L0.326443 43.4674C0.352699 41.697 0.287843 39.9413 0.182369 39.5657C0.054454 39.1112 0.0652278 38.9481 0.214462 39.078C0.527518 39.3507 0.935276 41.1582 0.935276 42.274C0.935276 43.3119 1.38635 43.5587 1.80914 42.752C1.94042 42.5017 2.16079 42.2969 2.29903 42.2969C2.94938 42.2969 4.09949 42.9886 4.67511 43.7256C5.02497 44.1737 5.43744 44.6564 5.59184 44.798C5.74601 44.9398 5.87236 45.1406 5.87236 45.244C5.87236 45.5206 6.60461 45.1375 7.53794 44.3723C8.20131 43.8283 8.3409 43.7773 8.3409 44.0784C8.3409 44.6792 8.74237 44.4898 8.91247 43.8088C9.01772 43.3874 9.60703 42.7097 10.6696 41.7879C12.2888 40.3831 14.6642 37.9542 15.3614 36.9904C15.571 36.7006 15.9992 36.2564 16.3132 36.0035L16.8836 35.5435L16.1469 34.9698C15.1554 34.1978 12.0924 32.4527 9.35075 31.0978C4.57705 28.7385 2.95409 27.6599 1.3657 25.7908C0.869299 25.2067 0.36751 24.7805 0.250366 24.8433C0.131876 24.9071 0.0376244 24.6556 0.0376244 24.2748C0.0376244 23.3786 0.369757 23.2302 0.867504 23.9042ZM39.94 24.5571C40.0892 24.7647 40.1218 24.9346 40.0125 24.9346C39.7044 24.9346 39.2645 24.3967 39.4784 24.2818C39.5832 24.2255 39.791 24.3493 39.94 24.5571ZM13.205 24.639C13.7205 24.8967 15.7907 25.8441 17.8055 26.7442C19.8205 27.6443 22.0509 28.6679 22.7621 29.0186C23.4733 29.3694 24.2044 29.6066 24.3869 29.5459C24.5693 29.4851 25.076 28.9494 25.5132 28.3553C25.9501 27.7615 26.3803 27.2738 26.4692 27.2719C26.5578 27.2697 27.0091 26.9808 27.4719 26.6295C28.6193 25.7586 30.4673 25.2401 32.264 25.2852C34.1095 25.3314 34.9553 25.649 36.3081 26.8035C36.91 27.3171 37.4856 27.719 37.5873 27.6968C37.6891 27.6743 37.7089 27.7453 37.6312 27.8544C37.5538 27.9636 37.5935 28.2071 37.7199 28.3957C37.8841 28.6408 37.9517 28.6599 37.9566 28.4623C37.9602 28.3103 38.0163 28.2319 38.081 28.288C38.2719 28.4543 37.9346 29.0389 37.7154 28.9211C37.605 28.8618 37.5145 28.994 37.5145 29.2149C37.5145 29.8516 37.0018 29.6741 36.4026 28.8298C35.7278 27.8788 34.5967 27.1782 33.2258 26.8624C31.0517 26.3614 27.6359 27.9024 26.5338 29.8813C25.7571 31.2759 25.3671 32.9128 25.4405 34.469C25.4968 35.6617 25.442 35.9446 25.12 36.1239C24.1737 36.6508 23.5047 34.7755 23.8772 32.6403C24.0406 31.7028 24.019 31.6442 23.3191 31.1337C22.9187 30.8415 22.5132 30.6002 22.4181 30.5972C22.1804 30.59 20.3649 29.5539 20.2722 29.3727C20.231 29.2923 20.1064 29.2264 19.9953 29.2264C19.7496 29.2264 12.6321 25.7551 12.1496 25.4001C11.725 25.0873 11.6043 24.1511 11.9901 24.1625C12.1431 24.1669 12.6898 24.3815 13.205 24.639ZM41.7784 25.4223C41.7784 25.5832 41.9344 25.7149 42.1251 25.7149C42.4034 25.7149 42.442 25.8599 42.3201 26.4465C42.2366 26.8489 42.1089 27.2658 42.0365 27.3731C41.9637 27.4804 41.9332 27.7623 41.9685 27.9995C42.0252 28.3807 41.948 28.4215 41.3038 28.3507C40.745 28.2892 40.4559 28.3819 40.0652 28.7484C39.2223 29.5391 39.1209 29.423 39.056 27.5947C39.0406 27.1626 39.1541 26.774 39.322 26.6837C39.4831 26.5973 39.6391 26.3829 39.6687 26.2073C39.7073 25.9793 39.6458 25.9438 39.4532 26.0825C39.2546 26.2258 39.1907 26.1419 39.21 25.7627C39.2414 25.1367 39.4934 25.0477 40.5307 25.2967C41.0062 25.4108 41.3296 25.4159 41.3296 25.309C41.3296 25.2104 41.4305 25.1297 41.554 25.1297C41.6774 25.1297 41.7784 25.2614 41.7784 25.4223ZM41.3715 27.6039C41.2097 27.6603 41.0161 27.6533 40.9416 27.5885C40.867 27.5237 40.9994 27.4777 41.236 27.4861C41.4974 27.4954 41.5506 27.5417 41.3715 27.6039ZM0.48645 28.9872C0.48645 29.3208 0.387039 29.647 0.265408 29.7123C0.127394 29.7865 0.0973184 29.5894 0.185513 29.1874C0.374468 28.3247 0.48645 28.2504 0.48645 28.9872ZM39.9638 29.8994C39.9763 30.3994 39.9063 30.6033 39.7645 30.48C39.6294 30.3625 39.622 30.0684 39.7452 29.7094C39.9422 29.1357 39.9447 29.1378 39.9638 29.8994ZM38.3801 29.3192C38.3085 29.3817 38.3857 29.9349 38.5518 30.5488C38.8971 31.8239 38.9717 34.9663 38.6528 34.7948C38.3648 34.6403 38.1254 35.3812 38.3047 35.8722C38.3918 36.1104 38.2502 36.7082 37.9591 37.3314C37.4708 38.3775 37.4699 38.3952 37.883 39.2823C38.1124 39.7747 38.5778 40.4506 38.9171 40.7846C39.2564 41.1186 39.5343 41.5076 39.5343 41.6492C39.5343 41.7908 39.6321 41.9067 39.7517 41.9067C39.8711 41.9067 39.9122 41.753 39.8426 41.5653C39.7427 41.2949 39.7632 41.2811 39.9411 41.4988C40.0648 41.65 40.1218 41.8739 40.0677 41.9964C40.0136 42.1188 40.2358 42.829 40.5614 43.5746C41.4736 45.6646 42.2054 47.8941 42.3423 48.9999L42.4662 50.0026L41.9016 48.7346C41.591 48.0371 41.3354 47.3871 41.3334 47.2902C41.3266 46.9767 40.155 44.935 39.8969 44.7871C39.7591 44.7083 39.729 44.6425 39.83 44.6408C39.931 44.6392 39.8206 44.3963 39.5848 44.1014C39.3487 43.8064 38.916 43.1412 38.6234 42.6232C38.0179 41.5524 36.3355 39.9559 35.8121 39.9559C35.6201 39.9559 35.3135 40.0856 35.1311 40.2442C34.9486 40.4028 34.6537 40.6034 34.4755 40.6902C34.1935 40.8273 34.1932 41.0107 34.4738 42.1088C34.9713 44.0557 35.3707 44.836 36.1369 45.3573C36.5242 45.6209 36.8413 45.91 36.8413 45.9997C36.8413 46.0893 37.2937 46.5674 37.8469 47.0621C38.3999 47.5569 38.8554 48.0032 38.8592 48.0541C38.8817 48.3643 39.7167 49.2931 39.865 49.1727C39.9638 49.0927 39.9972 49.1581 39.9395 49.3181C39.8819 49.4782 40.205 50.4439 40.6577 51.4639C41.7102 53.8365 42.0594 54.9639 41.9624 55.6758C41.8922 56.1916 41.8374 56.1383 41.3798 55.1091C40.6889 53.5552 38.8781 50.4349 37.8815 49.0812C37.0087 47.8955 35.4574 46.7814 35.2911 47.2207C35.2399 47.3559 34.8357 47.9086 34.3927 48.4488C33.9497 48.9891 33.4863 49.5685 33.3629 49.7365C32.3351 51.1345 31.1767 52.5289 30.2274 53.5107C28.3545 55.4479 28.0533 55.7372 26.0134 57.5583L24.0498 59.3113V61.8228L24.8352 61.6946C25.5011 61.586 25.6234 61.6219 25.6384 61.9297C25.6514 62.1952 25.714 62.1554 25.872 61.7808C26.045 61.371 26.2748 61.2473 27.0244 61.1599C28.709 60.9635 30.8814 61.5021 31.7094 62.3216C32.5649 63.1683 32.8937 64.0348 32.8566 65.3464L32.8201 66.6442L34.1268 66.6181C35.2347 66.5959 35.5779 66.6792 36.3851 67.1653C36.9084 67.4806 37.4338 67.9604 37.5522 68.2316C38.3644 70.0882 38.5253 73.5484 37.8866 75.418C37.6952 75.9781 37.5783 76.4362 37.6268 76.4362C37.6752 76.4362 38.0969 75.9315 38.5634 75.3144C39.0302 74.6974 39.5471 74.071 39.7122 73.9223C40.1285 73.547 41.3823 71.1413 41.9857 69.5595C42.2622 68.8354 42.5443 68.2427 42.6128 68.2427C42.9117 68.2427 42.4548 70.8153 41.9027 72.2419C41.2185 74.0097 40.0405 76.1884 39.5262 76.6371C39.3368 76.8023 38.883 77.2857 38.5177 77.7112C38.1525 78.1365 37.802 78.5284 37.739 78.5821C37.4421 78.8343 36.3925 80.1314 36.3925 80.2459C36.3925 80.3169 36.1764 80.639 35.9122 80.9613C35.4798 81.4894 35.4464 81.7094 35.5763 83.1794C35.7536 85.1833 36.1106 86.7326 36.5269 87.3051C36.8884 87.8018 36.9506 88.9214 36.6169 88.9214C36.4935 88.9214 36.3893 88.7677 36.3853 88.58C36.3815 88.3923 36.23 88.0681 36.0487 87.86C35.8676 87.6516 35.7192 87.2404 35.7192 86.946C35.7192 86.6516 35.6223 86.1891 35.5038 85.9183C35.3853 85.6473 35.1912 84.599 35.0723 83.5884C34.8867 82.012 34.7738 81.6796 34.2778 81.2484C33.5065 80.5779 33.5346 79.7964 34.3723 78.6127C35.3651 77.2103 36.3025 75.3158 36.6203 74.0702C37.0258 72.4809 36.826 69.7423 36.2652 69.2037C35.4464 68.4171 34.8297 68.2638 33.595 68.5398C32.4749 68.7903 32.3124 68.9109 30.5878 70.7716L29.8327 71.5866L29.9806 73.3773C30.2312 76.4122 30.5604 77.6067 31.1459 77.6067C31.5122 77.6067 31.4906 77.5197 31.5786 79.3624L31.6482 80.8255L31.2911 80.1427C31.0948 79.7672 30.9168 79.416 30.8955 79.3624C30.8742 79.3087 30.7391 79.0177 30.595 78.7157C30.4512 78.4137 30.3333 78.0448 30.3333 77.8962C30.3333 77.7473 30.1942 77.1605 30.0243 76.592C29.8542 76.0234 29.641 74.6525 29.5501 73.5454C29.3957 71.6621 29.3504 71.5213 28.8466 71.3547C28.1891 71.1374 27.7596 70.381 27.946 69.7691C28.0221 69.5197 28.4936 68.9206 28.9938 68.4378C30.5407 66.9449 31.1504 65.493 30.7543 64.2459C30.4785 63.378 29.3053 62.7307 28.1408 62.8037C27.0273 62.8737 26.67 62.6685 26.8457 62.06C26.9355 61.7494 26.9018 61.6221 26.7517 61.7026C26.6234 61.7717 26.5183 61.9913 26.5183 62.1907C26.5183 62.7365 26.2786 63.1706 25.9773 63.1706C25.5278 63.1706 24.3855 64.3745 23.7206 65.549C23.1292 66.5937 23.1014 66.7554 23.2515 68.2802C23.4614 70.4109 23.0612 70.0864 22.7242 67.8526C22.5866 66.9406 22.3687 66.1636 22.2401 66.1259C21.7561 65.9841 20.908 65.0114 20.908 64.598C20.908 64.3616 21.1104 64.0448 21.358 63.8942C22.0002 63.5032 22.2148 61.2198 21.6093 61.2198C21.518 61.2198 21.1086 61.4613 20.6997 61.7563C20.2906 62.0512 19.3809 62.6439 18.6778 63.0731C17.9747 63.5022 16.7036 64.3081 15.8531 64.8641C15.0026 65.4199 14.2452 65.8417 14.1698 65.8011C14.0946 65.7607 13.8913 65.8984 13.718 66.1074C13.2165 66.7123 12.7899 66.5843 12.8711 65.853C12.9097 65.5042 13.0423 65.2155 13.1658 65.2114C13.2892 65.2071 13.8058 64.8559 14.3139 64.431C15.2629 63.6372 15.5663 63.425 17.8784 61.9377C19.3252 61.0072 20.636 59.9627 21.1499 59.3312C21.3254 59.1154 21.7381 58.8158 22.0673 58.6652C22.7581 58.3488 25.9147 55.715 26.7427 54.764C27.0513 54.4097 27.5057 53.9247 27.7526 53.6863C28.543 52.9228 28.8637 52.565 29.9184 51.2706C31.2144 49.6799 33.163 46.6712 33.3757 45.9322C33.474 45.591 33.8328 45.2215 34.2974 44.9833C34.9282 44.6597 35.0112 44.5438 34.7832 44.305C34.632 44.1466 34.2983 43.3008 34.0415 42.4254L33.5748 40.8338H32.5505C31.4287 40.8338 30.7822 40.5025 30.7822 39.9278C30.7822 39.5462 31.0838 39.4001 32.779 38.96C33.4004 38.7987 34.1746 38.358 34.8696 37.7692C35.4769 37.2552 36.0563 36.8346 36.1573 36.8346C36.4919 36.8346 37.0686 35.8783 37.3319 34.8863C37.5635 34.0145 37.9634 33.5393 37.9634 34.136C37.9634 34.2611 38.0282 34.3071 38.1077 34.2382C38.1869 34.1692 38.1552 34.001 38.0372 33.8643C37.9192 33.7275 37.7946 32.6844 37.7603 31.5463C37.7046 29.6999 37.7416 29.4622 38.1043 29.3413C38.3278 29.2668 38.4519 29.2568 38.3801 29.3192ZM1.73777 30.289C1.81363 30.5516 1.76942 31.0563 1.63948 31.4107C1.50977 31.7652 1.33541 32.6058 1.25193 33.2786C1.10359 34.4772 0.866608 34.9325 0.648254 34.4382C0.588112 34.3018 0.619301 33.7098 0.717594 33.1226C0.816111 32.5354 0.963101 31.5502 1.04434 30.9334C1.19873 29.7597 1.50326 29.4769 1.73777 30.289ZM39.3054 30.8893C39.1492 31.0527 38.9752 31.1464 38.9187 31.0974C38.7632 30.962 39.0794 30.592 39.3505 30.592C39.4995 30.592 39.4824 30.7039 39.3054 30.8893ZM41.2847 31.0211C41.7149 31.3951 41.6116 32.3071 41.1128 32.5393C40.7483 32.7088 40.6076 32.6594 40.3026 32.2548C39.6103 31.3364 40.4434 30.2898 41.2847 31.0211ZM39.9048 31.8319C39.9281 32.5258 39.8812 32.715 39.7522 32.4452C39.5136 31.9458 39.484 31.0317 39.7026 30.9168C39.795 30.8682 39.8861 31.2798 39.9048 31.8319ZM3.80103 31.8393C3.99469 32.209 3.96261 32.4433 3.64798 32.961C3.31091 33.5157 2.36837 35.785 2.14037 36.5907C2.02367 37.0037 1.66484 36.8609 1.51493 36.3418C1.32486 35.6834 2.96352 31.3723 3.40382 31.3723C3.48752 31.3723 3.66638 31.5826 3.80103 31.8393ZM39.2921 32.0713C39.2813 32.2985 39.2282 32.3448 39.1566 32.1893C39.0917 32.0484 39.0998 31.8801 39.1743 31.8153C39.2488 31.7505 39.3018 31.8657 39.2921 32.0713ZM40.0336 33.1768C40.0879 33.311 40.0583 33.6401 39.9678 33.9084C39.8249 34.3327 39.8004 34.301 39.7811 33.6645C39.7582 32.9216 39.8549 32.7349 40.0336 33.1768ZM6.20269 33.6883C6.3104 34.1144 6.12886 34.6198 5.44485 35.7991C4.95025 36.652 4.43948 37.5921 4.30976 37.8884C4.00456 38.5864 3.536 38.4448 3.44376 37.6266C3.36275 36.9064 5.33534 33.1419 5.79852 33.1331C5.94282 33.1304 6.12481 33.3801 6.20269 33.6883ZM39.3942 34.2086C39.6108 34.699 39.5471 34.8256 39.2825 34.4302C39.1514 34.2343 39.0915 34.033 39.1494 33.9829C39.2071 33.9325 39.3175 34.0342 39.3942 34.2086ZM8.69345 35.1623C8.87949 35.8067 8.62096 36.4261 7.9071 37.0466C7.57811 37.3326 7.16722 37.9401 6.99375 38.3968C6.58779 39.4666 6.16252 39.856 5.73636 39.5486C5.31447 39.244 5.34117 38.3892 5.79022 37.8318C5.99197 37.5815 6.4583 36.8816 6.82656 36.2766C7.19505 35.6715 7.59764 35.0667 7.72174 34.9325C8.08349 34.541 8.54579 34.6504 8.69345 35.1623ZM41.2398 35.4234C41.628 35.6485 41.9837 36.3424 41.9442 36.7975C41.909 37.2054 41.8964 37.2066 41.2263 36.8664C40.7183 36.6085 40.5441 36.3777 40.5441 35.962C40.5441 35.3838 40.8127 35.1758 41.2398 35.4234ZM40.576 39.1309C41.0246 39.6664 41.7784 41.1646 41.7784 41.5204C41.7784 41.8921 41.4213 41.7044 41.0286 41.1264C40.8098 40.8045 40.4456 40.5411 40.2187 40.5411C39.5372 40.5411 39.2452 39.2368 39.8321 38.8133C40.0605 38.6486 40.2342 38.7228 40.576 39.1309ZM29.8845 43.6581C29.8845 43.7502 29.9339 43.9426 29.9943 44.0854C30.1688 44.4982 29.7846 44.8499 29.0495 44.9506C28.505 45.0253 28.3471 44.9648 28.251 44.6457C28.185 44.4268 28.014 44.2477 27.8706 44.2477C27.7122 44.2477 27.666 44.4006 27.7526 44.6378C27.8498 44.9037 27.793 45.028 27.5744 45.028C26.9719 45.028 27.4113 44.1501 28.1624 43.8528C29.0017 43.521 29.8845 43.4211 29.8845 43.6581ZM39.3893 44.1464C39.5794 44.577 39.339 44.9363 39.037 44.6737C38.894 44.5495 38.8911 44.3612 39.0287 44.1476C39.2302 43.8347 39.2517 43.8347 39.3893 44.1464ZM26.9209 44.7842C26.8531 45.1345 26.5482 45.41 26.2219 45.4152C26.1204 45.4168 26.197 45.2795 26.3922 45.1097C26.5872 44.9402 26.6896 44.7208 26.6193 44.622C26.5493 44.5235 26.6031 44.4428 26.7394 44.4428C26.8754 44.4428 26.9571 44.5965 26.9209 44.7842ZM39.8709 46.9788C39.9472 47.0861 39.9025 47.1739 39.7719 47.1739C39.6413 47.1739 39.5343 47.0861 39.5343 46.9788C39.5343 46.8715 39.5787 46.7837 39.6332 46.7837C39.6878 46.7837 39.7946 46.8715 39.8709 46.9788ZM0.812523 51.6608C0.728817 52.1436 0.573746 52.6703 0.468048 52.8313C0.103377 53.3859 0.245884 51.9261 0.613472 51.3416L0.964676 50.7829L0.812523 51.6608ZM7.98251 51.6304C8.06016 51.7396 8.01438 51.8877 7.88085 51.9595C7.53571 52.1448 7.31309 51.891 7.60123 51.6405C7.76236 51.5004 7.88781 51.4971 7.98251 51.6304ZM9.15641 52.3945C9.29644 52.4737 9.67323 53.4452 9.99392 54.5531C10.5265 56.3935 10.5491 56.625 10.2554 57.2364C10.0722 57.6174 9.5911 58.0811 9.13734 58.3139C8.69928 58.5384 8.3409 58.8014 8.3409 58.8981C8.3409 58.9947 8.22263 59.0739 8.07811 59.0739C7.93359 59.0739 7.62995 59.2196 7.40352 59.3979C6.83396 59.8458 6.73792 59.6761 6.96457 58.6223C7.10281 57.9785 7.39926 57.5027 7.98789 56.9805C8.76571 56.2903 8.80745 56.1914 8.66876 55.3673C8.46275 54.1432 8.18089 53.7466 7.60931 53.8765C7.10101 53.992 6.56489 53.5463 6.55278 52.9981C6.54762 52.7712 6.792 52.6518 7.38714 52.5907C7.84988 52.5431 8.38017 52.4472 8.56531 52.3771C8.75045 52.3073 9.01638 52.3151 9.15641 52.3945ZM35.9012 53.229C36.5487 53.7532 36.5217 54.3584 35.8193 55.0681C35.5045 55.3865 34.8779 56.2959 34.4268 57.0893C33.9758 57.8827 33.4724 58.5766 33.3082 58.6314C32.9282 58.7583 32.1253 58.1367 32.1394 57.7269C32.1452 57.5558 32.3221 57.1422 32.5321 56.808C33.8445 54.7197 34.1484 54.1814 34.1484 53.9448C34.1484 53.6994 35.0453 52.8313 35.2987 52.8313C35.36 52.8313 35.6313 53.0104 35.9012 53.229ZM6.07074 53.2813C6.0851 53.3679 5.97917 53.8508 5.83532 54.3543C5.63829 55.0451 5.26644 55.5392 4.32054 56.3673C2.79588 57.7023 1.82709 58.7368 1.39959 59.4863C1.09124 60.0267 0.48645 60.2662 0.48645 59.848C0.48645 59.5801 1.01427 58.6032 1.7748 57.4631C2.52793 56.3344 5.38313 53.5669 5.64794 53.7091C5.75274 53.7653 5.8847 53.6567 5.94148 53.4676C5.99826 53.2786 6.05637 53.1947 6.07074 53.2813ZM38.5852 55.2056C38.997 55.5636 38.9191 56.2259 38.3976 56.8022C38.1427 57.0839 38.0069 57.4167 38.0958 57.5415C38.1903 57.6748 38.1597 57.7163 38.0217 57.6422C37.8882 57.5704 37.6333 57.8488 37.4317 58.2865C36.697 59.8827 36.1099 60.8296 35.855 60.8296C35.5337 60.8296 34.8216 59.8216 34.8216 59.3665C34.8216 59.1851 35.0487 58.7612 35.3265 58.4247C35.6043 58.0881 36.2354 57.1974 36.7291 56.4454C37.6353 55.065 38.081 54.7673 38.5852 55.2056ZM40.2876 58.333C40.525 59.1037 40.4456 59.7967 40.0899 60.0532C39.9018 60.189 39.7946 60.3408 39.852 60.3905C39.9093 60.4402 39.7712 60.6535 39.5455 60.8642C39.3197 61.0748 39.0112 61.6316 38.8597 62.1016C38.7084 62.5715 38.3965 63.1041 38.1665 63.2849C37.7715 63.5957 37.7235 63.5881 37.3043 63.1484C36.772 62.5902 36.7616 62.6242 38.2434 60.0493C39.4375 57.974 40.0251 57.4807 40.2876 58.333ZM6.19887 59.0464C6.42598 59.6685 5.9794 60.2772 3.95947 62.0977C2.88812 63.0633 1.75596 64.1827 1.44357 64.585C0.839454 65.3631 0.560281 65.5379 0.820824 64.9751C0.907896 64.7874 1.02953 64.3704 1.09147 64.0485C1.15341 63.7266 1.31162 63.2877 1.44312 63.0731C1.93683 62.2666 4.04541 60.1188 5.03642 59.4129C5.96167 58.754 6.07859 58.7169 6.19887 59.0464ZM42.0739 59.3958C42.3814 59.663 42.2124 60.8222 41.5349 63.0932C40.8121 65.5163 40.3745 66.2511 39.9784 65.7067C39.6512 65.2568 39.7178 64.5926 40.17 63.7968C40.3962 63.3988 40.8125 62.283 41.0951 61.3173C41.6202 59.5222 41.804 59.1613 42.0739 59.3958ZM39.7542 61.322C39.598 61.4855 39.4241 61.5791 39.3675 61.5302C39.212 61.3948 39.5282 61.0247 39.7993 61.0247C39.9483 61.0247 39.9312 61.1367 39.7542 61.322ZM12.377 66.2431C12.3749 66.5381 12.2993 66.8674 12.2086 66.9747C11.9943 67.2281 9.59334 68.6329 9.37432 68.6329C9.28208 68.6329 9.05498 68.7646 8.86983 68.9255C8.43515 69.3034 8.11648 69.2985 8.11648 68.914C8.11648 68.7468 8.02492 68.659 7.91316 68.7191C7.8014 68.7792 7.76258 69.0039 7.82721 69.2183C7.89162 69.4327 7.85684 69.6194 7.75002 69.6333C6.90555 69.7414 6.54559 69.7259 6.54559 69.5816C6.54559 69.4891 6.65174 69.4132 6.78168 69.4132C6.91161 69.4132 7.12323 69.1501 7.25227 68.8282C7.3813 68.5065 7.57811 68.2921 7.68942 68.352C7.80096 68.4119 7.89207 68.381 7.89207 68.2837C7.89207 68.1111 11.9436 65.7067 12.2345 65.7067C12.3146 65.7067 12.3787 65.9482 12.377 66.2431ZM5.54382 70.0242C5.38942 70.6943 4.24447 71.7542 3.67513 71.7542C3.39619 71.7542 0.826662 73.5326 0.433716 73.9976C0.343053 74.1049 0.267427 73.8227 0.265408 73.3705C0.262939 72.7827 0.374917 72.4957 0.657677 72.3642C0.875133 72.263 1.42315 71.8769 1.87511 71.5063C2.54409 70.9579 4.64415 69.7612 5.5032 69.439C5.6089 69.3994 5.62707 69.6627 5.54382 70.0242ZM24.0143 71.1428C24.3833 72.2134 24.3222 72.348 23.8254 71.5591C23.3611 70.8219 23.2648 70.3886 23.5655 70.3886C23.6694 70.3886 23.8714 70.7281 24.0143 71.1428ZM24.9158 73.0053C25.0985 73.3857 25.1139 73.6383 24.9631 73.7694C24.6714 74.023 24.4306 73.5068 24.5529 72.8902C24.6398 72.453 24.6526 72.4571 24.9158 73.0053ZM25.6207 73.8792C25.6207 73.975 25.4548 74.1086 25.2524 74.1763C24.9443 74.2791 24.9304 74.2505 25.1676 74.0021C25.4907 73.6637 25.6207 73.6284 25.6207 73.8792ZM28.856 75.4346C28.9527 75.5706 28.9712 75.7345 28.8971 75.7988C28.6962 75.9734 28.4772 75.7167 28.5858 75.4338C28.6617 75.2356 28.7146 75.2356 28.856 75.4346ZM28.3136 75.5643C28.3136 75.7288 28.4651 75.9137 28.6502 75.9754C28.8354 76.0372 28.9869 76.1769 28.9869 76.2858C28.9869 76.4149 28.8863 76.4114 28.6987 76.276C28.3426 76.0191 27.5829 76.0981 27.4656 76.4044C27.4178 76.5292 27.2851 76.6312 27.1709 76.6312C27.0567 76.6312 27.0901 76.4547 27.2452 76.2387C27.4003 76.023 27.6422 75.8847 27.7829 75.9315C27.9402 75.984 27.995 75.8724 27.9254 75.6412C27.8632 75.4346 27.9252 75.2657 28.063 75.2657C28.201 75.2657 28.3136 75.4001 28.3136 75.5643ZM41.2254 75.9834C41.9581 76.6201 42.4864 77.9904 42.5912 79.5249L42.6931 81.0206L42.1141 79.5087C41.7957 78.6773 41.4384 77.9968 41.3201 77.9968C40.7066 77.9968 41.6507 85.3446 42.4633 86.8955C42.7036 87.3541 42.9004 88.0113 42.9004 88.3557C42.9004 88.9532 42.8814 88.9669 42.4842 88.6543C42.0533 88.3153 41.3498 88.3997 41.3038 88.796C41.2564 89.2033 41.1936 89.4056 40.9947 89.7899C40.8091 90.1488 41.1613 91.1877 42.5239 94.3019C42.9413 95.2561 43.1408 97.0598 42.8888 97.6025C42.7389 97.9252 42.7048 97.8854 42.6917 97.3725C42.6832 97.0315 42.5246 96.6209 42.3394 96.4599C42.1543 96.299 42.0012 96.0512 41.9994 95.9094C41.9976 95.7678 41.5903 94.9494 41.0946 94.0911C39.1299 90.6904 39.0215 88.6358 40.7216 87.0195L41.183 86.5806L40.6473 83.8007C39.9856 80.3673 39.8987 76.7748 40.4609 76.085C40.8112 75.6551 40.843 75.651 41.2254 75.9834ZM28.3136 76.5128C28.3136 76.555 28.157 76.6418 27.9653 76.7058C27.7656 76.7723 27.6756 76.7395 27.7542 76.6291C27.8859 76.4436 28.3136 76.3548 28.3136 76.5128ZM29.8491 79.5575C29.8491 79.8257 29.7981 79.9355 29.736 79.8013C29.6736 79.6673 29.6736 79.4478 29.736 79.3136C29.7981 79.1796 29.8491 79.2892 29.8491 79.5575ZM30.5409 79.7526C30.5418 80.0337 29.9088 81.1505 29.8924 80.8967C29.8881 80.8284 30.032 80.4773 30.2124 80.1164C30.3926 79.7553 30.5405 79.5916 30.5409 79.7526ZM1.15969 84.1534C1.15969 84.3206 1.0587 84.4033 0.935276 84.337C0.811849 84.2706 0.710865 84.1339 0.710865 84.0328C0.710865 83.9318 0.811849 83.8493 0.935276 83.8493C1.0587 83.8493 1.15969 83.9862 1.15969 84.1534ZM30.2211 84.1825C32.4273 84.6083 33.0923 84.9677 33.7561 86.0927C34.2879 86.994 34.3494 87.9764 33.8678 87.8744C33.7134 87.8416 33.6629 87.8518 33.7556 87.8966C34.2888 88.1559 33.4843 89.7417 32.6524 90.0712C32.3825 90.1781 31.9877 90.5839 31.7754 90.9727C31.4426 91.5825 31.4233 91.8595 31.6354 92.983C31.7707 93.6997 31.9994 95.1369 32.1437 96.1765C32.3912 97.9591 32.3789 98.1156 31.9307 98.9205C31.6693 99.3901 31.4554 99.878 31.4554 100.005C31.4554 100.333 31.0173 100.292 30.8665 99.9509C30.7974 99.7941 30.5481 99.6127 30.3127 99.5477C30.0771 99.4827 29.8845 99.2617 29.8845 99.0567C29.8845 98.7297 29.8154 98.7112 29.3235 98.9061C29.0149 99.0282 28.7624 99.202 28.7624 99.2921C28.7624 99.3821 28.5636 99.4558 28.3204 99.4558C28.0773 99.4558 27.5434 99.6193 27.1341 99.8192C26.6651 100.048 25.6873 100.231 24.4903 100.312C21.9457 100.486 20.8185 100.628 20.4576 100.822C20.2621 100.927 20.1733 101.313 20.2029 101.927C20.2709 103.328 20.3274 103.607 20.6421 104.093C21.0521 104.727 20.853 104.856 19.6529 104.733L18.5941 104.625L18.5189 103.414C18.4774 102.748 18.2927 101.826 18.1082 101.366C17.2658 99.2637 17.5129 99.1363 23.1521 98.765C23.9544 98.7123 25.0653 98.5881 25.6207 98.489C26.1761 98.3899 27.0345 98.2455 27.5282 98.1683C28.0219 98.0908 28.5701 98.0032 28.7463 97.9736C28.9225 97.9437 29.3264 97.7498 29.6439 97.5425C30.124 97.229 30.2148 97.0218 30.1837 96.3111C30.1042 94.4923 30.0367 94.0446 29.6307 92.64C29.4 91.842 29.2113 90.9452 29.2113 90.6471C29.2113 90.0583 30.306 88.8221 30.996 88.6317C31.5447 88.4803 32.0887 87.4626 31.9525 86.8422C31.8297 86.2849 30.7833 85.8001 29.7023 85.8001C28.8913 85.8001 27.9214 86.5094 27.6635 87.2907C27.3601 88.2103 27.5421 90.3359 28.1628 93.1256C28.5226 94.7423 28.4101 95.1008 27.291 95.9026C26.5154 96.4584 26.4813 96.5253 26.8231 96.8224C27.313 97.2483 27.3415 97.8559 26.8549 97.505C26.6698 97.3714 26.5183 97.1734 26.5183 97.0651C26.5183 96.9566 26.315 96.7147 26.0664 96.5272C25.7248 96.2697 25.1694 96.1796 23.791 96.1578C22.7881 96.142 21.8757 96.0795 21.7632 96.0191C21.3849 95.8158 15.8735 96.3731 15.5044 96.6521C15.3096 96.7992 15.0268 96.9197 14.8762 96.9197C14.683 96.9197 14.6657 97.0187 14.8181 97.2551C15.1042 97.6997 14.6572 98.4389 13.626 99.2258C12.7019 99.9312 12.6739 100.084 13.278 101.114C13.8498 102.089 13.8466 102.427 13.2717 101.797C13.0269 101.529 12.7185 100.951 12.5863 100.513C12.4236 99.974 12.1393 99.6113 11.7037 99.3875C11.3503 99.2061 10.9961 98.8795 10.9167 98.662C10.7502 98.2059 11.1461 97.7028 11.6784 97.6938C12.3134 97.6831 13.2264 96.806 13.6294 95.8195C14.37 94.0066 13.4755 91.9584 11.4948 90.9315C10.7069 90.523 10.3597 90.4559 9.54195 90.5533C8.99483 90.6184 8.34965 90.7638 8.10818 90.8761C7.50765 91.1555 6.77 92.4717 6.77 93.2639C6.77 93.6223 6.65151 94.0185 6.50677 94.1443C6.30547 94.3193 6.30547 94.4912 6.50677 94.8753C6.65151 95.1515 6.77 95.616 6.77 95.9077C6.77 96.1993 6.97198 96.7654 7.21883 97.1657C7.75765 98.0397 7.79669 98.9256 7.3151 99.3444C6.89949 99.7055 6.86606 99.7094 6.32343 99.4568C5.70584 99.1696 5.19912 98.1445 5.19912 97.1823C5.19912 96.3349 5.10307 96.2485 4.24536 96.3244C4.02948 96.3435 3.85264 96.2727 3.85264 96.1671C3.85264 96.0616 3.55979 95.9194 3.20207 95.8511C2.63363 95.7426 2.55396 95.6429 2.57304 95.0641C2.59436 94.4085 2.6067 94.4008 3.72764 94.3437L4.86093 94.2861L5.10374 93.1157C5.40603 91.6598 5.9132 90.7887 7.00653 89.848C7.85818 89.1153 8.4742 88.9676 10.1277 89.1001C10.8653 89.159 12.8006 89.9735 13.5165 90.5259C14.2842 91.1186 15.5221 92.7163 15.5221 93.1149C15.5221 93.4806 15.9411 94.2309 16.2409 94.4016C16.3522 94.465 18.4424 94.5341 20.8858 94.5548C24.6519 94.587 25.3718 94.547 25.6153 94.2918C25.8312 94.0657 25.8635 93.5093 25.745 92.0568C25.5886 90.1395 25.5917 90.1221 26.1088 90.0363C26.5987 89.9551 26.5946 89.9483 26.0428 89.9233C25.5473 89.9009 25.434 89.784 25.3206 89.1775C25.2468 88.7821 25.2883 88.3516 25.4129 88.2211C25.5688 88.058 25.554 87.9593 25.3657 87.9046C24.9883 87.7952 25.7194 85.8576 26.3695 85.2451C27.2295 84.4347 28.9992 83.9464 30.2211 84.1825ZM37.6537 89.7899C37.8083 90.1405 37.5576 90.5283 37.2746 90.3761C36.9903 90.2234 37.0089 89.5066 37.2971 89.5066C37.4246 89.5066 37.585 89.634 37.6537 89.7899ZM36.7973 91.9058C37.1918 92.2594 37.5145 92.6576 37.5145 92.7905C37.5145 93.4422 39.0026 94.9844 39.4784 94.8256C39.9391 94.6718 40.4319 95.2873 40.4319 96.0165C40.4319 96.624 39.9838 97.8954 39.7697 97.8948C39.7019 97.8946 39.3437 97.4779 38.9737 96.9689C38.6038 96.4597 37.6218 95.3743 36.7915 94.5565C35.2188 93.0078 34.8678 92.2116 35.4762 91.5745C35.8844 91.1469 35.9773 91.1701 36.7973 91.9058ZM34.8447 94.7436C37.3146 97.2167 37.6806 97.6849 38.5661 99.5042C39.0827 100.566 39.5931 101.538 39.6999 101.664C40.0731 102.106 39.9912 103.06 39.5376 103.553C39.157 103.966 39.0549 103.996 38.8662 103.748C38.7437 103.587 38.642 103.258 38.64 103.017C38.6357 102.476 37.8671 100.485 37.1344 99.1173C36.7455 98.3909 36.2087 97.8374 35.2758 97.2001C33.8831 96.2491 33.3948 95.5458 33.5139 94.6636C33.6219 93.865 33.9892 93.887 34.8447 94.7436ZM1.97453 94.3378C2.11434 94.4167 2.2279 94.7225 2.227 95.0177C2.22588 95.4414 2.12107 95.5542 1.72745 95.5542C1.10919 95.5542 0.38636 94.8919 0.56432 94.4884C0.701885 94.1771 1.53244 94.0883 1.97453 94.3378ZM1.8152 95.0827C1.80443 95.3099 1.75124 95.3562 1.67965 95.2007C1.61479 95.0598 1.62288 94.8915 1.69738 94.8267C1.77189 94.7619 1.82485 94.877 1.8152 95.0827ZM42.4038 97.5467C42.3502 98.1595 42.0028 98.5321 42.0028 97.9769C42.0028 97.7947 41.8352 97.5391 41.6305 97.4088C41.3002 97.1989 41.3255 97.1611 41.856 97.0729C42.4018 96.9822 42.4496 97.0235 42.4038 97.5467ZM2.63924 98.4705C3.2272 98.6829 3.90291 99.8881 3.82639 100.587C3.79474 100.877 3.89797 101.572 4.05596 102.133C4.21395 102.693 4.30708 103.245 4.26287 103.36C4.09388 103.801 3.21756 102.763 3.07528 101.953C2.81182 100.456 2.57012 100.138 1.41956 99.7785C0.497219 99.4901 0.354946 99.3737 0.363922 98.9141C0.373347 98.433 0.458849 98.379 1.2719 98.3417C1.7656 98.3193 2.38094 98.377 2.63924 98.4705ZM42.9004 99.2867C42.9004 99.7824 42.8017 99.9761 42.5488 99.9761C42.2835 99.9761 42.2324 99.8524 42.3403 99.472C42.5782 98.6343 42.9004 98.5276 42.9004 99.2867ZM34.654 99.0169C34.8469 99.2045 35.4154 100.039 35.9174 100.87C36.9576 102.593 36.9845 103.441 36.0096 103.763C35.2507 104.014 35.2018 103.997 35.3425 103.529C35.4874 103.047 34.7469 101.291 34.1596 100.724C33.5153 100.102 33.2148 99.4712 33.3656 99.0582C33.5388 98.5834 34.1872 98.5627 34.654 99.0169ZM41.8872 99.2954C41.821 99.4457 41.556 99.5824 41.2984 99.5994C40.6693 99.6406 40.5414 99.7832 40.8468 100.103C40.9867 100.25 41.0349 100.427 40.9537 100.498C40.655 100.757 40.5387 100.611 40.5259 99.9583C40.5165 99.472 40.6087 99.2933 40.8652 99.3015C41.0589 99.3077 41.3953 99.2475 41.6125 99.1675C41.9 99.0619 41.975 99.0969 41.8872 99.2954ZM41.8906 100.041C41.8143 100.148 41.7075 100.236 41.6529 100.236C41.5984 100.236 41.554 100.148 41.554 100.041C41.554 99.9338 41.661 99.846 41.7916 99.846C41.9222 99.846 41.9669 99.9338 41.8906 100.041ZM40.2075 99.9226C40.2075 99.9648 40.056 100.05 39.8709 100.112C39.6857 100.173 39.5343 100.139 39.5343 100.035C39.5343 99.931 39.6857 99.846 39.8709 99.846C40.056 99.846 40.2075 99.8805 40.2075 99.9226ZM39.9831 100.712C39.9831 100.867 39.8821 101.048 39.7587 101.114C39.6352 101.18 39.5343 101.054 39.5343 100.833C39.5343 100.612 39.6352 100.431 39.7587 100.431C39.8821 100.431 39.9831 100.558 39.9831 100.712ZM42.7167 102.028C42.4967 102.272 42.4824 102.458 42.6606 102.747C42.7925 102.961 42.9004 103.566 42.9004 104.091C42.9004 105.219 42.4265 105.712 40.8897 106.183C36.8492 107.423 32.3816 107.868 23.2643 107.941L15.8587 108L22.7033 107.829C27.1229 107.718 30.5418 107.532 32.3531 107.304L35.1582 106.95L31.4092 106.814C28.9274 106.723 27.4481 106.747 27.0331 106.885C26.3763 107.102 21.7727 106.952 20.3997 106.669C19.6998 106.524 19.7101 106.518 20.6836 106.489C21.239 106.473 22.9955 106.389 24.5868 106.301C26.1781 106.214 27.8444 106.213 28.2896 106.298C28.7348 106.384 29.4525 106.381 29.8845 106.291L30.67 106.129L28.8747 106.049L29.6601 105.885C30.0921 105.795 31.3856 105.617 32.5348 105.489C33.6838 105.362 34.7621 105.137 34.9311 104.99C35.1001 104.843 35.456 104.723 35.7219 104.723C37.5325 104.723 42.2272 103.111 42.2272 102.489C42.2272 102.349 42.4038 102.114 42.6199 101.967C42.9727 101.727 42.9824 101.733 42.7167 102.028ZM1.09528 103.686C1.32329 104.241 1.53626 104.357 3.10625 104.783C4.07234 105.044 5.39301 105.366 6.04134 105.498C7.6046 105.816 7.86514 106.176 6.40556 106.001C5.80346 105.929 5.05953 105.951 4.75276 106.05C4.44576 106.148 4.04204 106.16 3.85533 106.076C3.66884 105.991 3.36454 105.869 3.1794 105.804C2.63632 105.613 1.03133 104.73 1.22095 104.726C1.31633 104.724 1.23218 104.508 1.03402 104.245C0.835863 103.982 0.711087 103.609 0.757092 103.416C0.818356 103.157 0.907674 103.229 1.09528 103.686ZM0.48645 104.927C0.48645 105.039 0.734423 105.346 1.03738 105.61C1.64531 106.138 1.60223 106.202 0.864361 105.864C0.117291 105.522 -0.304603 104.723 0.262039 104.723C0.385466 104.723 0.48645 104.815 0.48645 104.927ZM8.3409 106.089C8.3409 106.196 8.23991 106.284 8.11648 106.284C7.99305 106.284 7.89207 106.196 7.89207 106.089C7.89207 105.981 7.99305 105.894 8.11648 105.894C8.23991 105.894 8.3409 105.981 8.3409 106.089ZM14.6806 106.616C14.4027 106.663 13.9485 106.663 13.6707 106.616C13.3929 106.57 13.6202 106.532 14.1756 106.532C14.731 106.532 14.9584 106.57 14.6806 106.616ZM26.5603 106.807C26.3985 106.863 26.2048 106.856 26.1303 106.792C26.0558 106.727 26.1882 106.681 26.4247 106.689C26.6862 106.699 26.7394 106.745 26.5603 106.807ZM28.1312 107.002C27.9694 107.059 27.7757 107.052 27.7012 106.987C27.6267 106.922 27.7591 106.876 27.9956 106.884C28.2571 106.894 28.3103 106.94 28.1312 107.002ZM6.82611 107.193C6.67171 107.247 6.41925 107.247 6.26508 107.193C6.11068 107.139 6.23703 107.095 6.54559 107.095C6.85416 107.095 6.98028 107.139 6.82611 107.193ZM8.15845 107.392C7.99665 107.449 7.80297 107.442 7.72847 107.377C7.65396 107.312 7.78637 107.266 8.0229 107.274C8.28434 107.284 8.33753 107.33 8.15845 107.392Z" fill="white"/>
</svg>
