<svg width="20" height="20" viewBox="0 0 20 20" fill="none" xmlns="http://www.w3.org/2000/svg">
<g clip-path="url(#clip0_721_37240)">
<path fill-rule="evenodd" clip-rule="evenodd" d="M7.41665 0.833496C7.41665 0.419282 7.08086 0.0834961 6.66665 0.0834961C6.25244 0.0834961 5.91665 0.419283 5.91665 0.833496V1.15052C5.82137 1.17426 5.72828 1.20042 5.63689 1.22924C3.53653 1.89148 1.8913 3.53671 1.22906 5.63707C0.916287 6.62905 0.916417 7.82152 0.916637 9.83629L0.916649 10.0002L0.916637 10.164C0.916417 12.1788 0.916287 13.3713 1.22906 14.3633C1.8913 16.4636 3.53653 18.1088 5.63689 18.7711C6.62887 19.0839 7.82134 19.0837 9.83609 19.0835L9.99998 19.0835L10.1639 19.0835C12.1786 19.0837 13.3711 19.0839 14.3631 18.7711C16.4634 18.1088 18.1087 16.4636 18.7709 14.3633C19.0837 13.3713 19.0835 12.1788 19.0833 10.1641L19.0833 10.0002L19.0833 9.83627C19.0835 7.82152 19.0837 6.62905 18.7709 5.63707C18.1087 3.53671 16.4634 1.89148 14.3631 1.22924C14.2717 1.20042 14.1786 1.17426 14.0833 1.15052V0.833496C14.0833 0.419282 13.7475 0.0834961 13.3333 0.0834961C12.9191 0.0834961 12.5833 0.419283 12.5833 0.833496V0.952103C11.9226 0.916625 11.1397 0.916711 10.1639 0.916818L9.99998 0.916829L9.83611 0.916818C8.86027 0.916711 8.07734 0.916625 7.41665 0.952103V0.833496ZM5.08332 6.66683C5.08332 6.25262 5.4191 5.91683 5.83332 5.91683H14.1666C14.5809 5.91683 14.9166 6.25262 14.9166 6.66683C14.9166 7.08104 14.5809 7.41683 14.1666 7.41683H5.83332C5.4191 7.41683 5.08332 7.08104 5.08332 6.66683Z" fill="white"/>
</g>
<defs>
<clipPath id="clip0_721_37240">
<rect width="20" height="20" fill="white"/>
</clipPath>
</defs>
</svg>
