<svg width="126" height="61" viewBox="0 0 126 61" fill="none" xmlns="http://www.w3.org/2000/svg">
<path d="M0.234375 29.7271C0.234375 34.1858 4.58822 38.3482 11.4524 40.6943C10.0817 47.595 11.2068 53.1569 14.9646 55.3241C18.8272 57.5516 24.5816 56.0097 30.0434 51.2355C35.3673 55.817 40.748 57.62 44.5023 55.4466C48.3612 53.2127 49.535 47.2735 48.1264 40.1575C55.2758 37.7937 59.275 34.2445 59.275 29.7271C59.275 25.3718 54.9131 21.6038 48.1415 19.2727C49.6579 11.8625 48.373 6.43562 44.4596 4.17888C40.6867 2.00325 35.2435 3.89953 29.8413 8.60096C24.2212 3.61077 18.8317 2.0872 14.9221 4.35051C11.1529 6.53233 10.0773 12.1953 11.4524 19.2237C4.82 21.5361 0.234375 25.3892 0.234375 29.7271Z" fill="#282C34"/>
<path d="M46.7084 21.5891C46.1645 21.4019 45.6009 21.2248 45.0205 21.0573C45.1159 20.668 45.2035 20.2837 45.2813 19.906C46.559 13.7039 45.7236 8.70746 42.8709 7.06241C40.1356 5.48503 35.6622 7.1297 31.1442 11.0615C30.7098 11.4396 30.2741 11.8399 29.8386 12.2594C29.5484 11.9819 29.2587 11.7136 28.9698 11.4571C24.2348 7.2529 19.4888 5.4812 16.6389 7.13101C13.9062 8.71297 13.0969 13.4101 14.2471 19.2879C14.3581 19.8556 14.4879 20.4354 14.6348 21.0249C13.9631 21.2155 13.3146 21.4188 12.6941 21.6351C7.14292 23.5705 3.59766 26.6037 3.59766 29.75C3.59766 32.9995 7.4035 36.2588 13.1855 38.235C13.6418 38.391 14.1153 38.5385 14.6032 38.6785C14.4448 39.316 14.3071 39.9408 14.1914 40.5501C13.0948 46.3259 13.9512 50.9121 16.6766 52.484C19.4918 54.1074 24.2164 52.4388 28.8169 48.4173C29.1805 48.0994 29.5455 47.7623 29.911 47.409C30.3849 47.8653 30.858 48.2971 31.3285 48.7022C35.7847 52.5369 40.1859 54.0853 42.9088 52.5089C45.7212 50.8809 46.6352 45.9542 45.4485 39.9602C45.3579 39.5024 45.2525 39.0347 45.134 38.5587C45.4658 38.4606 45.7915 38.3594 46.1091 38.2541C52.1201 36.2625 56.031 33.0429 56.031 29.75C56.031 26.5923 52.3714 23.5386 46.7084 21.5891Z" fill="#61DAFB"/>
<path d="M45.407 36.1255C45.1203 36.2204 44.8261 36.3122 44.5263 36.4011C43.8628 34.3004 42.9672 32.0665 41.8712 29.7585C42.917 27.5055 43.778 25.3002 44.423 23.213C44.9594 23.3682 45.48 23.5319 45.9817 23.7047C50.8337 25.375 53.7934 27.8447 53.7934 29.7476C53.7934 31.7745 50.597 34.4058 45.407 36.1255ZM43.2535 40.3928C43.7782 43.0433 43.8532 45.4396 43.5056 47.313C43.1933 48.9963 42.5653 50.1186 41.7888 50.5681C40.1363 51.5245 36.6027 50.2813 32.7917 47.0018C32.3548 46.6259 31.9148 46.2245 31.4733 45.7996C32.9507 44.1838 34.4273 42.3053 35.8684 40.2191C38.4032 39.9942 40.798 39.6265 42.9697 39.1244C43.0766 39.5559 43.1716 39.9791 43.2535 40.3928ZM21.4757 50.4028C19.8613 50.9729 18.5755 50.9893 17.7982 50.5411C16.1443 49.5872 15.4567 45.9049 16.3946 40.9655C16.502 40.3998 16.6299 39.8187 16.7773 39.2248C18.9252 39.6997 21.3024 40.0415 23.8432 40.2475C25.2941 42.2889 26.8133 44.1653 28.3443 45.8083C28.0098 46.1312 27.6766 46.4387 27.3453 46.7284C25.311 48.5066 23.2723 49.7682 21.4757 50.4028ZM13.9123 36.1131C11.3556 35.2393 9.24417 34.1035 7.79689 32.8642C6.49643 31.7505 5.83984 30.6448 5.83984 29.7476C5.83984 27.8383 8.68634 25.403 13.4338 23.7478C14.0098 23.547 14.6128 23.3577 15.2386 23.1799C15.8947 25.3142 16.7554 27.5456 17.7941 29.8021C16.742 32.0921 15.8691 34.3591 15.2065 36.5184C14.7604 36.3901 14.3282 36.2552 13.9123 36.1131ZM16.4476 18.8553C15.4622 13.8194 16.1167 10.0205 17.7635 9.06719C19.5176 8.05166 23.3966 9.49959 27.4848 13.1297C27.7461 13.3617 28.0085 13.6046 28.2716 13.8558C26.7482 15.4916 25.2428 17.3539 23.8049 19.3833C21.3389 19.6119 18.9784 19.979 16.8081 20.4707C16.6716 19.9218 16.5508 19.3826 16.4476 18.8553ZM39.065 24.4402C38.5462 23.544 38.0135 22.669 37.4705 21.8179C39.1435 22.0294 40.7464 22.3102 42.2516 22.6537C41.7997 24.102 41.2364 25.6163 40.5734 27.1687C40.0978 26.2657 39.5948 25.3553 39.065 24.4402ZM29.8417 15.4566C30.8749 16.5759 31.9095 17.8256 32.9272 19.1815C31.9017 19.1331 30.8635 19.1079 29.8167 19.1079C28.7798 19.1079 27.7492 19.1325 26.7301 19.1801C27.7488 17.8368 28.7924 16.5888 29.8417 15.4566ZM20.5593 24.4556C20.041 25.3543 19.5473 26.2598 19.0792 27.167C18.4269 25.62 17.8689 24.0988 17.413 22.63C18.909 22.2952 20.5043 22.0215 22.1666 21.814C21.616 22.6729 21.079 23.5545 20.5593 24.4556ZM22.2145 37.8409C20.4971 37.6493 18.8778 37.3897 17.3821 37.0642C17.8452 35.5691 18.4156 34.0154 19.0817 32.4351C19.5511 33.3417 20.0467 34.2475 20.5682 35.1482C21.0993 36.0657 21.6497 36.9645 22.2145 37.8409ZM29.9037 44.1965C28.842 43.051 27.7831 41.784 26.7489 40.4211C27.7529 40.4605 28.7764 40.4806 29.8167 40.4806C30.8854 40.4806 31.9419 40.4565 32.9818 40.4102C31.9608 41.7977 30.9298 43.0667 29.9037 44.1965ZM40.5948 32.3546C41.2956 33.9519 41.8864 35.4975 42.3555 36.9671C40.8352 37.3139 39.1938 37.5932 37.4644 37.8008C38.0087 36.9383 38.546 36.0483 39.074 35.1328C39.6081 34.2066 40.1153 33.2789 40.5948 32.3546ZM37.1337 34.0137C36.3141 35.4349 35.4726 36.7915 34.6184 38.0721C33.0624 38.1834 31.455 38.2407 29.8167 38.2407C28.185 38.2407 26.5978 38.19 25.0694 38.0908C24.1807 36.7934 23.321 35.4327 22.5066 34.026C21.6943 32.623 20.9469 31.2082 20.2695 29.8013C20.9467 28.3912 21.6923 26.9748 22.4999 25.5744L22.4997 25.5747C23.3095 24.1705 24.1617 22.8165 25.0422 21.5272C26.6015 21.4093 28.2006 21.3478 29.8166 21.3478C31.4399 21.3478 33.0411 21.4098 34.6 21.5287C35.467 22.8085 36.3134 24.1582 37.1263 25.5625C37.9485 26.9827 38.7037 28.3896 39.3867 29.7695C38.7058 31.1731 37.9522 32.5943 37.1337 34.0137ZM41.7544 9.00055C43.5103 10.0131 44.1931 14.0967 43.0899 19.4515C43.0195 19.7932 42.9403 20.1412 42.8542 20.4939C40.6789 19.992 38.3167 19.6185 35.8435 19.3865C34.4028 17.3348 32.9098 15.4696 31.4111 13.8548C31.8141 13.4672 32.2164 13.0976 32.6171 12.7488C36.4881 9.38003 40.106 8.04998 41.7544 9.00055Z" fill="#282C34"/>
<path d="M29.8169 25.0664C32.4027 25.0664 34.499 27.1626 34.499 29.7485C34.499 32.3343 32.4027 34.4306 29.8169 34.4306C27.2311 34.4306 25.1348 32.3343 25.1348 29.7485C25.1348 27.1626 27.2311 25.0664 29.8169 25.0664Z" fill="#61DAFB"/>
</svg>
