<svg width="126" height="60" viewBox="0 0 126 60" fill="none" xmlns="http://www.w3.org/2000/svg">
<g clip-path="url(#clip0_1151_2337)">
<path d="M19.0027 60.0079C24.5242 60.0079 29.0054 55.5266 29.0054 50.0049V40.002H19.0027C13.4812 40.002 9 44.4833 9 50.0049C9 55.5266 13.4812 60.0079 19.0027 60.0079Z" fill="#0ACF83"/>
<path d="M9 29.9991C9 24.4774 13.4812 19.9961 19.0027 19.9961H29.0054V40.002H19.0027C13.4812 40.002 9 35.5207 9 29.9991Z" fill="#A259FF"/>
<path d="M9 9.99321C9 4.47157 13.4812 -0.00976562 19.0027 -0.00976562H29.0054V19.9962H19.0027C13.4812 19.9962 9 15.5149 9 9.99321Z" fill="#F24E1E"/>
<path d="M29.0059 -0.00976562H39.0086C44.53 -0.00976562 49.0112 4.47157 49.0112 9.99321C49.0112 15.5149 44.53 19.9962 39.0086 19.9962H29.0059V-0.00976562Z" fill="#FF7262"/>
<path d="M49.0112 29.9991C49.0112 35.5207 44.53 40.002 39.0086 40.002C33.4871 40.002 29.0059 35.5207 29.0059 29.9991C29.0059 24.4774 33.4871 19.9961 39.0086 19.9961C44.53 19.9961 49.0112 24.4774 49.0112 29.9991Z" fill="#1ABCFE"/>
</g>
<defs>
<clipPath id="clip0_1151_2337">
<rect width="126" height="60" fill="white"/>
</clipPath>
</defs>
</svg>
