<svg width="126" height="60" viewBox="0 0 126 60" fill="none" xmlns="http://www.w3.org/2000/svg">
<g clip-path="url(#clip0_1151_17936)">
<path d="M50.1047 0H10.782C4.82728 0 0 4.95105 0 11.0585V49.8282C0 55.9357 4.82728 60.8867 10.782 60.8867H50.1047C56.0594 60.8867 60.8867 55.9357 60.8867 49.8282V11.0585C60.8867 4.95105 56.0594 0 50.1047 0Z" fill="#1F0141"/>
<path d="M24.4607 36.4286H15.0233L13.1028 42.5563C13.0769 42.6679 13.0138 42.7666 12.9244 42.8355C12.835 42.9044 12.7249 42.9391 12.6132 42.9336H7.83613C7.56383 42.9336 7.46827 42.7801 7.54945 42.473L15.7286 18.4436C15.8097 18.1834 15.8909 17.9466 15.9823 17.6239C16.0889 17.065 16.1433 16.497 16.1446 15.9274C16.1391 15.8875 16.1428 15.8468 16.1552 15.8086C16.1677 15.7703 16.1886 15.7356 16.2164 15.7071C16.2442 15.6786 16.2781 15.6571 16.3154 15.6443C16.3527 15.6315 16.3924 15.6278 16.4313 15.6334H22.9259C23.1153 15.6334 23.2244 15.7037 23.2531 15.8442L32.5257 42.5146C32.6069 42.7939 32.5223 42.9336 32.272 42.9336H26.952C26.8607 42.9438 26.7689 42.9196 26.6938 42.8655C26.6186 42.8114 26.5652 42.7311 26.5436 42.6395L24.4607 36.4286ZM16.4896 31.261H22.9436C22.7745 30.7025 22.5842 30.0736 22.3728 29.3746C22.1614 28.6755 21.9297 27.9287 21.6777 27.1342L20.942 24.7456C20.6967 23.9494 20.4718 23.1809 20.2672 22.4402C20.0625 21.6995 19.879 21.0222 19.7166 20.4081H19.6761C19.4463 21.5395 19.1601 22.6581 18.8186 23.7595C18.4363 25.0171 18.0482 26.3016 17.6541 27.613C17.26 28.9244 16.8719 30.1404 16.4896 31.261Z" fill="#D191FF"/>
<path d="M47.5364 34.0417H39.4892C39.5879 34.8582 39.8523 35.6445 40.2655 36.3497C40.7239 37.0447 41.3703 37.5873 42.1251 37.9109C43.1492 38.3655 44.2568 38.5883 45.3724 38.564C46.2571 38.5465 47.1384 38.4472 48.0057 38.2674C48.782 38.1597 49.5427 37.9562 50.2712 37.6611C50.4082 37.5492 50.4767 37.6195 50.4767 37.8719V41.8503C50.4838 41.9589 50.4628 42.0675 50.4158 42.1651C50.3693 42.2408 50.3069 42.3048 50.2332 42.3525C49.4235 42.7227 48.5709 42.985 47.6962 43.1331C46.5131 43.363 45.3105 43.4702 44.1065 43.4531C42.1733 43.4531 40.553 43.1461 39.2457 42.532C38.0103 41.9739 36.9191 41.1275 36.0593 40.0601C35.2566 39.0546 34.6595 37.8936 34.3037 36.6463C33.9515 35.415 33.7729 34.1384 33.7735 32.8552C33.77 31.4538 33.9841 30.0608 34.4077 28.7284C34.8153 27.4283 35.4602 26.2195 36.3079 25.1663C37.144 24.1257 38.1894 23.2825 39.3725 22.6944C40.57 22.0933 41.9856 21.88 43.6194 21.88C44.9746 21.8448 46.3207 22.1166 47.5618 22.6762C48.6065 23.135 49.5256 23.8498 50.2383 24.7578C50.9112 25.6426 51.4266 26.6424 51.7604 27.7111C52.0821 28.7406 52.2473 29.8148 52.2501 30.8959C52.2501 31.51 52.2298 32.0685 52.1892 32.5716C52.1486 33.0746 52.1148 33.4381 52.0877 33.6618C52.0771 33.7543 52.0338 33.8395 51.966 33.9014C51.8982 33.9633 51.8106 33.9975 51.7198 33.9975C51.5507 33.9975 51.2716 34.0183 50.8826 34.0599C50.4936 34.1016 50.0032 34.1293 49.4112 34.1432C48.81 34.1458 48.2011 34.0417 47.5364 34.0417ZM39.4892 30.2246H44.8396C45.4925 30.2246 45.9762 30.2176 46.2908 30.2038C46.5007 30.1828 46.7034 30.1144 46.8844 30.0034V29.7432C46.8764 29.4159 46.8217 29.0915 46.7221 28.7805C46.5024 28.0674 46.061 27.4477 45.4653 27.0164C44.8697 26.585 44.1527 26.3656 43.424 26.3918C42.7347 26.3473 42.0476 26.51 41.4469 26.8598C40.8463 27.2096 40.3582 27.7315 40.0423 28.3616C39.7609 28.9487 39.5742 29.5788 39.4892 30.2272V30.2246Z" fill="#D191FF"/>
</g>
<defs>
<clipPath id="clip0_1151_17936">
<rect width="126" height="60" fill="white"/>
</clipPath>
</defs>
</svg>
