<svg width="126" height="60" viewBox="0 0 126 60" fill="none" xmlns="http://www.w3.org/2000/svg">
<path fill-rule="evenodd" clip-rule="evenodd" d="M49.4303 29.7696C48.4281 29.7696 47.6146 30.5976 47.6146 31.6177C47.6146 32.6401 48.4281 33.4674 49.4303 33.4674C50.4331 33.4674 51.2455 32.6401 51.2455 31.6177C51.2455 30.5976 50.4331 29.7696 49.4303 29.7696ZM123.304 28.4125C124.494 28.4125 125.365 29.0912 125.936 29.7696V26.4924C125.001 25.8465 123.874 25.5879 122.894 25.5879C119.885 25.5879 117.27 27.783 117.27 31.5595C117.27 35.1756 119.646 37.5327 122.941 37.5327C123.892 37.5327 124.937 37.386 125.936 36.6931V33.4789C125.365 34.0774 124.463 34.7077 123.304 34.7077C121.531 34.7077 120.469 33.3685 120.469 31.6565C120.469 29.8002 121.594 28.4125 123.304 28.4125ZM117.61 25.9114H113.966L110.622 30.6558V25.9114H107.518L107.519 37.2095H110.622V32.3502L113.838 37.2095H117.722L113.395 31.3823L117.61 25.9114ZM98.3483 32.6905V25.9114H95.354V37.2095H98.3959L102.69 30.4301V37.2095H105.684V25.9114H102.641L98.3483 32.6905ZM89.3503 30.9946H88.4646V28.3972H89.3503C90.6813 28.3972 90.8707 29.1226 90.8707 29.6879C90.8707 30.1718 90.7286 30.9946 89.3503 30.9946ZM90.0308 25.9114H85.3578V37.2095H88.4646V33.4789H90.0308C93.1687 33.4789 94.072 31.2543 94.072 29.6879C94.072 28.1379 93.1845 25.9114 90.0308 25.9114ZM76.1064 28.6218H78.5447V37.2095H81.6511V28.6218H84.0902V25.9114H76.1064V28.6218ZM67.5021 32.6905V25.9114H64.5085V37.2095H67.5512L71.8429 30.4301V37.2095H74.8379V25.9114H71.7967L67.5021 32.6905ZM58.2503 34.9483H56.9199V32.5767H58.2503C59.233 32.5767 59.8037 32.8677 59.8037 33.7562C59.8037 34.6592 59.2176 34.9483 58.2503 34.9483ZM58.5521 30.317H56.9199V28.6218H62.0054V25.9114H53.815L53.8146 37.2095L58.5521 37.2095C59.359 37.2095 62.9086 37.2409 62.9086 33.7073C62.9086 30.301 59.3916 30.317 58.5521 30.317ZM36.435 31.5595C36.435 35.1756 38.8115 37.5327 42.1065 37.5327C43.0581 37.5327 44.1035 37.386 45.1019 36.6931V33.4789C44.5298 34.0774 43.6269 34.7077 42.471 34.7077C40.696 34.7077 39.6352 33.3685 39.6352 31.6565C39.6352 29.8002 40.7597 28.4125 42.471 28.4125C43.6588 28.4125 44.5298 29.0912 45.1019 29.7696V26.4924C44.165 25.8465 43.0413 25.5879 42.0589 25.5879C39.0485 25.5879 36.435 27.783 36.435 31.5595ZM29.9336 28.5095H31.6298V37.2095H34.4978V25.9114H29.9336V28.5095Z" fill="white"/>
<path fill-rule="evenodd" clip-rule="evenodd" d="M12.1931 18C11.2847 18 10.4012 18.1041 9.54999 18.2966V30.4306C9.54999 31.9175 10.74 33.1302 12.2 33.1302C13.6593 33.1302 14.849 31.9175 14.849 30.4313C14.849 29.003 13.7534 27.8306 12.3762 27.7373V25.5765C14.9211 25.6705 16.969 27.8153 16.969 30.4313C16.969 33.1067 14.8266 35.2903 12.2 35.2903C9.57234 35.2903 7.43034 33.1067 7.43034 30.4306V18.9832C7.12926 19.1134 6.83513 19.2578 6.54687 19.4131V30.4306C6.54724 33.6019 9.08702 36.1881 12.2 36.1881C15.3134 36.1881 17.8521 33.6019 17.8521 30.4313C17.8521 27.3198 15.409 24.7716 12.3762 24.6757V22.5157C16.576 22.6123 19.971 26.131 19.971 30.4313C19.971 34.7925 16.48 38.3481 12.2 38.3481C7.91895 38.3481 4.42685 34.7925 4.42685 30.4306V20.8459C1.72371 23.1231 0 26.5668 0 30.4213C0 37.2813 5.45902 42.844 12.1934 42.844C18.9289 42.844 24.3865 37.2813 24.3865 30.4213C24.3865 23.5612 18.9289 18 12.1931 18Z" fill="#D91935"/>
</svg>
