<svg width="126" height="60" viewBox="0 0 126 60" fill="none" xmlns="http://www.w3.org/2000/svg">
<g clip-path="url(#clip0_1578_54895)">
<path d="M31.9108 26.7326V46.8393H28.1602V25.3213L31.9108 26.7326Z" fill="white"/>
<path d="M16.9297 24.8571C16.9297 19.7145 19.733 16.9111 23.0197 16.9111C26.3064 16.9111 26.7704 17.3751 30.5017 19.2505C34.233 21.1258 35.1804 21.5898 37.0557 21.5898C38.931 21.5898 39.859 20.1785 39.859 17.3751H43.1264C43.5904 22.9818 40.323 25.3211 37.0364 25.3211C33.7497 25.3211 32.8217 24.8571 29.5544 22.9818C26.287 21.1065 25.3397 20.6425 23.4644 20.6425C21.589 20.6425 20.661 22.0538 20.197 25.3211L16.9297 24.8571Z" fill="white"/>
<path d="M30.5 59C14.5113 59 1.5 45.9887 1.5 30C1.5 14.0113 14.5113 1 30.5 1C46.4887 1 59.5 14.0113 59.5 30C59.5 45.9887 46.4887 59 30.5 59ZM30.5 2.87533C15.536 2.87533 3.37533 15.036 3.37533 30C3.37533 44.964 15.536 57.1247 30.5 57.1247C45.464 57.1247 57.6247 44.964 57.6247 30C57.6247 15.036 45.464 2.87533 30.5 2.87533Z" fill="white"/>
</g>
<defs>
<clipPath id="clip0_1578_54895">
<rect width="58" height="58" fill="white" transform="translate(1.5 1)"/>
</clipPath>
</defs>
</svg>
