<svg width="126" height="60" viewBox="0 0 126 60" fill="none" xmlns="http://www.w3.org/2000/svg">
<path d="M43 11.791L39.0826 55.1737L21.4737 59.9996L3.91326 55.1805L0 11.791H43Z" fill="#264DE4"/>
<path d="M35.7289 52.4123L39.0765 15.3398H21.5V56.312L35.7289 52.4123Z" fill="#2965F1"/>
<path d="M8.97266 31.4316L9.45513 36.7531H21.5016V31.4316H8.97266Z" fill="#EBEBEB"/>
<path d="M21.4984 20.6602H21.4798H8L8.48935 25.9818H21.4984V20.6602Z" fill="#EBEBEB"/>
<path d="M21.5012 50.789V45.2523L21.4777 45.2586L15.4824 43.6582L15.0991 39.4141H12.1859H9.69531L10.4495 47.7696L21.4765 50.7958L21.5012 50.789Z" fill="#EBEBEB"/>
<path d="M10.1211 0H16.641V2.69531H12.8476V5.39062H16.641V8.08594H10.1211V0Z" fill="white"/>
<path d="M17.9453 0H24.4652V2.34375H20.6718V2.8125H24.4652V8.20312H17.9453V5.74219H21.7387V5.27344H17.9453V0Z" fill="white"/>
<path d="M25.7656 0H32.2856V2.34375H28.4921V2.8125H32.2856V8.20312H25.7656V5.74219H29.559V5.27344H25.7656V0Z" fill="white"/>
<path d="M28.1092 36.7526L27.4844 43.6542L21.4805 45.2562V50.7926L32.5162 47.769L32.5972 46.87L33.8622 32.8601L33.9935 31.4311L34.9653 20.6602H21.4805V25.9818H29.0659L28.576 31.4311H21.4805V36.7526H28.1092Z" fill="white"/>
</svg>
