<svg width="126" height="60" viewBox="0 0 126 60" fill="none" xmlns="http://www.w3.org/2000/svg">
<path d="M60 0H0V60H60V0Z" fill="#512BD4"/>
<path d="M10.6933 38.3325C10.2691 38.3325 9.90845 38.1912 9.61148 37.9085C9.3145 37.6185 9.16602 37.2741 9.16602 36.8754C9.16602 36.4694 9.3145 36.1215 9.61148 35.8315C9.90845 35.5415 10.2691 35.3965 10.6933 35.3965C11.1246 35.3965 11.4888 35.5415 11.7857 35.8315C12.0898 36.1215 12.2418 36.4694 12.2418 36.8754C12.2418 37.2741 12.0898 37.6185 11.7857 37.9085C11.4888 38.1912 11.1246 38.3325 10.6933 38.3325Z" fill="white"/>
<path d="M27.653 38.0941H24.8953L17.6302 26.6324C17.4464 26.3424 17.2943 26.0414 17.1741 25.7297H17.1105C17.167 26.0633 17.1953 26.7774 17.1953 27.872V38.0941H14.7559V22.5H17.6938L24.7151 33.6899C25.012 34.1539 25.203 34.4729 25.2878 34.6468H25.3302C25.2595 34.2337 25.2241 33.5341 25.2241 32.548V22.5H27.653V38.0941Z" fill="white"/>
<path d="M39.532 38.0941H30.9941V22.5H39.1927V24.6967H33.5185V29.1117H38.7473V31.2975H33.5185V35.9083H39.532V38.0941Z" fill="white"/>
<path d="M51.6672 24.6967H47.2975V38.0941H44.7731V24.6967H40.4141V22.5H51.6672V24.6967Z" fill="white"/>
</svg>
