<svg width="126" height="60" viewBox="0 0 126 60" fill="none" xmlns="http://www.w3.org/2000/svg">
<g clip-path="url(#clip0_1946_697)">
<path d="M35.8819 39.6348C34.499 47.166 32.6758 52.6451 30.4121 56.0491C28.6482 58.6803 26.716 59.9958 24.6121 59.9958C24.0512 59.9958 23.3599 59.8262 22.5384 59.4892V57.6734C22.9394 57.7323 23.4099 57.7637 23.9503 57.7637C24.9319 57.7637 25.7227 57.4914 26.3252 56.9479C27.046 56.2855 27.4066 55.5414 27.4066 54.7165C27.4066 54.1529 27.1253 52.9963 26.5652 51.2471L22.8388 39.6311H26.1744L28.8482 48.3192C29.449 50.2913 29.6995 51.6686 29.5992 52.4536C31.0619 48.5311 32.0843 44.2574 32.665 39.6371H35.8808M21.1569 54.6583H17.762C17.6426 48.9055 17.3116 43.4954 16.7707 38.4258H16.7408L11.5711 54.6583H8.9856L3.84736 38.4258H3.81709C3.43586 43.2931 3.19595 48.7019 3.09601 54.6583H0C0.199989 47.4167 0.700747 40.6305 1.50143 34.2949H5.7093L10.608 49.2556H10.638L15.567 34.2949H19.5934C20.475 41.7159 20.9956 48.5045 21.1553 54.6583" fill="#00758F"/>
<path d="M81.0814 54.6568H71.4352V34.2934H74.6813V52.1493H81.0814V54.6544M56.8238 50.5805C56.0022 49.2529 55.591 47.1232 55.591 44.1856C55.591 39.0578 57.1445 36.4921 60.2489 36.4921C61.8726 36.4921 63.0643 37.1058 63.8253 38.3322C64.6459 39.6599 65.0569 41.7725 65.0569 44.669C65.0569 49.8379 63.5035 52.4243 60.399 52.4243C58.7766 52.4243 57.5836 51.8113 56.8238 50.583M68.9042 55.1475L65.1755 53.3013C65.5075 53.028 65.8227 52.733 66.1081 52.3917C67.6918 50.5237 68.4831 47.7581 68.4831 44.0961C68.4831 37.3584 65.848 33.9883 60.5791 33.9883C57.9949 33.9883 55.9805 34.8427 54.5383 36.554C52.9546 38.4244 52.1634 41.1803 52.1634 44.8205C52.1634 48.4002 52.8641 51.0264 54.2661 52.6945C55.5437 54.2027 57.4758 54.9574 60.0637 54.9574C61.0288 54.9574 61.9148 54.8381 62.7193 54.5994L67.5745 57.4365L68.8981 55.147M50.7503 49.0113C50.7503 50.7387 50.1182 52.1561 48.8581 53.2657C47.5974 54.3702 45.9024 54.9241 43.7815 54.9241C41.7974 54.9241 39.8749 54.2868 38.0117 53.0222L38.8832 51.273C40.4862 52.0774 41.9368 52.4791 43.2386 52.4791C44.4606 52.4791 45.4164 52.2062 46.1084 51.6669C46.7986 51.1237 47.2123 50.3659 47.2123 49.4052C47.2123 48.196 46.3723 47.163 44.8313 46.2956C43.4085 45.5117 40.5654 43.8753 40.5654 43.8753C39.0252 42.747 38.2521 41.5361 38.2521 39.5421C38.2521 37.8922 38.8281 36.5585 39.9786 35.5446C41.1317 34.528 42.6197 34.0194 44.4417 34.0194C46.3255 34.0194 48.0374 34.524 49.58 35.53L48.7966 37.278C47.4766 36.7163 46.1761 36.4344 44.8924 36.4344C43.8513 36.4344 43.0486 36.6854 42.4896 37.1902C41.9272 37.6906 41.5795 38.3347 41.5795 39.12C41.5795 40.326 42.4377 41.3719 44.0221 42.2562C45.4631 43.0405 48.3764 44.7093 48.3764 44.7093C49.9613 45.8355 50.7514 47.0364 50.7514 49.0146" fill="#F29111"/>
<path d="M83.3918 54.6556H83.9295V52.5841H84.6334V52.1609H82.6602V52.5841H83.3913L83.3918 54.6556ZM87.4847 54.6556H87.9916V52.1602H87.2292L86.6086 53.8609L85.9331 52.1602H85.1983V54.6556H85.678V52.7562H85.7053L86.4128 54.6556H86.7783L87.4847 52.7562L87.4847 54.6556Z" fill="#F29111"/>
<path d="M54.0992 0.000209538C53.2415 -0.0125948 52.4937 0.311778 52.1078 1.26247C51.4459 2.86272 53.0882 4.43631 53.6528 5.24915C54.0691 5.81438 54.6087 6.45521 54.9013 7.09409C55.0731 7.51263 55.1227 7.95636 55.295 8.39876C55.6868 9.48125 56.0536 10.6871 56.569 11.6974C56.8377 12.2141 57.1315 12.7559 57.4746 13.2213C57.6725 13.4936 58.0144 13.615 58.0883 14.0592C57.7463 14.5508 57.7196 15.2888 57.5238 15.9054C56.6419 18.6855 56.9843 22.1307 58.235 24.1731C58.6261 24.7881 59.5585 26.1416 60.8095 25.6243C61.9124 25.1822 61.6672 23.7794 61.9856 22.5498C62.0589 22.2524 62.0099 22.0574 62.1566 21.8608V21.9104C62.4996 22.5984 62.8438 23.2611 63.1622 23.9528C63.9231 25.1573 65.2456 26.4119 66.349 27.2478C66.9355 27.6924 67.4018 28.454 68.1371 28.7257V28.6512H68.0889C67.9411 28.4304 67.7211 28.3314 67.5247 28.16C67.0837 27.7167 66.5949 27.175 66.2507 26.6833C65.2217 25.306 64.3138 23.7796 63.5068 22.2048C63.1135 21.4402 62.7709 20.6046 62.452 19.8426C62.3054 19.5487 62.3053 19.1045 62.0597 18.9572C61.691 19.498 61.1533 19.9659 60.8841 20.6277C60.418 21.6871 60.3693 22.9911 60.1964 24.3442C60.099 24.3699 60.1482 24.3445 60.099 24.3934C59.3156 24.1967 59.0459 23.3847 58.7512 22.6975C58.016 20.9483 57.8923 18.1427 58.5306 16.1257C58.7013 15.6099 59.4389 13.9864 59.1434 13.4934C58.9952 13.0239 58.5053 12.7557 58.2361 12.385C57.9183 11.9176 57.5734 11.328 57.355 10.8102C56.7664 9.43282 56.4706 7.90647 55.8354 6.52913C55.5411 5.8883 55.0251 5.22446 54.6099 4.63452C54.1432 3.96995 53.6293 3.5026 53.2609 2.71568C53.1394 2.44445 52.9677 2.00096 53.163 1.70659C53.2112 1.50938 53.3107 1.43549 53.5071 1.38606C53.8239 1.11532 54.7315 1.45912 55.0496 1.6069C55.9572 1.97492 56.7168 2.32101 57.4754 2.83645C57.8189 3.08297 58.1867 3.55081 58.6272 3.67486H59.1431C59.9271 3.84578 60.8102 3.72247 61.5458 3.94487C62.844 4.3628 64.02 4.97794 65.075 5.64203C68.2847 7.68443 70.9319 10.5893 72.72 14.0575C73.0149 14.6228 73.1385 15.1397 73.4077 15.7292C73.9225 16.9374 74.5607 18.1678 75.0749 19.3477C75.5892 20.5043 76.0802 21.6844 76.8159 22.6451C77.1825 23.1609 78.6536 23.4316 79.3154 23.7025C79.8046 23.9232 80.5652 24.1203 81.0068 24.3905C81.84 24.9064 82.6716 25.4979 83.4568 26.0647C83.8479 26.36 85.0731 26.9746 85.1469 27.4675C83.1858 27.4182 81.6666 27.6151 80.3927 28.157C80.025 28.3044 79.4374 28.3043 79.387 28.7719C79.5845 28.9683 79.6083 29.2883 79.7811 29.5601C80.0743 30.0522 80.5879 30.7155 81.0551 31.061C81.5698 31.455 82.0844 31.8472 82.6242 32.1916C83.5794 32.7847 84.658 33.1278 85.5884 33.718C86.1293 34.062 86.6667 34.5046 87.2072 34.8747C87.4759 35.0714 87.6459 35.3918 87.9904 35.5136V35.4387C87.8177 35.2178 87.7697 34.8983 87.599 34.6508C87.3545 34.4066 87.1087 34.1838 86.8631 33.9387C86.1519 32.9792 85.2685 32.1434 84.3151 31.4542C83.5302 30.9113 81.8131 30.1725 81.4962 29.2652C81.4962 29.2652 81.4702 29.2393 81.4461 29.2151C81.9855 29.1652 82.6243 28.968 83.1387 28.8187C83.9709 28.5979 84.7309 28.6476 85.5887 28.4269C85.9814 28.3277 86.3736 28.2042 86.7674 28.0833V27.8603C86.3239 27.4184 86.0069 26.8266 85.5419 26.409C84.2933 25.3268 82.9189 24.2697 81.4973 23.3818C80.7364 22.8895 79.7563 22.5713 78.9469 22.1522C78.6542 22.0043 78.1645 21.9315 77.9923 21.684C77.5508 21.1429 77.3046 20.4302 76.9866 19.7894C76.2766 18.4375 75.5892 16.9366 74.977 15.5072C74.5361 14.5482 74.2664 13.5895 73.7273 12.7028C71.2011 8.51868 68.4572 5.98567 64.242 3.4999C63.335 2.98252 62.2566 2.76156 61.1061 2.49082C60.4923 2.46505 59.8805 2.41702 59.2671 2.39284C58.8744 2.21985 58.4813 1.75177 58.1388 1.53045C57.2653 0.97709 55.5304 0.0198518 54.1015 -0.00195312L54.0992 0.000209538ZM60.146 6.08258C59.7302 6.08258 59.4368 6.1332 59.1409 6.20627V6.25548H59.1887C59.3867 6.64822 59.7304 6.92114 59.9733 7.26506C60.1708 7.65888 60.3424 8.051 60.5383 8.44531C60.5624 8.42113 60.5857 8.39565 60.5857 8.39565C60.9314 8.15071 61.1029 7.75725 61.1029 7.1661C60.9547 6.99263 60.9316 6.8217 60.808 6.64871C60.6613 6.40317 60.3425 6.27968 60.146 6.08258Z" fill="#00758F"/>
</g>
<defs>
<clipPath id="clip0_1946_697">
<rect width="126" height="60" fill="white"/>
</clipPath>
</defs>
</svg>
