<svg width="126" height="60" viewBox="0 0 126 60" fill="none" xmlns="http://www.w3.org/2000/svg">
<path d="M43.383 43.6791C43.7633 40.4997 43.6493 40.0334 46.0091 40.5484L46.6082 40.6012C48.4227 40.6841 50.7963 40.3084 52.1907 39.6582C55.1925 38.2604 56.9725 35.9266 54.0126 36.5398C47.2609 37.9376 46.7967 35.6433 46.7967 35.6433C53.9261 25.0273 56.9065 11.5513 54.334 8.25268C47.3174 -0.744839 35.1719 3.50988 34.9686 3.62035L34.9039 3.63234C33.5699 3.35455 32.0769 3.18858 30.3997 3.16137C27.3444 3.11099 25.0259 3.96522 23.2673 5.30389C23.2673 5.30389 1.60034 -3.65443 2.60833 16.5699C2.82271 20.8722 8.75331 49.1246 15.8267 40.591C18.4119 37.4706 20.9104 34.8322 20.9104 34.8322C22.151 35.6593 23.6363 36.0813 25.1941 35.9297L25.3146 35.8267C25.2768 36.2141 25.2935 36.5931 25.3627 37.0417C23.5409 39.0849 24.0762 39.4436 20.4332 40.1962C16.7474 40.9585 18.9128 42.3158 20.3262 42.6705C22.0401 43.1006 26.0051 43.7099 28.6848 39.946L28.5781 40.3755C29.2929 40.9493 29.2446 44.5003 29.346 47.0374C29.4474 49.5746 29.6167 51.9423 30.1321 53.3382C30.6474 54.7338 31.2555 58.3294 36.0433 57.2996C40.0448 56.4391 43.1042 55.2006 43.383 43.6791Z" fill="black" stroke="black"/>
<path d="M54.0139 36.5398C47.2615 37.9376 46.7973 35.6432 46.7973 35.6432C53.9268 25.0266 56.9071 11.5503 54.3351 8.25206C47.3186 -0.744915 35.1725 3.51008 34.9698 3.62054L34.9046 3.63226C33.5705 3.35434 32.0775 3.18878 30.3996 3.1613C27.3442 3.11105 25.0266 3.96514 23.268 5.30354C23.268 5.30354 1.60059 -3.65437 2.60831 16.5698C2.82269 20.8723 8.75315 49.1248 15.8268 40.5912C18.4122 37.4708 20.9102 34.8324 20.9102 34.8324C22.151 35.6595 23.6363 36.0815 25.1935 35.9299L25.3144 35.8268C25.2768 36.2143 25.294 36.5932 25.3629 37.0418C23.5406 39.0851 24.0761 39.4438 20.4333 40.1963C16.7472 40.9587 18.9126 42.316 20.3264 42.6707C22.0404 43.1008 26.0056 43.7101 28.6848 39.9462L28.578 40.3757C29.292 40.9495 29.7934 44.1088 29.7093 46.9725C29.6253 49.8365 29.5692 51.8026 30.1318 53.3384C30.6944 54.8741 31.2551 58.3296 36.0438 57.2998C40.0453 56.4393 42.1189 54.2092 42.4074 50.4893C42.6121 47.8447 43.0753 48.2356 43.1046 45.8712L43.4762 44.7519C43.9046 41.167 43.5442 40.0104 46.0095 40.5484L46.6086 40.6012C48.4231 40.684 50.7979 40.3083 52.1916 39.6582C55.1929 38.2603 56.9729 35.9265 54.0136 36.5398H54.0139Z" fill="#336791"/>
<path d="M28.976 38.5938C28.7901 45.2643 29.0227 51.9814 29.6731 53.6139C30.3239 55.2463 31.7166 58.4216 36.5058 57.3919C40.5069 56.5311 41.9627 54.8652 42.5944 51.1882C43.0596 48.4828 43.9566 40.9695 44.0717 39.4301" stroke="white" stroke-linecap="round" stroke-linejoin="round"/>
<path d="M23.2356 5.15438C23.2356 5.15438 1.55344 -3.739 2.56143 16.4852C2.77581 20.7877 8.70668 49.0411 15.7802 40.5071C18.365 37.3863 20.7028 34.9386 20.7028 34.9386" stroke="white" stroke-linecap="round" stroke-linejoin="round"/>
<path d="M34.9456 3.53087C34.1951 3.76703 47.0066 -1.16922 54.2875 8.16738C56.8593 11.4658 53.879 24.942 46.7496 35.559" stroke="white" stroke-linecap="round" stroke-linejoin="round"/>
<path d="M46.7507 35.5589C46.7507 35.5589 47.2153 37.8539 53.9679 36.4552C56.9265 35.842 55.1459 38.176 52.1453 39.5745C49.6827 40.7215 44.1617 41.0154 44.0715 39.4305C43.8394 35.3412 46.9772 36.5836 46.7507 35.5589ZM46.7507 35.5589C46.546 34.6361 45.1428 33.7304 44.2146 31.4719C43.4042 29.5006 33.1003 14.3834 47.0721 16.6286C47.584 16.5223 43.4281 3.29146 30.3525 3.07632C17.2798 2.86118 17.7087 19.2101 17.7087 19.2101" stroke="white" stroke-linecap="round" stroke-linejoin="bevel"/>
<path d="M25.3152 36.9575C23.4927 39.0006 24.0287 39.3593 20.3856 40.1121C16.6996 40.8746 18.8652 42.2316 20.2786 42.5862C21.9926 43.0166 25.9578 43.6259 28.637 39.861C29.4529 38.7147 28.6322 36.8857 27.5115 36.4194C26.9699 36.1943 26.2459 35.9122 25.3152 36.9575Z" stroke="white" stroke-linecap="round" stroke-linejoin="round"/>
<path d="M25.197 36.9217C25.0133 35.7205 25.5903 34.291 26.2086 32.6186C27.1378 30.1094 29.2817 27.5998 27.5666 19.6403C26.2883 13.7089 17.7142 18.4059 17.7088 19.2101C17.7036 20.0141 18.0966 23.2866 17.5656 27.0975C16.8726 32.0702 20.7185 36.2759 25.1472 35.8456" stroke="white" stroke-linecap="round" stroke-linejoin="round"/>
<path d="M23.1582 19.0902C23.1195 19.3649 23.6593 20.0979 24.3631 20.1958C25.0657 20.2941 25.6671 19.7213 25.7052 19.4469C25.7433 19.1722 25.2042 18.8697 24.5002 18.7713C23.7972 18.6728 23.1955 18.8162 23.1583 19.0902H23.1582Z" fill="white" stroke="white"/>
<path d="M44.5576 18.5296C44.5957 18.8043 44.0566 19.5373 43.3527 19.6352C42.6495 19.7335 42.0482 19.1607 42.0096 18.8863C41.9724 18.6116 42.5117 18.3091 43.2149 18.2107C43.9182 18.1124 44.5195 18.2556 44.5576 18.5297V18.5296Z" fill="white" stroke="white"/>
<path d="M47.0709 16.6289C47.1868 18.7835 46.6085 20.2511 46.5356 22.5448C46.4277 25.8787 48.1195 29.6947 45.5703 33.5154" stroke="white" stroke-linecap="round" stroke-linejoin="round"/>
</svg>
