<svg width="126" height="60" viewBox="0 0 126 60" fill="none" xmlns="http://www.w3.org/2000/svg">
<mask id="mask0_1946_3919" style="mask-type:luminance" maskUnits="userSpaceOnUse" x="0" y="10" width="126" height="40">
<path d="M126 10H0V49.4061H126V10Z" fill="white"/>
</mask>
<g mask="url(#mask0_1946_3919)">
<path fill-rule="evenodd" clip-rule="evenodd" d="M111.608 30.463C111.608 26.0664 114.866 23.5153 118.94 23.5153C121.981 23.5153 124.697 24.9809 126 28.6175C125.62 30.463 123.339 32.5255 122.361 32.8513C121.547 31.1144 120.623 30.083 119.754 30.083C118.668 30.083 118.614 30.843 118.614 31.8199C118.614 32.5119 118.812 33.531 119.051 34.7573C119.411 36.6096 119.863 38.9347 119.863 41.3187C119.863 45.6609 116.822 48.8634 112.151 48.8634C107.874 48.8634 105.511 46.0613 104.456 41.5849C101.662 46.5884 97.5769 48.8634 94.4457 48.8634C89.5504 48.8634 88.3983 45.2473 88.5144 41.5794C86.5475 45.0536 82.7612 48.8634 79.1302 48.8634C75.4235 48.8634 74.1141 45.639 74.4144 41.8837C72.1936 46.0181 68.1762 48.8634 64.3034 48.8634C60.1008 48.8634 58.0208 45.5268 58.6939 41.3911C55.8666 44.8641 50.6037 48.8634 45.1319 48.8634C38.8929 48.8634 36.1773 45.501 35.8554 41.2879C32.8442 46.1111 28.7854 49.0262 23.9508 49.0262C16.9719 49.0262 14.4757 42.8239 14.1125 37.7504C11.526 41.212 8.61806 44.8034 5.05087 48.809C4.67069 49.189 4.34482 49.4061 3.96466 49.4061C2.71552 49.4061 0.162931 43.8698 0 41.8071C1.07189 40.1449 7.82859 32.7256 13.2684 26.7524C15.1806 24.6528 16.9301 22.7319 18.2126 21.3024C14.8812 22.3071 11.4463 24.3107 7.11466 27.4234C6.35431 27.9662 4.23621 23.0268 4.29052 19.2273C9.28708 15.5364 16.8905 13.2024 23.0276 13.2024C31.6087 13.2024 36.5508 17.9789 36.5508 24.6009C36.5508 30.1373 31.9345 36.2164 25.2 36.4336C21.6982 36.5244 19.454 34.56 18.3062 32.1341C18.4433 35.8859 20.3953 40.5044 25.6345 40.5044C31.3461 40.5044 34.0889 37.0587 38.1793 31.9197C38.4451 31.5858 38.7165 31.2449 38.9948 30.8972C42.4707 26.6092 46.4897 22.8097 52.3552 22.8097C55.9397 22.8097 58.3837 25.0351 58.3837 28.4004C58.3837 32.4713 53.6043 38.1161 46.9242 38.1161C45.7832 38.1161 44.7432 37.9659 43.8653 37.669C43.8433 37.8401 43.8284 38.0086 43.8284 38.1705C43.8284 40.0702 44.5345 41.2101 47.6302 41.2101C52.1923 41.2101 56.4827 38.4961 61.6966 32.1456C66.8018 25.9036 70.6577 23.1897 74.731 23.1897C77.4807 23.1897 79.5675 24.679 80.4872 27.1873C85.9462 19.3075 90.5774 13.7243 94.5 10C98.356 11.6284 101.126 14.8308 100.366 15.4821C97.4871 18.0875 87.8742 28.5633 84.0724 34.8052C83.0948 36.4336 82.1716 38.2247 82.1716 39.0932C82.1716 39.9074 82.6603 40.1788 83.2034 40.1788C85.8131 40.1788 91.0426 34.0218 95.5591 28.7041C97.2462 26.7178 98.8338 24.8486 100.148 23.4611C103.19 24.7095 106.285 27.369 105.525 28.2919C101.506 33.0683 98.4647 36.9764 98.4647 39.2018C98.4647 39.7988 98.6819 40.1788 99.4966 40.1788C101.017 40.1788 102.429 38.8218 104.765 35.945C105.253 35.348 105.851 35.348 106.231 36.2708C107.263 38.7676 108.784 40.1246 109.978 40.1246C111.391 40.1246 112.097 38.8761 112.097 36.9764C112.097 35.6781 111.938 34.1686 111.802 32.8689C111.698 31.8864 111.608 31.0237 111.608 30.463ZM24.0052 29.7573C26.8837 29.7573 30.0337 28.1833 30.0337 24.9809C30.0337 23.0374 28.8267 21.2457 25.6014 20.7001C25.4312 20.9658 25.2623 21.2299 25.0943 21.4924C23.4554 24.053 21.9098 26.4681 20.3499 28.8289C21.2845 29.3535 22.4665 29.7573 24.0052 29.7573ZM53.1155 30.7344C53.1155 29.8659 52.5724 29.2689 51.7034 29.2689C49.5245 29.2689 46.238 32.3249 44.6915 35.276C45.2623 35.4964 45.9325 35.6194 46.6526 35.6194C50.5087 35.6194 53.1155 32.6884 53.1155 30.7344ZM67.3992 38.6047C67.3992 39.5818 67.9422 40.233 69.0827 40.233C72.6129 40.233 77.0121 33.8283 77.0121 31.2228C77.0121 30.1373 76.4147 29.4859 75.4371 29.4859C72.2328 29.4859 67.3992 35.5652 67.3992 38.6047ZM112.748 19.0105C111.498 21.0731 109.598 23.407 108.892 24.1126C105.633 22.7557 102.592 20.0418 103.026 19.2819C104.221 17.165 106.176 14.8853 106.882 14.1797C110.141 15.5367 113.182 18.3048 112.748 19.0105Z" fill="#FF4438"/>
</g>
</svg>
