<svg width="126" height="60" viewBox="0 0 126 60" fill="none" xmlns="http://www.w3.org/2000/svg">
<path d="M96.6308 38.4283L96.6221 33.1405M96.6221 33.1405L96.5959 23.6942M96.6221 33.1405L101.936 27.7651M96.6221 33.1405L101.962 38.4458M66.363 33.2105C66.3886 32.0765 66.0596 30.9178 65.3928 29.98C64.4321 28.6287 62.8771 27.7062 61.1712 27.6863C61.0575 27.6863 60.9449 27.6863 60.8304 27.695C60.156 27.7368 59.5029 27.8306 58.925 28.0715C55.1242 29.6555 54.4508 34.9421 57.6576 37.334C60.4347 39.4053 64.4743 38.5595 65.8735 35.3992C66.1692 34.7313 66.363 33.8894 66.363 33.2105ZM66.363 33.2105V23.6504M92.0074 28.3166C91.2204 27.8073 90.3024 27.6235 89.394 27.625C89.2955 27.625 89.1943 27.63 89.1056 27.6338C86.4797 27.7469 84.045 29.6056 84.045 33.2105C84.045 37.4726 88.6074 39.7729 92.0161 37.7629M107.329 37.2989C110.015 34.9946 115.397 30.374 115.397 30.374C115.397 30.374 115.2 30.0022 115.073 29.8312C113.987 28.3714 112.328 27.6425 110.581 27.6425C106.262 27.6425 103.024 33.2363 107.329 37.2989ZM107.329 37.2989C107.627 37.5802 108.037 37.8006 108.492 37.9906C110.071 38.6502 112.234 38.5961 113.404 37.7279M124.914 27.7651C123.588 27.7687 122.296 28.2339 121.339 29.1308C119.83 30.3787 119.502 31.9544 119.521 33.9459L119.565 38.4721M75.1901 27.66C75.0677 27.6623 74.946 27.6753 74.823 27.6775C71.5481 27.7378 69.1869 31.145 69.9022 34.3049C70.5993 37.3841 73.9578 39.2074 76.8595 38.2007C80.2385 37.3133 81.6167 33.0513 79.7613 30.1726C78.7466 28.5982 77.0267 27.6251 75.1901 27.66Z" stroke="#394D54" stroke-width="2" stroke-linecap="round" stroke-linejoin="round"/>
<path d="M30.4662 24.4617H35.1893V29.2978H37.5775C38.6803 29.2978 39.8147 29.1011 40.8591 28.7466C41.3723 28.5723 41.9483 28.3297 42.4545 28.0247C41.7878 27.1527 41.4474 26.0518 41.3472 24.9665C41.2111 23.4905 41.5083 21.5692 42.5057 20.4139L43.0022 19.8387L43.5938 20.3151C45.0834 21.5138 46.3361 23.1888 46.5569 25.0982C48.3505 24.5697 50.4562 24.6947 52.0372 25.6087L52.6858 25.9835L52.3444 26.6509C51.0074 29.2647 48.2122 30.0744 45.4794 29.9311C41.3902 40.1328 32.4874 44.9627 21.6929 44.9627C16.116 44.9627 10.9994 42.8745 8.08579 37.9185C7.91496 37.6106 7.76867 37.2887 7.61353 36.9725C6.62864 34.791 6.30152 32.4011 6.52343 30.0132L6.59003 29.2979H10.6288V24.4618H15.352V19.7309H24.7983V15H30.4661L30.4662 24.4617Z" fill="#394D54"/>
<mask id="mask0_1946_40774" style="mask-type:luminance" maskUnits="userSpaceOnUse" x="7" y="15" width="45" height="30">
<path d="M15.6995 15.4141V24.9313H11.1553V29.6899H7.35062C7.33447 29.8277 7.32139 29.9657 7.30812 30.1037C7.07034 32.6963 7.5222 35.0873 8.56038 37.1317L8.90894 37.7589C9.11785 38.1348 9.36156 38.4878 9.61898 38.8322C9.87609 39.1761 9.96718 39.3665 10.1289 39.5951C12.8738 42.6853 16.9656 44.1727 21.6897 44.1727C32.1515 44.1727 41.0303 39.5303 44.9597 29.1016C47.7475 29.3881 50.4217 28.6721 51.6405 26.2891C49.6991 25.1669 47.204 25.5266 45.7665 26.2503L49.5749 15.4141L34.7028 24.9313H29.952V15.4141H15.6995Z" fill="white"/>
</mask>
<g mask="url(#mask0_1946_40774)">
<path d="M25.582 15.7891H29.6755V19.8893H25.582V15.7891Z" fill="#20C2EF"/>
<path d="M26.0859 19.5479V16.1309V19.5479ZM26.6998 19.5479V16.1309V19.5479ZM27.3198 19.5479V16.1309V19.5479ZM27.9402 19.5479V16.1309V19.5479ZM28.5605 19.5479V16.1309V19.5479ZM29.1743 19.5479V16.1309V19.5479Z" fill="black"/>
<path d="M26.0859 19.5479V16.1309M26.6998 19.5479V16.1309M27.3198 19.5479V16.1309M27.9402 19.5479V16.1309M28.5605 19.5479V16.1309M29.1743 19.5479V16.1309" stroke="#394D54" stroke-width="1.56"/>
<path d="M30.3047 19.8906H34.3981V15.7906H30.3047V19.8906Z" fill="#00ACD3"/>
<path d="M30.8086 16.1318V19.5488V16.1318ZM31.4225 16.1318V19.5488V16.1318ZM32.0425 16.1318V19.5488V16.1318ZM32.6629 16.1318V19.5488V16.1318ZM33.2832 16.1318V19.5488V16.1318ZM33.8969 16.1318V19.5488V16.1318Z" fill="black"/>
<path d="M30.8086 16.1318V19.5488M31.4225 16.1318V19.5488M32.0425 16.1318V19.5488M32.6629 16.1318V19.5488M33.2832 16.1318V19.5488M33.8969 16.1318V19.5488" stroke="#394D54" stroke-width="1.56"/>
<path d="M6.69141 20.5195H10.7849V24.6196H6.69141V20.5195Z" fill="#00ACD3"/>
<path d="M6.69141 25.25H10.7849V29.3503H6.69141V25.25Z" fill="#20C2EF"/>
<path d="M7.19531 24.2784V20.8613V24.2784ZM7.80917 24.2784V20.8613V24.2784ZM8.42922 24.2784V20.8613V24.2784ZM9.04961 24.2784V20.8613V24.2784ZM9.66988 24.2784V20.8613V24.2784ZM10.2836 24.2784V20.8613V24.2784Z" fill="black"/>
<path d="M7.19531 24.2784V20.8613M7.80917 24.2784V20.8613M8.42922 24.2784V20.8613M9.04961 24.2784V20.8613M9.66988 24.2784V20.8613M10.2836 24.2784V20.8613" stroke="#394D54" stroke-width="1.56"/>
<path d="M7.19531 29.0088V25.5918V29.0088ZM7.80917 29.0088V25.5918V29.0088ZM8.42922 29.0088V25.5918V29.0088ZM9.04961 29.0088V25.5918V29.0088ZM9.66988 29.0088V25.5918V29.0088ZM10.2836 29.0088V25.5918V29.0088Z" fill="black"/>
<path d="M7.19531 29.0088V25.5918M7.80917 29.0088V25.5918M8.42922 29.0088V25.5918M9.04961 29.0088V25.5918M9.66988 29.0088V25.5918M10.2836 29.0088V25.5918" stroke="#394D54" stroke-width="1.56"/>
<path d="M11.4141 29.3516H15.5075V25.2515H11.4141V29.3516Z" fill="#00ACD3"/>
<path d="M11.4141 24.6211H15.5075V20.5208H11.4141V24.6211Z" fill="#20C2EF"/>
<path d="M11.918 25.5927V29.0098V25.5927ZM12.5318 25.5927V29.0098V25.5927ZM13.1519 25.5927V29.0098V25.5927ZM13.7723 25.5927V29.0098V25.5927ZM14.3925 25.5927V29.0098V25.5927ZM15.0063 25.5927V29.0098V25.5927Z" fill="black"/>
<path d="M11.918 25.5927V29.0098M12.5318 25.5927V29.0098M13.1519 25.5927V29.0098M13.7723 25.5927V29.0098M14.3925 25.5927V29.0098M15.0063 25.5927V29.0098" stroke="#394D54" stroke-width="1.56"/>
<path d="M11.918 20.8622V24.2793V20.8622ZM12.5318 20.8622V24.2793V20.8622ZM13.1519 20.8622V24.2793V20.8622ZM13.7723 20.8622V24.2793V20.8622ZM14.3925 20.8622V24.2793V20.8622ZM15.0063 20.8622V24.2793V20.8622Z" fill="black"/>
<path d="M11.918 20.8622V24.2793M12.5318 20.8622V24.2793M13.1519 20.8622V24.2793M13.7723 20.8622V24.2793M14.3925 20.8622V24.2793M15.0063 20.8622V24.2793" stroke="#394D54" stroke-width="1.56"/>
<path d="M16.1367 20.5195H20.2302V24.6196H16.1367V20.5195Z" fill="#00ACD3"/>
<path d="M16.1367 25.25H20.2302V29.3503H16.1367V25.25Z" fill="#20C2EF"/>
<path d="M16.6406 24.2784V20.8613V24.2784ZM17.2545 24.2784V20.8613V24.2784ZM17.8745 24.2784V20.8613V24.2784ZM18.4949 24.2784V20.8613V24.2784ZM19.1152 24.2784V20.8613V24.2784ZM19.7289 24.2784V20.8613V24.2784Z" fill="black"/>
<path d="M16.6406 24.2784V20.8613M17.2545 24.2784V20.8613M17.8745 24.2784V20.8613M18.4949 24.2784V20.8613M19.1152 24.2784V20.8613M19.7289 24.2784V20.8613" stroke="#394D54" stroke-width="1.56"/>
<path d="M16.6406 29.0088V25.5918V29.0088ZM17.2545 29.0088V25.5918V29.0088ZM17.8745 29.0088V25.5918V29.0088ZM18.4949 29.0088V25.5918V29.0088ZM19.1152 29.0088V25.5918V29.0088ZM19.7289 29.0088V25.5918V29.0088Z" fill="black"/>
<path d="M16.6406 29.0088V25.5918M17.2545 29.0088V25.5918M17.8745 29.0088V25.5918M18.4949 29.0088V25.5918M19.1152 29.0088V25.5918M19.7289 29.0088V25.5918" stroke="#394D54" stroke-width="1.56"/>
<path d="M20.8594 29.3516H24.9528V25.2515H20.8594V29.3516Z" fill="#00ACD3"/>
<path d="M20.8594 24.6211H24.9528V20.5208H20.8594V24.6211Z" fill="#20C2EF"/>
<path d="M21.3633 25.5927V29.0098V25.5927ZM21.9771 25.5927V29.0098V25.5927ZM22.5972 25.5927V29.0098V25.5927ZM23.2176 25.5927V29.0098V25.5927ZM23.8378 25.5927V29.0098V25.5927ZM24.4516 25.5927V29.0098V25.5927Z" fill="black"/>
<path d="M21.3633 25.5927V29.0098M21.9771 25.5927V29.0098M22.5972 25.5927V29.0098M23.2176 25.5927V29.0098M23.8378 25.5927V29.0098M24.4516 25.5927V29.0098" stroke="#394D54" stroke-width="1.56"/>
<path d="M21.3633 20.8622V24.2793V20.8622ZM21.9771 20.8622V24.2793V20.8622ZM22.5972 20.8622V24.2793V20.8622ZM23.2176 20.8622V24.2793V20.8622ZM23.8378 20.8622V24.2793V20.8622ZM24.4516 20.8622V24.2793V20.8622Z" fill="black"/>
<path d="M21.3633 20.8622V24.2793M21.9771 20.8622V24.2793M22.5972 20.8622V24.2793M23.2176 20.8622V24.2793M23.8378 20.8622V24.2793M24.4516 20.8622V24.2793" stroke="#394D54" stroke-width="1.56"/>
<path d="M25.582 20.5195H29.6755V24.6196H25.582V20.5195Z" fill="#00ACD3"/>
<path d="M25.582 25.25H29.6755V29.3503H25.582V25.25Z" fill="#20C2EF"/>
<path d="M26.0859 24.2784V20.8613V24.2784ZM26.6998 24.2784V20.8613V24.2784ZM27.3198 24.2784V20.8613V24.2784ZM27.9402 24.2784V20.8613V24.2784ZM28.5605 24.2784V20.8613V24.2784ZM29.1743 24.2784V20.8613V24.2784Z" fill="black"/>
<path d="M26.0859 24.2784V20.8613M26.6998 24.2784V20.8613M27.3198 24.2784V20.8613M27.9402 24.2784V20.8613M28.5605 24.2784V20.8613M29.1743 24.2784V20.8613" stroke="#394D54" stroke-width="1.56"/>
<path d="M26.0859 29.0088V25.5918V29.0088ZM26.6998 29.0088V25.5918V29.0088ZM27.3198 29.0088V25.5918V29.0088ZM27.9402 29.0088V25.5918V29.0088ZM28.5605 29.0088V25.5918V29.0088ZM29.1743 29.0088V25.5918V29.0088Z" fill="black"/>
<path d="M26.0859 29.0088V25.5918M26.6998 29.0088V25.5918M27.3198 29.0088V25.5918M27.9402 29.0088V25.5918M28.5605 29.0088V25.5918M29.1743 29.0088V25.5918" stroke="#394D54" stroke-width="1.56"/>
<path d="M30.3047 29.3516H34.3981V25.2515H30.3047V29.3516Z" fill="#00ACD3"/>
<path d="M30.3047 24.6211H34.3981V20.5208H30.3047V24.6211Z" fill="#20C2EF"/>
<path d="M30.8086 25.5927V29.0098V25.5927ZM31.4225 25.5927V29.0098V25.5927ZM32.0425 25.5927V29.0098V25.5927ZM32.6629 25.5927V29.0098V25.5927ZM33.2832 25.5927V29.0098V25.5927ZM33.8969 25.5927V29.0098V25.5927Z" fill="black"/>
<path d="M30.8086 25.5927V29.0098M31.4225 25.5927V29.0098M32.0425 25.5927V29.0098M32.6629 25.5927V29.0098M33.2832 25.5927V29.0098M33.8969 25.5927V29.0098" stroke="#394D54" stroke-width="1.56"/>
<path d="M30.8086 20.8622V24.2793V20.8622ZM31.4225 20.8622V24.2793V20.8622ZM32.0425 20.8622V24.2793V20.8622ZM32.6629 20.8622V24.2793V20.8622ZM33.2832 20.8622V24.2793V20.8622ZM33.8969 20.8622V24.2793V20.8622Z" fill="black"/>
<path d="M30.8086 20.8622V24.2793M31.4225 20.8622V24.2793M32.0425 20.8622V24.2793M32.6629 20.8622V24.2793M33.2832 20.8622V24.2793M33.8969 20.8622V24.2793" stroke="#394D54" stroke-width="1.56"/>
</g>
<mask id="mask1_1946_40774" style="mask-type:luminance" maskUnits="userSpaceOnUse" x="7" y="15" width="45" height="30">
<path d="M15.6995 15.4141V24.9313H11.1553V29.6899H7.35062C7.33447 29.8277 7.32139 29.9657 7.30812 30.1037C7.07034 32.6963 7.5222 35.0873 8.56038 37.1317L8.90894 37.7589C9.11785 38.1348 9.36156 38.4878 9.61898 38.8322C9.87609 39.1761 9.96718 39.3665 10.1289 39.5951C12.8738 42.6853 16.9656 44.1727 21.6897 44.1727C32.1515 44.1727 41.0303 39.5303 44.9597 29.1016C47.7475 29.3881 50.4217 28.6721 51.6405 26.2891C49.6991 25.1669 47.204 25.5266 45.7665 26.2503L49.5749 15.4141L34.7028 24.9313H29.952V15.4141H15.6995Z" fill="white"/>
</mask>
<g mask="url(#mask1_1946_40774)">
<path d="M45.7694 26.2507C46.0862 23.7855 44.2443 21.849 43.1019 20.9297C41.7856 22.4541 41.5811 26.4492 43.6462 28.1312C42.4937 29.1566 40.0651 30.0861 37.5784 30.0861H7.02545C6.78362 32.6861 7.02545 45.2067 7.02545 45.2067H51.8484L51.6446 26.2914C49.7033 25.1692 47.2069 25.5271 45.7694 26.2507Z" fill="#17B5EB"/>
</g>
<mask id="mask2_1946_40774" style="mask-type:luminance" maskUnits="userSpaceOnUse" x="7" y="15" width="45" height="30">
<path d="M15.6995 15.4141V24.9313H11.1553V29.6899H7.35062C7.33447 29.8277 7.32139 29.9657 7.30812 30.1037C7.07034 32.6963 7.5222 35.0873 8.56038 37.1317L8.90894 37.7589C9.11785 38.1348 9.36156 38.4878 9.61898 38.8322C9.87609 39.1761 9.96718 39.3665 10.1289 39.5951C12.8738 42.6853 16.9656 44.1727 21.6897 44.1727C32.1515 44.1727 41.0303 39.5303 44.9597 29.1016C47.7475 29.3881 50.4217 28.6721 51.6405 26.2891C49.6991 25.1669 47.204 25.5266 45.7665 26.2503L49.5749 15.4141L34.7028 24.9313H29.952V15.4141H15.6995Z" fill="white"/>
</mask>
<g mask="url(#mask2_1946_40774)">
<path d="M7.02344 33.4141V45.2072H51.8464V33.4141" fill="black" fill-opacity="0.17"/>
</g>
<mask id="mask3_1946_40774" style="mask-type:luminance" maskUnits="userSpaceOnUse" x="7" y="15" width="45" height="30">
<path d="M15.6995 15.4141V24.9313H11.1553V29.6899H7.35062C7.33447 29.8277 7.32139 29.9657 7.30812 30.1037C7.07034 32.6963 7.5222 35.0873 8.56038 37.1317L8.90894 37.7589C9.11785 38.1348 9.36156 38.4878 9.61898 38.8322C9.87609 39.1761 9.96718 39.3665 10.1289 39.5951C12.8738 42.6853 16.9656 44.1727 21.6897 44.1727C32.1515 44.1727 41.0303 39.5303 44.9597 29.1016C47.7475 29.3881 50.4217 28.6721 51.6405 26.2891C49.6991 25.1669 47.204 25.5266 45.7665 26.2503L49.5749 15.4141L34.7028 24.9313H29.952V15.4141H15.6995Z" fill="white"/>
</mask>
<g mask="url(#mask3_1946_40774)">
<path d="M22.9787 44.1502C20.182 42.8208 18.6468 41.0138 17.7927 39.041L9.29688 39.4143L13.6346 45.2074L22.9787 44.1502Z" fill="#D4EDF1"/>
</g>
<mask id="mask4_1946_40774" style="mask-type:luminance" maskUnits="userSpaceOnUse" x="7" y="15" width="45" height="30">
<path d="M15.6995 15.4141V24.9313H11.1553V29.6899H7.35062C7.33447 29.8277 7.32139 29.9657 7.30812 30.1037C7.07034 32.6963 7.5222 35.0873 8.56038 37.1317L8.90894 37.7589C9.11785 38.1348 9.36156 38.4878 9.61898 38.8322C9.87609 39.1761 9.96718 39.3665 10.1289 39.5951C12.8738 42.6853 16.9656 44.1727 21.6897 44.1727C32.1515 44.1727 41.0303 39.5303 44.9597 29.1016C47.7475 29.3881 50.4217 28.6721 51.6405 26.2891C49.6991 25.1669 47.204 25.5266 45.7665 26.2503L49.5749 15.4141L34.7028 24.9313H29.952V15.4141H15.6995Z" fill="white"/>
</mask>
<g mask="url(#mask4_1946_40774)">
<path d="M45.9595 26.1604V26.1668C41.6505 31.7301 35.4699 36.59 28.8346 39.1431C22.9157 41.4206 17.7552 41.4315 14.1949 39.6022C13.8115 39.3853 13.4356 39.1446 13.0588 38.9168C10.4486 37.0895 8.97835 34.0669 9.10192 30.0849H7.02344V45.2078H51.8464V25.3457H46.6825L45.9595 26.1604Z" fill="black" fill-opacity="0.085"/>
</g>
<path d="M9.42578 39.2128C12.3517 39.3732 15.4743 39.402 18.198 38.5469" stroke="#394D54" stroke-width="3.4" stroke-linecap="round"/>
<path d="M21.1023 37.1293C21.1023 37.7539 20.5967 38.2603 19.9731 38.2603C19.3494 38.2603 18.8438 37.7539 18.8438 37.1293C18.8438 36.5047 19.3494 35.998 19.9731 35.998C20.5967 35.998 21.1023 36.5047 21.1023 37.1293Z" fill="#D4EDF1"/>
<path d="M20.2658 36.3732C20.1672 36.4303 20.1005 36.5372 20.1005 36.6595C20.1005 36.8421 20.2483 36.99 20.4306 36.99C20.5555 36.99 20.664 36.9205 20.7201 36.8179C20.7597 36.9135 20.7817 37.0185 20.7817 37.1287C20.7817 37.576 20.4197 37.9387 19.973 37.9387C19.5264 37.9387 19.1641 37.576 19.1641 37.1287C19.1641 36.6811 19.5264 36.3184 19.973 36.3184C20.0763 36.3184 20.1748 36.3379 20.2658 36.3732Z" fill="#394D54"/>
<path d="M0 33.6535H52.5332C51.3893 33.3629 48.9141 32.9703 49.3223 31.4688C47.2425 33.8795 42.2265 33.16 40.9606 31.9713C39.5509 34.0192 31.3445 33.2408 30.7721 31.6454C29.0048 33.7228 23.5287 33.7228 21.7614 31.6454C21.1888 33.2408 12.9824 34.0192 11.5726 31.9713C10.3067 33.16 5.29119 33.8795 3.21111 31.4688C3.61931 32.9703 1.14408 33.3629 0 33.6535Z" fill="#394D54"/>
</svg>
