<svg width="126" height="60" viewBox="0 0 126 60" fill="none" xmlns="http://www.w3.org/2000/svg">
<path d="M20.6196 24.616C20.4953 24.2231 20.197 23.9039 19.8242 23.7075L12.2431 20.1228C12.0443 20.0246 11.8206 20 11.6217 20C11.4229 20 11.1992 20 11.0003 20.0491L3.41925 23.6584C3.04641 23.8303 2.773 24.1495 2.67357 24.5669L0.809375 32.6448C0.734807 33.0622 0.834231 33.4796 1.08279 33.8233L6.3274 40.2317C6.62567 40.5263 7.04823 40.7227 7.47078 40.7473H15.8224C16.2698 40.7964 16.6923 40.6 16.9658 40.2317L22.2104 33.8233C22.4589 33.4796 22.5584 33.0622 22.5086 32.6448L20.6196 24.616Z" fill="#326DE6"/>
<path d="M19.4521 32.3262C19.4273 32.3262 19.4024 32.3262 19.4024 32.3016C19.4024 32.2771 19.3527 32.2771 19.303 32.2771C19.2036 32.2525 19.1042 32.2525 19.0047 32.2525C18.955 32.2525 18.9053 32.2525 18.8556 32.228H18.8307C18.5573 32.2034 18.2591 32.1543 17.9856 32.0807C17.9111 32.0561 17.8365 31.9824 17.8117 31.9088L17.6128 31.8597C17.7122 31.1476 17.6625 30.411 17.5134 29.699C17.3394 28.987 17.0411 28.2995 16.6434 27.6857L16.7926 27.5384V27.5138C16.7926 27.4401 16.8174 27.3419 16.8671 27.2928C17.0908 27.0964 17.3145 26.9491 17.5631 26.8018C17.6128 26.7772 17.6625 26.7527 17.7122 26.7281C17.8117 26.679 17.8862 26.6299 17.9856 26.5808C18.0105 26.5562 18.0354 26.5562 18.0602 26.5317C18.0851 26.5071 18.0602 26.5071 18.0602 26.4826C18.2839 26.3107 18.3336 26.0161 18.1596 25.7951C18.0851 25.6969 17.9359 25.6232 17.8117 25.6232C17.6874 25.6232 17.5631 25.6723 17.4637 25.746L17.4388 25.7705C17.414 25.7951 17.3891 25.8196 17.3642 25.8196C17.2897 25.8933 17.2151 25.967 17.1654 26.0406C17.1405 26.0897 17.0908 26.1143 17.066 26.1388C16.892 26.3353 16.6683 26.5317 16.4446 26.679C16.3949 26.7035 16.3451 26.7281 16.2954 26.7281C16.2706 26.7281 16.2209 26.7281 16.196 26.7035H16.1712L15.9723 26.8263C15.7735 26.6299 15.5498 26.4335 15.3509 26.237C14.4312 25.525 13.2879 25.0831 12.1196 24.9603L12.0948 24.7639V24.7884C12.0202 24.7393 11.9954 24.6656 11.9705 24.592C11.9705 24.3219 11.9705 24.0518 12.0202 23.7572V23.7326C12.0202 23.6835 12.0451 23.6344 12.0451 23.5853C12.0699 23.4871 12.0699 23.3889 12.0948 23.2907V23.1434C12.1196 22.8978 11.9208 22.6523 11.6722 22.6278C11.5231 22.6032 11.374 22.6769 11.2497 22.7996C11.1502 22.8978 11.1005 23.0206 11.1005 23.1434V23.2661C11.1005 23.3643 11.1254 23.4626 11.1502 23.5608C11.1751 23.6099 11.1751 23.659 11.1751 23.7081V23.7326C11.2248 24.0027 11.2248 24.2728 11.2248 24.5674C11.2 24.6411 11.1751 24.7148 11.1005 24.7639V24.813L11.0757 25.0094C10.8023 25.0339 10.5288 25.0831 10.2306 25.1322C9.06235 25.3777 7.99354 25.9915 7.17329 26.8509L7.02416 26.7527H6.9993C6.97444 26.7527 6.94959 26.7772 6.89988 26.7772C6.85016 26.7772 6.80045 26.7527 6.75074 26.7281C6.52704 26.5562 6.30333 26.3598 6.12934 26.1634C6.10449 26.1143 6.05477 26.0897 6.02992 26.0652C5.95535 25.9915 5.90564 25.9179 5.83107 25.8442C5.80621 25.8196 5.78136 25.8196 5.7565 25.7951C5.73165 25.7705 5.73165 25.7705 5.73165 25.7705C5.63222 25.6969 5.50794 25.6478 5.38366 25.6478C5.23453 25.6478 5.11025 25.6969 5.03568 25.8196C4.88654 26.0406 4.93625 26.3353 5.1351 26.5071C5.15996 26.5071 5.15996 26.5317 5.15996 26.5317C5.15996 26.5317 5.20967 26.5808 5.23453 26.5808C5.30909 26.6299 5.40852 26.679 5.50794 26.7281C5.55765 26.7527 5.60737 26.7772 5.65708 26.8018C5.90564 26.9491 6.1542 27.0964 6.35304 27.2928C6.40276 27.3419 6.45247 27.4401 6.42761 27.5138V27.4892L6.57675 27.6366C6.55189 27.6857 6.52704 27.7102 6.50218 27.7593C5.73165 28.9624 5.40852 30.3865 5.63222 31.786L5.43337 31.8351C5.43337 31.8597 5.40852 31.8597 5.40852 31.8597C5.38366 31.9333 5.30909 31.9824 5.23453 32.0315C4.96111 32.1052 4.68769 32.1543 4.38942 32.1789C4.33971 32.1789 4.29 32.1789 4.24029 32.2034C4.14086 32.2034 4.04144 32.228 3.94201 32.228C3.91716 32.228 3.8923 32.2525 3.84259 32.2525C3.81773 32.2525 3.81773 32.2525 3.79288 32.2771C3.51946 32.3262 3.34547 32.5717 3.39518 32.8418C3.44489 33.0628 3.6686 33.2101 3.8923 33.1855C3.94201 33.1855 3.96687 33.1855 4.01658 33.161C4.04144 33.161 4.04144 33.161 4.04144 33.1364C4.04144 33.1119 4.11601 33.1364 4.14086 33.1364C4.24029 33.1119 4.33971 33.0628 4.41428 33.0382C4.46399 33.0137 4.5137 32.9891 4.56341 32.9891H4.58827C4.86169 32.8909 5.11025 32.8172 5.40852 32.7681H5.43337C5.50794 32.7681 5.58251 32.7927 5.63222 32.8418C5.65708 32.8418 5.65708 32.8663 5.65708 32.8663L5.88078 32.8418C6.25362 33.9712 6.94959 34.9779 7.91897 35.7145C8.14267 35.8864 8.34152 36.0337 8.59008 36.1565L8.4658 36.3283C8.4658 36.3529 8.49066 36.3529 8.49066 36.3529C8.54037 36.4265 8.54037 36.5247 8.51552 36.5984C8.41609 36.8439 8.26696 37.0895 8.11782 37.3104V37.335C8.09296 37.3841 8.06811 37.4087 8.0184 37.4578C7.96868 37.5069 7.91897 37.6051 7.8444 37.7033C7.81955 37.7278 7.81955 37.7524 7.79469 37.7769C7.79469 37.7769 7.79469 37.8015 7.76984 37.8015C7.64556 38.047 7.74498 38.3417 7.96868 38.4644C8.0184 38.489 8.09296 38.5135 8.14268 38.5135C8.34152 38.5135 8.51552 38.3908 8.61494 38.2189C8.61494 38.2189 8.61494 38.1943 8.6398 38.1943C8.6398 38.1698 8.66465 38.1452 8.68951 38.1207C8.71436 38.0225 8.76408 37.9488 8.78893 37.8506L8.83864 37.7033C8.91321 37.4332 9.03749 37.1877 9.16177 36.9421C9.21148 36.8685 9.28605 36.8194 9.36062 36.7948C9.38547 36.7948 9.38547 36.7948 9.38547 36.7703L9.4849 36.5739C10.1809 36.8439 10.9017 36.9667 11.6474 36.9667C12.0948 36.9667 12.5422 36.9176 12.9896 36.7948C13.263 36.7457 13.5364 36.6475 13.785 36.5739L13.8844 36.7457C13.9093 36.7457 13.9093 36.7457 13.9093 36.7703C13.9838 36.7948 14.0584 36.8439 14.1081 36.9176C14.2324 37.1631 14.3567 37.4087 14.4312 37.6787V37.7033L14.481 37.8506C14.5058 37.9488 14.5307 38.047 14.5804 38.1207C14.6052 38.1452 14.6052 38.1698 14.6301 38.1943C14.6301 38.1943 14.6301 38.2189 14.6549 38.2189C14.7544 38.3908 14.9284 38.5135 15.1272 38.5135C15.2018 38.5135 15.2515 38.489 15.3261 38.4644C15.4255 38.4153 15.5249 38.3171 15.5498 38.1943C15.5746 38.0716 15.5746 37.9488 15.5249 37.8261C15.5249 37.8015 15.5 37.8015 15.5 37.8015C15.5 37.7769 15.4752 37.7524 15.4503 37.7278C15.4006 37.6296 15.3509 37.556 15.2763 37.4823C15.2515 37.4332 15.2266 37.4087 15.1769 37.3595V37.3104C15.0029 37.0895 14.8786 36.8439 14.7792 36.5984C14.7544 36.5247 14.7544 36.4265 14.8041 36.3529C14.8041 36.3283 14.8289 36.3283 14.8289 36.3283L14.7544 36.1319C16.022 35.3708 16.9914 34.1922 17.4388 32.7927L17.6377 32.8172C17.6625 32.8172 17.6625 32.7927 17.6625 32.7927C17.7122 32.7436 17.7868 32.719 17.8614 32.719H17.8862C18.1596 32.7681 18.4331 32.8418 18.6816 32.94H18.7065C18.7562 32.9646 18.8059 32.9891 18.8556 32.9891C18.955 33.0382 19.0296 33.0873 19.129 33.1119C19.1539 33.1119 19.1787 33.1364 19.2284 33.1364C19.2533 33.1364 19.2533 33.1364 19.2782 33.161C19.3279 33.1855 19.3527 33.1855 19.4024 33.1855C19.6261 33.1855 19.825 33.0382 19.8996 32.8418C19.8747 32.5717 19.6758 32.3753 19.4521 32.3262ZM12.2688 31.565L11.5977 31.8842L10.9265 31.565L10.7526 30.853L11.2248 30.2637H11.9705L12.4428 30.853L12.2688 31.565ZM16.3203 29.9691C16.4446 30.4847 16.4694 31.0003 16.4197 31.5159L14.0584 30.853C13.8347 30.8039 13.7104 30.5829 13.7601 30.3619C13.785 30.2883 13.8098 30.2392 13.8596 30.1901L15.7237 28.5205C15.9972 28.9624 16.196 29.4535 16.3203 29.9691ZM14.9781 27.612L12.9399 29.0361C12.7659 29.1343 12.5173 29.1097 12.393 28.9379C12.3433 28.8888 12.3185 28.8397 12.3185 28.766L12.1693 26.2861C13.263 26.4089 14.2324 26.8754 14.9781 27.612ZM10.4791 26.3598L10.9763 26.2616L10.852 28.7169C10.852 28.9379 10.6531 29.1097 10.4294 29.1097C10.3549 29.1097 10.3051 29.0852 10.2306 29.0606L8.16753 27.612C8.81379 26.9982 9.60918 26.5562 10.4791 26.3598ZM7.44671 28.5205L9.28605 30.141C9.46004 30.2883 9.4849 30.5338 9.33576 30.7057C9.28605 30.7793 9.23634 30.8039 9.13691 30.8285L6.72588 31.5159C6.65132 30.4847 6.89988 29.4289 7.44671 28.5205ZM7.02416 32.6699L9.4849 32.2525C9.68375 32.2525 9.88259 32.3753 9.90745 32.5717C9.93231 32.6454 9.93231 32.7436 9.88259 32.8172L8.93807 35.0761C8.06811 34.5114 7.37214 33.652 7.02416 32.6699ZM12.6665 35.7145C12.3185 35.7882 11.9705 35.8373 11.5977 35.8373C11.0757 35.8373 10.5288 35.739 10.0317 35.5917L11.2497 33.4065C11.374 33.2592 11.5728 33.2101 11.7468 33.3083C11.8214 33.3574 11.8711 33.4065 11.9456 33.4802L13.1387 35.6163C12.9896 35.6408 12.8405 35.6654 12.6665 35.7145ZM15.6989 33.5784C15.3261 34.1677 14.8041 34.6833 14.2075 35.0516L13.2382 32.7436C13.1884 32.5472 13.2879 32.3507 13.4619 32.2771C13.5364 32.2525 13.611 32.228 13.6856 32.228L16.1712 32.6454C16.0469 32.9891 15.8977 33.3083 15.6989 33.5784Z" fill="white"/>
<path d="M121.213 35.3457C121.561 35.3703 121.934 35.3211 122.257 35.1984C122.456 35.1002 122.58 34.8792 122.555 34.6582C122.53 34.4127 122.381 34.1917 122.157 34.1181C121.785 33.8971 121.362 33.7007 120.939 33.5779C120.517 33.4306 120.144 33.2587 119.796 33.0868C119.473 32.9395 119.2 32.7431 118.926 32.4976C118.678 32.252 118.504 31.9819 118.379 31.6628C118.23 31.2945 118.18 30.9016 118.18 30.5088C118.156 29.6985 118.528 28.9128 119.175 28.4218C119.846 27.9061 120.741 27.6606 121.884 27.6606C122.431 27.6606 123.002 27.7097 123.549 27.8325C123.972 27.9061 124.394 28.0044 124.817 28.1517L124.345 30.2387C123.997 30.1159 123.674 30.0423 123.326 29.944C122.928 29.8458 122.505 29.8213 122.108 29.8213C121.263 29.8213 120.84 30.0423 120.84 30.5088C120.84 30.607 120.865 30.7052 120.89 30.8034C120.939 30.9016 121.014 30.9753 121.113 31.0489C121.213 31.1226 121.362 31.1962 121.536 31.2945C121.71 31.3927 121.959 31.4909 122.257 31.5891C122.754 31.761 123.251 31.9819 123.698 32.2275C124.046 32.3993 124.345 32.6203 124.593 32.915C124.817 33.1359 124.966 33.406 125.066 33.7252C125.165 34.0689 125.215 34.4127 125.215 34.7564C125.264 35.5912 124.867 36.4015 124.146 36.868C123.45 37.3345 122.456 37.58 121.163 37.58C120.442 37.6046 119.746 37.5309 119.05 37.359C118.653 37.2608 118.28 37.1381 117.907 37.0153L118.354 34.8546C118.802 35.0265 119.274 35.1738 119.746 35.272C120.243 35.2966 120.716 35.3457 121.213 35.3457ZM107.517 32.6449C107.492 31.9083 107.641 31.1717 107.89 30.4842C108.114 29.8949 108.462 29.3793 108.909 28.9128C109.332 28.4954 109.804 28.1762 110.351 27.9798C110.898 27.7588 111.469 27.6606 112.041 27.6606C113.383 27.6606 114.452 28.078 115.223 28.8883C115.993 29.6985 116.391 30.9016 116.391 32.473C116.391 32.6203 116.391 32.7922 116.366 32.9886C116.366 33.185 116.341 33.3324 116.341 33.4797H110.276C110.326 33.9953 110.599 34.4863 111.047 34.781C111.594 35.1247 112.24 35.2966 112.886 35.272C113.358 35.272 113.855 35.2229 114.328 35.1493C114.725 35.0756 115.123 34.9529 115.496 34.781L115.869 36.9416C115.695 37.0399 115.496 37.089 115.297 37.1626C115.024 37.2363 114.75 37.3099 114.477 37.3345C114.179 37.3836 113.88 37.4327 113.532 37.4818C113.209 37.5064 112.861 37.5309 112.513 37.5309C111.743 37.5555 110.997 37.4327 110.276 37.1626C109.68 36.9416 109.158 36.5979 108.71 36.1559C108.288 35.714 107.989 35.1738 107.791 34.6091C107.617 33.9462 107.517 33.2832 107.517 32.6449ZM113.806 31.6382C113.806 31.4172 113.756 31.1962 113.682 30.9753C113.632 30.7543 113.508 30.5824 113.383 30.4105C113.234 30.2387 113.06 30.0914 112.861 29.9931C112.613 29.8704 112.364 29.8213 112.091 29.8213C111.817 29.8213 111.569 29.8704 111.32 29.9931C111.121 30.0914 110.922 30.2141 110.773 30.386C110.624 30.5579 110.5 30.7543 110.425 30.9753C110.351 31.1962 110.301 31.4172 110.276 31.6382H113.806ZM100.234 25.5491L102.919 25.1317V27.8816H106.15V30.0914H102.919V33.3815C102.894 33.848 102.993 34.3145 103.217 34.7073C103.416 35.0265 103.814 35.1984 104.435 35.1984C104.733 35.1984 105.032 35.1738 105.305 35.1247C105.603 35.0756 105.877 35.002 106.15 34.9037L106.523 36.9662C106.175 37.1135 105.802 37.2117 105.429 37.3099C104.957 37.4082 104.46 37.4573 103.963 37.4573C103.341 37.4818 102.72 37.3836 102.148 37.1626C101.701 36.9908 101.303 36.6961 101.005 36.3524C100.707 35.9841 100.508 35.5421 100.384 35.0756C100.259 34.5355 100.21 33.9707 100.234 33.4306V25.5491ZM89.3724 32.6449C89.3475 31.9083 89.4966 31.1717 89.7452 30.4842C89.9689 29.8949 90.3169 29.3793 90.7643 28.9128C91.1868 28.4954 91.6591 28.1762 92.2059 27.9798C92.7528 27.7588 93.3245 27.6606 93.8961 27.6606C95.2384 27.6606 96.3072 28.078 97.0777 28.8883C97.8482 29.6985 98.2459 30.9016 98.2459 32.473C98.2459 32.6203 98.2459 32.7922 98.2211 32.9886C98.1962 33.185 98.1962 33.3324 98.1962 33.4797H92.1065C92.1562 33.9953 92.4296 34.4863 92.877 34.781C93.4239 35.1247 94.0701 35.2966 94.7164 35.272C95.1887 35.272 95.6858 35.2229 96.158 35.1493C96.5557 35.0756 96.9534 34.9529 97.3511 34.781L97.724 36.9416C97.55 37.0399 97.3511 37.089 97.1523 37.1626C96.8789 37.2363 96.6054 37.3099 96.332 37.3345C96.0338 37.3836 95.7355 37.4327 95.3875 37.4818C95.0644 37.5064 94.7164 37.5309 94.3684 37.5309C93.5979 37.5555 92.8522 37.4327 92.1314 37.1626C91.5348 36.9416 91.0129 36.5979 90.5654 36.1559C90.1429 35.714 89.8446 35.1738 89.6458 34.6091C89.4469 33.9462 89.3475 33.2832 89.3724 32.6449ZM95.6609 31.6382C95.6609 31.4172 95.6112 31.1962 95.5366 30.9753C95.4869 30.7543 95.3626 30.5824 95.2384 30.4105C95.0892 30.2387 94.9152 30.0914 94.7164 29.9931C94.4678 29.8704 94.2193 29.8213 93.9459 29.8213C93.6724 29.8213 93.4239 29.8704 93.1753 29.9931C92.9765 30.0914 92.8025 30.2141 92.6533 30.386C92.5042 30.5579 92.3799 30.7543 92.3054 30.9753C92.2308 31.1962 92.1811 31.4172 92.1562 31.6382H95.6609ZM79.1814 28.2008C79.7531 28.0535 80.3496 27.9307 80.9462 27.8325C81.6919 27.7097 82.4624 27.6606 83.2081 27.6606C83.8792 27.6361 84.5503 27.7588 85.1966 27.9798C85.6937 28.1517 86.1411 28.4463 86.4642 28.8392C86.7873 29.232 87.011 29.6985 87.1353 30.1896C87.2845 30.7543 87.3342 31.3436 87.3342 31.9328V37.2117H84.6746V32.2766C84.6746 31.4172 84.5503 30.828 84.3266 30.4597C84.1029 30.1159 83.6803 29.9195 83.0589 29.9195C82.8601 29.9195 82.6612 29.9195 82.4375 29.944C82.2138 29.944 82.0398 29.9686 81.8659 29.9931V37.2117H79.1814V28.2008ZM77.2924 30.2387C77.0438 30.1896 76.7704 30.1159 76.4472 30.0668C76.0993 29.9931 75.7513 29.9686 75.4033 29.9686C75.2045 29.9686 75.0056 29.9931 74.7819 30.0177C74.6079 30.0423 74.4339 30.0668 74.2599 30.1159V37.2608H71.5755V28.3727C72.1223 28.1762 72.694 28.0289 73.2657 27.9061C73.9865 27.7343 74.7322 27.6606 75.453 27.6852C75.627 27.6852 75.801 27.7097 75.975 27.7097C76.1738 27.7097 76.3727 27.7343 76.5964 27.7834C76.7952 27.8079 76.9941 27.8325 77.2178 27.8816C77.3918 27.9061 77.5658 27.9553 77.7398 28.0289L77.2924 30.2387ZM60.614 32.6449C60.5891 31.9083 60.7383 31.1717 60.9868 30.4842C61.2105 29.8949 61.5585 29.3793 62.0059 28.9128C62.4285 28.4954 62.9007 28.1762 63.4476 27.9798C63.9944 27.7588 64.5661 27.6606 65.1378 27.6606C66.48 27.6606 67.5488 28.078 68.3193 28.8883C69.0899 29.6985 69.4876 30.9016 69.4876 32.4484C69.4876 32.5958 69.4876 32.7676 69.4627 32.9641C69.4379 33.1605 69.4379 33.3078 69.4379 33.4551H63.3481C63.3979 33.9707 63.6713 34.4618 64.1187 34.7564C64.6655 35.1002 65.3118 35.272 65.958 35.2475C66.4303 35.2475 66.9274 35.1984 67.3997 35.1247C67.7974 35.0511 68.1951 34.9283 68.5679 34.781L68.9407 36.9416C68.7668 37.0399 68.5679 37.089 68.3691 37.1626C68.0956 37.2363 67.8222 37.3099 67.5488 37.3345C67.2505 37.3836 66.9523 37.4327 66.6043 37.4818C66.2812 37.5064 65.9332 37.5309 65.5852 37.5309C64.8147 37.5555 64.069 37.4327 63.3481 37.1626C62.7516 36.9416 62.2296 36.5979 61.7822 36.1559C61.3597 35.714 61.0614 35.1738 60.8625 34.6091C60.7134 33.9462 60.614 33.3078 60.614 32.6449ZM66.9274 31.6382C66.9274 31.4172 66.8777 31.1962 66.8031 30.9753C66.7534 30.7543 66.6291 30.5824 66.5049 30.4105C66.3557 30.2387 66.1817 30.0914 65.9829 29.9931C65.7343 29.8704 65.4858 29.8213 65.2123 29.8213C64.9389 29.8213 64.6904 29.8704 64.4418 29.9931C64.243 30.0914 64.0441 30.2141 63.895 30.386C63.7458 30.5579 63.6216 30.7543 63.547 30.9753C63.4724 31.1962 63.4227 31.4172 63.3979 31.6382H66.9274ZM56.2642 32.4976C56.2642 30.7788 55.6179 29.944 54.3503 29.944C54.0769 29.944 53.8034 29.9686 53.53 30.0423C53.3063 30.0914 53.0826 30.1896 52.8838 30.3123V35.1247C53.0081 35.1493 53.1821 35.1738 53.3809 35.1984C53.5797 35.2229 53.8035 35.2229 54.052 35.2229C54.6983 35.272 55.3197 35.002 55.7174 34.4863C56.0902 33.8971 56.289 33.2096 56.2642 32.4976ZM58.9984 32.5958C58.9984 33.2832 58.8989 33.9707 58.6504 34.6337C58.4515 35.2229 58.1284 35.7385 57.7058 36.1805C57.2584 36.6225 56.7365 36.9662 56.1648 37.1872C55.4937 37.4327 54.7977 37.5309 54.0769 37.5309C53.7537 37.5309 53.4058 37.5064 53.0578 37.4818C52.7098 37.4573 52.3618 37.4082 52.0138 37.3836C51.6907 37.3345 51.3676 37.2854 51.0444 37.2117C50.7213 37.1626 50.4479 37.089 50.2242 36.9908V23.8549L52.9086 23.4375V28.1026C53.2069 27.9798 53.53 27.8816 53.8532 27.8079C54.2011 27.7343 54.5491 27.7097 54.8971 27.7097C55.5185 27.7097 56.1151 27.8079 56.6867 28.078C57.1839 28.299 57.6313 28.6427 57.9793 29.0601C58.3521 29.5266 58.6255 30.0423 58.7746 30.607C58.9238 31.2208 58.9984 31.9083 58.9984 32.5958ZM47.664 36.9171C47.0923 37.0644 46.4958 37.1872 45.8993 37.2608C45.1536 37.3836 44.383 37.4327 43.6374 37.4327C42.9414 37.4573 42.2703 37.3345 41.624 37.1135C41.1269 36.9171 40.7043 36.6225 40.3564 36.2296C40.0332 35.8122 39.8095 35.3457 39.6853 34.8301C39.5361 34.2654 39.4864 33.6515 39.4864 33.0623V27.8816H42.1709V32.7676C42.1709 33.627 42.2951 34.2408 42.5188 34.6091C42.7425 34.9774 43.1651 35.1738 43.7865 35.1738C43.9853 35.1738 44.1842 35.1738 44.4079 35.1493C44.6316 35.1247 44.8056 35.1247 44.9796 35.0756V27.8816H47.664V36.9171ZM32.0048 31.2699C32.2782 30.9753 32.5267 30.6806 32.825 30.386C33.0984 30.0668 33.3718 29.7722 33.6453 29.4775C33.9187 29.1583 34.1672 28.8883 34.3909 28.6182C34.6146 28.3481 34.8383 28.1026 35.0123 27.9061H38.1939C37.5476 28.6182 36.9262 29.3302 36.3297 29.9931C35.7083 30.6561 35.062 31.3436 34.3412 32.031C34.7389 32.3993 35.1118 32.7676 35.4597 33.185C35.8326 33.627 36.2054 34.0689 36.5783 34.56C36.9262 35.0265 37.2742 35.5176 37.5725 35.9841C37.8708 36.4506 38.1193 36.8925 38.3182 37.2854H35.236C35.0372 36.9662 34.8135 36.647 34.5649 36.2787C34.3164 35.9104 34.0429 35.5421 33.7944 35.1493C33.521 34.781 33.2227 34.4127 32.8996 34.0689C32.6262 33.7498 32.3279 33.4551 32.0048 33.2096V37.3099H29.3203V23.8549L32.0048 23.4375V31.2699Z" fill="white"/>
</svg>
