<svg width="240" height="94" viewBox="0 0 240 94" fill="none" xmlns="http://www.w3.org/2000/svg">
<path d="M8 0.5H232C236.142 0.5 239.5 3.85786 239.5 8V86C239.5 90.1421 236.142 93.5 232 93.5H8C3.85787 93.5 0.5 90.1421 0.5 86V8C0.5 3.85786 3.85786 0.5 8 0.5Z" stroke="#262626"/>
<path d="M18.7207 48.1888V27.6953L39.585 48.1888V27.6953" stroke="#009900" stroke-width="5" stroke-linecap="round" stroke-linejoin="round"/>
<path d="M52.2571 25.0332L51.5046 26.4105L45.69 36.7904L44.9375 38.1005L45.69 39.4106L51.5046 49.4546L52.2913 50.8319H53.8989H65.8018H67.512L68.2645 49.3202L72.6084 40.7207L74.558 36.824H70.1457L59.0295 36.8576C57.5838 36.8375 56.2542 38.1251 56.2542 39.545C56.2542 40.9649 57.5838 42.2524 59.0295 42.2323L65.7334 42.1987L64.0916 45.4572H55.4723L51.1968 38.0669L55.5065 30.4079H64.6755L66.8133 34.7161H72.3201L68.8484 26.5448L68.0959 25.0332H66.3857H53.8989H52.2571Z" fill="#009900"/>
<path d="M79.9757 25.0002C78.543 25.0178 77.2557 26.314 77.2736 27.7211V34.7239H82.7462V27.7211C82.7644 26.2917 81.4312 24.9823 79.9757 25.0002Z" fill="#009900"/>
<path d="M109.613 48.2396V27.7461L88.749 48.2396V27.7461" stroke="#009900" stroke-width="5" stroke-linecap="round" stroke-linejoin="round"/>
<path d="M118.287 27.7383L139.176 48.1814" stroke="#009900" stroke-width="5" stroke-linecap="round" stroke-linejoin="round"/>
<path d="M139.201 27.7383L118.312 48.1814" stroke="#009900" stroke-width="5" stroke-linecap="round" stroke-linejoin="round"/>
<path d="M79.9757 50.8504C78.543 50.8328 77.2557 49.5366 77.2736 48.1295V36.8809H82.7462V48.1295C82.7644 49.559 81.4312 50.8683 79.9757 50.8504Z" fill="#009900"/>
<path d="M194.051 82V78.213C194.051 77.8537 194.018 77.5083 193.953 77.177C193.892 76.8457 193.782 76.5493 193.624 76.288C193.47 76.022 193.26 75.812 192.994 75.658C192.732 75.504 192.401 75.427 192 75.427C191.687 75.427 191.402 75.4807 191.146 75.588C190.894 75.6907 190.677 75.8493 190.495 76.064C190.313 76.2787 190.17 76.5493 190.068 76.876C189.97 77.198 189.921 77.5783 189.921 78.017L189.102 77.765C189.102 77.0323 189.232 76.4047 189.494 75.882C189.76 75.3547 190.131 74.951 190.607 74.671C191.087 74.3863 191.652 74.244 192.301 74.244C192.791 74.244 193.208 74.321 193.554 74.475C193.899 74.629 194.186 74.8343 194.415 75.091C194.643 75.343 194.823 75.6277 194.954 75.945C195.084 76.2577 195.175 76.5773 195.227 76.904C195.283 77.226 195.311 77.5317 195.311 77.821V82H194.051ZM188.661 82V74.44H189.781V76.463H189.921V82H188.661ZM200.189 85.57C199.793 85.57 199.405 85.5093 199.027 85.388C198.649 85.2667 198.302 85.0823 197.984 84.835C197.672 84.5923 197.41 84.2843 197.2 83.911L198.341 83.309C198.528 83.6777 198.792 83.946 199.132 84.114C199.478 84.282 199.832 84.366 200.196 84.366C200.677 84.366 201.076 84.2773 201.393 84.1C201.711 83.9273 201.944 83.6683 202.093 83.323C202.247 82.9777 202.322 82.5483 202.317 82.035V79.97H202.464V74.44H203.57V82.049C203.57 82.2543 203.563 82.4527 203.549 82.644C203.54 82.8353 203.517 83.0243 203.479 83.211C203.381 83.7477 203.188 84.1887 202.898 84.534C202.609 84.884 202.236 85.143 201.778 85.311C201.321 85.4837 200.791 85.57 200.189 85.57ZM200.098 82.21C199.394 82.21 198.789 82.035 198.285 81.685C197.781 81.3303 197.392 80.852 197.116 80.25C196.846 79.648 196.71 78.969 196.71 78.213C196.71 77.457 196.846 76.778 197.116 76.176C197.392 75.574 197.781 75.1003 198.285 74.755C198.789 74.405 199.391 74.23 200.091 74.23C200.805 74.23 201.405 74.4027 201.89 74.748C202.376 75.0933 202.742 75.567 202.989 76.169C203.241 76.771 203.367 77.4523 203.367 78.213C203.367 78.9643 203.241 79.6433 202.989 80.25C202.742 80.852 202.376 81.3303 201.89 81.685C201.405 82.035 200.808 82.21 200.098 82.21ZM200.252 81.069C200.761 81.069 201.179 80.9477 201.505 80.705C201.832 80.4577 202.072 80.1193 202.226 79.69C202.385 79.256 202.464 78.7637 202.464 78.213C202.464 77.653 202.385 77.1607 202.226 76.736C202.072 76.3067 201.834 75.973 201.512 75.735C201.19 75.4923 200.782 75.371 200.287 75.371C199.774 75.371 199.349 75.497 199.013 75.749C198.682 76.001 198.435 76.3417 198.271 76.771C198.113 77.2003 198.033 77.681 198.033 78.213C198.033 78.7497 198.115 79.235 198.278 79.669C198.442 80.0983 198.687 80.439 199.013 80.691C199.345 80.943 199.758 81.069 200.252 81.069ZM205.665 73.103V71.815H206.911V73.103H205.665ZM205.665 82V74.44H206.911V82H205.665ZM214.394 82V78.213C214.394 77.8537 214.362 77.5083 214.296 77.177C214.236 76.8457 214.126 76.5493 213.967 76.288C213.813 76.022 213.603 75.812 213.337 75.658C213.076 75.504 212.745 75.427 212.343 75.427C212.031 75.427 211.746 75.4807 211.489 75.588C211.237 75.6907 211.02 75.8493 210.838 76.064C210.656 76.2787 210.514 76.5493 210.411 76.876C210.313 77.198 210.264 77.5783 210.264 78.017L209.445 77.765C209.445 77.0323 209.576 76.4047 209.837 75.882C210.103 75.3547 210.474 74.951 210.95 74.671C211.431 74.3863 211.996 74.244 212.644 74.244C213.134 74.244 213.552 74.321 213.897 74.475C214.243 74.629 214.53 74.8343 214.758 75.091C214.987 75.343 215.167 75.6277 215.297 75.945C215.428 76.2577 215.519 76.5773 215.57 76.904C215.626 77.226 215.654 77.5317 215.654 77.821V82H214.394ZM209.004 82V74.44H210.124V76.463H210.264V82H209.004ZM216.634 82L219.525 78.178L216.697 74.44H218.181L220.253 77.212L222.304 74.44H223.788L220.96 78.178L223.858 82H222.367L220.253 79.144L218.125 82H216.634Z" fill="white"/>
</svg>
