<svg width="126" height="60" viewBox="0 0 126 60" fill="none" xmlns="http://www.w3.org/2000/svg">
<path d="M20.7216 6.21392C19.9716 6.654 18.7234 7.89999 17.2344 9.70709L18.5988 12.2706C19.5592 10.9091 20.5334 9.67959 21.5049 8.63989C21.5824 8.55737 21.6184 8.51886 21.6184 8.51886C21.5824 8.55737 21.5409 8.60138 21.5049 8.63989C21.1866 8.98645 20.2207 10.1087 18.7649 12.3256C20.1681 12.2568 22.3075 11.9708 24.0788 11.6737C24.6047 8.75816 23.5668 7.4379 23.5668 7.4379C23.5668 7.4379 22.2494 5.32 20.7161 6.22492L20.7216 6.21392Z" fill="url(#paint0_linear_1949_11271)"/>
<path d="M16.1276 27.748C15.9532 27.7783 15.7761 27.8113 15.5907 27.8416C15.5907 27.8416 15.5879 27.8416 15.5879 27.8443C15.682 27.8306 15.7733 27.8168 15.8647 27.8031C15.9505 27.7838 16.039 27.7673 16.1276 27.748Z" fill="#BD202E"/>
<path d="M16.1276 27.748C15.9532 27.7783 15.7761 27.8113 15.5907 27.8416C15.5907 27.8416 15.5879 27.8416 15.5879 27.8443C15.682 27.8306 15.7733 27.8168 15.8647 27.8031C15.9505 27.7838 16.039 27.7673 16.1276 27.748Z" fill="black"/>
<path d="M16.5985 25.5196C16.5957 25.5196 16.5957 25.5196 16.5957 25.5223C16.6234 25.5196 16.6538 25.5141 16.6815 25.5086C16.7977 25.4921 16.9112 25.4728 17.0219 25.4453C16.8835 25.4701 16.7452 25.4948 16.5985 25.5196Z" fill="#BD202E"/>
<path d="M16.5985 25.5196C16.5957 25.5196 16.5957 25.5196 16.5957 25.5223C16.6234 25.5196 16.6538 25.5141 16.6815 25.5086C16.7977 25.4921 16.9112 25.4728 17.0219 25.4453C16.8835 25.4701 16.7452 25.4948 16.5985 25.5196Z" fill="black"/>
<path d="M14.5774 18.8919C14.9926 18.119 15.4133 17.3653 15.8367 16.6337C16.2768 15.869 16.7252 15.1319 17.1763 14.4167C17.2012 14.3755 17.2316 14.3315 17.2565 14.2902C17.7021 13.5888 18.1533 12.9122 18.6044 12.2686L17.2399 9.70508C17.1375 9.82885 17.0351 9.95538 16.93 10.0874C16.5342 10.577 16.1273 11.0996 15.7066 11.658C15.2334 12.2851 14.749 12.9562 14.2536 13.6603C13.7997 14.3095 13.3348 14.9888 12.8698 15.6957C12.474 16.2954 12.081 16.9115 11.688 17.5441C11.6742 17.5661 11.6603 17.5909 11.6465 17.6156L13.4261 21.1088C13.8025 20.3524 14.19 19.6125 14.5774 18.8919Z" fill="url(#paint1_linear_1949_11271)"/>
<path d="M6.46962 38.5572C6.23437 39.1981 5.99635 39.8555 5.7611 40.5238C5.75833 40.5321 5.75556 40.5431 5.75003 40.5513C5.71682 40.6449 5.68084 40.7411 5.65039 40.8347C5.48987 41.2857 5.35148 41.6928 5.0332 42.6142C5.55629 42.8508 5.97698 43.4779 6.37552 44.1875C6.33401 43.4532 6.02956 42.7628 5.44559 42.2292C8.02782 42.3447 10.2613 41.6956 11.3961 39.8197C11.4985 39.6519 11.5926 39.4786 11.6784 39.2889C11.1553 39.949 10.5049 40.2268 9.28434 40.1608C11.0833 39.3604 11.9828 38.593 12.7716 37.3277C12.9598 37.0252 13.1452 36.6979 13.3334 36.332C11.7614 37.9356 9.95688 38.3922 8.01951 38.0456L6.58033 38.2024C6.53328 38.3234 6.49176 38.4417 6.44471 38.5627L6.46962 38.5572Z" fill="url(#paint2_linear_1949_11271)"/>
<path d="M7.16056 35.366C7.47054 34.5684 7.79159 33.7597 8.11817 32.9455C8.43369 32.1644 8.75473 31.3777 9.08685 30.5911C9.41897 29.8044 9.75663 29.0095 10.0998 28.2174C10.4485 27.4115 10.8083 26.6083 11.1764 25.8079C11.539 25.0158 11.9043 24.2291 12.278 23.4535C12.4108 23.1729 12.5492 22.8923 12.6848 22.6145C12.9201 22.1332 13.1581 21.6546 13.3989 21.1815C13.4127 21.1568 13.4238 21.1293 13.4376 21.1045L11.658 17.6113C11.6303 17.6581 11.5999 17.7076 11.5694 17.7516C11.1543 18.4255 10.7419 19.1131 10.3378 19.8145C9.92822 20.5241 9.52691 21.2475 9.1339 21.9819C8.80455 22.6008 8.48074 23.2224 8.16245 23.855C8.0988 23.9816 8.03791 24.1108 7.97425 24.2374C7.58678 25.0323 7.23805 25.7942 6.91977 26.5341C6.55998 27.3675 6.24446 28.1651 5.97046 28.9215C5.7878 29.4194 5.6245 29.898 5.47228 30.36C5.34774 30.7534 5.2315 31.1494 5.11525 31.5428C4.84956 32.4669 4.61984 33.3911 4.43164 34.3208L6.21955 37.8415C6.4548 37.2144 6.69836 36.5762 6.94745 35.9326C7.02218 35.7483 7.0886 35.5668 7.16056 35.3908V35.366Z" fill="url(#paint3_linear_1949_11271)"/>
<path d="M4.393 34.4323C4.16882 35.5545 4.0083 36.6712 3.92803 37.7879L3.91973 37.9035C3.36066 37.015 1.86889 36.1486 1.87166 36.1569C2.94275 37.6972 3.75367 39.2375 3.87268 40.7228C3.29977 40.8383 2.51653 40.6705 1.6115 40.3404C2.55527 41.2041 3.26379 41.4406 3.54333 41.5067C2.67428 41.5617 1.77202 42.153 0.861461 42.8352C2.19271 42.2961 3.26933 42.0815 4.04428 42.2548C2.82097 45.693 1.59766 49.4887 0.363281 53.532C0.739684 53.422 0.963865 53.1689 1.08841 52.8306C1.30706 52.1017 2.75454 47.302 5.0185 41.0308C5.08492 40.852 5.14857 40.6705 5.215 40.4917C5.23161 40.4394 5.25098 40.3899 5.27035 40.3432C5.50837 39.6831 5.76023 39.0092 6.01485 38.3215C6.07298 38.1648 6.1311 38.008 6.19199 37.8512C6.19199 37.8484 6.19475 37.8457 6.19475 37.8429L4.40407 34.3223C4.39854 34.358 4.39023 34.3993 4.38193 34.4405L4.393 34.4323Z" fill="url(#paint4_linear_1949_11271)"/>
<path d="M13.6923 21.3932C13.6397 21.4977 13.5899 21.6022 13.5373 21.7068C13.3823 22.0231 13.2274 22.3449 13.0668 22.6749C12.8952 23.0325 12.7236 23.3956 12.5493 23.7697C12.4607 23.9567 12.3721 24.1465 12.2836 24.339C12.0179 24.9139 11.7494 25.508 11.4754 26.1214C11.1405 26.8723 10.7946 27.6562 10.4486 28.4703C10.1193 29.246 9.77884 30.0464 9.44119 30.877C9.11737 31.6637 8.79079 32.4778 8.45867 33.314C8.16253 34.0594 7.86362 34.8295 7.56471 35.6189C7.55087 35.6547 7.53703 35.696 7.5232 35.7317C7.22429 36.5156 6.92261 37.3215 6.62094 38.1467C6.6154 38.1659 6.6071 38.1824 6.60156 38.2044L8.04075 38.0477C8.01307 38.0422 7.98263 38.0394 7.95495 38.0339C9.67367 37.8221 11.9681 36.5431 13.4349 34.9533C14.1158 34.2272 14.733 33.369 15.3031 32.3651C15.7266 31.6197 16.1279 30.789 16.5098 29.8731C16.8419 29.0727 17.1602 28.2035 17.4674 27.2656C17.0716 27.4719 16.6205 27.6259 16.1223 27.7304C16.0338 27.7497 15.9452 27.7662 15.8539 27.7827C15.7625 27.7992 15.6712 27.8129 15.5771 27.8239C15.5771 27.8239 15.5799 27.8239 15.5799 27.8212C17.1851 27.2078 18.1953 26.0251 18.9287 24.5756C18.5081 24.8616 17.8217 25.2357 16.9997 25.4145C16.889 25.4392 16.7755 25.4585 16.6593 25.4777C16.6316 25.4805 16.6011 25.486 16.5735 25.4915H16.579C17.1381 25.2604 17.6058 24.9991 18.0126 24.6938C18.1012 24.6278 18.187 24.5618 18.2645 24.4903C18.389 24.383 18.5053 24.2703 18.6215 24.1547C18.6935 24.0777 18.7627 24.0007 18.8319 23.9209C18.9924 23.7312 19.1419 23.5276 19.2802 23.3076C19.3218 23.2388 19.366 23.1728 19.4048 23.1013C19.4601 22.9995 19.51 22.8977 19.5598 22.8015C19.784 22.3559 19.9639 21.9543 20.105 21.605C20.177 21.429 20.2379 21.2694 20.2932 21.1154C20.3153 21.0549 20.3347 20.9971 20.3541 20.9394C20.4122 20.7716 20.4565 20.6231 20.4925 20.491C20.5478 20.293 20.581 20.1362 20.5976 20.0234C20.5423 20.0647 20.4814 20.1087 20.4094 20.15C19.9251 20.4388 19.0948 20.6973 18.425 20.8211C18.4167 20.8238 18.4057 20.8238 18.3946 20.8266C18.3254 20.8376 18.2617 20.8486 18.1925 20.8568L18.2258 20.8403L13.7145 21.3327C13.7145 21.3437 13.7062 21.3629 13.6979 21.3794L13.6923 21.3932Z" fill="url(#paint5_linear_1949_11271)"/>
<path d="M18.7855 12.3167C18.3842 12.9301 17.9469 13.626 17.4709 14.4154C17.446 14.4539 17.4183 14.5007 17.3962 14.5392C16.9893 15.2213 16.5576 15.9694 16.0981 16.7919C15.7051 17.5015 15.2955 18.2606 14.8693 19.0775C14.4984 19.7899 14.1165 20.5463 13.7207 21.3467L18.232 20.8544C19.5494 20.252 20.1362 19.7102 20.7063 18.9208C20.8557 18.7035 21.0107 18.4779 21.1602 18.2414C21.6252 17.5207 22.0791 16.7286 22.4859 15.9392C22.8789 15.1773 23.2249 14.4236 23.4906 13.7415C23.6594 13.3097 23.795 12.9081 23.8891 12.5533C23.9721 12.2425 24.0358 11.9454 24.0856 11.6621C22.3337 11.9619 20.1832 12.248 18.7717 12.3167H18.7855Z" fill="url(#paint6_linear_1949_11271)"/>
<path d="M15.851 27.8027C15.7597 27.8192 15.6683 27.833 15.5742 27.844C15.6683 27.8357 15.7624 27.8192 15.851 27.8027Z" fill="#BD202E"/>
<path opacity="0.35" d="M15.851 27.8027C15.7597 27.8192 15.6683 27.833 15.5742 27.844C15.6683 27.8357 15.7624 27.8192 15.851 27.8027Z" fill="#BD202E"/>
<path d="M15.851 27.8027C15.7597 27.8192 15.6683 27.833 15.5742 27.844C15.6683 27.8357 15.7624 27.8192 15.851 27.8027Z" fill="url(#paint7_linear_1949_11271)"/>
<path d="M16.5977 25.5196C16.6253 25.5169 16.6558 25.5114 16.6835 25.5059C16.6558 25.5086 16.6281 25.5169 16.5977 25.5196Z" fill="#BD202E"/>
<path opacity="0.35" d="M16.5977 25.5196C16.6253 25.5169 16.6558 25.5114 16.6835 25.5059C16.6558 25.5086 16.6281 25.5169 16.5977 25.5196Z" fill="#BD202E"/>
<path d="M16.5977 25.5196C16.6253 25.5169 16.6558 25.5114 16.6835 25.5059C16.6558 25.5086 16.6281 25.5169 16.5977 25.5196Z" fill="url(#paint8_linear_1949_11271)"/>
<path d="M16.5977 25.521C16.6009 25.5177 16.6009 25.521 16.5977 25.521C16.6009 25.5177 16.6009 25.521 16.5977 25.521Z" fill="#BD202E"/>
<path opacity="0.35" d="M16.5977 25.521C16.6009 25.5177 16.6009 25.521 16.5977 25.521C16.6009 25.5177 16.6009 25.521 16.5977 25.521Z" fill="#BD202E"/>
<path d="M81.2764 38C80.9996 37.9506 79.9538 37.6835 79.7946 37.6215C79.41 37.4742 78.0923 36.8024 77.9331 36.6758C77.7262 36.5067 77.6992 36.486 77.3221 36.206C76.9485 35.9298 76.1476 35.1326 75.8647 34.7578C75.7458 34.5995 75.6161 34.4292 75.5757 34.3817C75.5358 34.3335 75.4689 34.2527 75.4275 34.2016C75.3396 34.0946 74.596 32.8506 74.596 32.802C74.596 32.787 74.5187 32.6036 74.4246 32.3942C74.33 32.1849 74.1956 31.8514 74.127 31.6531C74.0576 31.4547 73.9727 31.2271 73.9384 31.148C73.8616 30.9703 73.6518 29.9894 73.5759 29.4563C73.4958 28.8891 73.4983 27.3386 73.5801 26.8275C73.7956 25.4887 73.9658 24.9167 74.4581 23.87C74.5341 23.7082 74.5965 23.5378 74.5965 23.4915C74.5965 23.4445 74.6292 23.4061 74.6691 23.4061C74.7091 23.4061 74.7418 23.3642 74.7418 23.3129C74.7418 23.2616 74.9438 22.9161 75.19 22.5449C75.5892 21.9425 76.5003 20.9384 77.1004 20.4516C77.7213 19.938 78.9496 19.2698 79.6844 19.0398C79.8999 18.9738 80.1583 18.8913 80.2575 18.8572C80.6261 18.7307 81.3352 18.6382 82.2536 18.598C83.4379 18.5456 84.6784 18.6992 85.5601 19.0069C86.2153 19.237 86.8093 19.512 86.8583 19.6009C86.8716 19.6307 86.9142 19.655 86.9529 19.655C87.106 19.655 87.9302 20.2757 88.4225 20.7625C88.9944 21.3273 89.3691 21.8214 89.6716 22.4056C89.8577 22.7707 89.8602 22.7877 89.7299 22.8766C89.6557 22.9274 89.5609 22.9945 89.5193 23.025C89.4776 23.0556 89.3576 23.1303 89.2535 23.1893C89.1494 23.2489 88.9143 23.3902 88.7294 23.5033C88.3546 23.7334 88.2113 23.7175 88.1011 23.429C87.7937 22.6245 86.3866 21.2991 85.4192 20.9219C84.3611 20.5008 83.7169 20.3754 82.627 20.3766C81.4734 20.3778 80.7289 20.5178 79.8104 20.9121C79.4956 21.046 78.8233 21.4452 78.6813 21.5827C78.6285 21.6337 78.5631 21.6754 78.5355 21.6754C78.4584 21.6754 77.6514 22.4677 77.2987 22.8913C76.9141 23.3501 76.2467 24.5343 76.0887 25.0333C76.026 25.2317 75.9467 25.4593 75.9112 25.5384C75.6026 26.2369 75.4213 27.9238 75.534 29.0556C75.6109 29.8272 75.7728 30.6378 75.9124 30.9542C75.9478 31.0336 75.9983 31.1794 76.0249 31.2792C76.1419 31.7161 76.8258 32.9831 77.1834 33.4212C77.541 33.863 78.1937 34.5445 78.4938 34.7843C78.833 35.0606 79.9388 35.7458 80.0368 35.7458C80.0635 35.7458 80.1691 35.7899 80.2732 35.8434C80.3763 35.8968 80.752 36.0186 81.1084 36.1135C81.6521 36.2584 81.9117 36.2851 82.7371 36.2778C84.121 36.2656 84.9904 36.0296 86.1538 35.3553C86.9131 34.9148 87.9663 33.8949 88.3337 33.2377C88.4733 32.9906 88.6202 32.7873 88.6607 32.7861C88.815 32.7841 90.2159 33.5444 90.2159 33.6296C90.2159 33.7306 89.7934 34.5326 89.7102 34.5886C89.6808 34.6084 89.6192 34.6957 89.573 34.7821C89.4003 35.1095 88.6056 35.8811 87.8585 36.4495C87.4617 36.7513 86.4135 37.2819 85.6787 37.5484C84.71 37.9026 84.1234 37.9975 82.7763 38.0182C82.0575 38.0292 81.3925 38.0236 81.2945 38.0057L81.2764 38ZM23.3513 37.8991C23.3513 37.8589 23.3828 37.7701 23.4214 37.7007C23.4599 37.6318 23.5598 37.4135 23.6431 37.2151C23.7265 37.0167 23.8231 36.7891 23.8586 36.71C23.8937 36.6307 24.1219 36.0954 24.3656 35.5197C24.6093 34.9441 24.8383 34.4086 24.875 34.3295C24.9113 34.2501 25.0257 33.9741 25.1285 33.7161C25.2319 33.4581 25.3453 33.1818 25.382 33.1027C25.4188 33.0236 25.5167 32.796 25.6012 32.5976C25.6861 32.3992 25.8021 32.1351 25.8596 32.0098C25.9172 31.8844 25.9632 31.7615 25.9632 31.7347C25.9632 31.6938 26.1029 31.3611 26.327 30.8658C26.363 30.7864 26.4764 30.5104 26.5805 30.2524C26.6846 29.9943 26.7984 29.7181 26.834 29.639C26.8703 29.5596 26.9846 29.2836 27.0875 29.0256C27.1908 28.7676 27.3054 28.4913 27.341 28.4122C27.377 28.3328 27.4757 28.1055 27.5589 27.9071C27.6432 27.7087 27.7414 27.4811 27.7757 27.402C27.8108 27.3227 27.99 26.9006 28.1749 26.4649C28.3586 26.028 28.5399 25.6069 28.5754 25.5278C28.6113 25.4484 28.775 25.0592 28.9379 24.6625C29.102 24.2657 29.2648 23.8762 29.3004 23.7971C29.336 23.7178 29.4792 23.3772 29.6188 23.0401C30.4013 21.1537 30.5801 20.7277 30.754 20.3383C30.7894 20.2589 30.9034 19.9829 31.0075 19.7249C31.1116 19.4669 31.2598 19.1176 31.3381 18.9496L31.479 18.6429H33.0588L33.2204 19.0214C33.4225 19.4924 33.6441 20.0036 33.7298 20.1934C33.9772 20.7448 34.0923 21.021 34.0923 21.0588C34.0923 21.0991 34.2319 21.4263 34.4965 22.0069C34.5534 22.1322 34.6001 22.2551 34.6001 22.2819C34.6001 22.3227 34.7122 22.591 34.9626 23.1509C35.2099 23.7022 35.3251 23.9785 35.3251 24.0162C35.3251 24.0404 35.3928 24.2121 35.4757 24.3984C35.5586 24.5846 35.6753 24.8511 35.7341 24.9898C35.7938 25.1286 35.8712 25.3075 35.9068 25.3866C35.9421 25.466 36.0562 25.742 36.159 26C36.2624 26.258 36.3758 26.5343 36.4113 26.6134C36.4469 26.6927 36.6758 27.228 36.9207 27.8037C37.1657 28.3793 37.3947 28.9148 37.4302 28.9939C37.4658 29.0733 37.5481 29.2678 37.6127 29.4272C38.2801 31.058 38.5446 31.6909 38.6279 31.8856C38.6815 32.0047 38.8593 32.426 39.0247 32.8228C39.1888 33.2195 39.3529 33.609 39.3884 33.6881C39.4239 33.7672 39.5219 33.9948 39.6064 34.1932C39.6906 34.3915 39.7888 34.6191 39.8243 34.6982C39.8599 34.7773 39.9738 35.0536 40.0778 35.3116C40.1812 35.5696 40.2958 35.8459 40.3313 35.925C40.6828 36.6991 41.1298 37.7871 41.1298 37.8723C41.1298 37.9597 40.9522 37.9776 40.0827 37.9776C39.059 37.9776 39.0345 37.9738 38.9855 37.8157C38.9409 37.6709 38.7724 37.2632 38.5899 36.8603C38.5539 36.781 38.4393 36.505 38.3352 36.2469C38.1576 35.8076 38.0143 35.468 37.8625 35.1285C37.8271 35.0491 37.7131 34.7731 37.6102 34.5151C37.5069 34.2571 37.3922 33.9808 37.3567 33.9017C37.1363 33.4161 36.993 33.0741 36.993 33.0364C36.993 33.0121 36.9323 32.8562 36.8583 32.6895C36.7841 32.5228 36.6783 32.2818 36.6232 32.1528L36.5225 31.9179H27.9378L27.7909 32.2611C27.7103 32.4497 27.5545 32.8307 27.4455 33.1082C27.3363 33.3857 27.1859 33.7495 27.1112 33.9163C27.0365 34.083 26.9753 34.2388 26.9753 34.2631C26.9753 34.3014 26.832 34.6429 26.6116 35.1285C26.5756 35.2078 26.4622 35.4838 26.3581 35.7419C26.254 35.9999 26.1401 36.2761 26.1021 36.3553C26.0649 36.4346 25.916 36.7922 25.7727 37.1488C25.6282 37.5054 25.4935 37.8388 25.4727 37.8875C25.4249 38.002 23.3418 38.019 23.3418 37.9046L23.3513 37.8991ZM36.0875 30.3169C36.0875 30.248 35.9805 29.9883 35.6834 29.3359C35.6264 29.2106 35.5798 29.0864 35.5798 29.0584C35.5798 29.0307 35.5323 28.9063 35.4743 28.7809C35.4163 28.6556 35.1865 28.0994 34.9649 27.5396C34.7432 26.9846 34.5301 26.4649 34.4934 26.3858C34.4564 26.3064 34.2754 25.8515 34.093 25.3756C33.9093 24.8998 33.7305 24.4446 33.695 24.3655C33.6594 24.2861 33.5815 24.1075 33.5223 23.9687C33.4625 23.83 33.3459 23.5635 33.2639 23.3773C33.1811 23.191 33.1132 23.0121 33.1132 22.9805C33.1132 22.9486 33.0706 22.8417 33.0191 22.7419C32.9675 22.6428 32.8464 22.3501 32.7509 22.0933C32.6549 21.8353 32.5341 21.5432 32.4827 21.4446C32.4311 21.3454 32.3888 21.2231 32.3885 21.1744C32.3873 21.0223 32.2563 21.0742 32.2036 21.2466C32.1765 21.3358 32.1111 21.5058 32.0579 21.6251C32.0051 21.7441 31.8276 22.1666 31.6635 22.5622C31.4994 22.9589 31.2692 23.5103 31.1529 23.7914C31.0368 24.0689 30.4205 25.544 29.7813 27.0774C29.1445 28.5988 28.5701 29.974 28.5077 30.1201L28.3925 30.3903H32.2379C34.8831 30.3903 36.0832 30.3665 36.0832 30.3142L36.0875 30.3169ZM43.2026 28.2966V18.6332L47.2439 18.6344C51.4689 18.6356 52.2404 18.6743 52.9139 18.9253C53.3928 19.103 54.1337 19.4681 54.2733 19.5922C54.3252 19.6401 54.4766 19.7602 54.6101 19.8588C55.5469 20.5513 56.447 21.9277 56.7776 23.2178C57.1083 24.4592 56.9724 26.1509 56.4494 27.3314C55.6975 29.0231 54.4288 30.1915 52.8368 30.6783C52.5159 30.7748 51.8791 30.7974 48.8077 30.8207L45.1583 30.8479V37.9798H43.1989V28.3164L43.2026 28.2966ZM51.8118 29.0122C53.1466 28.8284 54.2365 27.8146 54.7754 26.2373C54.9615 25.6957 55.0044 24.2048 54.8503 23.5963C54.6409 22.7809 54.2576 22.0993 53.6881 21.5395C53.4053 21.262 53.0771 20.9857 52.957 20.9261C52.8378 20.8667 52.7244 20.8008 52.7035 20.7788C52.6836 20.7574 52.5198 20.6771 52.3411 20.5999C52.0361 20.4697 51.7875 20.4588 48.5814 20.4369L45.1525 20.4137V29.0791H48.1896C49.9775 29.0791 51.4716 29.0469 51.8022 29.0011L51.8118 29.0122ZM55.8775 37.9088C55.86 37.8791 55.9709 37.5632 56.1237 37.2054C56.2768 36.8488 56.6833 35.8788 57.0287 35.039C57.3728 34.2053 57.6986 33.4325 57.7524 33.3108C57.8063 33.1918 57.9851 32.7692 58.1505 32.3737C58.4395 31.6787 58.5962 31.31 58.7322 30.9984C58.7674 30.9191 58.9305 30.5299 59.0946 30.1331C59.2587 29.7363 59.4363 29.314 59.489 29.196C59.5416 29.0779 59.7535 28.574 59.9592 28.0775C60.165 27.5822 60.4283 26.9481 60.5434 26.6657C60.7895 26.0742 61.6137 24.1343 61.708 23.9274C61.7436 23.848 61.8574 23.572 61.9603 23.314C62.0636 23.0559 62.177 22.7797 62.2138 22.7006C62.2498 22.6212 62.3485 22.3939 62.433 22.1955C62.5179 21.9971 62.6338 21.733 62.6914 21.6077C62.7483 21.4823 62.795 21.3594 62.795 21.3326C62.795 21.2918 62.9072 21.0235 63.1575 20.4636C63.302 20.1423 63.509 19.6458 63.6694 19.2344C63.7632 18.9959 63.8702 18.761 63.907 18.7111C63.9531 18.6486 64.2131 18.6209 64.7544 18.6209H65.5357L65.6304 18.8558C65.8202 19.3268 66.6542 21.2899 66.855 21.7645C66.8903 21.8439 67.0534 22.2331 67.2163 22.6299C67.3792 23.0266 67.5445 23.4161 67.5812 23.4952C67.618 23.5745 67.8959 24.24 68.1972 24.98C68.4997 25.7139 68.7765 26.3796 68.812 26.4526C68.8479 26.532 69.0471 27.0027 69.2541 27.4981C69.7451 28.6701 70.2546 29.8713 70.3366 30.0539C70.3723 30.1332 70.4701 30.3606 70.5546 30.5589C70.6389 30.7573 70.7371 30.9849 70.7726 31.064C70.8086 31.1434 70.9232 31.4194 71.0273 31.6774C71.2049 32.1168 71.3482 32.4563 71.5 32.7959C71.5354 32.8752 71.6494 33.1513 71.7535 33.4093C71.8576 33.6673 71.9899 33.9801 72.0474 34.1054C72.1049 34.2308 72.1518 34.3549 72.1518 34.3817C72.1518 34.4089 72.2498 34.6421 72.3698 34.8989C72.4895 35.1557 72.5878 35.3833 72.5878 35.4052C72.5878 35.4271 72.6347 35.5452 72.6921 35.6705C72.7495 35.7959 72.8819 36.1087 72.986 36.3667C73.0901 36.6247 73.2052 36.901 73.2407 36.9801C73.4918 37.5351 73.6044 37.8113 73.6044 37.8783C73.6044 37.9943 71.6083 37.9807 71.5226 37.8641C71.4825 37.8145 71.1638 37.0755 70.816 36.2211C70.4669 35.368 70.1387 34.5781 70.0861 34.4564C70.0334 34.3374 69.9048 34.0292 69.8007 33.7712C69.6966 33.5132 69.5815 33.2369 69.546 33.1578C69.4476 32.9412 69.2178 32.3947 69.1125 32.1294L69.0194 31.8945L60.3858 31.9318L59.9559 32.9772C59.7196 33.5529 59.4942 34.0981 59.4563 34.1906C59.4178 34.2825 59.3864 34.3732 59.3864 34.3926C59.3864 34.4236 59.2284 34.7943 59.0226 35.2494C58.9866 35.3288 58.872 35.6048 58.7679 35.8628C58.6638 36.1208 58.5352 36.4288 58.4838 36.548C58.4314 36.6671 58.2805 37.0324 58.147 37.3598L57.9058 37.9549H56.9077C56.3591 37.9549 55.8962 37.9306 55.8778 37.9009L55.8775 37.9088ZM68.4912 30.3509C68.4912 30.3154 68.2414 29.6974 68.0259 29.1996C67.9743 29.0806 67.8557 28.7724 67.7614 28.5144C67.6676 28.2564 67.5483 27.9643 67.4968 27.8657C67.4453 27.7665 67.4029 27.6588 67.4027 27.6272C67.4014 27.5769 67.2741 27.2682 67.039 26.7473C67.0029 26.6679 66.8883 26.3919 66.7842 26.1339C66.6801 25.8758 66.5528 25.5679 66.5001 25.4487C66.4478 25.3296 66.3446 25.0702 66.2711 24.8718C66.1978 24.6734 66.096 24.43 66.0445 24.3302C65.9934 24.231 65.9512 24.1221 65.951 24.0892C65.951 24.0555 65.9034 23.9261 65.8457 23.8008C65.788 23.6754 65.6203 23.2653 65.4734 22.888C65.3264 22.5107 65.1501 22.0726 65.0803 21.9144C65.011 21.7561 64.9088 21.52 64.8537 21.391C64.7276 21.0989 64.6455 21.1221 64.5218 21.4854C64.4687 21.6423 64.3945 21.8346 64.3565 21.9137C64.3188 21.9931 64.2194 22.2204 64.1349 22.4188C64.0506 22.6172 63.9524 22.8448 63.9157 22.9239C63.8566 23.0541 63.067 24.932 62.091 27.2566C61.8913 27.7325 61.6991 28.1876 61.6636 28.2667C61.628 28.3459 61.4652 28.7353 61.3023 29.1321C61.1394 29.5288 60.9582 29.9597 60.8994 30.0899C60.8406 30.2201 60.7928 30.3418 60.7928 30.3601C60.7928 30.3786 62.5196 30.3937 64.6382 30.3937C66.7568 30.3937 68.4835 30.3764 68.4835 30.3554L68.4912 30.3509ZM92.8614 37.8723C92.8419 37.8216 92.8344 33.4788 92.8447 28.2211L92.8634 18.6673H94.7493L94.768 22.9391L94.7868 27.211H106.176V18.6308H108.135V37.9818H106.176V28.9635H94.7868L94.7494 37.9453L93.8224 37.9655C93.1207 37.9809 92.8867 37.9633 92.8598 37.8934L92.8614 37.8723ZM112.455 28.2941V18.6308H125.192V20.432H114.378V27.211H123.808V28.9392H114.378V36.1563H125.412V37.9575H112.431L112.455 28.2941Z" fill="#AA0000"/>
<path d="M22.8613 46.2749V40.2871H23.8778V42.8794H26.8659V40.2871H27.8823V46.2749H26.8659V43.8287H23.8778V46.2749H22.8613ZM31.8011 41.285V46.348H30.7847V41.285H28.96V40.3601H33.6258V41.285H31.8011ZM36.9446 41.285V46.348H35.9281V41.285H34.1034V40.3601H38.7693V41.285H36.9446ZM41.9656 40.3114C42.88 40.3114 43.5453 40.4854 43.9617 40.8335C44.3805 41.1816 44.59 41.7171 44.59 42.44C44.59 43.1646 44.3744 43.696 43.9433 44.0344C43.5188 44.3711 42.8657 44.5394 41.9839 44.5394H40.9161V46.292H39.8996V40.3041L41.9656 40.3114ZM42.0954 43.6218C42.6579 43.6218 43.0396 43.5163 43.2404 43.3053C43.447 43.0887 43.5502 42.7747 43.5502 42.3633C43.5502 41.9471 43.4208 41.6534 43.162 41.4822C42.9032 41.311 42.4983 41.2254 41.9472 41.2254H40.9136V43.623L42.0954 43.6218ZM49.9257 41.0416C49.6326 41.0416 49.3913 41.1017 49.2019 41.2218C49.0125 41.3418 48.9178 41.5244 48.9178 41.7694C48.9178 42.0088 49.0125 42.1942 49.2019 42.3256C49.3913 42.4514 49.7934 42.5885 50.4082 42.737C51.0287 42.8855 51.494 43.0936 51.8042 43.3613C52.1202 43.6299 52.2782 44.0267 52.2782 44.5516C52.2782 45.0709 52.0802 45.4928 51.6842 45.8173C51.2883 46.1419 50.7698 46.3046 50.129 46.3054C49.1901 46.3054 48.3532 45.9828 47.6185 45.3378L48.2553 44.5759C48.8643 45.1009 49.497 45.3634 50.1534 45.3634C50.4808 45.3634 50.7392 45.2948 50.9286 45.1577C51.1238 45.0149 51.2213 44.8295 51.2213 44.6015C51.2213 44.3678 51.1295 44.1881 50.9458 44.0623C50.7678 43.9309 50.4576 43.8141 50.0151 43.7118C49.5726 43.6031 49.2366 43.5062 49.0072 43.421C48.7778 43.3293 48.5741 43.2124 48.3961 43.0705C48.0401 42.8019 47.8622 42.3922 47.8622 41.8412C47.8622 41.2879 48.063 40.8619 48.4647 40.5633C48.8721 40.2607 49.3742 40.1094 49.971 40.1094C50.3555 40.1094 50.7372 40.1723 51.116 40.298C51.4948 40.4238 51.8222 40.6007 52.0982 40.8286L51.5556 41.5905C51.3777 41.4307 51.1364 41.2992 50.8319 41.1962C50.5274 41.0932 50.2257 41.0416 49.9269 41.0416H49.9257ZM57.8858 40.3114V41.2619H54.6772V42.8441H57.5674V43.7435H54.6772V45.35H57.996V46.3005H53.6608V40.3126L57.8858 40.3114ZM64.0089 42.2587C64.0089 43.2485 63.5762 43.8692 62.7108 44.1208L64.2906 46.2993H62.9925L61.5597 44.2912H60.2248V46.2993H59.2084V40.3114H61.4494C62.372 40.3114 63.0292 40.4656 63.4211 40.7739C63.8171 41.0822 64.015 41.5771 64.015 42.2587H64.0089ZM61.4862 43.3711C62.0601 43.3711 62.4508 43.2826 62.6581 43.1057C62.8655 42.9289 62.9688 42.6465 62.968 42.2587C62.968 41.8652 62.8619 41.597 62.6496 41.4542C62.4373 41.3057 62.0585 41.2315 61.5131 41.2315H60.215V43.3735L61.4862 43.3711ZM68.1727 46.2749H67.0362L64.6114 40.2871H65.7479L67.5971 44.7536L69.4463 40.2871H70.5827L68.1727 46.2749ZM75.6429 40.3114V41.2619H72.4344V42.8441H75.3245V43.7435H72.4344V45.35H75.7531V46.3005H71.4179V40.3126L75.6429 40.3114ZM81.8885 42.2587C81.8885 43.2485 81.4558 43.8692 80.5904 44.1208L82.1702 46.2993H80.8721L79.4393 44.2912H78.1044V46.2993H77.088V40.3114H79.329C80.2516 40.3114 80.9088 40.4656 81.3007 40.7739C81.6967 41.0822 81.8946 41.5771 81.8946 42.2587H81.8885ZM79.3658 43.3711C79.9397 43.3711 80.3304 43.2826 80.5378 43.1057C80.7451 42.9289 80.8484 42.6465 80.8476 42.2587C80.8476 41.8652 80.7415 41.597 80.5292 41.4542C80.3169 41.3057 79.9381 41.2315 79.3927 41.2315H78.0946V43.3735L79.3658 43.3711ZM87.7668 40.3114C88.6811 40.3114 89.3465 40.4854 89.7629 40.8335C90.1817 41.1816 90.3911 41.7171 90.3911 42.44C90.3911 43.1646 90.1756 43.696 89.7445 44.0344C89.32 44.3711 88.6669 44.5394 87.7851 44.5394H86.7172V46.292H85.7008V40.3041L87.7668 40.3114ZM87.8966 43.6218C88.4591 43.6218 88.8408 43.5163 89.0416 43.3053C89.2481 43.0887 89.3514 42.7747 89.3514 42.3633C89.3514 41.9471 89.222 41.6534 88.9632 41.4822C88.7044 41.311 88.2995 41.2254 87.7484 41.2254H86.7148V43.623L87.8966 43.6218ZM96.4616 42.2587C96.4616 43.2485 96.0289 43.8692 95.1635 44.1208L96.7433 46.2993H95.4452L94.0124 44.2912H92.6775V46.2993H91.6611V40.3114H93.9022C94.8247 40.3114 95.4819 40.4656 95.8738 40.7739C96.2698 41.0822 96.4678 41.5771 96.4678 42.2587H96.4616ZM93.9389 43.3711C94.5128 43.3711 94.9035 43.2826 95.1109 43.1057C95.3182 42.9289 95.4215 42.6465 95.4207 42.2587C95.4207 41.8652 95.3146 41.597 95.1023 41.4542C94.89 41.3057 94.5112 41.2315 93.9658 41.2315H92.6677V43.3735L93.9389 43.3711ZM102.217 41.7719C101.81 41.35 101.308 41.139 100.711 41.139C100.114 41.139 99.6081 41.35 99.1926 41.7719C98.7852 42.1938 98.5815 42.709 98.5815 43.3175C98.5815 43.9171 98.7852 44.4283 99.1926 44.851C99.6057 45.2729 100.112 45.4839 100.711 45.4839C101.31 45.4839 101.812 45.2729 102.217 44.851C102.631 44.4291 102.837 43.9179 102.837 43.3175C102.837 42.7122 102.631 42.197 102.217 41.7719ZM102.967 45.5204C102.358 46.1078 101.607 46.4015 100.714 46.4015C99.8204 46.4015 99.0693 46.1078 98.4602 45.5204C97.8512 44.9273 97.5467 44.193 97.5467 43.3175C97.5467 42.4331 97.8512 41.6988 98.4602 41.1147C99.0693 40.5215 99.8204 40.225 100.714 40.225C101.607 40.225 102.358 40.5215 102.967 41.1147C103.576 41.7021 103.88 42.4364 103.88 43.3175C103.88 44.1938 103.576 44.9281 102.967 45.5204ZM105.157 41.1633V40.2554H108.083V44.1987C108.083 44.8948 107.905 45.4181 107.549 45.7687C107.193 46.1167 106.736 46.2908 106.178 46.2908C105.477 46.2908 104.881 46.0453 104.39 45.5545L104.967 44.7585C105.357 45.1293 105.739 45.3147 106.112 45.3147C106.376 45.3147 106.6 45.2263 106.784 45.0494C106.973 44.8725 107.068 44.6072 107.068 44.2534V41.1621L105.157 41.1633ZM113.851 40.3114V41.2619H110.643V42.8441H113.533V43.7435H110.643V45.35H113.962V46.3005H109.626V40.3126L113.851 40.3114ZM118.015 45.423C118.365 45.423 118.667 45.3658 118.92 45.2514C119.172 45.1313 119.437 44.9431 119.712 44.6867L120.368 45.3549C119.73 46.0567 118.954 46.4076 118.041 46.4076C117.135 46.4076 116.379 46.1167 115.775 45.535C115.178 44.9532 114.88 44.2189 114.88 43.3321C114.88 42.4453 115.185 41.7029 115.794 41.1049C116.408 40.5118 117.18 40.2153 118.108 40.2153C119.047 40.2153 119.827 40.5577 120.447 41.2424L119.801 41.9447C119.513 41.6704 119.241 41.4794 118.983 41.3715C118.73 41.2627 118.432 41.2084 118.087 41.2084C117.478 41.2084 116.968 41.4051 116.557 41.7986C116.143 42.1865 115.937 42.6855 115.937 43.2956C115.937 43.9009 116.141 44.408 116.548 44.8169C116.961 45.2218 117.451 45.4242 118.018 45.4242L118.015 45.423ZM123.893 41.285V46.348H122.877V41.285H121.052V40.3601H125.718V41.285H123.893Z" fill="black"/>
<defs>
<linearGradient id="paint0_linear_1949_11271" x1="18.4609" y1="10.1074" x2="28.4556" y2="7.28053" gradientUnits="userSpaceOnUse">
<stop stop-color="#F59723"/>
<stop offset="0.312" stop-color="#F69822"/>
<stop offset="0.838" stop-color="#E87726"/>
</linearGradient>
<linearGradient id="paint1_linear_1949_11271" x1="-3.44322" y1="54.7786" x2="16.6977" y2="11.2573" gradientUnits="userSpaceOnUse">
<stop offset="0.323" stop-color="#9C2063"/>
<stop offset="0.63" stop-color="#C82037"/>
<stop offset="0.751" stop-color="#CC2135"/>
<stop offset="1" stop-color="#E87726"/>
</linearGradient>
<linearGradient id="paint2_linear_1949_11271" x1="3.40571" y1="51.5519" x2="15.4023" y2="25.6292" gradientUnits="userSpaceOnUse">
<stop stop-color="#282661"/>
<stop offset="0.0955" stop-color="#662E8C"/>
<stop offset="0.788" stop-color="#9E2064"/>
<stop offset="0.949" stop-color="#CC2032"/>
</linearGradient>
<linearGradient id="paint3_linear_1949_11271" x1="-2.71436" y1="52.1508" x2="17.4265" y2="8.62946" gradientUnits="userSpaceOnUse">
<stop offset="0.323" stop-color="#9C2063"/>
<stop offset="0.63" stop-color="#C82037"/>
<stop offset="0.751" stop-color="#CC2135"/>
<stop offset="1" stop-color="#E87726"/>
</linearGradient>
<linearGradient id="paint4_linear_1949_11271" x1="-0.631529" y1="49.2481" x2="9.95018" y2="26.3827" gradientUnits="userSpaceOnUse">
<stop stop-color="#282661"/>
<stop offset="0.0955" stop-color="#662E8C"/>
<stop offset="0.788" stop-color="#9E2064"/>
<stop offset="0.949" stop-color="#CC2032"/>
</linearGradient>
<linearGradient id="paint5_linear_1949_11271" x1="1.82557" y1="54.2516" x2="21.9665" y2="10.7303" gradientUnits="userSpaceOnUse">
<stop offset="0.323" stop-color="#9C2063"/>
<stop offset="0.63" stop-color="#C82037"/>
<stop offset="0.751" stop-color="#CC2135"/>
<stop offset="1" stop-color="#E87726"/>
</linearGradient>
<linearGradient id="paint6_linear_1949_11271" x1="0.332896" y1="56.8362" x2="20.4738" y2="13.3148" gradientUnits="userSpaceOnUse">
<stop offset="0.323" stop-color="#9C2063"/>
<stop offset="0.63" stop-color="#C82037"/>
<stop offset="0.751" stop-color="#CC2135"/>
<stop offset="1" stop-color="#E87726"/>
</linearGradient>
<linearGradient id="paint7_linear_1949_11271" x1="3.16677" y1="54.8732" x2="23.3077" y2="11.3519" gradientUnits="userSpaceOnUse">
<stop offset="0.323" stop-color="#9C2063"/>
<stop offset="0.63" stop-color="#C82037"/>
<stop offset="0.751" stop-color="#CC2135"/>
<stop offset="1" stop-color="#E87726"/>
</linearGradient>
<linearGradient id="paint8_linear_1949_11271" x1="3.01151" y1="54.8014" x2="23.1525" y2="11.2802" gradientUnits="userSpaceOnUse">
<stop offset="0.323" stop-color="#9C2063"/>
<stop offset="0.63" stop-color="#C82037"/>
<stop offset="0.751" stop-color="#CC2135"/>
<stop offset="1" stop-color="#E87726"/>
</linearGradient>
</defs>
</svg>
