<svg width="126" height="60" viewBox="0 0 126 60" fill="none" xmlns="http://www.w3.org/2000/svg">
<path d="M50.8683 26.1716H55.0056C54.3155 21.812 50.5069 18.7754 45.5504 18.7754C39.6859 18.7754 35.2852 23.0486 35.2852 30.2054C35.2852 37.2344 39.4879 41.594 45.6703 41.594C51.2188 41.594 55.1909 38.057 55.1909 32.3312V29.6636H46.0971V32.8082H51.2624C51.197 35.9762 49.063 37.9814 45.6921 37.9814C41.9398 37.9814 39.368 35.195 39.368 30.1622C39.368 25.1618 41.9834 22.3862 45.6049 22.3862C48.3074 22.3862 50.1563 23.8172 50.8683 26.1716Z" fill="white"/>
<path d="M57.9286 41.2908H61.8897V24.6408H57.9286V41.2908ZM59.9264 21.9948C61.1851 21.9948 62.213 21.039 62.213 19.869C62.213 18.699 61.1851 17.7324 59.9264 17.7324C58.6678 17.7324 57.6289 18.6864 57.6289 19.869C57.6289 21.0516 58.6496 21.9948 59.9192 21.9948H59.9264Z" fill="white"/>
<path d="M73.7521 24.6402H70.4357V20.6406H66.4745V24.6402H64.0898V27.6768H66.4745V36.9396C66.4527 40.0734 68.7521 41.6196 71.727 41.5278C72.5195 41.5122 73.3054 41.3806 74.0591 41.1372L73.3907 38.0664C73.0121 38.1638 72.623 38.2151 72.2319 38.2194C71.2348 38.2194 70.4357 37.872 70.4357 36.288V27.6678H73.7521V24.6402Z" fill="white"/>
<path d="M76.8164 41.2901H90.7468V37.9169H80.8775V19.0781H76.8164V41.2901Z" fill="white"/>
<path d="M98.3347 41.6276C100.972 41.6276 102.546 40.4018 103.269 39.0032H103.4V41.291H107.214V30.1418C107.214 25.739 103.593 24.416 100.385 24.416C96.8508 24.416 94.1374 25.9766 93.262 29.0132L96.9616 29.5352C97.3539 28.3958 98.4709 27.4202 100.412 27.4202C102.252 27.4202 103.258 28.3526 103.258 29.9906V30.0554C103.258 31.1822 102.065 31.238 99.0993 31.5512C95.8392 31.8986 92.7207 32.8634 92.7207 36.6164C92.7098 39.8924 95.1272 41.6276 98.3347 41.6276ZM99.6369 38.7476C97.9841 38.7476 96.8018 37.9988 96.8018 36.557C96.8018 35.0486 98.1258 34.4204 99.8894 34.1702C100.93 34.0298 103.01 33.7688 103.522 33.3584V35.3204C103.533 37.169 102.022 38.7422 99.6369 38.7422V38.7476Z" fill="white"/>
<path d="M110.131 41.2901H114.027V38.6657H114.255C114.88 39.8807 116.182 41.5835 119.072 41.5835C123.033 41.5835 125.999 38.4695 125.999 32.9831C125.999 27.4301 122.946 24.4151 119.061 24.4151C116.095 24.4151 114.858 26.1827 114.255 27.3869H114.088V19.0781H110.131V41.2901ZM114.016 32.9615C114.016 29.7215 115.416 27.6353 117.966 27.6353C120.603 27.6353 121.962 29.8583 121.962 32.9615C121.962 36.0647 120.583 38.3615 117.966 38.3615C115.438 38.3615 114.016 36.1925 114.016 32.9615Z" fill="white"/>
<path d="M27.8188 26.6872L27.7807 26.5864L23.9303 16.6325C23.8524 16.437 23.7137 16.2712 23.5344 16.159C23.4006 16.0742 23.2486 16.0215 23.0905 16.0053C22.9325 15.9892 22.7728 16.0099 22.6243 16.0659C22.4758 16.1219 22.3426 16.2116 22.2354 16.3278C22.1282 16.444 22.05 16.5835 22.0069 16.7351L19.4079 24.6208H8.88296L6.28395 16.7351C6.2406 16.5837 6.16216 16.4445 6.05489 16.3285C5.94763 16.2125 5.8145 16.123 5.66613 16.067C5.51776 16.0111 5.35825 15.9903 5.20032 16.0062C5.04239 16.0222 4.89042 16.0745 4.75651 16.159C4.57718 16.2712 4.43851 16.437 4.36058 16.6325L0.512015 26.5883L0.472058 26.6872C-0.0820224 28.1224 -0.150283 29.6972 0.277566 31.1741C0.705415 32.6511 1.60618 33.9502 2.84404 34.8755L2.85857 34.8862L2.89126 34.9114L8.74856 39.2621L11.6545 41.4383L13.4199 42.7613C13.627 42.9163 13.8795 43.0002 14.1391 43.0002C14.3987 43.0002 14.6512 42.9163 14.8583 42.7613L16.6237 41.4383L19.5296 39.2621L25.4287 34.8862L25.445 34.8737C26.6828 33.9487 27.5837 32.6501 28.0119 31.1735C28.44 29.6969 28.3723 28.1224 27.8188 26.6872Z" fill="#E24329"/>
<path d="M27.8173 26.6867L27.7791 26.5859C25.9032 26.9675 24.1355 27.7555 22.6029 28.8935L14.1484 35.2295L19.5317 39.2615L25.4308 34.8857L25.4471 34.8731C26.6843 33.9477 27.5844 32.6489 28.0119 31.1723C28.4394 29.6957 28.3711 28.1215 27.8173 26.6867Z" fill="#FC6D26"/>
<path d="M8.75 39.2625L11.6559 41.4387L13.4213 42.7617C13.6284 42.9167 13.8809 43.0006 14.1405 43.0006C14.4001 43.0006 14.6526 42.9167 14.8598 42.7617L16.6251 41.4387L19.5311 39.2625L14.1478 35.2305L8.75 39.2625Z" fill="#FCA326"/>
<path d="M5.68642 28.8937C4.15436 27.7562 2.38732 26.9688 0.512015 26.5879L0.472058 26.6869C-0.0820224 28.122 -0.150283 29.6968 0.277566 31.1738C0.705415 32.6507 1.60618 33.9498 2.84404 34.8751L2.85857 34.8859L2.89126 34.9111L8.74856 39.2617L14.1355 35.2297L5.68642 28.8937Z" fill="#FC6D26"/>
</svg>
