<svg width="178" height="60" viewBox="0 0 178 60" fill="none" xmlns="http://www.w3.org/2000/svg">
<path fill-rule="evenodd" clip-rule="evenodd" d="M26.6387 32.8396H39.9584C40.0088 32.1985 48.1823 3.81714 49.0905 1.50541L49.2418 32.8396H56.154V0H42.8343C42.0774 3.18589 39.1006 12.4326 38.1423 15.9875L34.0051 29.9549C33.9042 30.2754 33.8538 30.46 33.7529 30.8873C33.652 31.2369 33.7529 31.0232 33.5511 31.4216C33.2989 32.0626 33.5511 31.5771 33.2989 31.8878V0H26.6389V32.8396H26.6387Z" fill="white"/>
<path fill-rule="evenodd" clip-rule="evenodd" d="M115.639 32.8396H122.299V20.2224H137.536V32.8396H144.448V0H137.536V13.5592H122.299V0H115.639V32.8396Z" fill="white"/>
<path fill-rule="evenodd" clip-rule="evenodd" d="M96.0116 2.81664L101.561 19.2801L90.6633 19.2703L96.0114 2.81639L96.0116 2.81664ZM79.4629 32.8396H86.1229C86.2742 31.5188 87.8381 27.7888 88.2923 25.9337H103.731C104.034 26.4778 105.85 32.2472 105.901 32.8396H112.813L101.814 0.00979445L90.2096 0L79.4629 32.8396Z" fill="white"/>
<path fill-rule="evenodd" clip-rule="evenodd" d="M61.6543 32.8396H68.314V6.66316H83.551V0H61.6543V32.8396Z" fill="white"/>
<path fill-rule="evenodd" clip-rule="evenodd" d="M147.777 6.66341H159.432V32.8398H165.638C166.193 32.8398 166.344 32.665 166.344 32.1211V0.709361C166.344 0.165525 166.193 0.000488281 165.638 0.000488281H147.777V6.66365V6.66341Z" fill="white"/>
<path fill-rule="evenodd" clip-rule="evenodd" d="M6.40753 6.42026H0V32.8396H6.65998V6.66316H22.6031V0H6.40753V6.42026Z" fill="white"/>
<path fill-rule="evenodd" clip-rule="evenodd" d="M171.34 6.66316H178V0H171.34V6.66316Z" fill="white"/>
</svg>
