<svg width="178" height="60" viewBox="0 0 178 60" fill="none" xmlns="http://www.w3.org/2000/svg">
<path fill-rule="evenodd" clip-rule="evenodd" d="M101.624 33.2591C101.383 32.3483 101.43 26.4295 101.567 25.3033C106.281 25.3178 113.898 24.0915 113.91 29.3006C113.921 34.5064 106.018 33.2503 101.624 33.2591H101.624ZM101.608 14.1419C105.228 14.1489 109.641 14.3691 113.165 14.1518C114.151 14.0911 114.514 13.6271 115.149 13.1415L119.728 9.78919C120.083 9.44302 119.754 9.83927 120.069 9.40582L95.2472 9.39453L95.2266 38.0055C100.007 37.9205 105.97 38.3611 110.567 37.9022C122.546 36.7062 121.901 24.5293 115.445 21.6855C111.727 20.0478 105.954 20.5299 101.512 20.539C101.508 18.8152 101.383 15.5756 101.608 14.1419H101.608Z" fill="white"/>
<path fill-rule="evenodd" clip-rule="evenodd" d="M159.991 14.1589C165.394 13.9567 171.639 13.4693 171.684 19.5772C171.731 25.9646 165.507 25.2791 159.911 25.13L159.991 14.1589V14.1589ZM159.946 29.8887C165.308 29.7103 169.489 30.514 173.699 27.857C176.702 25.9616 178.879 22.0151 177.65 16.8955C175.265 6.95747 161.344 9.71619 153.634 9.38121L153.619 37.9987L159.914 37.9848L159.946 29.8887Z" fill="white"/>
<path fill-rule="evenodd" clip-rule="evenodd" d="M132.122 14.162C133.764 14.0858 135.523 14.143 137.178 14.143C138.971 14.143 140.843 14.4106 141.8 13.7468L146.158 10.5842C146.476 10.3583 146.66 10.2309 146.886 10.0468L147.431 9.5229C147.453 9.44204 147.51 9.43726 147.545 9.4061L125.764 9.38525L125.748 38.0123C131.413 37.8815 143.308 38.2804 147.783 37.9384L147.785 33.2625L132.064 33.2401L132.054 25.9111L145.385 25.918L145.45 21.1571L132.108 21.1419L132.122 14.162Z" fill="white"/>
<path fill-rule="evenodd" clip-rule="evenodd" d="M84.7194 15.9449C85.4659 15.5803 88.8702 13.2074 89.2133 12.5291C88.5038 12.2275 87.8836 11.6211 87.0978 11.1439C84.8688 9.79045 81.9204 9.05811 79.217 9.05811C60.3326 9.05811 58.1888 31.5322 72.6787 37.3103C78.4236 39.6012 87.4577 37.9197 89.8717 33.8761C88.4288 33.2644 87.2393 31.7518 85.8199 31.1139C83.4014 32.107 82.4446 33.163 79.0336 33.1563C75.1933 33.1487 72.7319 31.4231 71.1642 29.4649C66.3407 23.4403 70.9198 12.9205 80.5998 14.3503C82.6633 14.6551 83.2248 15.2446 84.7194 15.9449H84.7194Z" fill="white"/>
<path fill-rule="evenodd" clip-rule="evenodd" d="M46.2721 14.1857C45.8315 12.173 44.3033 10.7638 43.5047 9.29492C42.6983 9.65248 39.5563 12.0578 38.5192 12.8083C36.8126 14.0434 35.3669 15.0862 33.7281 16.2738L24.1936 23.1629L14.9863 17.5514L15.0408 24.347L24.1936 30.0392L46.2721 14.1857H46.2721Z" fill="white"/>
<path fill-rule="evenodd" clip-rule="evenodd" d="M31.9259 46.5227C34.5401 46.0117 39.1387 43.0795 40.6934 41.3995C41.0977 40.9625 41.6455 40.412 42.0664 40.0147C42.4561 39.6469 42.4658 39.7324 42.807 39.2965L44.4433 37.0725C48.4794 31.0754 48.6238 26.3609 48.113 19.6611C47.1146 20.1952 46.3062 20.8823 45.4001 21.5254C44.7862 21.9611 43.3159 22.9507 42.8986 23.4298C42.4798 28.5525 41.898 31.3354 39.204 34.7709C34.9462 40.2006 31.5379 40.304 30.6829 41.2969L29.6605 41.5171L25.6731 42.3842L23.2088 42.2626L20.5873 41.952C18.6087 41.5497 17.1288 40.9593 15.488 40.0671C14.3197 39.5895 12.8047 38.4298 11.8356 37.6187C11.4158 37.2672 11.2486 36.9634 10.8428 36.5999C8.85503 34.8194 8.10715 32.7639 7.53711 32.1495L6.59499 30.0019C6.31621 28.6826 5.83538 27.3393 5.68567 25.9095L5.66574 25.4967L5.64543 25.1129L5.69566 21.6352L6.54003 18.1657L7.11012 16.4611L7.74013 15.2599C8.0811 14.7505 8.53404 14.0987 8.79921 13.4935C9.26817 13.088 10.0327 12.0613 10.2196 11.5741C10.845 11.2452 11.3817 10.5057 12.0517 10.0038C12.5243 9.64977 13.7252 8.81085 14.0706 8.39371C15.5971 7.94636 17.6966 5.8421 23.3529 5.51026C24.5922 5.4375 26.0991 5.82826 27.2524 5.59117C27.4663 5.739 27.2571 5.64675 27.6841 5.8065C27.8202 5.8574 28.1321 5.93961 28.2833 5.97507C28.6648 6.06438 28.9608 6.11716 29.3147 6.2124C31.7178 6.8592 32.7725 7.61485 34.7902 8.69988C35.6122 8.04715 38.9231 5.85764 39.3353 5.27197C38.6355 4.47719 36.0383 2.92884 34.8159 2.35967C33.3177 1.66206 30.9836 0.779718 29.1919 0.482563C25.7682 -0.0365284 23.2404 -0.241 19.7023 0.401653C17.5022 0.801236 13.5267 2.0807 12.1182 3.23762C10.2454 3.85721 5.25207 8.25543 5.0381 9.52829C4.40369 9.85463 3.78174 10.9909 3.43171 11.729C2.97534 12.1396 2.91358 12.4282 2.69912 13.0817L1.92504 14.6086L1.24548 16.3301L0.535378 18.8336L0.327239 20.0165L0.168892 21.0284L0.103131 21.7093C0.00924188 22.8308 -0.115381 25.6883 0.215547 26.8779C0.22896 26.9261 0.258149 26.9897 0.270356 27.0278L0.40318 27.3052C0.282755 27.913 0.266399 27.7982 0.463586 28.3944C0.612911 29.4758 0.873397 31.1796 1.52203 31.83C1.51118 32.4627 1.64154 32.6412 1.90304 33.2418C2.167 33.848 2.20985 34.0578 2.62646 34.41C2.70679 35.2947 4.07421 37.2321 4.56769 37.9203C6.34965 40.4053 11.2393 44.9325 13.5085 45.2267C13.6444 45.3613 13.6281 45.356 13.8533 45.5004C14.7377 46.0674 17.9071 47.0076 18.8156 47.174C19.3999 47.3718 20.0249 47.5121 20.727 47.3977C21.1566 47.7087 21.983 47.7202 22.5752 47.7621C25.233 47.9503 25.7208 47.7034 28.1812 47.4753L30.7653 46.9122L31.9259 46.5227Z" fill="white"/>
</svg>
