<svg width="178" height="60" viewBox="0 0 178 60" fill="none" xmlns="http://www.w3.org/2000/svg">
<path fill-rule="evenodd" clip-rule="evenodd" d="M42.3311 22.6262C41.8266 21.9038 41.3221 21.7856 41.1203 20.9985L42.3311 19.651L43.9455 21.1493L42.3311 22.6262ZM28.3554 0.000402215H28.4563L31.9882 3.41762L28.3052 6.97482L31.7864 10.5429L35.3686 6.88874L38.9508 10.5429L35.4695 14.1109L38.9508 17.4742L42.5329 14.014L49.4955 20.9989C49.243 21.8503 48.4358 22.3354 47.8304 22.9283C47.1743 23.575 46.6698 24.071 46.0644 24.7069C45.1563 25.6123 43.441 27.5204 42.4316 28.178L24.6719 10.6507L7.01318 28.0807L0 20.9985V20.8907L7.01318 14.0136L10.646 17.4738L14.0264 14.0136L10.5451 10.4455L13.9757 7.1361C14.682 7.31951 17.1036 9.83095 17.6085 10.5425L21.0898 6.98527L17.7094 3.51416L21.2916 0.043037L24.7729 3.41722L28.355 0L28.3554 0.000402215ZM7.01358 19.651L8.52709 21.0415L7.16473 22.5397L5.65123 21.1493L7.01358 19.651ZM21.292 6.98527L24.7733 3.61149L28.2043 6.88834L24.7733 10.3486L21.292 6.98527Z" fill="white"/>
<path fill-rule="evenodd" clip-rule="evenodd" d="M21.5449 27.1319V32.2842H28.1545V27.5305C28.1545 25.6549 26.5401 23.9624 24.7239 23.9624C23.0588 23.9624 21.5453 25.3959 21.5453 27.1315L21.5449 27.1319Z" fill="white"/>
<path fill-rule="evenodd" clip-rule="evenodd" d="M169.221 22.9812C169.221 21.2782 170.382 20.5989 172.198 20.5989V25.1584C170.685 25.1584 169.221 24.5008 169.221 22.9812ZM174.62 24.9537H173.611V20.5989C174.569 20.5989 175.124 20.6637 175.679 21.1057C177.445 22.4314 176.386 24.9541 174.62 24.9541V24.9537ZM172.198 19.2084C169.827 19.2084 168.212 20.1786 167.809 22.1619C167.556 23.1321 167.859 24.253 168.414 24.9754C169.423 26.3446 170.685 26.3446 172.198 26.3446V28.716H173.611V26.3446C176.537 26.3446 177.748 25.0402 178 23.5958V23.4663V23.3263V23.1864V22.7765V22.647V22.507V22.3775C177.798 21.3426 177.193 20.3942 176.587 20.006C175.78 19.4992 174.922 19.2084 173.611 19.2084V16.438H172.198V19.2084Z" fill="white"/>
<path fill-rule="evenodd" clip-rule="evenodd" d="M127.9 26.3448H129.313V21.3971C129.565 21.6883 129.414 21.4832 129.666 21.85L132.088 26.3452C132.895 25.8171 134.258 22.9388 134.812 21.9148C134.963 21.6775 134.913 21.7531 135.065 21.5375C135.267 21.1819 135.115 21.3975 135.317 21.1928V26.3452H136.68V19.2095C134.157 19.2095 135.014 19.1234 133.753 21.2358C133.4 21.7639 132.643 23.0253 132.492 23.5751C131.684 23.3487 131.936 23.1009 130.927 21.3871C129.616 19.1343 130.322 19.2099 127.9 19.2099V26.3456V26.3448Z" fill="white"/>
<path fill-rule="evenodd" clip-rule="evenodd" d="M98.7875 22.5828V20.5994H101.764V25.159H98.5857C98.5857 24.0271 98.7875 23.7898 98.7875 22.5828ZM97.3749 22.378C97.3749 23.5855 97.1731 23.8224 97.1731 24.9542H96.1641V27.9294H97.5767V26.3447H102.773V27.9294H104.186V24.9542H103.177V19.209H97.3749V22.378Z" fill="white"/>
<path fill-rule="evenodd" clip-rule="evenodd" d="M161.047 23.1753C161.047 19.3486 165.235 20.211 165.235 22.5824C165.235 26.5061 161.047 25.3634 161.047 23.1753ZM159.635 28.7158H161.047V25.5468C161.804 26.0536 162.056 26.5386 163.419 26.5386C168.111 26.5386 167.505 19.2087 163.822 19.2087C161.905 19.2087 162.41 19.3056 161.047 20.2005C160.997 19.1226 161.047 19.2087 159.635 19.2087V28.7158Z" fill="white"/>
<path fill-rule="evenodd" clip-rule="evenodd" d="M72.856 22.9814C72.856 19.6289 77.0435 20.0927 77.0435 22.3776C77.0435 26.7541 72.856 25.2881 72.856 22.9814ZM71.4434 28.7161H72.856V25.5471C73.5623 26.0213 74.0668 26.539 75.2273 26.539C79.3646 26.539 80.323 19.209 74.8237 19.209C73.9156 19.209 73.4111 19.8236 72.856 20.2008V19.209H71.4434V28.7161Z" fill="white"/>
<path fill-rule="evenodd" clip-rule="evenodd" d="M108.578 25.1588C105.35 25.1588 105.904 20.5993 108.175 20.5993C109.436 20.5993 110.546 21.0953 110.546 22.7765C110.546 23.9301 109.739 25.1588 108.578 25.1588ZM104.744 22.5827C104.744 25.2775 106.813 28.0371 110.546 25.547V26.3446H111.959V19.8122C111.959 19.0794 111.505 19.2085 110.546 19.2085V20.2003C109.386 19.4241 109.688 19.2085 107.973 19.2085C106.157 19.2085 104.744 20.8037 104.744 22.5823V22.5827Z" fill="white"/>
<path fill-rule="evenodd" clip-rule="evenodd" d="M139.708 22.777C139.708 19.8127 143.895 19.9961 143.895 22.378C143.895 23.8332 143.845 25.1589 141.675 25.1589C140.464 25.1589 139.708 23.9302 139.708 22.7766V22.777ZM138.295 22.1841V23.5746C138.295 24.9112 139.758 26.5389 141.473 26.5389C142.836 26.5389 143.139 26.0539 143.895 25.5471V26.3447H145.459V19.8123C145.459 19.0794 145.056 19.2085 144.097 19.2085V20.2004C143.239 19.7584 141.12 18.2279 139.304 20.0387C138.951 20.4269 138.295 21.4831 138.295 22.1837V22.1841Z" fill="white"/>
<path fill-rule="evenodd" clip-rule="evenodd" d="M63.6742 22.7767C63.6742 20.0171 67.8617 19.446 67.8617 23.1757C67.8617 25.6658 63.6742 26.1075 63.6742 22.7767ZM65.4401 26.5386C66.8025 26.5386 67.1052 26.0536 67.8617 25.5468V26.3444H69.2241V19.2087C67.8617 19.2087 67.8617 19.1226 67.8617 20.2005C66.4994 19.3056 66.9536 19.2087 65.0365 19.2087C61.3535 19.2087 60.8992 26.5386 65.4401 26.5386Z" fill="white"/>
<path fill-rule="evenodd" clip-rule="evenodd" d="M82.9975 20.4056C84.2083 20.4056 85.1165 20.9984 85.2174 22.1842H81.2316C81.3325 20.8798 82.493 20.4056 82.9975 20.4056ZM79.6172 22.5832C79.6172 27.7894 85.8734 27.38 86.6304 24.1675C83.6034 24.1675 85.8734 25.1594 82.9975 25.1594C81.5343 25.1594 81.2316 23.8011 81.0298 23.3699H86.7815C86.7815 20.772 86.0246 19.209 82.9975 19.209C81.1813 19.209 79.6172 20.772 79.6172 22.5828V22.5832Z" fill="white"/>
<path fill-rule="evenodd" clip-rule="evenodd" d="M121.341 21.7849C121.341 20.308 121.795 20.5992 124.318 20.5992C124.318 22.7872 124.519 22.5825 122.905 22.5825C122.199 22.5825 121.341 22.4856 121.341 21.7849ZM119.727 21.3968C119.727 22.5716 119.979 23.2614 121.341 23.5744L119.121 26.3448H120.937C121.19 25.8919 122.703 23.7686 123.309 23.7686H124.318V26.3448H125.73V19.8125C125.73 18.9284 124.772 19.2087 122.703 19.2087C121.089 19.2087 119.727 19.8446 119.727 21.3968Z" fill="white"/>
<path fill-rule="evenodd" clip-rule="evenodd" d="M146.467 25.1593V26.345C147.98 26.744 148.989 26.1077 149.343 24.6525C149.494 24.1674 149.645 21.1814 149.645 20.5994H152.471V26.3446H153.833V19.2089C146.972 19.2089 148.031 18.3357 148.082 22.5827C148.082 24.2318 148.132 25.1158 146.467 25.1589L146.467 25.1593Z" fill="white"/>
<path fill-rule="evenodd" clip-rule="evenodd" d="M6.96289 38.0297H12.1595V33.082H6.96289V38.0297Z" fill="white"/>
<path fill-rule="evenodd" clip-rule="evenodd" d="M37.3379 38.0297H42.4842V33.082H37.3379V38.0297Z" fill="white"/>
<path fill-rule="evenodd" clip-rule="evenodd" d="M88.3965 26.3451H89.8091V23.5746H93.3913V26.3451H94.8039V19.209H93.3913V22.1842H89.8091V19.209H88.3965V26.3451Z" fill="white"/>
<path fill-rule="evenodd" clip-rule="evenodd" d="M113.926 22.7766H118.114V21.397H113.926V22.7766Z" fill="white"/>
<path fill-rule="evenodd" clip-rule="evenodd" d="M155.852 26.3445H157.668V24.7598H155.852V26.3445Z" fill="white"/>
</svg>
