<svg width="178" height="60" viewBox="0 0 178 60" fill="none" xmlns="http://www.w3.org/2000/svg">
<path d="M31.4186 0.564262C31.2055 0.848371 28.0566 7.3592 28.0566 7.52493C28.0566 7.57228 28.7432 7.61963 29.5956 7.61963H31.1345L32.0105 6.24644C32.484 5.51249 33.5021 3.94989 34.2597 2.81346C35.0173 1.65335 35.6329 0.611614 35.6329 0.493235C35.6329 0.161775 31.7027 0.232802 31.4186 0.564262Z" fill="white"/>
<path d="M5.56381 15.0993C4.97191 15.3123 4.16694 15.7385 3.74077 16.0463L2.98315 16.6145L2.91212 15.8569L2.84109 15.0756H1.42055H0V24.6643V34.2529H1.53893H3.07785L3.14888 31.1041C3.17255 29.3521 3.29093 27.9789 3.38564 28.0262C5.68219 29.21 6.43981 29.4468 7.78933 29.4468C13.4242 29.4468 16.6204 22.8176 13.3768 17.7273C11.7905 15.2413 8.45225 14.1049 5.56381 15.0993ZM8.80739 17.9167C9.99118 18.4139 10.512 18.9111 11.0329 20.0475C12.0746 22.3204 11.1986 25.1141 9.06782 26.2269C8.04976 26.7477 6.01365 26.653 5.09029 26.0138C3.66974 25.0667 3.31461 24.3565 3.24358 22.344C3.14888 20.0475 3.7171 18.9111 5.32705 18.0824C6.55819 17.4668 7.59992 17.4195 8.80739 17.9167Z" fill="white"/>
<path d="M26.9184 15.0534C25.6636 15.4796 24.1957 16.4739 23.6512 17.2552C23.2723 17.8471 23.296 17.8708 24.101 18.6758L24.906 19.5044L26.0187 18.6521C27.3446 17.6341 27.9365 17.4683 29.4044 17.6341C30.8959 17.7998 31.6299 18.5811 31.7956 20.12L31.8903 21.3038L28.8598 21.3985C26.1371 21.4695 25.6873 21.5405 24.7876 22.0614C23.4381 22.819 22.8225 23.8608 22.7988 25.3287C22.7988 27.9093 24.5982 29.4246 27.6997 29.4482C29.1676 29.4482 31.109 28.8327 31.4642 28.2408C31.7246 27.8146 32.0324 27.933 32.1271 28.5012C32.1981 28.9747 32.3638 29.0458 33.5713 29.1168L34.9445 29.1878L34.8735 23.7661L34.8024 18.3443L34.0922 17.2079C32.8137 15.1244 29.6411 14.1774 26.9184 15.0534ZM31.843 24.3106C31.843 24.9735 30.8486 26.2047 29.9252 26.6782C29.5701 26.8676 28.7651 27.0333 28.1732 27.0333C26.3975 27.0333 25.3558 25.5417 26.2555 24.2869C26.5396 23.9318 26.9658 23.8134 28.5757 23.7187C31.3221 23.553 31.843 23.6477 31.843 24.3106Z" fill="white"/>
<path d="M88.6197 15.1223C87.4123 15.5721 85.3525 17.1584 85.3525 17.6556C85.3525 17.7976 85.7313 18.2948 86.1575 18.7446L86.9861 19.5259L87.8621 18.7683C88.9275 17.8213 89.5904 17.5609 90.8689 17.5609C92.3132 17.5609 93.3075 18.2711 93.639 19.4549C94.1125 21.2069 94.1125 21.2069 90.7979 21.349C88.2172 21.4674 87.6964 21.5621 86.773 22.0592C85.3051 22.8642 84.5238 24.4268 84.7606 26.0368C84.9973 27.5757 86.4179 28.9726 88.1462 29.3277C89.7562 29.6355 91.8396 29.304 92.9761 28.5701C94.0652 27.8361 94.1125 27.8361 94.1125 28.5701C94.1125 29.1383 94.1835 29.162 95.5567 29.162H97.001L96.9063 23.8823C96.8352 18.2711 96.7405 17.845 95.4384 16.4244C94.0652 14.9092 90.8453 14.2936 88.6197 15.1223ZM93.3786 23.6929C93.8521 23.7165 93.8994 23.7876 93.7574 24.3558C93.3786 25.9657 92.029 27.0311 90.3954 27.0311C89.0696 27.0311 88.2883 26.6523 87.9331 25.8237C87.7201 25.2555 87.7201 25.0424 88.0515 24.5452C88.2646 24.2374 88.6671 23.906 88.9749 23.8349C89.5668 23.6929 91.6266 23.5745 92.3368 23.6455C92.5973 23.6692 93.0708 23.6929 93.3786 23.6929Z" fill="white"/>
<path d="M44.7966 15.1012C44.7019 15.1959 44.6309 17.3267 44.6309 19.8364C44.6309 25.3291 44.8913 26.3946 46.6907 27.9808C47.9455 29.0936 48.9162 29.4014 51.0233 29.4014C53.4382 29.3777 55.3323 28.2413 56.374 26.1341C56.7765 25.3528 56.8239 24.6425 56.8239 20.1678V15.0776H55.4033H53.9828L53.8644 19.9311C53.7697 23.5535 53.6513 24.903 53.4146 25.2818C52.87 26.0868 51.8756 26.5603 50.6919 26.5603C49.7685 26.5603 49.4607 26.4182 48.7031 25.7553L47.8271 24.9503L47.7087 20.0021L47.5903 15.0776L46.2882 15.0065C45.5542 14.9592 44.8913 15.0065 44.7966 15.1012Z" fill="white"/>
<path d="M66.0317 15.2886C65.9607 15.4544 65.937 16.0699 65.9843 16.6381L66.0554 17.6799L69.2042 17.7509C70.9089 17.7746 72.3294 17.8693 72.3294 17.9403C72.3294 18.0113 70.7668 20.3316 68.8491 23.0779C66.955 25.848 65.3688 28.3103 65.3688 28.5707C65.3451 29.0205 65.5108 29.0442 71.3351 29.1152L77.3014 29.1626V27.8604V26.5583H73.75C71.3824 26.5583 70.1986 26.4636 70.1986 26.2978C70.1986 26.1558 71.7376 23.8356 73.6316 21.1365C75.502 18.4138 77.1356 16.0226 77.2067 15.7858C77.3014 15.5491 77.2303 15.2886 77.0409 15.1702C76.8515 15.0519 74.3419 14.9572 71.4298 14.9572C67.1445 14.9572 66.1264 15.0282 66.0317 15.2886Z" fill="white"/>
<path d="M9.04464 39.7221C8.94993 39.8168 8.87891 41.6398 8.87891 43.7469V47.6297L9.77859 47.6061C10.2521 47.6061 10.986 47.6534 11.3885 47.7481C13.0222 48.1033 14.4901 46.5407 14.2533 44.694C14.0639 43.3208 13.0222 42.4211 11.6016 42.4211C11.0334 42.4211 10.4889 42.5158 10.4178 42.6578C10.0627 43.2261 9.84961 42.7762 9.77859 41.3083C9.70756 39.8641 9.44712 39.3196 9.04464 39.7221ZM12.7854 43.7232C13.5194 44.4335 13.543 45.4516 12.8801 46.3039C11.8621 47.6061 9.82594 46.7301 9.82594 44.9781C9.82594 44.1257 10.773 43.1314 11.6016 43.1314C11.9331 43.1314 12.4776 43.3918 12.7854 43.7232Z" fill="white"/>
<path d="M49.5996 43.5827V47.6076L50.3809 47.6313C50.7834 47.6313 51.6594 47.6786 52.2986 47.7023C53.3167 47.726 53.5061 47.655 54.1217 46.9684C54.974 46.0213 55.045 44.6008 54.3348 43.4407C53.7192 42.4226 52.6064 42.1859 50.7834 42.6831C50.4993 42.7541 50.4046 42.47 50.3572 41.1678C50.3099 39.9604 50.2152 39.5815 49.9547 39.5815C49.647 39.5815 49.5996 40.2445 49.5996 43.5827ZM53.2457 43.6301C53.7192 44.0089 53.8612 44.3167 53.8612 45.0506C53.8612 46.2107 53.222 46.921 52.1329 46.921C49.789 46.921 49.9074 43.2513 52.2276 43.1566C52.4407 43.1329 52.8905 43.346 53.2457 43.6301Z" fill="white"/>
<path d="M36.9583 41.2154C36.8636 41.3338 36.8873 41.5942 36.9583 41.7836C37.0294 42.0204 36.8873 42.2571 36.6032 42.4229C35.9876 42.7307 35.9639 43.0621 36.5322 43.2279C36.911 43.3462 36.982 43.654 37.0057 45.1929C37.0057 46.8029 37.0767 47.087 37.5502 47.4658C38.1895 47.9867 39.539 47.9393 39.539 47.3948C39.539 47.1817 39.2786 47.016 38.8761 46.9686C38.0237 46.8739 37.716 46.2347 37.8107 44.7431C37.8817 43.583 37.929 43.4883 38.663 43.2752C39.0655 43.1568 39.4206 42.9201 39.4206 42.7543C39.4206 42.5886 39.0891 42.4229 38.663 42.3755C38.0001 42.3282 37.858 42.1861 37.8107 41.6416C37.7396 41.026 37.2188 40.7656 36.9583 41.2154Z" fill="white"/>
<path d="M85.7534 41.1684C85.6587 41.2394 85.5877 41.5472 85.5877 41.855C85.5877 42.1627 85.3982 42.4232 85.1141 42.4942C84.8537 42.5652 84.6406 42.731 84.6406 42.8493C84.6406 42.9914 84.8537 43.1808 85.1141 43.2518C85.5166 43.3939 85.5877 43.607 85.5877 45.0512C85.5877 46.4954 85.6587 46.7795 86.1796 47.3004C86.582 47.7029 86.9845 47.8686 87.4344 47.8212C88.3104 47.7265 88.263 47.0873 87.3633 46.9216C86.6531 46.8032 86.6531 46.7795 86.582 45.0749C86.5347 44.1515 86.6057 43.3702 86.7004 43.3465C88.1446 43.2045 88.334 43.1098 88.0736 42.6836C88.0026 42.5416 87.6238 42.4232 87.2213 42.4232C86.6057 42.4232 86.5347 42.3521 86.5347 41.7129C86.5347 41.05 86.1322 40.7659 85.7534 41.1684Z" fill="white"/>
<path d="M0.875118 42.8C0.354251 43.1551 0.164845 43.8417 0.567333 43.8417C0.685712 43.8417 1.11188 43.6523 1.49069 43.4392C2.43772 42.8947 3.4321 43.2972 3.4321 44.1969C3.4321 44.7414 3.3374 44.7887 2.43772 44.7887C0.591009 44.7887 -0.379698 45.7595 0.212197 46.9432C0.591009 47.7482 1.58539 48.0323 2.62713 47.6535C3.21902 47.4404 3.55048 47.4168 3.76356 47.6062C4.26075 48.0323 4.37913 47.6535 4.37913 45.57C4.37913 43.7707 4.33178 43.5339 3.78724 43.0131C3.10064 42.3265 1.70377 42.2081 0.875118 42.8ZM3.3374 45.8542C3.57416 46.4461 2.95859 46.9196 1.98788 46.9196C1.15923 46.9196 1.06452 46.8485 1.06452 46.3513C1.06452 45.6884 1.32496 45.5464 2.43772 45.5227C2.91123 45.499 3.26637 45.6411 3.3374 45.8542Z" fill="white"/>
<path d="M19.0592 43.083C17.686 44.4562 17.9938 46.4449 19.7221 47.463C21.3557 48.4337 23.5576 47.1552 23.5576 45.2611C23.5576 43.4144 22.5395 42.4201 20.6928 42.4201C19.9589 42.4201 19.5801 42.5858 19.0592 43.083ZM22.0423 43.6985C22.8947 44.4088 22.942 45.853 22.137 46.4923C21.3321 47.1315 20.1483 47.0368 19.5564 46.3029C18.7277 45.2611 18.9645 44.0774 20.1246 43.4144C20.8349 43.0119 21.3321 43.083 22.0423 43.6985Z" fill="white"/>
<path d="M27.9841 42.5623C27.8894 42.657 27.8184 43.5803 27.8184 44.5984C27.8184 46.2557 27.8894 46.5398 28.3866 47.037C29.1442 47.7946 30.0202 47.984 30.9199 47.6289C31.8906 47.2027 32.08 46.7529 32.151 44.5037C32.1984 42.799 32.151 42.5386 31.7959 42.4676C31.4171 42.3965 31.3697 42.6096 31.3697 44.2669C31.3697 46.3267 31.0383 46.9186 29.9018 46.9186C29.0021 46.9186 28.7891 46.4924 28.718 44.4326C28.647 42.728 28.4103 42.1361 27.9841 42.5623Z" fill="white"/>
<path d="M60.1145 42.6806C58.8834 43.2962 58.4336 45.4743 59.3096 46.6818C60.1856 47.8892 62.0086 48.1733 63.1924 47.2737C63.8316 46.8002 63.3818 46.2793 62.6715 46.6581C61.8902 47.0606 60.7775 46.9659 60.2329 46.4213C59.4279 45.6164 59.7594 45.3796 61.8192 45.3796H63.6896L63.7606 44.5983C63.879 43.4856 62.7662 42.4201 61.5114 42.4438C61.0142 42.4438 60.3986 42.5622 60.1145 42.6806ZM62.3401 43.5092C63.3344 44.1958 63.003 44.551 61.322 44.551C60.4697 44.551 59.7831 44.4799 59.7831 44.3852C59.7831 44.2905 60.0198 43.9827 60.3039 43.675C60.8958 43.0357 61.5824 42.9884 62.3401 43.5092Z" fill="white"/>
<path d="M68.6621 42.7071C67.5257 43.3463 67.8098 44.1039 68.9699 43.512C69.9169 43.0148 70.2721 43.0385 70.7456 43.5594C71.5032 44.388 71.2664 44.7905 69.9879 44.7905C67.8808 44.7905 66.8627 46.3058 68.2359 47.3948C68.7568 47.7973 69.0883 47.8684 69.7275 47.75C70.1773 47.679 70.9113 47.6079 71.3611 47.6316H72.1424L72.0477 45.4771C71.953 43.5594 71.882 43.2516 71.4085 42.8728C70.7929 42.3756 69.396 42.2809 68.6621 42.7071ZM71.0297 45.7375C71.2428 46.069 70.7219 46.6846 70.0116 46.945C68.8752 47.3712 67.9518 46.1874 69.0883 45.7375C69.8222 45.4534 70.8639 45.4534 71.0297 45.7375Z" fill="white"/>
<path d="M76.5898 44.5303C76.5898 46.59 76.6135 46.6611 77.3238 47.253C78.3182 48.0816 79.2652 48.0579 80.1649 47.1583C80.8515 46.4953 80.8752 46.4006 80.8041 44.5066C80.7568 42.944 80.6621 42.5415 80.378 42.5415C80.0939 42.5415 79.9992 42.944 79.9518 44.4355C79.8808 46.519 79.6677 46.9215 78.697 46.9215C77.6789 46.9215 77.3001 46.1639 77.3001 44.1514C77.3001 42.7782 77.2291 42.4231 76.945 42.4231C76.6609 42.4231 76.5898 42.8256 76.5898 44.5303Z" fill="white"/>
<path d="M91.9079 42.5874C91.8369 42.7057 92.263 43.8895 92.8549 45.2154C93.8256 47.5119 93.873 47.7013 93.5415 48.2222C93.3284 48.53 92.8786 48.8141 92.5235 48.8614C91.6711 48.9561 91.6475 49.6191 92.4761 49.7138C93.5178 49.8321 94.2281 48.9088 95.625 45.6889C96.3116 44.0316 96.8325 42.6347 96.7614 42.5637C96.3589 42.1612 95.9801 42.611 95.2699 44.3157C94.82 45.3574 94.3939 46.2098 94.3228 46.2098C94.2518 46.2098 93.873 45.4285 93.5178 44.4814C92.9023 42.8952 92.5945 42.4453 92.1683 42.4216C92.0736 42.4216 91.9552 42.4927 91.9079 42.5874Z" fill="white"/>
</svg>
