<svg width="178" height="60" viewBox="0 0 178 60" fill="none" xmlns="http://www.w3.org/2000/svg">
<path fill-rule="evenodd" clip-rule="evenodd" d="M135.018 37.8335H140.08V12.0801C140.131 12.1352 140.232 12.1463 140.232 12.2568L142.46 16.0542C143.27 17.5444 144.131 18.8249 144.89 20.2378C143.776 22.3022 142.966 23.0746 142.966 26.2097C142.966 29.0689 143.827 32.2591 144.89 34.0583C148.839 40.9024 157.597 39.4011 157.597 33.12C157.597 25.746 156.635 20.2709 156.635 13.6477V0.765422H151.218C151.218 9.87251 151.016 20.2709 152.281 29.2675C152.585 31.3319 152.838 31.6079 151.876 33.4291C149.244 32.0493 148.079 29.0358 148.079 25.8895C148.079 20.5026 153.091 23.4941 147.776 14.8397C146.814 13.1948 146.055 11.6937 145.042 10.0046C138.714 -0.438019 141.751 0.765095 135.018 0.765095V37.8335Z" fill="white"/>
<path fill-rule="evenodd" clip-rule="evenodd" d="M61.1563 23.0633C61.1058 23.0083 61.0044 22.8424 61.0044 22.8867L55.1825 11.9915C54.6762 10.9647 54.7776 10.1591 54.5244 9.17655C54.1699 7.6752 53.1576 5.56689 52.3982 4.35263C49.057 -1.1225 45.361 -0.681043 44.4501 1.59278C43.3869 4.28643 46.7281 8.00621 48.3989 11.1305C44.9564 13.4266 42.4757 13.8792 44.7032 18.2505C46.7281 22.2686 46.1713 32.7997 46.1713 37.8333H51.5882C51.5882 32.1042 52.4995 22.07 49.6643 16.7823L50.9301 16.1422C52.9045 17.5662 59.9413 34.4114 61.7639 37.8333H66.8771V0.764922C59.5872 0.764922 61.1563 -0.879978 61.1563 8.9337C61.1563 13.6472 61.1563 18.361 61.1563 23.0633Z" fill="white"/>
<path fill-rule="evenodd" clip-rule="evenodd" d="M70.6729 18.9902C70.6729 26.6179 71.331 38.4626 81.5067 38.4626C85.6073 38.4626 87.1767 38.3964 90.4169 36.2546C90.4169 34.069 90.0624 27.3904 90.8219 25.6685C94.2139 18.2836 88.493 19.9282 80.8994 19.9282V24.9507H85.6581C83.0761 29.7304 86.7212 34.0578 83.1269 34.0578C76.0393 34.0578 77.0519 21.4184 77.0519 16.4729C77.0519 13.5144 77.2037 4.84914 81.2033 4.84914C85.1522 4.84914 84.6967 9.94901 84.6967 13.0179C86.5192 13.0179 89 12.4329 90.7717 12.3887C90.7717 -2.1162 79.3811 -1.1448 75.5333 2.10043C71.5845 5.4561 70.6729 13.5921 70.6729 18.9902Z" fill="white"/>
<path fill-rule="evenodd" clip-rule="evenodd" d="M21.0093 25.5806C21.0093 31.2215 22.68 38.4628 29.3119 38.4628H32.8052C38.0198 38.4628 40.4497 32.524 40.4497 27.1481V0.765503H35.0328C35.0328 6.25178 35.5896 27.6669 34.3746 31.4975C33.0584 35.4385 27.0847 35.4385 27.0847 26.8391V0.765503H21.0096L21.0093 25.5806Z" fill="white"/>
<path fill-rule="evenodd" clip-rule="evenodd" d="M162.053 10.5015C162.053 14.3871 159.724 19.1448 162.711 19.9285C162.255 21.7939 161.496 21.0765 161.749 25.2712L162.053 37.8332H178V33.1198H167.774C167.774 29.9296 167.419 24.6973 168.128 21.8162C171.925 20.933 176.734 21.4629 176.734 17.4118C176.734 13.0516 170.001 15.2373 167.166 17.1027C167.166 13.9457 167.773 10.5458 167.773 5.47898H177.342V0.765503H162.053L162.053 10.5015Z" fill="white"/>
<path fill-rule="evenodd" clip-rule="evenodd" d="M1.92357 13.0182C1.92357 14.5857 2.63221 15.7446 3.18935 16.7825C0.404981 17.4229 0 18.7365 0 20.8668C0 23.8472 3.84748 23.2179 3.84748 28.4063V37.8336H9.87202C9.87202 34.4006 10.2265 26.9053 9.21389 24.035C8.55575 22.1253 7.39131 21.8713 7.03683 20.5577C11.9983 19.4097 17.2125 21.3525 17.2125 15.8442C17.2125 14.5307 15.1876 13.5262 13.4664 13.6697C11.7956 13.8133 9.7707 14.4645 8.3026 14.5861C7.79629 12.3893 8.3026 6.83678 7.64447 5.47898L16.3015 5.51208C18.8836 5.52322 18.4786 5.89848 18.4786 0.765503H1.92391L1.92357 13.0182Z" fill="white"/>
<path fill-rule="evenodd" clip-rule="evenodd" d="M105.707 23.3837C105.707 24.5429 105.96 25.8011 106.365 26.5296C106.872 27.5564 107.327 27.777 108.897 27.777C108.289 30.1173 105.403 29.8633 105.403 35.3165C105.403 36.8398 106.416 37.8332 107.935 37.8332H121.654V33.1197H111.124C111.63 32.38 111.985 32.1263 112.643 31.4748C114.212 29.9403 119.224 24.3548 115.427 22.8977C114.364 22.4893 112.44 22.7322 111.782 23.0632V0.764771H105.707L105.707 23.3837Z" fill="white"/>
<path fill-rule="evenodd" clip-rule="evenodd" d="M124.184 37.8332H130.209V0.764771H124.184V37.8332Z" fill="white"/>
<path fill-rule="evenodd" clip-rule="evenodd" d="M94.8721 37.8332H100.643V0.764771H94.8721V37.8332Z" fill="white"/>
</svg>
