<svg width="178" height="60" viewBox="0 0 178 60" fill="none" xmlns="http://www.w3.org/2000/svg">
<path fill-rule="evenodd" clip-rule="evenodd" d="M4.81646 18.3087L8.43204 18.3059C8.55018 20.1509 9.13321 21.2961 10.0674 22.2317C12.2573 24.4251 15.8002 24.4231 17.9397 22.2536C19.0228 21.1551 19.4258 20.2152 19.6219 18.3253L23.2285 18.3058C23.313 23.3559 19.0595 27.466 14.0771 27.5049C9.07897 27.5439 4.70043 23.4004 4.81645 18.3087H4.81646ZM19.227 13.6352C18.9193 12.323 19.929 11.1976 20.9202 10.9791C22.2647 10.6827 23.378 11.6283 23.5824 12.6285C24.2043 15.6717 19.8721 16.3858 19.227 13.6352H19.227ZM4.42162 13.4653C4.07561 10.4502 8.44153 10.076 8.81489 12.7894C9.0029 14.1558 8.06124 15.2049 6.94335 15.3471C5.64141 15.5127 4.55236 14.6045 4.42162 13.4653ZM4.40667 5.10489L23.6346 5.11361L23.6269 8.72602L15.821 8.76401L15.8149 20.1205L12.1998 20.1151L12.1825 8.72843L4.40066 8.70496L4.40668 5.10491L4.40667 5.10489ZM0 16.0851C0.74641 16.3636 1.98547 16.6647 1.9836 18.306C1.98282 18.9938 1.73034 19.4473 1.38852 19.8016C0.822705 20.3882 0.715859 20.2294 0.0028167 20.5251L0.000314715 31.3538L28.0015 31.3824L28.0237 20.6846C27.9511 20.3789 27.7909 20.5648 27.2294 20.359C26.954 20.258 26.7317 20.1101 26.5447 19.9381C25.2554 18.753 25.6243 16.3594 28.0018 16.0862L28.022 0.368386L0.00897725 0.361328L0 16.0851Z" fill="white"/>
<path fill-rule="evenodd" clip-rule="evenodd" d="M59.5216 3.88996C62.1413 3.89471 65.3942 3.47866 65.2217 6.67442C65.0631 9.61443 62.2331 9.37491 59.4957 9.38129L59.5216 3.88997V3.88996ZM55.0449 19.9024L59.4931 19.9405L59.5022 12.9106L61.7833 12.9114C62.3496 13.6845 64.9462 19.0315 65.5469 19.9083L70.4816 19.9442C70.3394 19.4841 69.6957 18.4645 69.4271 17.9937C69.0194 17.2786 66.2274 12.4602 66.1652 12.1071C67.0061 11.5549 67.3927 11.531 68.2274 10.5418C70.223 8.17672 69.9344 3.95612 68 2.18034C66.6827 0.971065 64.8216 0.43173 62.4854 0.361328L55.0808 0.369755L55.0449 19.9023V19.9024Z" fill="white"/>
<path fill-rule="evenodd" clip-rule="evenodd" d="M126.979 19.942C127.663 19.9676 130.995 20.0618 131.327 19.9005C131.403 19.8416 131.416 19.8761 131.435 19.5027C131.53 17.6643 131.261 13.1791 131.459 11.7891L136.699 11.7861L136.727 19.926C137.353 19.9721 140.745 20.01 141.176 19.8869L141.181 0.415759C140.743 0.298535 137.308 0.320565 136.73 0.383618L136.727 7.87856L131.429 7.8938L131.424 0.36826L127.015 0.35538L126.979 19.942V19.942Z" fill="white"/>
<path fill-rule="evenodd" clip-rule="evenodd" d="M151.492 3.91842C153.066 3.51749 154.111 4.58788 154.586 5.53556C155.148 6.65619 155.358 8.04698 155.418 9.47392C155.744 17.3163 151.216 17.8303 149.625 14.7424C148.337 12.2447 148.128 4.77535 151.492 3.91842ZM151.032 0.0733894C145.899 0.75544 143.954 5.51078 144.257 11.2598C144.534 16.5141 147.466 21.0193 153.247 20.234C158.271 19.5516 160.241 14.6734 159.958 9.07019C159.813 6.19104 159.041 4.09712 157.648 2.38941C156.394 0.853041 153.884 -0.305654 151.032 0.0733894Z" fill="white"/>
<path fill-rule="evenodd" clip-rule="evenodd" d="M111.155 14.4716C110.805 14.6445 110.151 15.5533 109.856 15.902L108.59 17.457C109.05 18.2608 111.619 19.4693 112.709 19.8059C116.079 20.8462 120.443 20.3717 122.552 17.4735C123.524 16.1369 123.952 14.0921 123.257 12.2328C121.58 7.74646 113.439 8.31021 113.848 5.31083C114.129 3.25097 117.794 3.6538 119.745 4.70394C120.156 4.92556 120.409 5.23168 120.868 5.33397C121.183 4.71557 122.857 3.00413 122.979 2.47608C121.525 1.50289 121.096 0.834623 118.746 0.268253C115.355 -0.549322 111.199 0.46591 109.74 3.81048C108.968 5.58094 109.373 7.73816 110.357 8.99734C112.339 11.5333 117.716 12.4036 118.681 13.6682C119.266 14.4351 119.122 15.3938 118.454 15.9235C117.83 16.4183 116.681 16.5235 115.738 16.4431C113.668 16.2666 112.419 15.346 111.155 14.4716Z" fill="white"/>
<path fill-rule="evenodd" clip-rule="evenodd" d="M167.818 3.89083C170.649 3.89901 173.723 3.47683 173.615 6.84157C173.513 9.98021 170.658 9.83448 167.793 9.78055L167.818 3.89083ZM163.355 19.94L167.785 19.9399L167.794 13.3205C171.309 13.1834 173.116 13.577 175.671 11.7327C177.383 10.4974 178.488 7.82657 177.785 4.8465C176.679 0.157564 171.767 0.360445 168.145 0.360445C166.553 0.360445 164.956 0.349201 163.364 0.364418L163.355 19.94V19.94Z" fill="white"/>
<path fill-rule="evenodd" clip-rule="evenodd" d="M95.7148 3.89246C98.5551 3.86677 101.625 3.49685 101.516 6.84262C101.412 10.032 98.5648 9.78656 95.6885 9.78439L95.7149 3.89246H95.7148ZM91.2559 19.9353L95.6806 19.9403L95.693 13.3202C99.0082 13.2494 101.258 13.4549 103.571 11.7412C105.314 10.4489 106.368 7.88899 105.688 4.84038C104.645 0.165599 99.5749 0.359763 96.0369 0.359763C94.4569 0.359763 92.8379 0.325404 91.2627 0.368048L91.2559 19.9353H91.2559Z" fill="white"/>
<path fill-rule="evenodd" clip-rule="evenodd" d="M73.2133 4.08439L77.7318 4.08362C77.861 4.56501 77.7982 14.8711 77.7789 16.2022L73.2346 16.221L73.207 19.9243L86.7936 19.9424L86.8073 16.2311C81.227 16.0618 82.2302 17.3282 82.2302 13.2107L82.2273 4.79864C82.2163 3.57469 82.1394 4.19678 86.8049 4.07676L86.8062 0.358398L73.2234 0.361026L73.2133 4.0844L73.2133 4.08439Z" fill="white"/>
<path fill-rule="evenodd" clip-rule="evenodd" d="M35.8691 4.07548C37.6888 4.12502 39.5383 4.03313 41.3505 4.0723C41.9195 4.0846 41.7413 4.34298 41.7372 4.97067C41.7055 9.77331 41.6389 15.3136 41.7448 19.9386L46.1805 19.9399L46.1875 4.10937L52.0114 4.08289L52.0553 0.369367L35.8775 0.359375L35.8691 4.07548Z" fill="white"/>
<path fill-rule="evenodd" clip-rule="evenodd" d="M130.543 30.2676C130.758 29.6932 130.904 29.3357 131 28.6489C131.076 28.1083 131.105 27.2486 131.249 26.7549L132.717 26.7602L132.721 30.2975L130.543 30.2676H130.543ZM130.113 31.382L133.637 31.4108L133.642 33.369L134.767 33.3393C134.911 32.8672 134.967 30.8737 134.912 30.3071L134.057 30.2988L134.056 25.7137C133.576 25.6363 130.552 25.6272 130.137 25.7306C130.049 26.5983 129.829 28.8828 129.569 29.6649C129.348 30.3339 129.298 30.1351 128.793 30.3679L128.948 33.3522L130.105 33.3544L130.113 31.382V31.382Z" fill="white"/>
<path fill-rule="evenodd" clip-rule="evenodd" d="M154.611 30.2989C154.827 29.6615 154.979 29.3389 155.079 28.591C155.15 28.0674 155.146 27.2569 155.32 26.7593L156.79 26.7638L156.793 30.2977L154.611 30.2989ZM154.201 31.3823L157.706 31.3924L157.713 33.3643L158.874 33.3491C158.911 32.4218 159.084 31.1851 158.976 30.3015L158.126 30.2803L158.119 25.6846L154.209 25.685C154.137 26.5677 154.012 27.5622 153.888 28.4282C153.576 30.5983 153.354 30.1124 152.861 30.368L153.021 33.3705L154.172 33.3117L154.201 31.3823L154.201 31.3823Z" fill="white"/>
<path fill-rule="evenodd" clip-rule="evenodd" d="M122.804 27.8842C122.266 26.7288 121.957 25.2797 120.299 25.5866C120.184 25.9448 120.377 26.4274 120.429 26.8126C121.197 26.8987 121.221 27.006 121.492 27.6732C121.819 28.4766 121.89 28.2551 121.461 28.9509C121.152 29.4512 120.178 30.9376 120.051 31.3853L121.448 31.3727L122.791 28.9634L123.462 28.9698L123.491 31.3773L124.666 31.3788L124.707 28.9648L125.383 28.9682L126.693 31.3803L128.084 31.383C128.006 31.029 126.94 29.3407 126.682 28.9375C126.252 28.2652 126.346 28.4047 126.678 27.6288C126.923 27.0568 127.008 26.823 127.728 26.8391C127.763 26.4384 127.948 25.9709 127.846 25.5773C125.999 25.3453 126.032 26.6986 125.339 27.8855L124.675 27.8839L124.664 25.6811L123.474 25.6982L123.449 27.8866L122.804 27.8842V27.8842Z" fill="white"/>
<path fill-rule="evenodd" clip-rule="evenodd" d="M67.399 26.7665C69.4654 25.9941 69.5086 29.5997 68.322 30.2528C67.9076 30.4809 67.4649 30.4189 67.0541 30.2211C66.502 29.9553 66.6215 29.7428 66.6271 29.0931C66.6392 27.6773 66.3442 27.1608 67.399 26.7665ZM66.6025 31.0016C67.1112 31.1952 67.3873 31.5232 68.0955 31.5126C71.4219 31.4626 71.2134 24.7378 67.7502 25.6033C67.1752 25.7469 66.9676 25.9937 66.566 26.2178L66.3954 25.686L65.277 25.6876C65.2979 26.9796 65.1179 32.8996 65.3344 33.634L66.6306 33.6184L66.6025 31.0016Z" fill="white"/>
<path fill-rule="evenodd" clip-rule="evenodd" d="M87.8796 27.4695L87.8186 31.3823L89.1168 31.3337L89.1194 25.6955L87.8842 25.7096C87.4444 26.2455 86.9606 27.1077 86.5824 27.7062C86.2037 28.3055 85.7055 29.035 85.3889 29.6512L85.446 25.6816L84.1465 25.6999L84.165 31.3773L85.4055 31.3661L87.8796 27.4695Z" fill="white"/>
<path fill-rule="evenodd" clip-rule="evenodd" d="M81.148 27.4239C81.1015 28.4577 80.9662 30.3808 81.0823 31.3783L82.3425 31.3671L82.3502 25.6927L81.2585 25.6816C80.9066 25.7463 79.2213 28.6525 78.9683 29.093C78.9031 29.2067 78.8838 29.2594 78.8055 29.361L78.663 29.5126C78.6546 29.4971 78.6276 29.5462 78.6064 29.5615L78.6911 25.683L77.3887 25.729L77.4023 31.3699L78.6398 31.3741L81.148 27.4238V27.4239Z" fill="white"/>
<path fill-rule="evenodd" clip-rule="evenodd" d="M145.625 31.3674C145.962 30.7246 146.494 30.0176 146.882 29.4013C147.111 29.037 147.91 27.6545 148.091 27.473L148.055 31.3786L149.338 31.3416L149.333 25.6957L148.063 25.6836C147.783 26.2831 146.665 27.8853 146.176 28.696C146.04 28.9215 145.676 29.4711 145.604 29.6387L145.689 25.6917L144.375 25.7071L144.385 31.3795L145.625 31.3674V31.3674Z" fill="white"/>
<path fill-rule="evenodd" clip-rule="evenodd" d="M94.7172 29.034L96.936 29.0551L96.9664 31.3836L98.2924 31.3391L98.2937 25.7295C97.9288 25.6423 97.2902 25.6266 96.9396 25.745L96.9347 27.853L94.69 27.8216L94.6906 25.6774L93.3398 25.7109L93.3547 31.3739L94.6849 31.3793L94.7172 29.034H94.7172Z" fill="white"/>
<path fill-rule="evenodd" clip-rule="evenodd" d="M167.492 29.0353L169.72 29.0583L169.749 31.3803L171.068 31.3788L171.059 25.6748L169.724 25.738L169.722 27.8533L167.469 27.8266L167.466 25.6813L166.121 25.7072L166.133 31.3774L167.464 31.3679L167.492 29.0353Z" fill="white"/>
<path fill-rule="evenodd" clip-rule="evenodd" d="M117.683 29.865C117.406 30.0749 117.099 30.4014 116.583 30.4466C115.168 30.5706 115.211 28.6233 117.688 28.6025L117.683 29.865ZM115.062 27.1453C115.61 26.9706 115.937 26.6217 116.675 26.6324C117.359 26.6423 117.638 27.0592 117.676 27.7202C116.117 28.0232 114.203 28.1657 114.352 30.0307C114.418 30.8525 114.93 31.3883 115.74 31.4964C116.773 31.6343 117.204 31.1208 117.817 30.7972L117.936 31.3844L119.026 31.36C119.116 30.0675 119.217 27.2176 118.607 26.312C117.803 25.1175 115.528 25.4846 114.588 26.3042L115.062 27.1453H115.062Z" fill="white"/>
<path fill-rule="evenodd" clip-rule="evenodd" d="M103.119 28.6063C103.114 29.3972 103.296 29.8087 102.727 30.1803C101.024 31.2906 99.893 28.7931 103.119 28.6063ZM100.444 27.1585C100.815 27.0768 103.019 25.695 103.11 27.7457C101.534 27.8842 99.6662 28.2797 99.7847 30.0236C99.8384 30.8138 100.39 31.3737 101.133 31.4878C102.252 31.6595 102.604 31.1028 103.259 30.7844C103.401 31.4751 103.156 31.3873 104.445 31.3773C104.542 30.0976 104.637 27.1239 104.026 26.284C103.218 25.1725 101.054 25.4333 100.015 26.3029L100.444 27.1585L100.444 27.1585Z" fill="white"/>
<path fill-rule="evenodd" clip-rule="evenodd" d="M161.094 27.973C161.201 26.1531 163.702 26.0857 163.548 27.9747L161.094 27.973ZM164.154 28.8931C164.769 28.8931 164.755 28.9498 164.747 28.2469C164.736 27.2188 164.41 26.1729 163.425 25.7442C160.507 24.4744 158.428 28.7454 160.703 30.8449C161.614 31.6855 163.556 31.7567 164.51 30.8668L164.069 30.1071C163.433 30.254 162.965 30.7231 162.054 30.3411C161.485 30.1023 161.197 29.5915 161.08 28.8985L164.154 28.8931L164.154 28.8931Z" fill="white"/>
<path fill-rule="evenodd" clip-rule="evenodd" d="M58.7441 25.6826C59.2581 26.9875 59.7784 28.2858 60.2854 29.5987C60.7135 30.7071 61.8053 32.4828 59.2939 32.6025L59.0829 33.6082C61.486 34.1109 61.8872 32.3206 62.5084 30.558C62.8171 29.6824 63.0533 28.9454 63.3549 28.0956C63.6299 27.3208 63.9798 26.4505 64.1702 25.6854L62.8748 25.6988L61.5864 30.0163L60.11 25.6865L58.7441 25.6826Z" fill="white"/>
<path fill-rule="evenodd" clip-rule="evenodd" d="M113.145 26.8326C113.228 26.4375 113.382 25.9641 113.304 25.585C111.105 25.2338 111.399 27.547 110.646 27.8966L109.965 27.8794L109.956 25.6852L108.607 25.6999L108.624 31.3796L109.954 31.3649L110.002 28.965L110.779 28.9677C112.598 31.5637 111.407 31.3961 113.678 31.3658C113.356 30.6915 112.616 29.646 112.188 28.997C111.723 28.2922 111.725 28.4809 112.102 27.6606C112.375 27.0664 112.364 26.8622 113.145 26.8326H113.145Z" fill="white"/>
<path fill-rule="evenodd" clip-rule="evenodd" d="M58.5072 31.3846C58.4105 31.0063 57.8711 30.2976 57.6476 29.942C56.6511 28.356 56.5037 28.6562 56.9382 27.7014C57.5762 26.2994 57.7982 27.2145 58.0528 26.6109C58.136 26.4138 58.1789 25.8182 58.1575 25.6109C56.608 25.0654 56.0733 26.9516 55.6194 27.8909L54.8128 27.8981L54.8077 25.6952L53.459 25.6829L53.4866 31.3864L54.8076 31.3439L54.8073 28.9661C55.9428 28.9468 55.7157 29.0853 56.2178 29.9278C56.525 30.4431 56.82 30.8791 57.0649 31.377L58.5072 31.3846H58.5072Z" fill="white"/>
<path fill-rule="evenodd" clip-rule="evenodd" d="M47.142 31.3866C46.9989 30.7904 45.7249 29.2741 45.4056 28.5865C45.2358 28.2208 45.4028 28.0651 45.5672 27.7105C46.2551 26.2269 46.3989 27.2387 46.6796 26.6186C46.7427 26.4792 46.8054 25.7967 46.7855 25.6102C45.1708 25.0299 44.7498 27.0691 44.248 27.8917L43.4387 27.8938L43.4375 25.6917L42.0879 25.6819L42.1052 31.3869L43.4317 31.3502L43.4363 28.9625L44.3009 29.003L45.7582 31.3796L47.142 31.3866Z" fill="white"/>
<path fill-rule="evenodd" clip-rule="evenodd" d="M174.229 28.6454C175.067 28.6385 176.134 28.5395 176.106 29.5113C176.079 30.4465 175.069 30.3291 174.215 30.3206L174.229 28.6454ZM172.893 31.379C174.592 31.3941 176.872 31.6808 177.327 30.1228C177.596 29.2019 177.253 28.3602 176.695 28.0158C175.966 27.5649 175.19 27.632 174.226 27.6286L174.223 25.6939L172.865 25.6836L172.893 31.379Z" fill="white"/>
<path fill-rule="evenodd" clip-rule="evenodd" d="M137.422 28.6823C138.194 28.5475 139.098 28.6706 139.067 29.5145C139.036 30.3245 138.248 30.3605 137.426 30.3146L137.422 28.6823ZM136.079 31.348C136.543 31.4337 138.31 31.4055 138.784 31.3121C139.551 31.161 140.079 30.8029 140.288 30.1084C140.55 29.2366 140.223 28.3985 139.71 28.0563C138.987 27.5738 138.361 27.7145 137.427 27.6074L137.413 25.6797L136.072 25.7192L136.079 31.348Z" fill="white"/>
<path fill-rule="evenodd" clip-rule="evenodd" d="M38.4761 26.6959C38.935 26.8716 39.2856 27.3683 39.3145 27.9703L37.131 28.0223L37.1446 28.8888L39.3599 28.8957C39.1693 30.5486 37.8788 30.8179 36.584 30.0529C36.3524 30.2212 36.1283 30.5761 36.0684 30.8909C37.0384 31.4149 37.9519 31.885 39.2949 31.2081C40.1442 30.7801 40.6802 29.8349 40.6668 28.4962C40.633 25.1224 37.2747 25.0553 36.1594 26.2172L36.6642 26.9737C37.2249 26.8026 37.5852 26.3547 38.4761 26.6959L38.4761 26.6959Z" fill="white"/>
<path fill-rule="evenodd" clip-rule="evenodd" d="M51.533 26.9901C51.7722 26.7039 51.9417 26.5071 52.1144 26.2054C51.3066 25.0169 47.5975 25.2287 47.6212 28.5859C47.6444 31.8756 51.1668 32.0573 52.2174 30.7805L51.7104 29.9527C51.1873 30.1966 50.6098 30.7183 49.8076 30.2252C49.3293 29.9312 49.0179 29.3489 49.007 28.584C48.9961 27.8164 49.3003 27.182 49.7494 26.8845C50.6458 26.2907 50.949 26.8746 51.533 26.9901V26.9901Z" fill="white"/>
<path fill-rule="evenodd" clip-rule="evenodd" d="M75.4584 27.0256C75.6639 26.7849 75.8973 26.4551 76.0403 26.2044C75.4727 25.4224 73.9036 25.3862 72.9734 25.9044C70.962 27.025 71.1612 30.3381 73.0119 31.2268C74.0934 31.7461 75.4667 31.5385 76.1466 30.7822L75.6491 29.9514C75.1202 30.1965 74.5546 30.7046 73.7446 30.2325C72.6802 29.612 72.666 27.5116 73.6936 26.8777C74.5584 26.3442 74.8713 26.7858 75.4584 27.0256Z" fill="white"/>
<path fill-rule="evenodd" clip-rule="evenodd" d="M141.241 31.3787L142.58 31.3751L142.574 25.6836L141.232 25.7045L141.241 31.3787Z" fill="white"/>
<path fill-rule="evenodd" clip-rule="evenodd" d="M148.784 22.9033L147.758 22.909C147.64 23.5338 147.612 23.9884 146.909 23.9948C146.247 24.0009 146.136 23.5254 146.041 22.914L145.021 22.9042C144.817 25.3184 148.854 25.4608 148.784 22.9033V22.9033Z" fill="white"/>
</svg>
