<svg width="178" height="60" viewBox="0 0 178 60" fill="none" xmlns="http://www.w3.org/2000/svg">
<path d="M14.1335 28.9058V16.9883C14.1335 16.0754 13.9506 15.2837 13.585 14.6133C13.2334 13.9287 12.699 13.4009 11.9818 13.0301C11.2646 12.6592 10.3786 12.4738 9.32386 12.4738C8.33944 12.4738 7.47456 12.6449 6.72921 12.9873C5.99793 13.3296 5.42134 13.7789 4.99945 14.3352C4.59162 14.8915 4.3877 15.4906 4.3877 16.1325H0.485178C0.485178 15.3051 0.696125 14.485 1.11802 13.6719C1.53991 12.8589 2.14463 12.1243 2.93216 11.4682C3.73376 10.7978 4.69006 10.27 5.80104 9.88487C6.9261 9.48548 8.17772 9.28579 9.5559 9.28579C11.2154 9.28579 12.6779 9.57106 13.9436 10.1416C15.2233 10.7122 16.2218 11.5751 16.9391 12.7305C17.6703 13.8716 18.036 15.3051 18.036 17.0311V27.8146C18.036 28.5848 18.0993 29.405 18.2258 30.2751C18.3665 31.1452 18.5704 31.894 18.8376 32.5217V32.864H14.7663C14.5694 32.4075 14.4147 31.8013 14.3022 31.0453C14.1897 30.2751 14.1335 29.5619 14.1335 28.9058ZM14.8085 18.8283L14.8507 21.6098H10.906C9.79498 21.6098 8.80352 21.7025 7.93161 21.8879C7.0597 22.0591 6.32841 22.323 5.73776 22.6796C5.14711 23.0362 4.69709 23.4855 4.3877 24.0275C4.07831 24.5553 3.92362 25.1758 3.92362 25.8889C3.92362 26.6164 4.08534 27.2797 4.40879 27.8788C4.73225 28.4778 5.21742 28.9557 5.86433 29.3123C6.5253 29.6546 7.33393 29.8258 8.29022 29.8258C9.48559 29.8258 10.5403 29.569 11.4544 29.0555C12.3685 28.542 13.0928 27.9144 13.6272 27.1727C14.1756 26.431 14.471 25.7106 14.5132 25.0117L16.1796 26.9159C16.0812 27.515 15.814 28.1783 15.378 28.9058C14.9421 29.6332 14.3585 30.3321 13.6272 31.0025C12.91 31.6587 12.0521 32.2078 11.0536 32.65C10.0692 33.0779 8.95822 33.2919 7.72066 33.2919C6.17372 33.2919 4.81662 32.9852 3.64938 32.3719C2.49621 31.7585 1.59617 30.9384 0.949262 29.9114C0.31642 28.8701 0 27.7076 0 26.4238C0 25.1829 0.239073 24.0917 0.71722 23.1503C1.19537 22.1946 1.88446 21.403 2.7845 20.7753C3.68454 20.1335 4.7674 19.6485 6.03309 19.3204C7.29877 18.9924 8.71211 18.8283 10.2731 18.8283H14.8085Z" fill="white"/>
<path d="M30.7772 29.2909L37.0212 9.7137H41.0081L32.8023 32.864H30.1865L30.7772 29.2909ZM25.5668 9.7137L32.0007 29.3979L32.4437 32.864H29.8279L21.5588 9.7137H25.5668Z" fill="white"/>
<path d="M48.6866 0V32.864H44.763V0H48.6866ZM62.6302 9.7137L52.6735 20.5186L47.1045 26.3811L46.7881 22.1661L50.775 17.3306L57.8628 9.7137H62.6302ZM59.0652 32.864L50.9226 21.8237L52.9477 18.2934L63.6638 32.864H59.0652Z" fill="white"/>
<path d="M83.5369 9.7137H88.1567V32.2221C88.1567 34.3046 87.7207 36.0734 86.8488 37.5283C85.9769 38.9832 84.7604 40.0886 83.1994 40.8446C81.6384 41.6149 79.8313 42 77.7781 42C76.9062 42 75.9358 41.8716 74.867 41.6149C73.8123 41.3581 72.7857 40.9445 71.7872 40.3739C70.8028 39.8176 69.9801 39.083 69.3191 38.1701L71.7028 35.1319C72.5185 36.1161 73.4185 36.8365 74.4029 37.2929C75.3874 37.7494 76.421 37.9776 77.5039 37.9776C78.6711 37.9776 79.6626 37.7565 80.4782 37.3143C81.3079 36.8864 81.9478 36.2517 82.3978 35.4101C82.8479 34.5685 83.0729 33.5415 83.0729 32.3291V14.9557L83.5369 9.7137ZM68.0323 21.5456V21.0963C68.0323 19.3418 68.2433 17.7443 68.6652 16.3036C69.0871 14.8487 69.6918 13.6006 70.4793 12.5593C71.2669 11.5038 72.2232 10.6979 73.3482 10.1416C74.4733 9.57106 75.746 9.28579 77.1663 9.28579C78.643 9.28579 79.9016 9.5568 80.9423 10.0988C81.997 10.6409 82.876 11.4182 83.5791 12.431C84.2823 13.4294 84.8308 14.6276 85.2245 16.0255C85.6324 17.4091 85.9347 18.9496 86.1316 20.647V22.0805C85.9488 23.7351 85.6394 25.2471 85.2034 26.6164C84.7675 27.9857 84.1909 29.1696 83.4737 30.1681C82.7564 31.1666 81.8705 31.9368 80.8157 32.4789C79.7751 33.0209 78.5445 33.2919 77.1242 33.2919C75.7319 33.2919 74.4733 32.9995 73.3482 32.4147C72.2372 31.8299 71.2809 31.0097 70.4793 29.9542C69.6918 28.8986 69.0871 27.6577 68.6652 26.2313C68.2433 24.7906 68.0323 23.2287 68.0323 21.5456ZM73.1162 21.0963V21.5456C73.1162 22.6011 73.2146 23.5853 73.4115 24.4982C73.6224 25.4111 73.9389 26.217 74.3607 26.9159C74.7967 27.6006 75.3452 28.1426 76.0061 28.542C76.6812 28.9272 77.4757 29.1197 78.3898 29.1197C79.5852 29.1197 80.5626 28.863 81.322 28.3495C82.0955 27.836 82.6861 27.1442 83.094 26.2741C83.5159 25.3897 83.8112 24.4055 83.9799 23.3214V19.4488C83.8956 18.6072 83.7198 17.8227 83.4526 17.0953C83.1994 16.3678 82.8549 15.7331 82.4189 15.191C81.983 14.6347 81.4345 14.2068 80.7735 13.9073C80.1126 13.5935 79.3321 13.4366 78.432 13.4366C77.5179 13.4366 76.7234 13.6363 76.0483 14.0357C75.3733 14.435 74.8178 14.9842 74.3818 15.6831C73.96 16.3821 73.6435 17.1951 73.4326 18.1223C73.2216 19.0494 73.1162 20.0408 73.1162 21.0963Z" fill="white"/>
<path d="M98.5353 14.1212V32.864H93.4515V9.7137H98.3032L98.5353 14.1212ZM105.518 9.56393L105.475 14.3566C105.166 14.2995 104.829 14.2568 104.463 14.2282C104.111 14.1997 103.76 14.1854 103.408 14.1854C102.536 14.1854 101.77 14.3138 101.109 14.5706C100.448 14.813 99.8924 15.1696 99.4424 15.6403C99.0064 16.0968 98.6689 16.6531 98.4298 17.3092C98.1907 17.9654 98.0501 18.6999 98.0079 19.513L96.8477 19.5986C96.8477 18.1437 96.9883 16.7957 97.2696 15.5548C97.5509 14.3138 97.9728 13.2226 98.5353 12.2812C99.1119 11.3398 99.8291 10.6052 100.687 10.0774C101.559 9.54967 102.564 9.28579 103.703 9.28579C104.013 9.28579 104.343 9.31431 104.695 9.37137C105.061 9.42843 105.335 9.49261 105.518 9.56393Z" fill="white"/>
<path d="M108.493 21.5456V21.0535C108.493 19.3846 108.732 17.837 109.21 16.4106C109.688 14.9699 110.377 13.7219 111.277 12.6663C112.192 11.5965 113.303 10.7692 114.61 10.1844C115.932 9.58533 117.423 9.28579 119.082 9.28579C120.756 9.28579 122.247 9.58533 123.555 10.1844C124.876 10.7692 125.995 11.5965 126.909 12.6663C127.823 13.7219 128.519 14.9699 128.997 16.4106C129.475 17.837 129.714 19.3846 129.714 21.0535V21.5456C129.714 23.2145 129.475 24.7621 128.997 26.1885C128.519 27.6149 127.823 28.863 126.909 29.9328C125.995 30.9883 124.884 31.8156 123.576 32.4147C122.268 32.9995 120.784 33.2919 119.125 33.2919C117.451 33.2919 115.953 32.9995 114.631 32.4147C113.324 31.8156 112.213 30.9883 111.299 29.9328C110.384 28.863 109.688 27.6149 109.21 26.1885C108.732 24.7621 108.493 23.2145 108.493 21.5456ZM113.577 21.0535V21.5456C113.577 22.5869 113.682 23.5711 113.893 24.4982C114.104 25.4254 114.435 26.2384 114.885 26.9373C115.335 27.6363 115.911 28.1854 116.614 28.5848C117.318 28.9842 118.154 29.1839 119.125 29.1839C120.067 29.1839 120.883 28.9842 121.572 28.5848C122.275 28.1854 122.851 27.6363 123.301 26.9373C123.751 26.2384 124.082 25.4254 124.293 24.4982C124.518 23.5711 124.63 22.5869 124.63 21.5456V21.0535C124.63 20.0265 124.518 19.0565 124.293 18.1437C124.082 17.2165 123.744 16.3963 123.28 15.6831C122.83 14.9699 122.254 14.4137 121.551 14.0143C120.861 13.6006 120.039 13.3938 119.082 13.3938C118.126 13.3938 117.296 13.6006 116.593 14.0143C115.904 14.4137 115.335 14.9699 114.885 15.6831C114.435 16.3963 114.104 17.2165 113.893 18.1437C113.682 19.0565 113.577 20.0265 113.577 21.0535Z" fill="white"/>
<path d="M147.708 27.408V9.7137H152.813V32.864H148.003L147.708 27.408ZM148.425 22.594L150.134 22.5512C150.134 24.106 149.965 25.5395 149.628 26.8518C149.29 28.1498 148.77 29.2837 148.067 30.2537C147.363 31.2094 146.463 31.9582 145.366 32.5003C144.27 33.028 142.955 33.2919 141.422 33.2919C140.311 33.2919 139.291 33.1279 138.363 32.7998C137.435 32.4717 136.633 31.9654 135.958 31.2807C135.297 30.596 134.784 29.7045 134.418 28.6062C134.053 27.5079 133.87 26.1956 133.87 24.6694V9.7137H138.954V24.7122C138.954 25.5537 139.052 26.2598 139.249 26.8304C139.446 27.3867 139.713 27.836 140.051 28.1783C140.388 28.5206 140.782 28.7631 141.232 28.9058C141.682 29.0484 142.16 29.1197 142.666 29.1197C144.115 29.1197 145.254 28.8344 146.084 28.2639C146.928 27.6791 147.525 26.8946 147.877 25.9103C148.242 24.9261 148.425 23.8207 148.425 22.594Z" fill="white"/>
<path d="M163.128 14.164V41.7646H158.044V9.7137H162.727L163.128 14.164ZM178 21.0749V21.5242C178 23.2073 177.803 24.7692 177.409 26.2099C177.03 27.6363 176.46 28.8844 175.701 29.9542C174.955 31.0097 174.034 31.8299 172.937 32.4147C171.84 32.9995 170.575 33.2919 169.14 33.2919C167.72 33.2919 166.475 33.028 165.406 32.5003C164.352 31.9582 163.459 31.1951 162.727 30.2109C161.996 29.2267 161.405 28.0713 160.955 26.7448C160.52 25.404 160.21 23.9348 160.027 22.3372V20.6042C160.21 18.9068 160.52 17.3663 160.955 15.9827C161.405 14.5991 161.996 13.408 162.727 12.4096C163.459 11.4111 164.352 10.6409 165.406 10.0988C166.461 9.5568 167.692 9.28579 169.098 9.28579C170.532 9.28579 171.805 9.57106 172.916 10.1416C174.027 10.6979 174.962 11.4967 175.722 12.538C176.481 13.565 177.051 14.8059 177.43 16.2608C177.81 17.7015 178 19.3062 178 21.0749ZM172.916 21.5242V21.0749C172.916 20.0051 172.818 19.0138 172.621 18.1009C172.424 17.1737 172.115 16.3607 171.693 15.6617C171.271 14.9628 170.729 14.4208 170.068 14.0357C169.421 13.6363 168.641 13.4366 167.727 13.4366C166.827 13.4366 166.053 13.5935 165.406 13.9073C164.76 14.2068 164.218 14.6276 163.782 15.1696C163.346 15.7117 163.009 16.3464 162.77 17.0739C162.531 17.7871 162.362 18.5644 162.263 19.406V23.5568C162.432 24.5838 162.72 25.5252 163.128 26.3811C163.536 27.2369 164.113 27.9215 164.858 28.435C165.617 28.9343 166.588 29.1839 167.769 29.1839C168.683 29.1839 169.464 28.9842 170.111 28.5848C170.757 28.1854 171.285 27.6363 171.693 26.9373C172.115 26.2241 172.424 25.404 172.621 24.4768C172.818 23.5497 172.916 22.5655 172.916 21.5242Z" fill="white"/>
</svg>
