<svg width="178" height="60" viewBox="0 0 178 60" fill="none" xmlns="http://www.w3.org/2000/svg">
<path fill-rule="evenodd" clip-rule="evenodd" d="M0.30272 12.463C0.555017 11.9861 5.19676 9.4704 6.00398 9.00109C6.96257 8.43182 7.92115 7.90866 8.93034 7.33164C9.8385 6.77777 10.8979 6.1007 11.8567 5.67759C13.7739 6.85468 15.6911 7.8702 17.6588 9.01649C18.7183 9.64728 19.5256 10.0935 20.5852 10.6859C23.8141 12.5554 23.3096 11.7476 23.3096 14.5171C21.897 13.7863 12.3613 8.07788 11.8567 8.08554C11.3521 8.08554 1.71547 13.7708 0.302808 14.5556V12.463H0.30272ZM2.97678 9.9397V8.52422L9.63663 4.73142C10.343 4.33137 11.0997 3.86215 11.8566 3.46976C14.5811 4.91604 17.911 7.0702 20.6859 8.52422V9.9397C19.576 9.37043 12.1593 4.96215 11.8566 4.96215C11.5034 4.96215 6.20577 8.08563 5.19676 8.6703C4.43987 9.09341 3.68316 9.4858 2.97678 9.9397ZM0.30272 6.90088C1.96768 6.29307 11.352 0.353937 11.907 0.469305C12.1593 0.515417 23.0068 6.81623 23.3095 7.10091V11.363C22.7545 11.2707 21.7959 10.6244 21.3922 10.3398C21.3922 7.98566 21.5436 8.28565 20.8877 7.83949L16.7001 5.4238C15.9433 5.00835 12.3107 2.79268 11.8061 2.77737C11.453 2.76963 7.66895 5.04681 7.01308 5.43154C1.71539 8.53962 2.2704 7.39333 2.2704 10.3398C1.86675 10.663 0.908161 11.2477 0.30272 11.4785V6.90097V6.90088ZM0 6.30855V15.4635C0.554929 15.3404 2.37125 14.2018 2.97678 13.8556L11.8566 8.83961L23.9654 15.779V6.47012C22.805 6.20075 13.1683 0 12.1593 0H11.2007L8.80001e-05 6.30855H0Z" fill="white"/>
<path fill-rule="evenodd" clip-rule="evenodd" d="M77.6484 7.77033C78.0521 8.17037 78.6575 9.27055 79.0107 9.84748L82.9965 16.1713C83.6019 15.6558 85.2165 12.817 85.721 12.017L88.2942 7.94729C88.2942 7.89344 88.3446 7.87804 88.4454 7.83184L91.0691 19.8026H88.9499C88.7483 18.6717 87.8905 13.371 87.4364 12.6864C86.3265 13.925 84.0056 18.3024 82.9965 19.3949C82.0884 18.364 79.4143 13.4941 78.5062 12.671L76.9926 19.7872L74.924 19.7948L77.6484 7.77033ZM74.0158 20.518H77.6484C77.6484 19.1717 78.7584 16.0714 78.7584 14.5173C79.4143 14.7019 79.0107 14.5866 79.8683 15.9098L83.1478 20.6719C83.3495 19.9488 86.7804 15.202 86.9318 14.5173H87.2849C87.2849 16.0482 88.3444 19.1717 88.3444 20.518H91.8257C91.8257 19.387 91.3716 17.9023 91.1193 16.7945L89.5553 9.5628C89.4039 8.90122 89.2526 8.40885 89.1516 7.76258C88.8489 6.50858 89.0508 6.38547 88.5463 5.99316C88.294 6.88557 83.4 14.0095 83.1478 14.9943C82.5928 14.6096 79.5151 9.30118 78.8592 8.27034C78.4556 7.71647 77.6987 6.2855 77.3456 5.99316L74.8734 16.8176C74.6716 17.6946 74.2679 19.9334 74.0156 20.518H74.0158Z" fill="white"/>
<path fill-rule="evenodd" clip-rule="evenodd" d="M153.732 7.07036L155.851 7.10116V12.7018C156.81 12.2864 158.727 9.95527 159.433 9.23209C162.107 6.60106 160.392 7.06262 164.176 7.06262C163.722 7.6934 163.217 8.12425 162.612 8.75513C162.057 9.37825 161.603 9.61673 161.048 10.1784C160.039 11.14 158.828 12.1093 158.021 13.2557C158.424 13.9096 159.08 14.4866 159.585 14.9328L162.965 18.1871C163.419 18.6178 164.277 19.3642 164.529 19.7719C161.351 19.9411 162.208 19.7796 160.493 18.4409C159.938 18.0102 159.484 17.5024 159.03 16.9408C158.475 16.3484 156.608 14.2943 155.851 13.9634V19.7411L153.732 19.7642V7.07036H153.732ZM153.076 20.5182H156.557V15.6253C156.961 15.8946 157.062 16.1023 157.466 16.4562L160.291 19.1334C162.158 20.9952 160.947 20.5182 166.345 20.5182C165.841 19.8258 163.369 17.4025 162.612 16.8178C162.007 16.3485 159.282 13.6405 158.929 13.0942C160.241 12.3864 162.057 10.0169 163.268 8.95524C163.974 8.33211 165.639 7.17807 165.841 6.30881C164.68 6.30881 163.52 6.31647 162.36 6.30115C161.451 6.29341 161.502 6.1857 160.997 6.655C160.695 6.92437 160.442 7.23202 160.14 7.53201C159.232 8.40902 157.415 10.4709 156.558 11.0479V6.3089H153.076V20.5183L153.076 20.5182Z" fill="white"/>
<path fill-rule="evenodd" clip-rule="evenodd" d="M96.2667 19.8025H94.1477L94.0973 7.10103L105.197 7.06258V19.7256L103.078 19.8025V9.19359H96.2667V19.8025ZM93.4414 20.518H96.8723V9.93974H102.422V20.518H105.903V6.30859H93.4414V20.518Z" fill="white"/>
<path fill-rule="evenodd" clip-rule="evenodd" d="M60.7965 7.10091L62.966 7.06245V15.0711L71.8963 7.49321V19.7255L69.7773 19.7716V11.7553C69.3736 11.9707 69.7268 11.7861 69.424 11.9783C69.2727 12.1168 69.3232 12.063 69.1717 12.2014C68.9699 12.3477 68.8186 12.44 68.6168 12.6092C68.3645 12.8323 68.3645 12.8631 68.1627 13.0708L65.3373 15.4556C64.8832 15.8096 64.7319 16.0327 64.2273 16.4172L62.0075 18.3175C61.5534 18.6944 61.402 19.0329 60.847 19.2099L60.7965 7.10073V7.10091ZM63.5715 13.5709V6.30856H60.1406V20.6719C60.6956 20.5179 60.9479 20.2179 61.3515 19.841L69.1213 13.2556V20.518H72.6026V5.99316L64.8328 12.5863C64.2274 13.1095 64.3283 13.171 63.5715 13.571V13.5709Z" fill="white"/>
<path fill-rule="evenodd" clip-rule="evenodd" d="M115.691 19.8027C114.076 19.8027 112.865 19.4258 111.806 18.3794C111.352 17.9101 111.604 17.8717 110.999 17.5177V26.3957H108.829V7.06262H110.999L111.099 9.23209C113.118 5.70091 121.644 6.27793 121.644 13.4095C121.644 17.0716 118.97 19.8027 115.691 19.8027ZM111.251 27.142H108.678C108.324 27.0882 108.072 26.9728 108.072 26.665V6.78569C108.072 6.42409 108.224 6.30873 108.577 6.30873C112.26 6.30873 111.705 6.0317 111.705 7.73195C113.874 6.29333 116.347 5.87797 118.718 7.20879C121.442 8.73207 122.3 11.0709 122.3 14.0482C122.3 17.1178 119.374 20.5182 115.489 20.5182C113.824 20.5182 112.815 19.8335 111.705 19.2488C111.705 20.6721 111.705 22.0952 111.705 23.5109C111.705 25.0264 112.008 27.142 111.251 27.142H111.251Z" fill="white"/>
<path fill-rule="evenodd" clip-rule="evenodd" d="M149.747 18.4632C147.476 20.2942 143.339 20.2173 141.17 18.5016C137.537 15.5706 138.294 9.69281 142.179 7.72336C146.064 5.76158 151.21 8.13116 150.705 14.4012C148.788 14.4012 146.921 14.4396 145.004 14.4396C140.816 14.4396 140.665 14.078 141.27 15.432C141.825 16.7322 142.935 17.5092 144.701 17.6553C146.921 17.8477 147.527 17.1938 149.141 16.5937L149.747 18.4632ZM138.092 13.2549C138.092 15.0859 138.798 17.2015 140.009 18.4247C140.261 18.6786 140.665 18.9633 140.968 19.2094C144.449 21.9713 150.554 19.6018 150.554 18.6171C150.554 18.0401 149.696 16.4553 149.595 15.4628C147.88 16.3706 145.761 17.84 143.188 16.5245C142.532 16.186 142.179 15.7551 141.876 15.1474H151.311C151.311 14.3089 151.512 14.2396 151.512 13.5703C151.512 7.03107 144.953 4.28458 140.362 8.13116C139.151 9.17739 138.092 11.6547 138.092 13.2549H138.092Z" fill="white"/>
<path fill-rule="evenodd" clip-rule="evenodd" d="M0.30272 19.7636V17.5172C1.81632 16.8402 11.453 11.0087 11.8061 11.0317C12.2602 11.0549 21.7454 16.8401 23.3096 17.5556V19.7252C22.5022 19.5406 12.5126 13.2936 11.8566 13.3014C11.1502 13.309 1.66496 19.2636 0.30272 19.7636ZM0 16.8864V20.833C1.46309 19.8329 11.5034 14.0629 11.9575 14.1245C12.3611 14.1784 22.1491 20.0176 23.9654 20.9869V17.0403C22.805 16.7633 12.4115 10.2549 11.8566 10.2549C11.3016 10.2549 0.706377 16.7018 8.80001e-05 16.8865L0 16.8864Z" fill="white"/>
<path fill-rule="evenodd" clip-rule="evenodd" d="M45.7624 19.8026C46.1155 18.8026 46.8218 17.6485 47.2759 16.6715L51.7663 7.55499L57.6693 19.8026H55.7016C55.0963 19.6334 52.6744 13.1941 51.7663 11.9555L51.1608 12.9634C50.9591 13.3865 50.9085 13.5403 50.7068 13.9405L47.9823 19.7873L45.7624 19.8026ZM44.6524 20.518H48.4363C48.6381 19.741 51.4636 14.2019 51.6149 13.571H51.9177C51.9681 14.0711 53.1286 16.4714 53.4312 17.0946L55.0963 20.518H58.6784C58.628 19.5564 55.0458 12.671 54.3898 11.4169C54.0367 10.7553 53.8853 10.2321 53.5322 9.57055C53.2294 8.90887 52.9772 8.44731 52.6744 7.78573C52.3717 7.17791 52.069 6.3471 51.6149 5.99316L46.4182 16.8868C46.0146 17.6868 44.8542 19.7332 44.6523 20.5179L44.6524 20.518Z" fill="white"/>
<path fill-rule="evenodd" clip-rule="evenodd" d="M167.203 7.06249H177.697V9.18585L173.509 9.23196V19.8024H171.39V9.78583L171.34 9.1935H167.203V7.06249ZM166.496 9.47053C166.496 9.83212 166.597 9.93974 166.95 9.93974H170.734V20.518H174.216V9.93974H178V6.30859H166.496V9.47053H166.496Z" fill="white"/>
<path fill-rule="evenodd" clip-rule="evenodd" d="M2.77435 21.4646C2.82478 21.3954 4.18702 20.2414 4.84297 20.5568C6.00343 21.0954 11.0487 24.3111 11.8055 24.2958C12.3606 24.2881 17.5068 21.1954 18.7177 20.5799C19.323 20.2644 20.3826 21.0646 20.9376 21.4646C20.6349 21.7724 12.0578 26.6575 11.8055 26.6575C11.6038 26.6652 3.07716 21.7954 2.77444 21.4646H2.77435ZM1.41211 21.4646C1.81577 21.9647 11.2001 27.1422 11.2001 27.1422H12.4614L21.7449 21.8954C22.199 21.6108 22.098 21.8954 22.2494 21.3031C21.7449 21.1877 19.5753 19.8876 19.0708 19.5645C17.9104 20.203 16.5986 20.9416 15.4382 21.6109L11.8561 23.6727C11.0487 23.1495 10.0902 22.6725 9.18199 22.1956C8.27383 21.7109 7.46652 21.2108 6.55844 20.7261C4.13668 19.4259 4.99442 19.249 2.6735 20.6415C2.16891 20.9338 1.71483 21.0646 1.41211 21.4646Z" fill="white"/>
<path fill-rule="evenodd" clip-rule="evenodd" d="M130.321 19.8022C123.51 19.8022 121.29 10.8549 127.496 7.72382C131.23 5.82363 136.628 8.33163 136.628 13.7322C136.628 15.3324 135.518 17.2173 134.711 17.9559C133.803 18.8559 132.239 19.8022 130.321 19.8022ZM130.019 20.5176C134.156 20.5176 137.284 17.1557 137.284 13.886V12.9398C137.284 9.77783 133.954 6.46973 130.826 6.46973C128.202 6.46973 126.992 6.69281 125.024 8.71619C123.157 10.5702 122.552 13.7783 123.763 16.3632C123.964 16.794 124.116 17.0787 124.418 17.4479C124.62 17.6941 125.024 18.225 125.175 18.4096C126.336 19.5635 128.354 20.5175 130.019 20.5175V20.5176Z" fill="white"/>
<path fill-rule="evenodd" clip-rule="evenodd" d="M37.5362 7.17799C41.1688 6.57792 44.2969 9.30909 44.8015 12.3248C45.4573 16.2021 42.5815 19.2256 39.6047 19.718C35.8207 20.3411 32.6927 17.5254 32.1881 14.502C31.5826 10.6553 34.408 7.69341 37.5361 7.17799H37.5362ZM31.3809 13.4095C31.3809 17.2716 34.6603 20.5181 38.4948 20.5181C44.1456 20.5181 48.1314 13.7327 43.6915 8.67822C41.6734 6.38564 38.0407 5.79331 35.2658 7.20114L32.6927 9.47066C32.4909 9.75525 32.1882 10.3091 32.0368 10.5785C31.7845 11.1017 31.3809 12.6094 31.3809 13.4095H31.3809Z" fill="white"/>
<path fill-rule="evenodd" clip-rule="evenodd" d="M130.169 17.0403C128.252 17.0403 126.738 15.5093 126.738 13.0937C126.738 11.3703 128.302 9.93938 130.522 9.93938C133.348 9.93938 135.013 13.9014 132.742 15.9632C132.187 16.4479 131.128 17.0403 130.169 17.0403H130.169ZM129.917 9.27013C124.064 9.89326 125.174 18.1635 130.674 17.6634C136.173 17.1556 135.416 8.68537 129.917 9.27013Z" fill="white"/>
<path fill-rule="evenodd" clip-rule="evenodd" d="M115.185 17.04C112.006 17.04 110.543 12.8625 112.763 10.8392C114.832 8.97749 118.817 10.0237 118.817 13.5703C118.817 15.4552 117.051 17.0401 115.185 17.0401L115.185 17.04ZM110.997 13.7318C111.502 19.417 119.877 18.7093 119.473 13.0933C119.322 10.8083 117.455 9.03117 114.932 9.23119C112.712 9.41582 110.795 11.293 110.997 13.7318Z" fill="white"/>
<path fill-rule="evenodd" clip-rule="evenodd" d="M38.4959 9.93964C41.8259 9.93964 43.2386 13.8248 41.0186 15.948C39.7068 17.2635 37.5878 17.4637 36.0742 15.9865C33.602 13.4632 35.5192 9.93964 38.4959 9.93964ZM38.0923 9.2704C32.391 10.0704 33.4506 18.3638 39.1014 17.6483C41.2204 17.379 43.0872 15.3865 42.734 12.8169C42.4312 10.8012 40.514 8.93178 38.0923 9.2704Z" fill="white"/>
<path fill-rule="evenodd" clip-rule="evenodd" d="M144.549 9.94019C146.618 9.94019 147.274 10.0864 148.182 11.8327H141.875C142.128 10.8018 143.288 9.94019 144.549 9.94019ZM141.018 12.502L148.939 12.4866C148.989 8.34765 141.27 7.85529 141.018 12.502Z" fill="white"/>
</svg>
