<svg width="1040" height="588" viewBox="0 0 1040 588" fill="none" xmlns="http://www.w3.org/2000/svg">
<rect x="0.5" y="0.5" width="519" height="265" rx="19.5" stroke="#333333"/>
<path d="M64.616 143.08C64.1627 143.08 63.72 143.011 63.288 142.872C62.856 142.733 62.4587 142.523 62.096 142.24C61.7387 141.963 61.44 141.611 61.2 141.184L62.504 140.496C62.7173 140.917 63.0187 141.224 63.408 141.416C63.8027 141.608 64.208 141.704 64.624 141.704C65.1733 141.704 65.6293 141.603 65.992 141.4C66.3547 141.203 66.6213 140.907 66.792 140.512C66.968 140.117 67.0533 139.627 67.048 139.04V136.68H67.216V130.36H68.48V139.056C68.48 139.291 68.472 139.517 68.456 139.736C68.4453 139.955 68.4187 140.171 68.376 140.384C68.264 140.997 68.0427 141.501 67.712 141.896C67.3813 142.296 66.9547 142.592 66.432 142.784C65.9093 142.981 65.304 143.08 64.616 143.08ZM64.512 139.24C63.7067 139.24 63.016 139.04 62.44 138.64C61.864 138.235 61.4187 137.688 61.104 137C60.7947 136.312 60.64 135.536 60.64 134.672C60.64 133.808 60.7947 133.032 61.104 132.344C61.4187 131.656 61.864 131.115 62.44 130.72C63.016 130.32 63.704 130.12 64.504 130.12C65.32 130.12 66.0053 130.317 66.56 130.712C67.1147 131.107 67.5333 131.648 67.816 132.336C68.104 133.024 68.248 133.803 68.248 134.672C68.248 135.531 68.104 136.307 67.816 137C67.5333 137.688 67.1147 138.235 66.56 138.64C66.0053 139.04 65.3227 139.24 64.512 139.24ZM64.688 137.936C65.2693 137.936 65.7467 137.797 66.12 137.52C66.4933 137.237 66.768 136.851 66.944 136.36C67.1253 135.864 67.216 135.301 67.216 134.672C67.216 134.032 67.1253 133.469 66.944 132.984C66.768 132.493 66.496 132.112 66.128 131.84C65.76 131.563 65.2933 131.424 64.728 131.424C64.1413 131.424 63.656 131.568 63.272 131.856C62.8933 132.144 62.6107 132.533 62.424 133.024C62.2427 133.515 62.152 134.064 62.152 134.672C62.152 135.285 62.2453 135.84 62.432 136.336C62.6187 136.827 62.8987 137.216 63.272 137.504C63.6507 137.792 64.1227 137.936 64.688 137.936ZM74.3938 139.24C73.5351 139.24 72.7938 139.045 72.1698 138.656C71.5511 138.267 71.0738 137.728 70.7378 137.04C70.4018 136.352 70.2338 135.563 70.2338 134.672C70.2338 133.765 70.4044 132.971 70.7458 132.288C71.0871 131.605 71.5698 131.075 72.1938 130.696C72.8178 130.312 73.5511 130.12 74.3938 130.12C75.2578 130.12 76.0018 130.315 76.6258 130.704C77.2498 131.088 77.7271 131.624 78.0578 132.312C78.3938 132.995 78.5618 133.781 78.5618 134.672C78.5618 135.573 78.3938 136.368 78.0578 137.056C77.7218 137.739 77.2418 138.275 76.6178 138.664C75.9938 139.048 75.2524 139.24 74.3938 139.24ZM74.3938 137.888C75.2898 137.888 75.9564 137.589 76.3938 136.992C76.8311 136.395 77.0498 135.621 77.0498 134.672C77.0498 133.696 76.8284 132.92 76.3858 132.344C75.9431 131.763 75.2791 131.472 74.3938 131.472C73.7911 131.472 73.2951 131.608 72.9058 131.88C72.5164 132.152 72.2258 132.528 72.0338 133.008C71.8418 133.488 71.7458 134.043 71.7458 134.672C71.7458 135.643 71.9698 136.421 72.4178 137.008C72.8658 137.595 73.5244 137.888 74.3938 137.888ZM85.1471 139C84.6351 139.101 84.1285 139.141 83.6271 139.12C83.1311 139.104 82.6885 139.005 82.2991 138.824C81.9098 138.637 81.6138 138.349 81.4111 137.96C81.2405 137.619 81.1471 137.275 81.1311 136.928C81.1205 136.576 81.1151 136.179 81.1151 135.736V127.96H82.5391V135.672C82.5391 136.024 82.5418 136.325 82.5471 136.576C82.5578 136.827 82.6138 137.043 82.7151 137.224C82.9071 137.565 83.2111 137.765 83.6271 137.824C84.0485 137.883 84.5551 137.867 85.1471 137.776V139ZM79.3631 131.536V130.36H85.1471V131.536H79.3631ZM93.0533 139V134.672C93.0533 134.261 93.0159 133.867 92.9413 133.488C92.8719 133.109 92.7466 132.771 92.5653 132.472C92.3893 132.168 92.1493 131.928 91.8453 131.752C91.5466 131.576 91.1679 131.488 90.7093 131.488C90.3519 131.488 90.0266 131.549 89.7333 131.672C89.4453 131.789 89.1973 131.971 88.9893 132.216C88.7813 132.461 88.6186 132.771 88.5013 133.144C88.3893 133.512 88.3333 133.947 88.3333 134.448L87.3973 134.16C87.3973 133.323 87.5466 132.605 87.8453 132.008C88.1493 131.405 88.5733 130.944 89.1173 130.624C89.6666 130.299 90.3119 130.136 91.0533 130.136C91.6133 130.136 92.0906 130.224 92.4853 130.4C92.8799 130.576 93.2079 130.811 93.4693 131.104C93.7306 131.392 93.9359 131.717 94.0853 132.08C94.2346 132.437 94.3386 132.803 94.3973 133.176C94.4613 133.544 94.4933 133.893 94.4933 134.224V139H93.0533ZM86.8933 139V127.48H88.1733V133.84H88.3333V139H86.8933ZM96.7331 128.832V127.36H98.1571V128.832H96.7331ZM96.7331 139V130.36H98.1571V139H96.7331ZM104.198 139.24C103.323 139.24 102.579 139.045 101.966 138.656C101.358 138.261 100.894 137.72 100.574 137.032C100.254 136.344 100.088 135.56 100.078 134.68C100.088 133.779 100.256 132.987 100.582 132.304C100.912 131.616 101.384 131.08 101.998 130.696C102.611 130.312 103.35 130.12 104.214 130.12C105.126 130.12 105.91 130.344 106.566 130.792C107.227 131.24 107.67 131.853 107.894 132.632L106.486 133.056C106.304 132.555 106.008 132.165 105.598 131.888C105.192 131.611 104.726 131.472 104.198 131.472C103.606 131.472 103.118 131.611 102.734 131.888C102.35 132.16 102.064 132.539 101.878 133.024C101.691 133.504 101.595 134.056 101.59 134.68C101.6 135.64 101.822 136.416 102.254 137.008C102.691 137.595 103.339 137.888 104.198 137.888C104.763 137.888 105.232 137.76 105.606 137.504C105.979 137.243 106.262 136.867 106.454 136.376L107.894 136.752C107.595 137.557 107.128 138.173 106.494 138.6C105.859 139.027 105.094 139.24 104.198 139.24ZM112.729 139V127.48H114.169L120.177 136.48V127.48H121.617V139H120.177L114.169 129.992V139H112.729ZM125.769 133C125.241 133 124.759 132.872 124.321 132.616C123.884 132.355 123.535 132.008 123.273 131.576C123.017 131.139 122.889 130.653 122.889 130.12C122.889 129.597 123.023 129.117 123.289 128.68C123.556 128.243 123.908 127.893 124.345 127.632C124.783 127.371 125.257 127.24 125.769 127.24C126.297 127.24 126.777 127.371 127.209 127.632C127.647 127.888 127.996 128.235 128.257 128.672C128.519 129.104 128.649 129.587 128.649 130.12C128.649 130.653 128.519 131.139 128.257 131.576C127.996 132.008 127.647 132.355 127.209 132.616C126.777 132.872 126.297 133 125.769 133ZM125.769 131.744C126.063 131.744 126.332 131.669 126.577 131.52C126.828 131.371 127.025 131.173 127.169 130.928C127.319 130.683 127.393 130.413 127.393 130.12C127.393 129.827 127.319 129.557 127.169 129.312C127.025 129.061 126.828 128.864 126.577 128.72C126.332 128.571 126.063 128.496 125.769 128.496C125.476 128.496 125.207 128.571 124.961 128.72C124.716 128.864 124.519 129.061 124.369 129.312C124.22 129.557 124.145 129.827 124.145 130.12C124.145 130.413 124.22 130.683 124.369 130.928C124.519 131.173 124.716 131.371 124.961 131.52C125.207 131.669 125.476 131.744 125.769 131.744ZM123.369 134.848V133.672H128.169V134.848H123.369ZM134.501 139.24C133.77 139.24 133.106 139.064 132.509 138.712C131.917 138.36 131.445 137.88 131.093 137.272C130.746 136.659 130.573 135.968 130.573 135.2V131.368C130.573 130.563 130.746 129.851 131.093 129.232C131.445 128.608 131.925 128.123 132.533 127.776C133.146 127.424 133.845 127.248 134.629 127.248C135.264 127.248 135.853 127.379 136.397 127.64C136.946 127.896 137.408 128.267 137.781 128.752L136.717 129.696C136.488 129.36 136.189 129.093 135.821 128.896C135.453 128.699 135.056 128.6 134.629 128.6C134.122 128.6 133.672 128.723 133.277 128.968C132.888 129.208 132.581 129.528 132.357 129.928C132.133 130.323 132.021 130.749 132.021 131.208V133.52L131.709 133.168C132.045 132.688 132.472 132.304 132.989 132.016C133.506 131.728 134.066 131.584 134.669 131.584C135.384 131.584 136.024 131.752 136.589 132.088C137.16 132.424 137.608 132.88 137.933 133.456C138.264 134.027 138.429 134.669 138.429 135.384C138.429 136.099 138.25 136.747 137.893 137.328C137.536 137.909 137.058 138.373 136.461 138.72C135.869 139.067 135.216 139.24 134.501 139.24ZM134.501 137.864C134.96 137.864 135.378 137.755 135.757 137.536C136.136 137.312 136.434 137.013 136.653 136.64C136.877 136.261 136.989 135.843 136.989 135.384C136.989 134.925 136.877 134.507 136.653 134.128C136.434 133.749 136.136 133.451 135.757 133.232C135.384 133.008 134.968 132.896 134.509 132.896C134.05 132.896 133.632 133.008 133.253 133.232C132.88 133.451 132.581 133.749 132.357 134.128C132.133 134.507 132.021 134.925 132.021 135.384C132.021 135.837 132.13 136.253 132.349 136.632C132.573 137.005 132.872 137.304 133.245 137.528C133.624 137.752 134.042 137.864 134.501 137.864ZM144.399 139.24C143.652 139.24 142.985 139.072 142.399 138.736C141.817 138.395 141.356 137.933 141.015 137.352C140.679 136.765 140.511 136.099 140.511 135.352V131.128C140.511 130.381 140.679 129.715 141.015 129.128C141.356 128.541 141.817 128.08 142.399 127.744C142.985 127.408 143.652 127.24 144.399 127.24C145.145 127.24 145.812 127.408 146.399 127.744C146.985 128.08 147.447 128.541 147.783 129.128C148.119 129.715 148.287 130.381 148.287 131.128V135.352C148.287 136.099 148.119 136.765 147.783 137.352C147.447 137.933 146.985 138.395 146.399 138.736C145.812 139.072 145.145 139.24 144.399 139.24ZM144.399 137.872C144.852 137.872 145.263 137.763 145.631 137.544C145.999 137.325 146.292 137.032 146.511 136.664C146.729 136.291 146.839 135.88 146.839 135.432V131.04C146.839 130.587 146.729 130.176 146.511 129.808C146.292 129.44 145.999 129.147 145.631 128.928C145.263 128.709 144.852 128.6 144.399 128.6C143.951 128.6 143.54 128.709 143.167 128.928C142.799 129.147 142.505 129.44 142.287 129.808C142.068 130.176 141.959 130.587 141.959 131.04V135.432C141.959 135.88 142.068 136.291 142.287 136.664C142.505 137.032 142.799 137.325 143.167 137.544C143.54 137.763 143.951 137.872 144.399 137.872Z" fill="white"/>
<path d="M192 203.004L246.611 63.1956H266.616L323.428 203.004H305.024L290.821 167.653H224.007L210.204 203.004H192ZM230.608 150.676H284.019L256.814 82.9685L230.608 150.676Z" fill="white"/>
<path d="M422.792 203.004L420.792 174.643V147.88V146.881L420.992 174.244L420.792 174.643C411.59 193.018 385.184 206 364.38 206C342.975 206 321.371 192.219 321.371 166.854C321.371 148.679 334.174 132.101 354.978 124.512C373.382 117.921 403.188 113.926 420.592 113.926L420.792 126.709H420.592V112.927C420.592 103.94 419.992 75.9781 380.983 75.9781C347.176 75.9781 341.775 100.544 338.975 112.728L321.571 108.933C323.771 95.3516 334.974 60 381.784 60C420.992 60 438.596 84.3666 438.596 117.321V174.643C438.596 183.631 438.596 187.425 450.598 187.425L460 187.625V203.004H422.792ZM339.775 167.253C339.775 177.04 344.576 188.824 364.38 188.824C391.986 188.824 418.591 166.454 420.792 147.88L420.592 126.709C410.19 127.308 377.783 133.699 359.979 140.29C343.776 146.282 339.775 158.465 339.775 167.253Z" fill="white"/>
<rect x="520.5" y="0.5" width="519" height="265" rx="19.5" stroke="#333333"/>
<path d="M679.242 157V149.44H680.355V151.267L680.173 151.029C680.261 150.796 680.376 150.581 680.516 150.385C680.66 150.189 680.821 150.028 680.999 149.902C681.195 149.743 681.416 149.622 681.664 149.538C681.911 149.454 682.163 149.405 682.42 149.391C682.676 149.372 682.917 149.389 683.141 149.44V150.609C682.879 150.539 682.592 150.52 682.28 150.553C681.967 150.586 681.678 150.7 681.412 150.896C681.169 151.069 680.98 151.279 680.845 151.526C680.714 151.773 680.623 152.042 680.572 152.331C680.52 152.616 680.495 152.907 680.495 153.206V157H679.242ZM687.25 160.57C686.853 160.57 686.466 160.509 686.088 160.388C685.71 160.267 685.362 160.082 685.045 159.835C684.732 159.592 684.471 159.284 684.261 158.911L685.402 158.309C685.589 158.678 685.852 158.946 686.193 159.114C686.538 159.282 686.893 159.366 687.257 159.366C687.738 159.366 688.137 159.277 688.454 159.1C688.771 158.927 689.005 158.668 689.154 158.323C689.308 157.978 689.383 157.548 689.378 157.035V154.97H689.525V149.44H690.631V157.049C690.631 157.254 690.624 157.453 690.61 157.644C690.601 157.835 690.577 158.024 690.54 158.211C690.442 158.748 690.248 159.189 689.959 159.534C689.67 159.884 689.296 160.143 688.839 160.311C688.382 160.484 687.852 160.57 687.25 160.57ZM687.159 157.21C686.454 157.21 685.85 157.035 685.346 156.685C684.842 156.33 684.452 155.852 684.177 155.25C683.906 154.648 683.771 153.969 683.771 153.213C683.771 152.457 683.906 151.778 684.177 151.176C684.452 150.574 684.842 150.1 685.346 149.755C685.85 149.405 686.452 149.23 687.152 149.23C687.866 149.23 688.466 149.403 688.951 149.748C689.436 150.093 689.803 150.567 690.05 151.169C690.302 151.771 690.428 152.452 690.428 153.213C690.428 153.964 690.302 154.643 690.05 155.25C689.803 155.852 689.436 156.33 688.951 156.685C688.466 157.035 687.868 157.21 687.159 157.21ZM687.313 156.069C687.822 156.069 688.239 155.948 688.566 155.705C688.893 155.458 689.133 155.119 689.287 154.69C689.446 154.256 689.525 153.764 689.525 153.213C689.525 152.653 689.446 152.161 689.287 151.736C689.133 151.307 688.895 150.973 688.573 150.735C688.251 150.492 687.843 150.371 687.348 150.371C686.835 150.371 686.41 150.497 686.074 150.749C685.743 151.001 685.495 151.342 685.332 151.771C685.173 152.2 685.094 152.681 685.094 153.213C685.094 153.75 685.176 154.235 685.339 154.669C685.502 155.098 685.747 155.439 686.074 155.691C686.405 155.943 686.818 156.069 687.313 156.069ZM696.057 157.21C695.348 157.21 694.751 157.035 694.265 156.685C693.78 156.33 693.411 155.852 693.159 155.25C692.912 154.643 692.788 153.964 692.788 153.213C692.788 152.452 692.912 151.771 693.159 151.169C693.411 150.567 693.78 150.093 694.265 149.748C694.755 149.403 695.355 149.23 696.064 149.23C696.764 149.23 697.366 149.405 697.87 149.755C698.379 150.1 698.769 150.574 699.039 151.176C699.31 151.778 699.445 152.457 699.445 153.213C699.445 153.969 699.31 154.648 699.039 155.25C698.769 155.852 698.379 156.33 697.87 156.685C697.366 157.035 696.762 157.21 696.057 157.21ZM692.578 157V146.92H693.831V151.435H693.691V157H692.578ZM695.903 156.069C696.403 156.069 696.816 155.943 697.142 155.691C697.469 155.439 697.714 155.098 697.877 154.669C698.041 154.235 698.122 153.75 698.122 153.213C698.122 152.681 698.041 152.2 697.877 151.771C697.719 151.342 697.471 151.001 697.135 150.749C696.804 150.497 696.382 150.371 695.868 150.371C695.378 150.371 694.972 150.492 694.65 150.735C694.328 150.973 694.088 151.307 693.929 151.736C693.771 152.161 693.691 152.653 693.691 153.213C693.691 153.764 693.768 154.256 693.922 154.69C694.081 155.119 694.324 155.458 694.65 155.705C694.977 155.948 695.395 156.069 695.903 156.069Z" fill="white"/>
<path d="M669.808 183.21C669.042 183.21 668.391 183.04 667.855 182.699C667.323 182.354 666.917 181.88 666.637 181.278C666.357 180.676 666.212 179.99 666.203 179.22C666.212 178.431 666.359 177.738 666.644 177.141C666.933 176.539 667.346 176.07 667.883 175.734C668.419 175.398 669.066 175.23 669.822 175.23C670.62 175.23 671.306 175.426 671.88 175.818C672.458 176.21 672.846 176.747 673.042 177.428L671.81 177.799C671.651 177.36 671.392 177.02 671.033 176.777C670.678 176.534 670.27 176.413 669.808 176.413C669.29 176.413 668.863 176.534 668.527 176.777C668.191 177.015 667.941 177.346 667.778 177.771C667.614 178.191 667.53 178.674 667.526 179.22C667.535 180.06 667.729 180.739 668.107 181.257C668.489 181.77 669.056 182.027 669.808 182.027C670.302 182.027 670.713 181.915 671.04 181.691C671.366 181.462 671.614 181.133 671.782 180.704L673.042 181.033C672.78 181.738 672.372 182.277 671.817 182.65C671.261 183.023 670.592 183.21 669.808 183.21ZM683.507 183L683.514 178.163C683.514 177.598 683.363 177.157 683.059 176.84C682.761 176.518 682.371 176.357 681.89 176.357C681.61 176.357 681.344 176.422 681.092 176.553C680.84 176.679 680.635 176.88 680.476 177.155C680.318 177.426 680.238 177.773 680.238 178.198L679.58 177.932C679.571 177.395 679.681 176.926 679.909 176.525C680.143 176.119 680.46 175.804 680.861 175.58C681.263 175.356 681.715 175.244 682.219 175.244C683.008 175.244 683.629 175.484 684.081 175.965C684.534 176.441 684.76 177.083 684.76 177.89L684.753 183H683.507ZM674.463 183V175.44H675.576V177.463H675.716V183H674.463ZM678.992 183L678.999 178.212C678.999 177.633 678.85 177.181 678.551 176.854C678.253 176.523 677.856 176.357 677.361 176.357C676.871 176.357 676.475 176.525 676.171 176.861C675.868 177.197 675.716 177.643 675.716 178.198L675.058 177.806C675.058 177.316 675.175 176.877 675.408 176.49C675.642 176.103 675.959 175.799 676.36 175.58C676.762 175.356 677.217 175.244 677.725 175.244C678.234 175.244 678.677 175.351 679.055 175.566C679.433 175.781 679.725 176.089 679.93 176.49C680.136 176.887 680.238 177.36 680.238 177.911L680.231 183H678.992ZM687.36 186.36L688.823 182.384L688.844 183.56L685.54 175.44H686.849L689.439 181.971H688.991L691.42 175.44H692.687L688.571 186.36H687.36ZM693.836 183L693.843 172.92H695.103V179.08L698.274 175.44H699.891L696.552 179.22L700.283 183H698.54L695.103 179.36V183H693.836Z" fill="white"/>
<path d="M682.396 209V205.213C682.396 204.854 682.364 204.508 682.298 204.177C682.238 203.846 682.128 203.549 681.969 203.288C681.815 203.022 681.605 202.812 681.339 202.658C681.078 202.504 680.747 202.427 680.345 202.427C680.033 202.427 679.748 202.481 679.491 202.588C679.239 202.691 679.022 202.849 678.84 203.064C678.658 203.279 678.516 203.549 678.413 203.876C678.315 204.198 678.266 204.578 678.266 205.017L677.447 204.765C677.447 204.032 677.578 203.405 677.839 202.882C678.105 202.355 678.476 201.951 678.952 201.671C679.433 201.386 679.998 201.244 680.646 201.244C681.136 201.244 681.554 201.321 681.899 201.475C682.245 201.629 682.532 201.834 682.76 202.091C682.989 202.343 683.169 202.628 683.299 202.945C683.43 203.258 683.521 203.577 683.572 203.904C683.628 204.226 683.656 204.532 683.656 204.821V209H682.396ZM677.006 209V198.92H678.126V204.485H678.266V209H677.006ZM688.752 209.21C688.01 209.21 687.361 209.047 686.806 208.72C686.255 208.389 685.826 207.929 685.518 207.341C685.21 206.748 685.056 206.058 685.056 205.269C685.056 204.443 685.208 203.729 685.511 203.127C685.814 202.52 686.237 202.054 686.778 201.727C687.324 201.396 687.963 201.23 688.696 201.23C689.457 201.23 690.103 201.405 690.635 201.755C691.172 202.105 691.573 202.604 691.839 203.253C692.11 203.902 692.226 204.674 692.189 205.57H690.929V205.122C690.915 204.193 690.726 203.5 690.362 203.043C689.998 202.581 689.457 202.35 688.738 202.35C687.968 202.35 687.382 202.597 686.981 203.092C686.58 203.587 686.379 204.296 686.379 205.22C686.379 206.111 686.58 206.802 686.981 207.292C687.382 207.782 687.954 208.027 688.696 208.027C689.195 208.027 689.629 207.913 689.998 207.684C690.367 207.455 690.656 207.126 690.866 206.697L692.063 207.11C691.769 207.777 691.326 208.295 690.733 208.664C690.145 209.028 689.485 209.21 688.752 209.21ZM685.959 205.57V204.569H691.545V205.57H685.959ZM692.634 209L695.525 205.178L692.697 201.44H694.181L696.253 204.212L698.304 201.44H699.788L696.96 205.178L699.858 209H698.367L696.253 206.144L694.125 209H692.634Z" fill="white"/>
<g clip-path="url(#clip0_2541_12789)">
<rect x="730" y="53" width="125" height="82" rx="8" fill="#0D3062"/>
<path d="M732.737 157V148.299L730.84 149.447V148.054L732.737 146.92H734.004V157H732.737ZM739.433 157.196C738.933 157.196 738.469 157.105 738.04 156.923C737.61 156.736 737.239 156.475 736.927 156.139C736.619 155.798 736.392 155.395 736.248 154.928L737.445 154.585C737.599 155.052 737.855 155.406 738.215 155.649C738.574 155.892 738.978 156.011 739.426 156.006C739.836 155.997 740.191 155.903 740.49 155.726C740.793 155.544 741.026 155.297 741.19 154.984C741.358 154.671 741.442 154.31 741.442 153.899C741.442 153.274 741.255 152.767 740.882 152.38C740.508 151.988 740.018 151.792 739.412 151.792C739.244 151.792 739.066 151.815 738.88 151.862C738.698 151.909 738.527 151.974 738.369 152.058L737.767 151.071L741.505 147.69L741.666 148.11H736.647V146.92H742.59V148.117L739.405 151.169L739.391 150.728C740.058 150.681 740.641 150.791 741.141 151.057C741.64 151.323 742.027 151.703 742.303 152.198C742.583 152.693 742.722 153.26 742.722 153.899C742.722 154.543 742.578 155.112 742.289 155.607C741.999 156.102 741.607 156.491 741.113 156.776C740.618 157.056 740.058 157.196 739.433 157.196ZM751.699 157V155.145H747.065V153.962L750.39 146.92H751.804L748.479 153.962H751.699V151.127H752.959V153.962H754.009V155.145H752.959V157H751.699ZM758.835 157.21C758.191 157.21 757.622 157.082 757.127 156.825C756.632 156.564 756.245 156.202 755.965 155.74C755.685 155.278 755.545 154.739 755.545 154.123C755.545 153.521 755.687 152.977 755.972 152.492C756.261 152.007 756.695 151.633 757.274 151.372L757.253 151.827C756.782 151.598 756.42 151.276 756.168 150.861C755.916 150.441 755.79 149.977 755.79 149.468C755.79 148.899 755.921 148.409 756.182 147.998C756.443 147.587 756.803 147.27 757.26 147.046C757.717 146.822 758.242 146.71 758.835 146.71C759.428 146.71 759.953 146.822 760.41 147.046C760.867 147.27 761.227 147.587 761.488 147.998C761.749 148.409 761.88 148.899 761.88 149.468C761.88 149.977 761.761 150.439 761.523 150.854C761.285 151.265 760.919 151.589 760.424 151.827L760.396 151.379C760.975 151.631 761.409 152.002 761.698 152.492C761.992 152.977 762.139 153.521 762.139 154.123C762.139 154.739 761.997 155.278 761.712 155.74C761.432 156.202 761.042 156.564 760.543 156.825C760.048 157.082 759.479 157.21 758.835 157.21ZM758.835 156.02C759.423 156.02 759.899 155.859 760.263 155.537C760.632 155.21 760.816 154.739 760.816 154.123C760.816 153.502 760.634 153.031 760.27 152.709C759.911 152.382 759.432 152.219 758.835 152.219C758.242 152.219 757.764 152.382 757.4 152.709C757.041 153.031 756.861 153.502 756.861 154.123C756.861 154.739 757.043 155.21 757.407 155.537C757.771 155.859 758.247 156.02 758.835 156.02ZM758.835 151.022C759.348 151.022 759.764 150.894 760.081 150.637C760.398 150.376 760.557 149.986 760.557 149.468C760.557 148.95 760.398 148.563 760.081 148.306C759.764 148.045 759.348 147.914 758.835 147.914C758.326 147.914 757.911 148.045 757.589 148.306C757.272 148.563 757.113 148.95 757.113 149.468C757.113 149.986 757.272 150.376 757.589 150.637C757.911 150.894 758.326 151.022 758.835 151.022ZM770.056 146.717C770.7 146.717 771.281 146.871 771.799 147.179C772.317 147.487 772.728 147.907 773.031 148.439C773.339 148.971 773.493 149.575 773.493 150.252V153.605C773.493 154.31 773.342 154.933 773.038 155.474C772.735 156.015 772.315 156.44 771.778 156.748C771.246 157.056 770.635 157.21 769.944 157.21C769.394 157.21 768.878 157.096 768.397 156.867C767.921 156.638 767.518 156.314 767.186 155.894L768.117 155.068C768.323 155.357 768.586 155.591 768.908 155.768C769.23 155.941 769.576 156.027 769.944 156.027C770.392 156.027 770.787 155.92 771.127 155.705C771.473 155.49 771.741 155.21 771.932 154.865C772.128 154.52 772.226 154.146 772.226 153.745V151.722L772.499 152.03C772.21 152.45 771.839 152.786 771.386 153.038C770.934 153.29 770.441 153.416 769.909 153.416C769.284 153.416 768.724 153.269 768.229 152.975C767.735 152.681 767.343 152.284 767.053 151.785C766.764 151.281 766.619 150.716 766.619 150.091C766.619 149.466 766.776 148.899 767.088 148.39C767.401 147.877 767.816 147.471 768.334 147.172C768.857 146.869 769.431 146.717 770.056 146.717ZM770.056 147.921C769.655 147.921 769.289 148.019 768.957 148.215C768.631 148.406 768.369 148.668 768.173 148.999C767.977 149.326 767.879 149.69 767.879 150.091C767.879 150.492 767.975 150.859 768.166 151.19C768.362 151.517 768.624 151.778 768.95 151.974C769.282 152.17 769.648 152.268 770.049 152.268C770.451 152.268 770.817 152.17 771.148 151.974C771.48 151.778 771.741 151.517 771.932 151.19C772.128 150.859 772.226 150.492 772.226 150.091C772.226 149.694 772.128 149.333 771.932 149.006C771.741 148.675 771.48 148.411 771.148 148.215C770.822 148.019 770.458 147.921 770.056 147.921ZM778.605 157.21C777.961 157.21 777.391 157.082 776.897 156.825C776.402 156.564 776.015 156.202 775.735 155.74C775.455 155.278 775.315 154.739 775.315 154.123C775.315 153.521 775.457 152.977 775.742 152.492C776.031 152.007 776.465 151.633 777.044 151.372L777.023 151.827C776.551 151.598 776.19 151.276 775.938 150.861C775.686 150.441 775.56 149.977 775.56 149.468C775.56 148.899 775.69 148.409 775.952 147.998C776.213 147.587 776.572 147.27 777.03 147.046C777.487 146.822 778.012 146.71 778.605 146.71C779.197 146.71 779.722 146.822 780.18 147.046C780.637 147.27 780.996 147.587 781.258 147.998C781.519 148.409 781.65 148.899 781.65 149.468C781.65 149.977 781.531 150.439 781.293 150.854C781.055 151.265 780.688 151.589 780.194 151.827L780.166 151.379C780.744 151.631 781.178 152.002 781.468 152.492C781.762 152.977 781.909 153.521 781.909 154.123C781.909 154.739 781.766 155.278 781.482 155.74C781.202 156.202 780.812 156.564 780.313 156.825C779.818 157.082 779.249 157.21 778.605 157.21ZM778.605 156.02C779.193 156.02 779.669 155.859 780.033 155.537C780.401 155.21 780.586 154.739 780.586 154.123C780.586 153.502 780.404 153.031 780.04 152.709C779.68 152.382 779.202 152.219 778.605 152.219C778.012 152.219 777.534 152.382 777.17 152.709C776.81 153.031 776.631 153.502 776.631 154.123C776.631 154.739 776.813 155.21 777.177 155.537C777.541 155.859 778.017 156.02 778.605 156.02ZM778.605 151.022C779.118 151.022 779.533 150.894 779.851 150.637C780.168 150.376 780.327 149.986 780.327 149.468C780.327 148.95 780.168 148.563 779.851 148.306C779.533 148.045 779.118 147.914 778.605 147.914C778.096 147.914 777.681 148.045 777.359 148.306C777.041 148.563 776.883 148.95 776.883 149.468C776.883 149.986 777.041 150.376 777.359 150.637C777.681 150.894 778.096 151.022 778.605 151.022Z" fill="#999999"/>
<path d="M734.13 183.21C733.486 183.21 732.917 183.082 732.422 182.825C731.927 182.564 731.54 182.202 731.26 181.74C730.98 181.278 730.84 180.739 730.84 180.123C730.84 179.521 730.982 178.977 731.267 178.492C731.556 178.007 731.99 177.633 732.569 177.372L732.548 177.827C732.077 177.598 731.715 177.276 731.463 176.861C731.211 176.441 731.085 175.977 731.085 175.468C731.085 174.899 731.216 174.409 731.477 173.998C731.738 173.587 732.098 173.27 732.555 173.046C733.012 172.822 733.537 172.71 734.13 172.71C734.723 172.71 735.248 172.822 735.705 173.046C736.162 173.27 736.522 173.587 736.783 173.998C737.044 174.409 737.175 174.899 737.175 175.468C737.175 175.977 737.056 176.439 736.818 176.854C736.58 177.265 736.214 177.589 735.719 177.827L735.691 177.379C736.27 177.631 736.704 178.002 736.993 178.492C737.287 178.977 737.434 179.521 737.434 180.123C737.434 180.739 737.292 181.278 737.007 181.74C736.727 182.202 736.337 182.564 735.838 182.825C735.343 183.082 734.774 183.21 734.13 183.21ZM734.13 182.02C734.718 182.02 735.194 181.859 735.558 181.537C735.927 181.21 736.111 180.739 736.111 180.123C736.111 179.502 735.929 179.031 735.565 178.709C735.206 178.382 734.727 178.219 734.13 178.219C733.537 178.219 733.059 178.382 732.695 178.709C732.336 179.031 732.156 179.502 732.156 180.123C732.156 180.739 732.338 181.21 732.702 181.537C733.066 181.859 733.542 182.02 734.13 182.02ZM734.13 177.022C734.643 177.022 735.059 176.894 735.376 176.637C735.693 176.376 735.852 175.986 735.852 175.468C735.852 174.95 735.693 174.563 735.376 174.306C735.059 174.045 734.643 173.914 734.13 173.914C733.621 173.914 733.206 174.045 732.884 174.306C732.567 174.563 732.408 174.95 732.408 175.468C732.408 175.986 732.567 176.376 732.884 176.637C733.206 176.894 733.621 177.022 734.13 177.022ZM739.783 183L743.409 174.117H738.831V172.92H744.746V174.117L741.127 183H739.783ZM747.549 183L746.709 182.16L755.963 172.92L756.803 173.76L747.549 183ZM754.703 183.21C754.241 183.21 753.819 183.098 753.436 182.874C753.058 182.645 752.755 182.342 752.526 181.964C752.298 181.581 752.183 181.157 752.183 180.69C752.183 180.233 752.3 179.813 752.533 179.43C752.767 179.047 753.075 178.742 753.457 178.513C753.84 178.284 754.255 178.17 754.703 178.17C755.165 178.17 755.588 178.284 755.97 178.513C756.353 178.737 756.656 179.04 756.88 179.423C757.109 179.801 757.223 180.223 757.223 180.69C757.223 181.157 757.109 181.581 756.88 181.964C756.656 182.342 756.353 182.645 755.97 182.874C755.588 183.098 755.165 183.21 754.703 183.21ZM754.703 182.111C754.96 182.111 755.196 182.046 755.41 181.915C755.63 181.784 755.802 181.612 755.928 181.397C756.059 181.182 756.124 180.947 756.124 180.69C756.124 180.433 756.059 180.198 755.928 179.983C755.802 179.764 755.63 179.591 755.41 179.465C755.196 179.334 754.96 179.269 754.703 179.269C754.447 179.269 754.211 179.334 753.996 179.465C753.782 179.591 753.609 179.764 753.478 179.983C753.348 180.198 753.282 180.433 753.282 180.69C753.282 180.947 753.348 181.182 753.478 181.397C753.609 181.612 753.782 181.784 753.996 181.915C754.211 182.046 754.447 182.111 754.703 182.111ZM748.809 177.75C748.347 177.75 747.925 177.638 747.542 177.414C747.16 177.185 746.854 176.882 746.625 176.504C746.401 176.121 746.289 175.697 746.289 175.23C746.289 174.773 746.406 174.353 746.639 173.97C746.873 173.587 747.181 173.282 747.563 173.053C747.946 172.824 748.361 172.71 748.809 172.71C749.271 172.71 749.691 172.824 750.069 173.053C750.452 173.277 750.758 173.58 750.986 173.963C751.215 174.341 751.329 174.763 751.329 175.23C751.329 175.697 751.215 176.121 750.986 176.504C750.758 176.882 750.452 177.185 750.069 177.414C749.691 177.638 749.271 177.75 748.809 177.75ZM748.809 176.651C749.066 176.651 749.302 176.586 749.516 176.455C749.736 176.324 749.908 176.152 750.034 175.937C750.165 175.722 750.23 175.487 750.23 175.23C750.23 174.973 750.165 174.738 750.034 174.523C749.908 174.304 749.736 174.131 749.516 174.005C749.302 173.874 749.066 173.809 748.809 173.809C748.553 173.809 748.317 173.874 748.102 174.005C747.888 174.131 747.715 174.304 747.584 174.523C747.454 174.738 747.388 174.973 747.388 175.23C747.388 175.487 747.454 175.722 747.584 175.937C747.715 176.152 747.888 176.324 748.102 176.455C748.317 176.586 748.553 176.651 748.809 176.651ZM764.833 183.21C764.315 183.21 763.832 183.103 763.384 182.888C762.941 182.673 762.56 182.379 762.243 182.006C761.93 181.628 761.706 181.194 761.571 180.704L762.768 180.382C762.852 180.713 763.001 181 763.216 181.243C763.431 181.481 763.68 181.668 763.965 181.803C764.254 181.934 764.555 181.999 764.868 181.999C765.279 181.999 765.647 181.901 765.974 181.705C766.305 181.504 766.567 181.241 766.758 180.914C766.949 180.583 767.045 180.221 767.045 179.829C767.045 179.423 766.945 179.057 766.744 178.73C766.548 178.399 766.284 178.137 765.953 177.946C765.622 177.755 765.26 177.659 764.868 177.659C764.425 177.659 764.044 177.752 763.727 177.939C763.414 178.121 763.167 178.345 762.985 178.611L761.879 178.191L762.187 172.92H767.598V174.103H762.789L763.342 173.585L763.083 177.806L762.81 177.449C763.09 177.15 763.424 176.919 763.811 176.756C764.203 176.593 764.602 176.511 765.008 176.511C765.633 176.511 766.193 176.658 766.688 176.952C767.183 177.241 767.575 177.638 767.864 178.142C768.153 178.641 768.298 179.204 768.298 179.829C768.298 180.45 768.139 181.017 767.822 181.53C767.505 182.039 767.082 182.447 766.555 182.755C766.032 183.058 765.458 183.21 764.833 183.21ZM771.729 183V174.299L769.832 175.447V174.054L771.729 172.92H772.996V183H771.729ZM776.78 183L775.94 182.16L785.194 172.92L786.034 173.76L776.78 183ZM783.934 183.21C783.472 183.21 783.049 183.098 782.667 182.874C782.289 182.645 781.985 182.342 781.757 181.964C781.528 181.581 781.414 181.157 781.414 180.69C781.414 180.233 781.53 179.813 781.764 179.43C781.997 179.047 782.305 178.742 782.688 178.513C783.07 178.284 783.486 178.17 783.934 178.17C784.396 178.17 784.818 178.284 785.201 178.513C785.583 178.737 785.887 179.04 786.111 179.423C786.339 179.801 786.454 180.223 786.454 180.69C786.454 181.157 786.339 181.581 786.111 181.964C785.887 182.342 785.583 182.645 785.201 182.874C784.818 183.098 784.396 183.21 783.934 183.21ZM783.934 182.111C784.19 182.111 784.426 182.046 784.641 181.915C784.86 181.784 785.033 181.612 785.159 181.397C785.289 181.182 785.355 180.947 785.355 180.69C785.355 180.433 785.289 180.198 785.159 179.983C785.033 179.764 784.86 179.591 784.641 179.465C784.426 179.334 784.19 179.269 783.934 179.269C783.677 179.269 783.441 179.334 783.227 179.465C783.012 179.591 782.839 179.764 782.709 179.983C782.578 180.198 782.513 180.433 782.513 180.69C782.513 180.947 782.578 181.182 782.709 181.397C782.839 181.612 783.012 181.784 783.227 181.915C783.441 182.046 783.677 182.111 783.934 182.111ZM778.04 177.75C777.578 177.75 777.155 177.638 776.773 177.414C776.39 177.185 776.084 176.882 775.856 176.504C775.632 176.121 775.52 175.697 775.52 175.23C775.52 174.773 775.636 174.353 775.87 173.97C776.103 173.587 776.411 173.282 776.794 173.053C777.176 172.824 777.592 172.71 778.04 172.71C778.502 172.71 778.922 172.824 779.3 173.053C779.682 173.277 779.988 173.58 780.217 173.963C780.445 174.341 780.56 174.763 780.56 175.23C780.56 175.697 780.445 176.121 780.217 176.504C779.988 176.882 779.682 177.185 779.3 177.414C778.922 177.638 778.502 177.75 778.04 177.75ZM778.04 176.651C778.296 176.651 778.532 176.586 778.747 176.455C778.966 176.324 779.139 176.152 779.265 175.937C779.395 175.722 779.461 175.487 779.461 175.23C779.461 174.973 779.395 174.738 779.265 174.523C779.139 174.304 778.966 174.131 778.747 174.005C778.532 173.874 778.296 173.809 778.04 173.809C777.783 173.809 777.547 173.874 777.333 174.005C777.118 174.131 776.945 174.304 776.815 174.523C776.684 174.738 776.619 174.973 776.619 175.23C776.619 175.487 776.684 175.722 776.815 175.937C776.945 176.152 777.118 176.324 777.333 176.455C777.547 176.586 777.783 176.651 778.04 176.651ZM794.484 183.21C793.83 183.21 793.247 183.063 792.734 182.769C792.225 182.47 791.821 182.067 791.523 181.558C791.229 181.045 791.082 180.461 791.082 179.808V176.112C791.082 175.459 791.229 174.875 791.523 174.362C791.821 173.849 792.225 173.445 792.734 173.151C793.247 172.857 793.83 172.71 794.484 172.71C795.137 172.71 795.72 172.857 796.234 173.151C796.747 173.445 797.151 173.849 797.445 174.362C797.739 174.875 797.886 175.459 797.886 176.112V179.808C797.886 180.461 797.739 181.045 797.445 181.558C797.151 182.067 796.747 182.47 796.234 182.769C795.72 183.063 795.137 183.21 794.484 183.21ZM794.484 182.013C794.88 182.013 795.24 181.917 795.562 181.726C795.884 181.535 796.14 181.278 796.332 180.956C796.523 180.629 796.619 180.27 796.619 179.878V176.035C796.619 175.638 796.523 175.279 796.332 174.957C796.14 174.635 795.884 174.378 795.562 174.187C795.24 173.996 794.88 173.9 794.484 173.9C794.092 173.9 793.732 173.996 793.406 174.187C793.084 174.378 792.827 174.635 792.636 174.957C792.444 175.279 792.349 175.638 792.349 176.035V179.878C792.349 180.27 792.444 180.629 792.636 180.956C792.827 181.278 793.084 181.535 793.406 181.726C793.732 181.917 794.092 182.013 794.484 182.013ZM800.965 183L800.125 182.16L809.379 172.92L810.219 173.76L800.965 183ZM808.119 183.21C807.657 183.21 807.235 183.098 806.852 182.874C806.474 182.645 806.171 182.342 805.942 181.964C805.714 181.581 805.599 181.157 805.599 180.69C805.599 180.233 805.716 179.813 805.949 179.43C806.183 179.047 806.491 178.742 806.873 178.513C807.256 178.284 807.671 178.17 808.119 178.17C808.581 178.17 809.004 178.284 809.386 178.513C809.769 178.737 810.072 179.04 810.296 179.423C810.525 179.801 810.639 180.223 810.639 180.69C810.639 181.157 810.525 181.581 810.296 181.964C810.072 182.342 809.769 182.645 809.386 182.874C809.004 183.098 808.581 183.21 808.119 183.21ZM808.119 182.111C808.376 182.111 808.612 182.046 808.826 181.915C809.046 181.784 809.218 181.612 809.344 181.397C809.475 181.182 809.54 180.947 809.54 180.69C809.54 180.433 809.475 180.198 809.344 179.983C809.218 179.764 809.046 179.591 808.826 179.465C808.612 179.334 808.376 179.269 808.119 179.269C807.863 179.269 807.627 179.334 807.412 179.465C807.198 179.591 807.025 179.764 806.894 179.983C806.764 180.198 806.698 180.433 806.698 180.69C806.698 180.947 806.764 181.182 806.894 181.397C807.025 181.612 807.198 181.784 807.412 181.915C807.627 182.046 807.863 182.111 808.119 182.111ZM802.225 177.75C801.763 177.75 801.341 177.638 800.958 177.414C800.576 177.185 800.27 176.882 800.041 176.504C799.817 176.121 799.705 175.697 799.705 175.23C799.705 174.773 799.822 174.353 800.055 173.97C800.289 173.587 800.597 173.282 800.979 173.053C801.362 172.824 801.777 172.71 802.225 172.71C802.687 172.71 803.107 172.824 803.485 173.053C803.868 173.277 804.174 173.58 804.402 173.963C804.631 174.341 804.745 174.763 804.745 175.23C804.745 175.697 804.631 176.121 804.402 176.504C804.174 176.882 803.868 177.185 803.485 177.414C803.107 177.638 802.687 177.75 802.225 177.75ZM802.225 176.651C802.482 176.651 802.718 176.586 802.932 176.455C803.152 176.324 803.324 176.152 803.45 175.937C803.581 175.722 803.646 175.487 803.646 175.23C803.646 174.973 803.581 174.738 803.45 174.523C803.324 174.304 803.152 174.131 802.932 174.005C802.718 173.874 802.482 173.809 802.225 173.809C801.969 173.809 801.733 173.874 801.518 174.005C801.304 174.131 801.131 174.304 801 174.523C800.87 174.738 800.804 174.973 800.804 175.23C800.804 175.487 800.87 175.722 801 175.937C801.131 176.152 801.304 176.324 801.518 176.455C801.733 176.586 801.969 176.651 802.225 176.651ZM818.704 183.21C818.065 183.21 817.484 183.056 816.961 182.748C816.443 182.44 816.03 182.02 815.722 181.488C815.419 180.951 815.267 180.347 815.267 179.675V176.322C815.267 175.617 815.419 174.994 815.722 174.453C816.03 173.907 816.45 173.482 816.982 173.179C817.519 172.871 818.13 172.717 818.816 172.717C819.371 172.717 819.887 172.831 820.363 173.06C820.844 173.284 821.247 173.608 821.574 174.033L820.643 174.859C820.442 174.565 820.181 174.332 819.859 174.159C819.537 173.986 819.189 173.9 818.816 173.9C818.373 173.9 817.978 174.007 817.633 174.222C817.292 174.432 817.024 174.712 816.828 175.062C816.632 175.407 816.534 175.781 816.534 176.182V178.205L816.261 177.897C816.555 177.477 816.928 177.141 817.381 176.889C817.834 176.637 818.324 176.511 818.851 176.511C819.476 176.511 820.036 176.658 820.531 176.952C821.03 177.246 821.422 177.645 821.707 178.149C821.996 178.648 822.141 179.211 822.141 179.836C822.141 180.461 821.985 181.028 821.672 181.537C821.359 182.046 820.942 182.452 820.419 182.755C819.901 183.058 819.329 183.21 818.704 183.21ZM818.704 182.006C819.105 182.006 819.472 181.91 819.803 181.719C820.134 181.523 820.396 181.262 820.587 180.935C820.783 180.604 820.881 180.237 820.881 179.836C820.881 179.435 820.783 179.068 820.587 178.737C820.396 178.406 820.134 178.144 819.803 177.953C819.476 177.757 819.112 177.659 818.711 177.659C818.31 177.659 817.943 177.757 817.612 177.953C817.285 178.144 817.024 178.406 816.828 178.737C816.632 179.068 816.534 179.435 816.534 179.836C816.534 180.233 816.63 180.597 816.821 180.928C817.017 181.255 817.278 181.516 817.605 181.712C817.936 181.908 818.303 182.006 818.704 182.006ZM823.682 182.993L823.689 181.873L828.162 177.848C828.536 177.512 828.785 177.195 828.911 176.896C829.042 176.593 829.107 176.282 829.107 175.965C829.107 175.578 829.019 175.228 828.841 174.915C828.664 174.602 828.421 174.355 828.113 174.173C827.81 173.991 827.465 173.9 827.077 173.9C826.676 173.9 826.319 173.996 826.006 174.187C825.694 174.374 825.446 174.623 825.264 174.936C825.087 175.249 825.001 175.589 825.005 175.958H823.731C823.731 175.323 823.878 174.763 824.172 174.278C824.466 173.788 824.865 173.405 825.369 173.13C825.878 172.85 826.454 172.71 827.098 172.71C827.724 172.71 828.284 172.855 828.778 173.144C829.273 173.429 829.663 173.818 829.947 174.313C830.237 174.803 830.381 175.358 830.381 175.979C830.381 176.418 830.325 176.798 830.213 177.12C830.106 177.442 829.938 177.741 829.709 178.016C829.481 178.287 829.194 178.576 828.848 178.884L825.131 182.223L824.97 181.803H830.381V182.993H823.682ZM833.176 183L832.336 182.16L841.59 172.92L842.43 173.76L833.176 183ZM840.33 183.21C839.868 183.21 839.446 183.098 839.063 182.874C838.685 182.645 838.382 182.342 838.153 181.964C837.925 181.581 837.81 181.157 837.81 180.69C837.81 180.233 837.927 179.813 838.16 179.43C838.394 179.047 838.702 178.742 839.084 178.513C839.467 178.284 839.882 178.17 840.33 178.17C840.792 178.17 841.215 178.284 841.597 178.513C841.98 178.737 842.283 179.04 842.507 179.423C842.736 179.801 842.85 180.223 842.85 180.69C842.85 181.157 842.736 181.581 842.507 181.964C842.283 182.342 841.98 182.645 841.597 182.874C841.215 183.098 840.792 183.21 840.33 183.21ZM840.33 182.111C840.587 182.111 840.823 182.046 841.037 181.915C841.257 181.784 841.429 181.612 841.555 181.397C841.686 181.182 841.751 180.947 841.751 180.69C841.751 180.433 841.686 180.198 841.555 179.983C841.429 179.764 841.257 179.591 841.037 179.465C840.823 179.334 840.587 179.269 840.33 179.269C840.074 179.269 839.838 179.334 839.623 179.465C839.409 179.591 839.236 179.764 839.105 179.983C838.975 180.198 838.909 180.433 838.909 180.69C838.909 180.947 838.975 181.182 839.105 181.397C839.236 181.612 839.409 181.784 839.623 181.915C839.838 182.046 840.074 182.111 840.33 182.111ZM834.436 177.75C833.974 177.75 833.552 177.638 833.169 177.414C832.787 177.185 832.481 176.882 832.252 176.504C832.028 176.121 831.916 175.697 831.916 175.23C831.916 174.773 832.033 174.353 832.266 173.97C832.5 173.587 832.808 173.282 833.19 173.053C833.573 172.824 833.988 172.71 834.436 172.71C834.898 172.71 835.318 172.824 835.696 173.053C836.079 173.277 836.385 173.58 836.613 173.963C836.842 174.341 836.956 174.763 836.956 175.23C836.956 175.697 836.842 176.121 836.613 176.504C836.385 176.882 836.079 177.185 835.696 177.414C835.318 177.638 834.898 177.75 834.436 177.75ZM834.436 176.651C834.693 176.651 834.929 176.586 835.143 176.455C835.363 176.324 835.535 176.152 835.661 175.937C835.792 175.722 835.857 175.487 835.857 175.23C835.857 174.973 835.792 174.738 835.661 174.523C835.535 174.304 835.363 174.131 835.143 174.005C834.929 173.874 834.693 173.809 834.436 173.809C834.18 173.809 833.944 173.874 833.729 174.005C833.515 174.131 833.342 174.304 833.211 174.523C833.081 174.738 833.015 174.973 833.015 175.23C833.015 175.487 833.081 175.722 833.211 175.937C833.342 176.152 833.515 176.324 833.729 176.455C833.944 176.586 834.18 176.651 834.436 176.651Z" fill="#999999"/>
<path d="M734.382 209.21C733.729 209.21 733.145 209.063 732.632 208.769C732.123 208.47 731.72 208.067 731.421 207.558C731.127 207.045 730.98 206.461 730.98 205.808V202.112C730.98 201.459 731.127 200.875 731.421 200.362C731.72 199.849 732.123 199.445 732.632 199.151C733.145 198.857 733.729 198.71 734.382 198.71C735.035 198.71 735.619 198.857 736.132 199.151C736.645 199.445 737.049 199.849 737.343 200.362C737.637 200.875 737.784 201.459 737.784 202.112V205.808C737.784 206.461 737.637 207.045 737.343 207.558C737.049 208.067 736.645 208.47 736.132 208.769C735.619 209.063 735.035 209.21 734.382 209.21ZM734.382 208.013C734.779 208.013 735.138 207.917 735.46 207.726C735.782 207.535 736.039 207.278 736.23 206.956C736.421 206.629 736.517 206.27 736.517 205.878V202.035C736.517 201.638 736.421 201.279 736.23 200.957C736.039 200.635 735.782 200.378 735.46 200.187C735.138 199.996 734.779 199.9 734.382 199.9C733.99 199.9 733.631 199.996 733.304 200.187C732.982 200.378 732.725 200.635 732.534 200.957C732.343 201.279 732.247 201.638 732.247 202.035V205.878C732.247 206.27 732.343 206.629 732.534 206.956C732.725 207.278 732.982 207.535 733.304 207.726C733.631 207.917 733.99 208.013 734.382 208.013ZM742.712 209.21C742.007 209.21 741.403 209.035 740.899 208.685C740.395 208.33 740.005 207.852 739.73 207.25C739.459 206.648 739.324 205.969 739.324 205.213C739.324 204.457 739.459 203.778 739.73 203.176C740.005 202.574 740.395 202.1 740.899 201.755C741.403 201.405 742.005 201.23 742.705 201.23C743.419 201.23 744.018 201.403 744.504 201.748C744.989 202.093 745.355 202.567 745.603 203.169C745.855 203.771 745.981 204.452 745.981 205.213C745.981 205.964 745.855 206.643 745.603 207.25C745.355 207.852 744.989 208.33 744.504 208.685C744.018 209.035 743.421 209.21 742.712 209.21ZM742.866 208.069C743.374 208.069 743.792 207.948 744.119 207.705C744.445 207.458 744.686 207.119 744.84 206.69C744.998 206.256 745.078 205.764 745.078 205.213C745.078 204.653 744.998 204.161 744.84 203.736C744.686 203.307 744.448 202.973 744.126 202.735C743.804 202.492 743.395 202.371 742.901 202.371C742.387 202.371 741.963 202.497 741.627 202.749C741.295 203.001 741.048 203.342 740.885 203.771C740.726 204.2 740.647 204.681 740.647 205.213C740.647 205.75 740.728 206.235 740.892 206.669C741.055 207.098 741.3 207.439 741.627 207.691C741.958 207.943 742.371 208.069 742.866 208.069ZM745.078 209V203.435H744.938V198.92H746.191V209H745.078ZM750.917 209.196C750.418 209.196 749.953 209.105 749.524 208.923C749.095 208.736 748.724 208.475 748.411 208.139C748.103 207.798 747.877 207.395 747.732 206.928L748.929 206.585C749.083 207.052 749.34 207.406 749.699 207.649C750.058 207.892 750.462 208.011 750.91 208.006C751.321 207.997 751.675 207.903 751.974 207.726C752.277 207.544 752.511 207.297 752.674 206.984C752.842 206.671 752.926 206.31 752.926 205.899C752.926 205.274 752.739 204.767 752.366 204.38C751.993 203.988 751.503 203.792 750.896 203.792C750.728 203.792 750.551 203.815 750.364 203.862C750.182 203.909 750.012 203.974 749.853 204.058L749.251 203.071L752.989 199.69L753.15 200.11H748.131V198.92H754.074V200.117L750.889 203.169L750.875 202.728C751.542 202.681 752.126 202.791 752.625 203.057C753.124 203.323 753.512 203.703 753.787 204.198C754.067 204.693 754.207 205.26 754.207 205.899C754.207 206.543 754.062 207.112 753.773 207.607C753.484 208.102 753.092 208.491 752.597 208.776C752.102 209.056 751.542 209.196 750.917 209.196ZM759.429 209.21C758.776 209.21 758.192 209.063 757.679 208.769C757.17 208.47 756.767 208.067 756.468 207.558C756.174 207.045 756.027 206.461 756.027 205.808V202.112C756.027 201.459 756.174 200.875 756.468 200.362C756.767 199.849 757.17 199.445 757.679 199.151C758.192 198.857 758.776 198.71 759.429 198.71C760.082 198.71 760.666 198.857 761.179 199.151C761.692 199.445 762.096 199.849 762.39 200.362C762.684 200.875 762.831 201.459 762.831 202.112V205.808C762.831 206.461 762.684 207.045 762.39 207.558C762.096 208.067 761.692 208.47 761.179 208.769C760.666 209.063 760.082 209.21 759.429 209.21ZM759.429 208.013C759.826 208.013 760.185 207.917 760.507 207.726C760.829 207.535 761.086 207.278 761.277 206.956C761.468 206.629 761.564 206.27 761.564 205.878V202.035C761.564 201.638 761.468 201.279 761.277 200.957C761.086 200.635 760.829 200.378 760.507 200.187C760.185 199.996 759.826 199.9 759.429 199.9C759.037 199.9 758.678 199.996 758.351 200.187C758.029 200.378 757.772 200.635 757.581 200.957C757.39 201.279 757.294 201.638 757.294 202.035V205.878C757.294 206.27 757.39 206.629 757.581 206.956C757.772 207.278 758.029 207.535 758.351 207.726C758.678 207.917 759.037 208.013 759.429 208.013ZM768.228 209.21C767.588 209.21 767.007 209.056 766.485 208.748C765.967 208.44 765.554 208.02 765.246 207.488C764.942 206.951 764.791 206.347 764.791 205.675V202.322C764.791 201.617 764.942 200.994 765.246 200.453C765.554 199.907 765.974 199.482 766.506 199.179C767.042 198.871 767.654 198.717 768.34 198.717C768.895 198.717 769.411 198.831 769.887 199.06C770.367 199.284 770.771 199.608 771.098 200.033L770.167 200.859C769.966 200.565 769.705 200.332 769.383 200.159C769.061 199.986 768.713 199.9 768.34 199.9C767.896 199.9 767.502 200.007 767.157 200.222C766.816 200.432 766.548 200.712 766.352 201.062C766.156 201.407 766.058 201.781 766.058 202.182V204.205L765.785 203.897C766.079 203.477 766.452 203.141 766.905 202.889C767.357 202.637 767.847 202.511 768.375 202.511C769 202.511 769.56 202.658 770.055 202.952C770.554 203.246 770.946 203.645 771.231 204.149C771.52 204.648 771.665 205.211 771.665 205.836C771.665 206.461 771.508 207.028 771.196 207.537C770.883 208.046 770.465 208.452 769.943 208.755C769.425 209.058 768.853 209.21 768.228 209.21ZM768.228 208.006C768.629 208.006 768.995 207.91 769.327 207.719C769.658 207.523 769.919 207.262 770.111 206.935C770.307 206.604 770.405 206.237 770.405 205.836C770.405 205.435 770.307 205.068 770.111 204.737C769.919 204.406 769.658 204.144 769.327 203.953C769 203.757 768.636 203.659 768.235 203.659C767.833 203.659 767.467 203.757 767.136 203.953C766.809 204.144 766.548 204.406 766.352 204.737C766.156 205.068 766.058 205.435 766.058 205.836C766.058 206.233 766.153 206.597 766.345 206.928C766.541 207.255 766.802 207.516 767.129 207.712C767.46 207.908 767.826 208.006 768.228 208.006ZM773.206 208.993L773.213 207.873L777.686 203.848C778.059 203.512 778.309 203.195 778.435 202.896C778.566 202.593 778.631 202.282 778.631 201.965C778.631 201.578 778.542 201.228 778.365 200.915C778.188 200.602 777.945 200.355 777.637 200.173C777.334 199.991 776.988 199.9 776.601 199.9C776.2 199.9 775.843 199.996 775.53 200.187C775.217 200.374 774.97 200.623 774.788 200.936C774.611 201.249 774.524 201.589 774.529 201.958H773.255C773.255 201.323 773.402 200.763 773.696 200.278C773.99 199.788 774.389 199.405 774.893 199.13C775.402 198.85 775.978 198.71 776.622 198.71C777.247 198.71 777.807 198.855 778.302 199.144C778.797 199.429 779.186 199.818 779.471 200.313C779.76 200.803 779.905 201.358 779.905 201.979C779.905 202.418 779.849 202.798 779.737 203.12C779.63 203.442 779.462 203.741 779.233 204.016C779.004 204.287 778.717 204.576 778.372 204.884L774.655 208.223L774.494 207.803H779.905V208.993H773.206Z" fill="#999999"/>
</g>
<g clip-path="url(#clip1_2541_12789)">
<rect x="875" y="53" width="125" height="82" rx="8" fill="white"/>
<path d="M875.7 156.993L875.707 155.873L880.18 151.848C880.553 151.512 880.803 151.195 880.929 150.896C881.06 150.593 881.125 150.282 881.125 149.965C881.125 149.578 881.036 149.228 880.859 148.915C880.682 148.602 880.439 148.355 880.131 148.173C879.828 147.991 879.482 147.9 879.095 147.9C878.694 147.9 878.337 147.996 878.024 148.187C877.711 148.374 877.464 148.623 877.282 148.936C877.105 149.249 877.018 149.589 877.023 149.958H875.749C875.749 149.323 875.896 148.763 876.19 148.278C876.484 147.788 876.883 147.405 877.387 147.13C877.896 146.85 878.472 146.71 879.116 146.71C879.741 146.71 880.301 146.855 880.796 147.144C881.291 147.429 881.68 147.818 881.965 148.313C882.254 148.803 882.399 149.358 882.399 149.979C882.399 150.418 882.343 150.798 882.231 151.12C882.124 151.442 881.956 151.741 881.727 152.016C881.498 152.287 881.211 152.576 880.866 152.884L877.149 156.223L876.988 155.803H882.399V156.993H875.7ZM887.056 157.21C886.538 157.21 886.055 157.103 885.607 156.888C885.163 156.673 884.783 156.379 884.466 156.006C884.153 155.628 883.929 155.194 883.794 154.704L884.991 154.382C885.075 154.713 885.224 155 885.439 155.243C885.653 155.481 885.903 155.668 886.188 155.803C886.477 155.934 886.778 155.999 887.091 155.999C887.501 155.999 887.87 155.901 888.197 155.705C888.528 155.504 888.789 155.241 888.981 154.914C889.172 154.583 889.268 154.221 889.268 153.829C889.268 153.423 889.167 153.057 888.967 152.73C888.771 152.399 888.507 152.137 888.176 151.946C887.844 151.755 887.483 151.659 887.091 151.659C886.647 151.659 886.267 151.752 885.95 151.939C885.637 152.121 885.39 152.345 885.208 152.611L884.102 152.191L884.41 146.92H889.821V148.103H885.012L885.565 147.585L885.306 151.806L885.033 151.449C885.313 151.15 885.646 150.919 886.034 150.756C886.426 150.593 886.825 150.511 887.231 150.511C887.856 150.511 888.416 150.658 888.911 150.952C889.405 151.241 889.797 151.638 890.087 152.142C890.376 152.641 890.521 153.204 890.521 153.829C890.521 154.45 890.362 155.017 890.045 155.53C889.727 156.039 889.305 156.447 888.778 156.755C888.255 157.058 887.681 157.21 887.056 157.21ZM895.177 157.21C894.659 157.21 894.176 157.103 893.728 156.888C893.285 156.673 892.904 156.379 892.587 156.006C892.274 155.628 892.05 155.194 891.915 154.704L893.112 154.382C893.196 154.713 893.345 155 893.56 155.243C893.775 155.481 894.024 155.668 894.309 155.803C894.598 155.934 894.899 155.999 895.212 155.999C895.623 155.999 895.991 155.901 896.318 155.705C896.649 155.504 896.911 155.241 897.102 154.914C897.293 154.583 897.389 154.221 897.389 153.829C897.389 153.423 897.289 153.057 897.088 152.73C896.892 152.399 896.628 152.137 896.297 151.946C895.966 151.755 895.604 151.659 895.212 151.659C894.769 151.659 894.388 151.752 894.071 151.939C893.758 152.121 893.511 152.345 893.329 152.611L892.223 152.191L892.531 146.92H897.942V148.103H893.133L893.686 147.585L893.427 151.806L893.154 151.449C893.434 151.15 893.768 150.919 894.155 150.756C894.547 150.593 894.946 150.511 895.352 150.511C895.977 150.511 896.537 150.658 897.032 150.952C897.527 151.241 897.919 151.638 898.208 152.142C898.497 152.641 898.642 153.204 898.642 153.829C898.642 154.45 898.483 155.017 898.166 155.53C897.849 156.039 897.426 156.447 896.899 156.755C896.376 157.058 895.802 157.21 895.177 157.21ZM902.839 156.993L902.846 155.873L907.319 151.848C907.692 151.512 907.942 151.195 908.068 150.896C908.198 150.593 908.264 150.282 908.264 149.965C908.264 149.578 908.175 149.228 907.998 148.915C907.82 148.602 907.578 148.355 907.27 148.173C906.966 147.991 906.621 147.9 906.234 147.9C905.832 147.9 905.475 147.996 905.163 148.187C904.85 148.374 904.603 148.623 904.421 148.936C904.243 149.249 904.157 149.589 904.162 149.958H902.888C902.888 149.323 903.035 148.763 903.329 148.278C903.623 147.788 904.022 147.405 904.526 147.13C905.034 146.85 905.611 146.71 906.255 146.71C906.88 146.71 907.44 146.855 907.935 147.144C908.429 147.429 908.819 147.818 909.104 148.313C909.393 148.803 909.538 149.358 909.538 149.979C909.538 150.418 909.482 150.798 909.37 151.12C909.262 151.442 909.094 151.741 908.866 152.016C908.637 152.287 908.35 152.576 908.005 152.884L904.288 156.223L904.127 155.803H909.538V156.993H902.839ZM914.194 157.21C913.676 157.21 913.193 157.103 912.745 156.888C912.302 156.673 911.922 156.379 911.604 156.006C911.292 155.628 911.068 155.194 910.932 154.704L912.129 154.382C912.213 154.713 912.363 155 912.577 155.243C912.792 155.481 913.042 155.668 913.326 155.803C913.616 155.934 913.917 155.999 914.229 155.999C914.64 155.999 915.009 155.901 915.335 155.705C915.667 155.504 915.928 155.241 916.119 154.914C916.311 154.583 916.406 154.221 916.406 153.829C916.406 153.423 916.306 153.057 916.105 152.73C915.909 152.399 915.646 152.137 915.314 151.946C914.983 151.755 914.621 151.659 914.229 151.659C913.786 151.659 913.406 151.752 913.088 151.939C912.776 152.121 912.528 152.345 912.346 152.611L911.24 152.191L911.548 146.92H916.959V148.103H912.15L912.703 147.585L912.444 151.806L912.171 151.449C912.451 151.15 912.785 150.919 913.172 150.756C913.564 150.593 913.963 150.511 914.369 150.511C914.995 150.511 915.555 150.658 916.049 150.952C916.544 151.241 916.936 151.638 917.225 152.142C917.515 152.641 917.659 153.204 917.659 153.829C917.659 154.45 917.501 155.017 917.183 155.53C916.866 156.039 916.444 156.447 915.916 156.755C915.394 157.058 914.82 157.21 914.194 157.21ZM922.316 157.21C921.798 157.21 921.315 157.103 920.867 156.888C920.423 156.673 920.043 156.379 919.726 156.006C919.413 155.628 919.189 155.194 919.054 154.704L920.251 154.382C920.335 154.713 920.484 155 920.699 155.243C920.913 155.481 921.163 155.668 921.448 155.803C921.737 155.934 922.038 155.999 922.351 155.999C922.761 155.999 923.13 155.901 923.457 155.705C923.788 155.504 924.049 155.241 924.241 154.914C924.432 154.583 924.528 154.221 924.528 153.829C924.528 153.423 924.427 153.057 924.227 152.73C924.031 152.399 923.767 152.137 923.436 151.946C923.104 151.755 922.743 151.659 922.351 151.659C921.907 151.659 921.527 151.752 921.21 151.939C920.897 152.121 920.65 152.345 920.468 152.611L919.362 152.191L919.67 146.92H925.081V148.103H920.272L920.825 147.585L920.566 151.806L920.293 151.449C920.573 151.15 920.906 150.919 921.294 150.756C921.686 150.593 922.085 150.511 922.491 150.511C923.116 150.511 923.676 150.658 924.171 150.952C924.665 151.241 925.057 151.638 925.347 152.142C925.636 152.641 925.781 153.204 925.781 153.829C925.781 154.45 925.622 155.017 925.305 155.53C924.987 156.039 924.565 156.447 924.038 156.755C923.515 157.058 922.941 157.21 922.316 157.21ZM929.977 156.993L929.984 155.873L934.457 151.848C934.831 151.512 935.08 151.195 935.206 150.896C935.337 150.593 935.402 150.282 935.402 149.965C935.402 149.578 935.314 149.228 935.136 148.915C934.959 148.602 934.716 148.355 934.408 148.173C934.105 147.991 933.76 147.9 933.372 147.9C932.971 147.9 932.614 147.996 932.301 148.187C931.989 148.374 931.741 148.623 931.559 148.936C931.382 149.249 931.296 149.589 931.3 149.958H930.026C930.026 149.323 930.173 148.763 930.467 148.278C930.761 147.788 931.16 147.405 931.664 147.13C932.173 146.85 932.749 146.71 933.393 146.71C934.019 146.71 934.579 146.855 935.073 147.144C935.568 147.429 935.958 147.818 936.242 148.313C936.532 148.803 936.676 149.358 936.676 149.979C936.676 150.418 936.62 150.798 936.508 151.12C936.401 151.442 936.233 151.741 936.004 152.016C935.776 152.287 935.489 152.576 935.143 152.884L931.426 156.223L931.265 155.803H936.676V156.993H929.977ZM941.333 157.21C940.815 157.21 940.332 157.103 939.884 156.888C939.441 156.673 939.06 156.379 938.743 156.006C938.43 155.628 938.206 155.194 938.071 154.704L939.268 154.382C939.352 154.713 939.501 155 939.716 155.243C939.931 155.481 940.18 155.668 940.465 155.803C940.754 155.934 941.055 155.999 941.368 155.999C941.779 155.999 942.147 155.901 942.474 155.705C942.805 155.504 943.067 155.241 943.258 154.914C943.449 154.583 943.545 154.221 943.545 153.829C943.545 153.423 943.445 153.057 943.244 152.73C943.048 152.399 942.784 152.137 942.453 151.946C942.122 151.755 941.76 151.659 941.368 151.659C940.925 151.659 940.544 151.752 940.227 151.939C939.914 152.121 939.667 152.345 939.485 152.611L938.379 152.191L938.687 146.92H944.098V148.103H939.289L939.842 147.585L939.583 151.806L939.31 151.449C939.59 151.15 939.924 150.919 940.311 150.756C940.703 150.593 941.102 150.511 941.508 150.511C942.133 150.511 942.693 150.658 943.188 150.952C943.683 151.241 944.075 151.638 944.364 152.142C944.653 152.641 944.798 153.204 944.798 153.829C944.798 154.45 944.639 155.017 944.322 155.53C944.005 156.039 943.582 156.447 943.055 156.755C942.532 157.058 941.958 157.21 941.333 157.21ZM949.454 157.21C948.936 157.21 948.453 157.103 948.005 156.888C947.562 156.673 947.182 156.379 946.864 156.006C946.552 155.628 946.328 155.194 946.192 154.704L947.389 154.382C947.473 154.713 947.623 155 947.837 155.243C948.052 155.481 948.302 155.668 948.586 155.803C948.876 155.934 949.177 155.999 949.489 155.999C949.9 155.999 950.269 155.901 950.595 155.705C950.927 155.504 951.188 155.241 951.379 154.914C951.571 154.583 951.666 154.221 951.666 153.829C951.666 153.423 951.566 153.057 951.365 152.73C951.169 152.399 950.906 152.137 950.574 151.946C950.243 151.755 949.881 151.659 949.489 151.659C949.046 151.659 948.666 151.752 948.348 151.939C948.036 152.121 947.788 152.345 947.606 152.611L946.5 152.191L946.808 146.92H952.219V148.103H947.41L947.963 147.585L947.704 151.806L947.431 151.449C947.711 151.15 948.045 150.919 948.432 150.756C948.824 150.593 949.223 150.511 949.629 150.511C950.255 150.511 950.815 150.658 951.309 150.952C951.804 151.241 952.196 151.638 952.485 152.142C952.775 152.641 952.919 153.204 952.919 153.829C952.919 154.45 952.761 155.017 952.443 155.53C952.126 156.039 951.704 156.447 951.176 156.755C950.654 157.058 950.08 157.21 949.454 157.21Z" fill="#999999"/>
<path d="M879.382 183.21C878.729 183.21 878.145 183.063 877.632 182.769C877.123 182.47 876.72 182.067 876.421 181.558C876.127 181.045 875.98 180.461 875.98 179.808V176.112C875.98 175.459 876.127 174.875 876.421 174.362C876.72 173.849 877.123 173.445 877.632 173.151C878.145 172.857 878.729 172.71 879.382 172.71C880.035 172.71 880.619 172.857 881.132 173.151C881.645 173.445 882.049 173.849 882.343 174.362C882.637 174.875 882.784 175.459 882.784 176.112V179.808C882.784 180.461 882.637 181.045 882.343 181.558C882.049 182.067 881.645 182.47 881.132 182.769C880.619 183.063 880.035 183.21 879.382 183.21ZM879.382 182.013C879.779 182.013 880.138 181.917 880.46 181.726C880.782 181.535 881.039 181.278 881.23 180.956C881.421 180.629 881.517 180.27 881.517 179.878V176.035C881.517 175.638 881.421 175.279 881.23 174.957C881.039 174.635 880.782 174.378 880.46 174.187C880.138 173.996 879.779 173.9 879.382 173.9C878.99 173.9 878.631 173.996 878.304 174.187C877.982 174.378 877.725 174.635 877.534 174.957C877.343 175.279 877.247 175.638 877.247 176.035V179.878C877.247 180.27 877.343 180.629 877.534 180.956C877.725 181.278 877.982 181.535 878.304 181.726C878.631 181.917 878.99 182.013 879.382 182.013ZM885.864 183L885.024 182.16L894.278 172.92L895.118 173.76L885.864 183ZM893.018 183.21C892.556 183.21 892.133 183.098 891.751 182.874C891.373 182.645 891.069 182.342 890.841 181.964C890.612 181.581 890.498 181.157 890.498 180.69C890.498 180.233 890.614 179.813 890.848 179.43C891.081 179.047 891.389 178.742 891.772 178.513C892.154 178.284 892.57 178.17 893.018 178.17C893.48 178.17 893.902 178.284 894.285 178.513C894.667 178.737 894.971 179.04 895.195 179.423C895.423 179.801 895.538 180.223 895.538 180.69C895.538 181.157 895.423 181.581 895.195 181.964C894.971 182.342 894.667 182.645 894.285 182.874C893.902 183.098 893.48 183.21 893.018 183.21ZM893.018 182.111C893.274 182.111 893.51 182.046 893.725 181.915C893.944 181.784 894.117 181.612 894.243 181.397C894.373 181.182 894.439 180.947 894.439 180.69C894.439 180.433 894.373 180.198 894.243 179.983C894.117 179.764 893.944 179.591 893.725 179.465C893.51 179.334 893.274 179.269 893.018 179.269C892.761 179.269 892.525 179.334 892.311 179.465C892.096 179.591 891.923 179.764 891.793 179.983C891.662 180.198 891.597 180.433 891.597 180.69C891.597 180.947 891.662 181.182 891.793 181.397C891.923 181.612 892.096 181.784 892.311 181.915C892.525 182.046 892.761 182.111 893.018 182.111ZM887.124 177.75C886.662 177.75 886.239 177.638 885.857 177.414C885.474 177.185 885.168 176.882 884.94 176.504C884.716 176.121 884.604 175.697 884.604 175.23C884.604 174.773 884.72 174.353 884.954 173.97C885.187 173.587 885.495 173.282 885.878 173.053C886.26 172.824 886.676 172.71 887.124 172.71C887.586 172.71 888.006 172.824 888.384 173.053C888.766 173.277 889.072 173.58 889.301 173.963C889.529 174.341 889.644 174.763 889.644 175.23C889.644 175.697 889.529 176.121 889.301 176.504C889.072 176.882 888.766 177.185 888.384 177.414C888.006 177.638 887.586 177.75 887.124 177.75ZM887.124 176.651C887.38 176.651 887.616 176.586 887.831 176.455C888.05 176.324 888.223 176.152 888.349 175.937C888.479 175.722 888.545 175.487 888.545 175.23C888.545 174.973 888.479 174.738 888.349 174.523C888.223 174.304 888.05 174.131 887.831 174.005C887.616 173.874 887.38 173.809 887.124 173.809C886.867 173.809 886.631 173.874 886.417 174.005C886.202 174.131 886.029 174.304 885.899 174.523C885.768 174.738 885.703 174.973 885.703 175.23C885.703 175.487 885.768 175.722 885.899 175.937C886.029 176.152 886.202 176.324 886.417 176.455C886.631 176.586 886.867 176.651 887.124 176.651ZM903.568 183.21C902.914 183.21 902.331 183.063 901.818 182.769C901.309 182.47 900.905 182.067 900.607 181.558C900.313 181.045 900.166 180.461 900.166 179.808V176.112C900.166 175.459 900.313 174.875 900.607 174.362C900.905 173.849 901.309 173.445 901.818 173.151C902.331 172.857 902.914 172.71 903.568 172.71C904.221 172.71 904.804 172.857 905.318 173.151C905.831 173.445 906.235 173.849 906.529 174.362C906.823 174.875 906.97 175.459 906.97 176.112V179.808C906.97 180.461 906.823 181.045 906.529 181.558C906.235 182.067 905.831 182.47 905.318 182.769C904.804 183.063 904.221 183.21 903.568 183.21ZM903.568 182.013C903.964 182.013 904.324 181.917 904.646 181.726C904.968 181.535 905.224 181.278 905.416 180.956C905.607 180.629 905.703 180.27 905.703 179.878V176.035C905.703 175.638 905.607 175.279 905.416 174.957C905.224 174.635 904.968 174.378 904.646 174.187C904.324 173.996 903.964 173.9 903.568 173.9C903.176 173.9 902.816 173.996 902.49 174.187C902.168 174.378 901.911 174.635 901.72 174.957C901.528 175.279 901.433 175.638 901.433 176.035V179.878C901.433 180.27 901.528 180.629 901.72 180.956C901.911 181.278 902.168 181.535 902.49 181.726C902.816 181.917 903.176 182.013 903.568 182.013ZM910.049 183L909.209 182.16L918.463 172.92L919.303 173.76L910.049 183ZM917.203 183.21C916.741 183.21 916.319 183.098 915.936 182.874C915.558 182.645 915.255 182.342 915.026 181.964C914.798 181.581 914.683 181.157 914.683 180.69C914.683 180.233 914.8 179.813 915.033 179.43C915.267 179.047 915.575 178.742 915.957 178.513C916.34 178.284 916.755 178.17 917.203 178.17C917.665 178.17 918.088 178.284 918.47 178.513C918.853 178.737 919.156 179.04 919.38 179.423C919.609 179.801 919.723 180.223 919.723 180.69C919.723 181.157 919.609 181.581 919.38 181.964C919.156 182.342 918.853 182.645 918.47 182.874C918.088 183.098 917.665 183.21 917.203 183.21ZM917.203 182.111C917.46 182.111 917.696 182.046 917.91 181.915C918.13 181.784 918.302 181.612 918.428 181.397C918.559 181.182 918.624 180.947 918.624 180.69C918.624 180.433 918.559 180.198 918.428 179.983C918.302 179.764 918.13 179.591 917.91 179.465C917.696 179.334 917.46 179.269 917.203 179.269C916.947 179.269 916.711 179.334 916.496 179.465C916.282 179.591 916.109 179.764 915.978 179.983C915.848 180.198 915.782 180.433 915.782 180.69C915.782 180.947 915.848 181.182 915.978 181.397C916.109 181.612 916.282 181.784 916.496 181.915C916.711 182.046 916.947 182.111 917.203 182.111ZM911.309 177.75C910.847 177.75 910.425 177.638 910.042 177.414C909.66 177.185 909.354 176.882 909.125 176.504C908.901 176.121 908.789 175.697 908.789 175.23C908.789 174.773 908.906 174.353 909.139 173.97C909.373 173.587 909.681 173.282 910.063 173.053C910.446 172.824 910.861 172.71 911.309 172.71C911.771 172.71 912.191 172.824 912.569 173.053C912.952 173.277 913.258 173.58 913.486 173.963C913.715 174.341 913.829 174.763 913.829 175.23C913.829 175.697 913.715 176.121 913.486 176.504C913.258 176.882 912.952 177.185 912.569 177.414C912.191 177.638 911.771 177.75 911.309 177.75ZM911.309 176.651C911.566 176.651 911.802 176.586 912.016 176.455C912.236 176.324 912.408 176.152 912.534 175.937C912.665 175.722 912.73 175.487 912.73 175.23C912.73 174.973 912.665 174.738 912.534 174.523C912.408 174.304 912.236 174.131 912.016 174.005C911.802 173.874 911.566 173.809 911.309 173.809C911.053 173.809 910.817 173.874 910.602 174.005C910.388 174.131 910.215 174.304 910.084 174.523C909.954 174.738 909.888 174.973 909.888 175.23C909.888 175.487 909.954 175.722 910.084 175.937C910.215 176.152 910.388 176.324 910.602 176.455C910.817 176.586 911.053 176.651 911.309 176.651ZM927.753 183.21C927.1 183.21 926.516 183.063 926.003 182.769C925.494 182.47 925.091 182.067 924.792 181.558C924.498 181.045 924.351 180.461 924.351 179.808V176.112C924.351 175.459 924.498 174.875 924.792 174.362C925.091 173.849 925.494 173.445 926.003 173.151C926.516 172.857 927.1 172.71 927.753 172.71C928.406 172.71 928.99 172.857 929.503 173.151C930.016 173.445 930.42 173.849 930.714 174.362C931.008 174.875 931.155 175.459 931.155 176.112V179.808C931.155 180.461 931.008 181.045 930.714 181.558C930.42 182.067 930.016 182.47 929.503 182.769C928.99 183.063 928.406 183.21 927.753 183.21ZM927.753 182.013C928.15 182.013 928.509 181.917 928.831 181.726C929.153 181.535 929.41 181.278 929.601 180.956C929.792 180.629 929.888 180.27 929.888 179.878V176.035C929.888 175.638 929.792 175.279 929.601 174.957C929.41 174.635 929.153 174.378 928.831 174.187C928.509 173.996 928.15 173.9 927.753 173.9C927.361 173.9 927.002 173.996 926.675 174.187C926.353 174.378 926.096 174.635 925.905 174.957C925.714 175.279 925.618 175.638 925.618 176.035V179.878C925.618 180.27 925.714 180.629 925.905 180.956C926.096 181.278 926.353 181.535 926.675 181.726C927.002 181.917 927.361 182.013 927.753 182.013ZM934.235 183L933.395 182.16L942.649 172.92L943.489 173.76L934.235 183ZM941.389 183.21C940.927 183.21 940.504 183.098 940.122 182.874C939.744 182.645 939.44 182.342 939.212 181.964C938.983 181.581 938.869 181.157 938.869 180.69C938.869 180.233 938.985 179.813 939.219 179.43C939.452 179.047 939.76 178.742 940.143 178.513C940.525 178.284 940.941 178.17 941.389 178.17C941.851 178.17 942.273 178.284 942.656 178.513C943.038 178.737 943.342 179.04 943.566 179.423C943.794 179.801 943.909 180.223 943.909 180.69C943.909 181.157 943.794 181.581 943.566 181.964C943.342 182.342 943.038 182.645 942.656 182.874C942.273 183.098 941.851 183.21 941.389 183.21ZM941.389 182.111C941.645 182.111 941.881 182.046 942.096 181.915C942.315 181.784 942.488 181.612 942.614 181.397C942.744 181.182 942.81 180.947 942.81 180.69C942.81 180.433 942.744 180.198 942.614 179.983C942.488 179.764 942.315 179.591 942.096 179.465C941.881 179.334 941.645 179.269 941.389 179.269C941.132 179.269 940.896 179.334 940.682 179.465C940.467 179.591 940.294 179.764 940.164 179.983C940.033 180.198 939.968 180.433 939.968 180.69C939.968 180.947 940.033 181.182 940.164 181.397C940.294 181.612 940.467 181.784 940.682 181.915C940.896 182.046 941.132 182.111 941.389 182.111ZM935.495 177.75C935.033 177.75 934.61 177.638 934.228 177.414C933.845 177.185 933.539 176.882 933.311 176.504C933.087 176.121 932.975 175.697 932.975 175.23C932.975 174.773 933.091 174.353 933.325 173.97C933.558 173.587 933.866 173.282 934.249 173.053C934.631 172.824 935.047 172.71 935.495 172.71C935.957 172.71 936.377 172.824 936.755 173.053C937.137 173.277 937.443 173.58 937.672 173.963C937.9 174.341 938.015 174.763 938.015 175.23C938.015 175.697 937.9 176.121 937.672 176.504C937.443 176.882 937.137 177.185 936.755 177.414C936.377 177.638 935.957 177.75 935.495 177.75ZM935.495 176.651C935.751 176.651 935.987 176.586 936.202 176.455C936.421 176.324 936.594 176.152 936.72 175.937C936.85 175.722 936.916 175.487 936.916 175.23C936.916 174.973 936.85 174.738 936.72 174.523C936.594 174.304 936.421 174.131 936.202 174.005C935.987 173.874 935.751 173.809 935.495 173.809C935.238 173.809 935.002 173.874 934.788 174.005C934.573 174.131 934.4 174.304 934.27 174.523C934.139 174.738 934.074 174.973 934.074 175.23C934.074 175.487 934.139 175.722 934.27 175.937C934.4 176.152 934.573 176.324 934.788 176.455C935.002 176.586 935.238 176.651 935.495 176.651ZM951.939 183.21C951.285 183.21 950.702 183.063 950.189 182.769C949.68 182.47 949.276 182.067 948.978 181.558C948.684 181.045 948.537 180.461 948.537 179.808V176.112C948.537 175.459 948.684 174.875 948.978 174.362C949.276 173.849 949.68 173.445 950.189 173.151C950.702 172.857 951.285 172.71 951.939 172.71C952.592 172.71 953.175 172.857 953.689 173.151C954.202 173.445 954.606 173.849 954.9 174.362C955.194 174.875 955.341 175.459 955.341 176.112V179.808C955.341 180.461 955.194 181.045 954.9 181.558C954.606 182.067 954.202 182.47 953.689 182.769C953.175 183.063 952.592 183.21 951.939 183.21ZM951.939 182.013C952.335 182.013 952.695 181.917 953.017 181.726C953.339 181.535 953.595 181.278 953.787 180.956C953.978 180.629 954.074 180.27 954.074 179.878V176.035C954.074 175.638 953.978 175.279 953.787 174.957C953.595 174.635 953.339 174.378 953.017 174.187C952.695 173.996 952.335 173.9 951.939 173.9C951.547 173.9 951.187 173.996 950.861 174.187C950.539 174.378 950.282 174.635 950.091 174.957C949.899 175.279 949.804 175.638 949.804 176.035V179.878C949.804 180.27 949.899 180.629 950.091 180.956C950.282 181.278 950.539 181.535 950.861 181.726C951.187 181.917 951.547 182.013 951.939 182.013ZM958.42 183L957.58 182.16L966.834 172.92L967.674 173.76L958.42 183ZM965.574 183.21C965.112 183.21 964.69 183.098 964.307 182.874C963.929 182.645 963.626 182.342 963.397 181.964C963.169 181.581 963.054 181.157 963.054 180.69C963.054 180.233 963.171 179.813 963.404 179.43C963.638 179.047 963.946 178.742 964.328 178.513C964.711 178.284 965.126 178.17 965.574 178.17C966.036 178.17 966.459 178.284 966.841 178.513C967.224 178.737 967.527 179.04 967.751 179.423C967.98 179.801 968.094 180.223 968.094 180.69C968.094 181.157 967.98 181.581 967.751 181.964C967.527 182.342 967.224 182.645 966.841 182.874C966.459 183.098 966.036 183.21 965.574 183.21ZM965.574 182.111C965.831 182.111 966.067 182.046 966.281 181.915C966.501 181.784 966.673 181.612 966.799 181.397C966.93 181.182 966.995 180.947 966.995 180.69C966.995 180.433 966.93 180.198 966.799 179.983C966.673 179.764 966.501 179.591 966.281 179.465C966.067 179.334 965.831 179.269 965.574 179.269C965.318 179.269 965.082 179.334 964.867 179.465C964.653 179.591 964.48 179.764 964.349 179.983C964.219 180.198 964.153 180.433 964.153 180.69C964.153 180.947 964.219 181.182 964.349 181.397C964.48 181.612 964.653 181.784 964.867 181.915C965.082 182.046 965.318 182.111 965.574 182.111ZM959.68 177.75C959.218 177.75 958.796 177.638 958.413 177.414C958.031 177.185 957.725 176.882 957.496 176.504C957.272 176.121 957.16 175.697 957.16 175.23C957.16 174.773 957.277 174.353 957.51 173.97C957.744 173.587 958.052 173.282 958.434 173.053C958.817 172.824 959.232 172.71 959.68 172.71C960.142 172.71 960.562 172.824 960.94 173.053C961.323 173.277 961.629 173.58 961.857 173.963C962.086 174.341 962.2 174.763 962.2 175.23C962.2 175.697 962.086 176.121 961.857 176.504C961.629 176.882 961.323 177.185 960.94 177.414C960.562 177.638 960.142 177.75 959.68 177.75ZM959.68 176.651C959.937 176.651 960.173 176.586 960.387 176.455C960.607 176.324 960.779 176.152 960.905 175.937C961.036 175.722 961.101 175.487 961.101 175.23C961.101 174.973 961.036 174.738 960.905 174.523C960.779 174.304 960.607 174.131 960.387 174.005C960.173 173.874 959.937 173.809 959.68 173.809C959.424 173.809 959.188 173.874 958.973 174.005C958.759 174.131 958.586 174.304 958.455 174.523C958.325 174.738 958.259 174.973 958.259 175.23C958.259 175.487 958.325 175.722 958.455 175.937C958.586 176.152 958.759 176.324 958.973 176.455C959.188 176.586 959.424 176.651 959.68 176.651Z" fill="#999999"/>
<path d="M876.701 209V201.027C876.701 200.831 876.71 200.633 876.729 200.432C876.748 200.227 876.79 200.028 876.855 199.837C876.92 199.641 877.028 199.461 877.177 199.298C877.35 199.107 877.539 198.971 877.744 198.892C877.949 198.808 878.157 198.757 878.367 198.738C878.582 198.719 878.785 198.71 878.976 198.71H879.935V199.746H879.046C878.677 199.746 878.402 199.837 878.22 200.019C878.038 200.196 877.947 200.467 877.947 200.831V209H876.701ZM875.42 202.469V201.44H879.935V202.469H875.42ZM881.146 209V201.027C881.146 200.831 881.155 200.633 881.174 200.432C881.193 200.227 881.235 200.028 881.3 199.837C881.365 199.641 881.473 199.461 881.622 199.298C881.795 199.107 881.984 198.971 882.189 198.892C882.394 198.808 882.602 198.757 882.812 198.738C883.027 198.719 883.23 198.71 883.421 198.71H884.38V199.746H883.491C883.122 199.746 882.847 199.837 882.665 200.019C882.483 200.196 882.392 200.467 882.392 200.831V209H881.146ZM879.865 202.469V201.44H884.38V202.469H879.865ZM886.217 209V201.027C886.217 200.831 886.226 200.633 886.245 200.432C886.263 200.227 886.305 200.028 886.371 199.837C886.436 199.641 886.543 199.461 886.693 199.298C886.865 199.107 887.054 198.971 887.26 198.892C887.465 198.808 887.673 198.757 887.883 198.738C888.097 198.719 888.3 198.71 888.492 198.71H889.451V199.746H888.562C888.193 199.746 887.918 199.837 887.736 200.019C887.554 200.196 887.463 200.467 887.463 200.831V209H886.217ZM884.936 202.469V201.44H889.451V202.469H884.936ZM890.662 209V201.027C890.662 200.831 890.671 200.633 890.69 200.432C890.708 200.227 890.75 200.028 890.816 199.837C890.881 199.641 890.988 199.461 891.138 199.298C891.31 199.107 891.499 198.971 891.705 198.892C891.91 198.808 892.118 198.757 892.328 198.738C892.542 198.719 892.745 198.71 892.937 198.71H893.896V199.746H893.007C892.638 199.746 892.363 199.837 892.181 200.019C891.999 200.196 891.908 200.467 891.908 200.831V209H890.662ZM889.381 202.469V201.44H893.896V202.469H889.381ZM895.732 209V201.027C895.732 200.831 895.742 200.633 895.76 200.432C895.779 200.227 895.821 200.028 895.886 199.837C895.952 199.641 896.059 199.461 896.208 199.298C896.381 199.107 896.57 198.971 896.775 198.892C896.981 198.808 897.188 198.757 897.398 198.738C897.613 198.719 897.816 198.71 898.007 198.71H898.966V199.746H898.077C897.709 199.746 897.433 199.837 897.251 200.019C897.069 200.196 896.978 200.467 896.978 200.831V209H895.732ZM894.451 202.469V201.44H898.966V202.469H894.451ZM900.177 209V201.027C900.177 200.831 900.187 200.633 900.205 200.432C900.224 200.227 900.266 200.028 900.331 199.837C900.397 199.641 900.504 199.461 900.653 199.298C900.826 199.107 901.015 198.971 901.22 198.892C901.426 198.808 901.633 198.757 901.843 198.738C902.058 198.719 902.261 198.71 902.452 198.71H903.411V199.746H902.522C902.154 199.746 901.878 199.837 901.696 200.019C901.514 200.196 901.423 200.467 901.423 200.831V209H900.177ZM898.896 202.469V201.44H903.411V202.469H898.896Z" fill="#999999"/>
</g>
<rect x="0.5" y="266.5" width="519" height="321" rx="19.5" stroke="#333333"/>
<path d="M267.432 464.035L267.041 458.501V453.279V453.084L267.08 458.423L267.041 458.501C265.242 462.086 260.079 464.619 256.011 464.619C251.826 464.619 247.602 461.93 247.602 456.981C247.602 453.435 250.105 450.2 254.173 448.719C257.771 447.433 263.599 446.654 267.002 446.654L267.041 449.148H267.002V446.459C267.002 444.706 266.885 439.25 259.258 439.25C252.648 439.25 251.592 444.043 251.044 446.42L247.641 445.68C248.072 443.03 250.262 436.132 259.414 436.132C267.08 436.132 270.522 440.886 270.522 447.317V458.501C270.522 460.255 270.522 460.995 272.869 460.995L274.707 461.034V464.035H267.432ZM251.201 457.059C251.201 458.969 252.139 461.268 256.011 461.268C261.409 461.268 266.611 456.903 267.041 453.279L267.002 449.148C264.968 449.265 258.632 450.512 255.151 451.798C251.983 452.967 251.201 455.344 251.201 457.059Z" fill="#0D3062"/>
<path d="M301.258 449.421V464.58H298.951L298.56 459.047C296.369 462.905 293.24 464.658 288.312 464.658C279.669 464.658 274.701 459.125 274.701 450.395C274.701 441.783 280.412 436.132 288.312 436.132C295.353 436.132 300.124 439.756 301.532 445.641L298.521 446.654C297.191 441.744 293.632 439.25 288.312 439.25C282.211 439.25 278.143 443.965 278.143 450.395C278.143 457.488 282.093 461.541 288.312 461.541C293.592 461.541 297.347 458.033 298.56 452.383H287.999V449.421H301.258Z" fill="#0D3062"/>
<path d="M321.621 458.033C321.621 455.617 320.683 452.539 315.95 452.539H308.949V464.035H305.429V436.756H308.949L317.749 436.795C323.499 436.834 326.901 439.912 326.901 444.55C326.901 448.096 324.946 450.473 321.66 451.408C324.633 453.201 324.946 456.085 324.946 459.397C324.946 460.527 324.946 461.307 327.293 461.385L328.349 461.424V464.035H321.621V458.033ZM308.949 449.499H317.123C321.621 449.499 323.303 447.784 323.303 444.822C323.303 441.666 321.387 439.834 316.928 439.834H308.949V449.499Z" fill="#0D3062"/>
<path d="M343.925 464.658C335.555 464.658 330.314 459.164 330.314 450.395C330.314 441.627 335.555 436.132 343.925 436.132C352.295 436.132 357.536 441.627 357.536 450.395C357.536 459.164 352.295 464.658 343.925 464.658ZM333.756 450.395C333.756 457.254 337.667 461.541 343.925 461.541C350.183 461.541 354.094 457.254 354.094 450.395C354.094 443.536 350.183 439.25 343.925 439.25C337.667 439.25 333.756 443.536 333.756 450.395Z" fill="#0D3062"/>
<path d="M262.621 479.974C270.522 479.974 273.651 485.274 273.651 492.171V507.838H270.209V493.107C270.209 485.78 267.119 483.091 262.348 483.091C255.229 483.091 252.687 489.093 252.648 494.704L252.53 507.876H249.167V480.597H252.139L252.374 486.871H252.491C252.687 485.157 254.799 479.974 262.621 479.974Z" fill="#0D3062"/>
<path d="M288.605 508.5C280.704 508.5 277.575 503.2 277.575 496.302V480.636H281.017V495.367C281.017 502.693 284.107 505.382 288.879 505.382C295.997 505.382 298.539 499.381 298.578 493.769L298.696 480.597H302.059V507.876H299.087L298.852 501.602H298.735C298.539 503.317 296.427 508.5 288.605 508.5Z" fill="#0D3062"/>
<path d="M327.182 480.597V483.832H317.756V507.876H314.236V483.832H304.81V480.597H327.182Z" fill="#0D3062"/>
<path d="M346.105 501.875C346.105 499.459 345.166 496.38 340.433 496.38H333.432V507.876H329.912V480.597H333.432L342.233 480.636C347.982 480.675 351.385 483.754 351.385 488.391C351.385 491.938 349.429 494.315 346.144 495.25C349.116 497.043 349.429 499.927 349.429 503.239C349.429 504.369 349.429 505.149 351.776 505.226L352.832 505.265V507.876H346.105V501.875ZM333.432 493.341H341.607C346.105 493.341 347.786 491.626 347.786 488.664C347.786 485.507 345.87 483.676 341.411 483.676H333.432V493.341Z" fill="#0D3062"/>
<path d="M355.58 480.597H359.1V507.876H355.58V480.597Z" fill="#0D3062"/>
<path d="M384.208 480.597V483.832H374.782V507.876H371.262V483.832H361.836V480.597H384.208Z" fill="#0D3062"/>
<path d="M386.938 480.597H390.458V507.876H386.938V480.597Z" fill="#0D3062"/>
<path d="M407.979 508.5C399.609 508.5 394.368 503.005 394.368 494.237C394.368 485.469 399.609 479.974 407.979 479.974C416.349 479.974 421.59 485.469 421.59 494.237C421.59 503.005 416.349 508.5 407.979 508.5ZM397.81 494.237C397.81 501.096 401.721 505.382 407.979 505.382C414.237 505.382 418.148 501.096 418.148 494.237C418.148 487.378 414.237 483.091 407.979 483.091C401.721 483.091 397.81 487.378 397.81 494.237Z" fill="#0D3062"/>
<path d="M438.97 479.974C446.871 479.974 450 485.274 450 492.171V507.838H446.558V493.107C446.558 485.78 443.468 483.091 438.697 483.091C431.578 483.091 429.036 489.093 428.997 494.704L428.879 507.876H425.516V480.597H428.488L428.723 486.871H428.84C429.036 485.157 431.148 479.974 438.97 479.974Z" fill="#0D3062"/>
<path d="M70 361.738C70 352.77 77.2963 345.5 86.2968 345.5H216.671C225.671 345.5 232.968 352.77 232.968 361.738V491.639C232.968 500.607 225.671 507.876 216.671 507.876H86.2968C77.2963 507.876 70 500.607 70 491.639V361.738Z" fill="#0A0A0A"/>
<path d="M232.968 419.584L196.86 461.599H232.968V419.584Z" fill="#0D3062"/>
<path fill-rule="evenodd" clip-rule="evenodd" d="M167.379 504.951C167.379 506.566 166.064 507.876 164.442 507.876H81.7454C75.2586 507.876 70 502.637 70 496.173V404.201C70 402.321 71.8815 401.038 73.4501 402.082L160.37 459.951C164.748 462.865 167.379 467.778 167.379 473.04V504.951ZM232.968 436.964C232.968 436.964 232.968 440.42 232.968 442.758V496.173C232.968 502.637 227.709 507.876 221.222 507.876H194.85C193.229 507.876 191.914 506.566 191.914 504.951V473.04C191.914 467.778 194.544 462.865 198.922 459.951L232.968 436.964ZM192.559 347.306C192.89 346.187 193.973 345.5 195.144 345.5H221.222C227.709 345.5 232.968 350.74 232.968 357.203V413.503C232.968 413.503 232.337 413.638 231.34 414.133L214.608 422.435C204.164 427.619 191.914 420.016 191.914 408.351V351.765C191.914 350.236 192.136 348.736 192.559 347.306ZM164.148 345.5C165.319 345.5 166.403 346.187 166.733 347.306C167.157 348.736 167.379 350.236 167.379 351.765V408.351C167.379 420.016 155.129 427.619 144.684 422.435L71.6273 386.183C70.6303 385.688 70 384.674 70 383.564V357.203C70 350.74 75.2586 345.5 81.7454 345.5H164.148Z" fill="#0D3062"/>
<path d="M367.416 355.852C277.58 394.416 246.209 411.668 195.281 462.411L215.649 421.922C274.728 384.064 298.97 380.005 367.416 355.852Z" fill="#0A0A0A"/>
<rect x="520.5" y="266.5" width="519" height="321" rx="19.5" stroke="#333333"/>
<path d="M787.432 464.035L787.041 458.501V453.279V453.084L787.08 458.423L787.041 458.501C785.242 462.086 780.079 464.619 776.011 464.619C771.826 464.619 767.602 461.93 767.602 456.981C767.602 453.435 770.105 450.2 774.173 448.719C777.771 447.433 783.599 446.654 787.002 446.654L787.041 449.148H787.002V446.459C787.002 444.706 786.885 439.25 779.258 439.25C772.648 439.25 771.592 444.043 771.044 446.42L767.641 445.68C768.072 443.03 770.262 436.132 779.414 436.132C787.08 436.132 790.522 440.886 790.522 447.317V458.501C790.522 460.255 790.522 460.995 792.869 460.995L794.707 461.034V464.035H787.432ZM771.201 457.059C771.201 458.969 772.139 461.268 776.011 461.268C781.409 461.268 786.611 456.903 787.041 453.279L787.002 449.148C784.968 449.265 778.632 450.512 775.151 451.798C771.983 452.967 771.201 455.344 771.201 457.059Z" fill="white"/>
<path d="M821.258 449.421V464.58H818.951L818.56 459.047C816.369 462.905 813.24 464.658 808.312 464.658C799.669 464.658 794.701 459.125 794.701 450.395C794.701 441.783 800.412 436.132 808.312 436.132C815.353 436.132 820.124 439.756 821.532 445.641L818.521 446.654C817.191 441.744 813.632 439.25 808.312 439.25C802.211 439.25 798.143 443.965 798.143 450.395C798.143 457.488 802.093 461.541 808.312 461.541C813.592 461.541 817.347 458.033 818.56 452.383H807.999V449.421H821.258Z" fill="white"/>
<path d="M841.621 458.033C841.621 455.617 840.683 452.539 835.95 452.539H828.949V464.035H825.429V436.756H828.949L837.749 436.795C843.499 436.834 846.901 439.912 846.901 444.55C846.901 448.096 844.946 450.473 841.66 451.408C844.633 453.201 844.946 456.085 844.946 459.397C844.946 460.527 844.946 461.307 847.293 461.385L848.349 461.424V464.035H841.621V458.033ZM828.949 449.499H837.123C841.621 449.499 843.303 447.784 843.303 444.822C843.303 441.666 841.387 439.834 836.928 439.834H828.949V449.499Z" fill="white"/>
<path d="M863.925 464.658C855.555 464.658 850.314 459.164 850.314 450.395C850.314 441.627 855.555 436.132 863.925 436.132C872.295 436.132 877.536 441.627 877.536 450.395C877.536 459.164 872.295 464.658 863.925 464.658ZM853.756 450.395C853.756 457.254 857.667 461.541 863.925 461.541C870.183 461.541 874.094 457.254 874.094 450.395C874.094 443.536 870.183 439.25 863.925 439.25C857.667 439.25 853.756 443.536 853.756 450.395Z" fill="white"/>
<path d="M782.621 479.974C790.522 479.974 793.651 485.274 793.651 492.171V507.838H790.209V493.107C790.209 485.78 787.119 483.091 782.348 483.091C775.229 483.091 772.687 489.093 772.648 494.704L772.53 507.876H769.167V480.597H772.139L772.374 486.871H772.491C772.687 485.157 774.799 479.974 782.621 479.974Z" fill="white"/>
<path d="M808.605 508.5C800.704 508.5 797.575 503.2 797.575 496.302V480.636H801.017V495.367C801.017 502.693 804.107 505.382 808.879 505.382C815.997 505.382 818.539 499.381 818.578 493.769L818.696 480.597H822.059V507.876H819.087L818.852 501.602H818.735C818.539 503.317 816.427 508.5 808.605 508.5Z" fill="white"/>
<path d="M847.182 480.597V483.832H837.756V507.876H834.236V483.832H824.81V480.597H847.182Z" fill="white"/>
<path d="M866.105 501.875C866.105 499.459 865.166 496.38 860.433 496.38H853.432V507.876H849.912V480.597H853.432L862.233 480.636C867.982 480.675 871.385 483.754 871.385 488.391C871.385 491.938 869.429 494.315 866.144 495.25C869.116 497.043 869.429 499.927 869.429 503.239C869.429 504.369 869.429 505.149 871.776 505.226L872.832 505.265V507.876H866.105V501.875ZM853.432 493.341H861.607C866.105 493.341 867.786 491.626 867.786 488.664C867.786 485.507 865.87 483.676 861.411 483.676H853.432V493.341Z" fill="white"/>
<path d="M875.58 480.597H879.1V507.876H875.58V480.597Z" fill="white"/>
<path d="M904.208 480.597V483.832H894.782V507.876H891.262V483.832H881.836V480.597H904.208Z" fill="white"/>
<path d="M906.938 480.597H910.458V507.876H906.938V480.597Z" fill="white"/>
<path d="M927.979 508.5C919.609 508.5 914.368 503.005 914.368 494.237C914.368 485.469 919.609 479.974 927.979 479.974C936.349 479.974 941.59 485.469 941.59 494.237C941.59 503.005 936.349 508.5 927.979 508.5ZM917.81 494.237C917.81 501.096 921.721 505.382 927.979 505.382C934.237 505.382 938.148 501.096 938.148 494.237C938.148 487.378 934.237 483.091 927.979 483.091C921.721 483.091 917.81 487.378 917.81 494.237Z" fill="white"/>
<path d="M958.97 479.974C966.871 479.974 970 485.274 970 492.171V507.838H966.558V493.107C966.558 485.78 963.468 483.091 958.697 483.091C951.578 483.091 949.036 489.093 948.997 494.704L948.879 507.876H945.516V480.597H948.488L948.723 486.871H948.84C949.036 485.157 951.148 479.974 958.97 479.974Z" fill="white"/>
<path d="M590 361.738C590 352.77 597.296 345.5 606.297 345.5H736.671C745.671 345.5 752.968 352.77 752.968 361.738V491.639C752.968 500.607 745.671 507.876 736.671 507.876H606.297C597.296 507.876 590 500.607 590 491.639V361.738Z" fill="#0A0A0A"/>
<path d="M752.968 419.584L716.86 461.599H752.968V419.584Z" fill="white"/>
<path fill-rule="evenodd" clip-rule="evenodd" d="M687.379 504.951C687.379 506.566 686.064 507.876 684.442 507.876H601.745C595.259 507.876 590 502.637 590 496.173V404.201C590 402.321 591.881 401.038 593.45 402.082L680.37 459.951C684.748 462.865 687.379 467.778 687.379 473.04V504.951ZM752.968 436.964C752.968 436.964 752.968 440.42 752.968 442.758V496.173C752.968 502.637 747.709 507.876 741.222 507.876H714.85C713.229 507.876 711.914 506.566 711.914 504.951V473.04C711.914 467.778 714.544 462.865 718.922 459.951L752.968 436.964ZM712.559 347.306C712.89 346.187 713.973 345.5 715.144 345.5H741.222C747.709 345.5 752.968 350.74 752.968 357.203V413.503C752.968 413.503 752.337 413.638 751.34 414.133L734.608 422.435C724.164 427.619 711.914 420.016 711.914 408.351V351.765C711.914 350.236 712.136 348.736 712.559 347.306ZM684.148 345.5C685.319 345.5 686.403 346.187 686.733 347.306C687.157 348.736 687.379 350.236 687.379 351.765V408.351C687.379 420.016 675.129 427.619 664.684 422.435L591.627 386.183C590.63 385.688 590 384.674 590 383.564V357.203C590 350.74 595.259 345.5 601.745 345.5H684.148Z" fill="white"/>
<path d="M887.416 355.852C797.58 394.416 766.209 411.668 715.281 462.411L735.649 421.922C794.728 384.064 818.97 380.005 887.416 355.852Z" fill="#0A0A0A"/>
<defs>
<clipPath id="clip0_2541_12789">
<rect x="730" y="53" width="125" height="160" rx="8" fill="white"/>
</clipPath>
<clipPath id="clip1_2541_12789">
<rect x="875" y="53" width="125" height="160" rx="8" fill="white"/>
</clipPath>
</defs>
</svg>
