<svg width="126" height="60" viewBox="0 0 126 60" fill="none" xmlns="http://www.w3.org/2000/svg">
<path d="M49.3748 0H10.6252C4.75706 0 0 4.87899 0 10.8975V49.1025C0 55.121 4.75706 60 10.6252 60H49.3748C55.2429 60 60 55.121 60 49.1025V10.8975C60 4.87899 55.2429 0 49.3748 0Z" fill="#011E37"/>
<path d="M13.7871 42.3583V15.978C13.7871 15.7858 13.867 15.6954 14.0296 15.6954C14.4596 15.6954 14.8565 15.6954 15.4408 15.6756L17.3536 15.6332L19.5283 15.5823C20.2927 15.5691 21.0506 15.5625 21.8022 15.5625C23.8418 15.5625 25.5589 15.8235 26.9535 16.3455C28.2122 16.7827 29.36 17.5021 30.3134 18.4515C31.1216 19.2749 31.746 20.2683 32.1435 21.3632C32.516 22.4296 32.7026 23.5549 32.6947 24.6876C32.6947 26.8907 32.1986 28.7074 31.2064 30.1378C30.2062 31.5715 28.8018 32.6567 27.1823 33.2473C25.4927 33.8947 23.613 34.1123 21.5486 34.1123C20.9588 34.1123 20.5426 34.1057 20.3 34.0925C20.0575 34.0793 19.6955 34.0727 19.2141 34.0727V42.3102C19.221 42.3605 19.2164 42.4117 19.2007 42.4599C19.1849 42.508 19.1586 42.5518 19.1235 42.5877C19.0885 42.6236 19.0459 42.6506 18.9989 42.6668C18.952 42.6829 18.902 42.6876 18.853 42.6805H14.0682C13.8808 42.689 13.7871 42.5787 13.7871 42.3583ZM19.2251 20.6424V29.2473C19.5742 29.2756 19.8958 29.2897 20.1898 29.2897H21.5183C22.4955 29.286 23.4662 29.1268 24.3958 28.8176C25.1935 28.5748 25.9063 28.1018 26.4491 27.4551C26.9728 26.8219 27.2347 25.9408 27.2347 24.812C27.254 24.0164 27.0513 23.2318 26.6504 22.5505C26.2274 21.8897 25.6163 21.3784 24.9002 21.0862C23.9647 20.7128 22.9654 20.5368 21.962 20.5689C21.3171 20.5689 20.7465 20.5755 20.2504 20.5886C19.7543 20.6018 19.4125 20.6226 19.2251 20.6508V20.6424Z" fill="#30A3F6"/>
<path d="M48.2708 27.6829C47.5143 27.2839 46.7086 26.9919 45.8756 26.815C44.9579 26.5989 44.0196 26.488 43.0781 26.4843C42.5684 26.4703 42.0595 26.5332 41.5677 26.6709C41.2544 26.7425 40.976 26.9258 40.7821 27.1882C40.6511 27.3973 40.5813 27.6406 40.5809 27.8892C40.5884 28.1311 40.6737 28.3637 40.8235 28.5507C41.0589 28.8329 41.3465 29.0645 41.6696 29.232C42.2439 29.5496 42.8356 29.8328 43.4419 30.08C44.793 30.5434 46.0842 31.1737 47.2868 31.9571C48.1062 32.487 48.7843 33.2175 49.2602 34.0829C49.6606 34.9025 49.8611 35.8094 49.8446 36.726C49.8662 37.9309 49.5297 39.1141 48.8799 40.1182C48.1806 41.1407 47.2095 41.9355 46.0823 42.408C44.8604 42.9583 43.3509 43.2334 41.5539 43.2334C40.412 43.2451 39.2721 43.1342 38.1527 42.9027C37.2711 42.7368 36.4129 42.4595 35.5977 42.0772C35.5109 42.0298 35.439 41.9582 35.3902 41.8707C35.3414 41.7832 35.3178 41.6832 35.3221 41.5825V37.1359C35.3176 37.0922 35.3247 37.0482 35.3427 37.0084C35.3606 36.9686 35.3887 36.9345 35.4241 36.9097C35.4585 36.8898 35.4979 36.881 35.5373 36.8846C35.5767 36.8881 35.614 36.9038 35.6445 36.9295C36.6033 37.5133 37.6447 37.9406 38.7315 38.1959C39.6927 38.4433 40.6787 38.5752 41.6696 38.5889C42.6086 38.5889 43.2995 38.4654 43.7423 38.2186C43.9424 38.1246 44.1117 37.973 44.2296 37.7824C44.3475 37.5917 44.409 37.3701 44.4066 37.1444C44.3895 36.9365 44.3262 36.7354 44.2215 36.5566C44.1169 36.3777 43.9737 36.2258 43.8029 36.1126C43.4005 35.7828 42.5819 35.3832 41.3471 34.914C40.0837 34.4629 38.8858 33.8381 37.7861 33.0567C36.9996 32.4951 36.3521 31.7526 35.8954 30.8885C35.4994 30.0754 35.2991 29.1768 35.3111 28.268C35.3067 27.1711 35.5997 26.0946 36.1572 25.1585C36.79 24.1324 37.6983 23.3157 38.7729 22.8065C39.9525 22.2016 41.428 21.8991 43.1993 21.8991C44.2362 21.8903 45.2721 21.966 46.2973 22.1253C47.0402 22.2221 47.7664 22.4238 48.4554 22.7246C48.5102 22.7404 48.5606 22.769 48.6027 22.8083C48.6448 22.8475 48.6774 22.8963 48.698 22.9507C48.7258 23.0519 48.7397 23.1566 48.7393 23.2617V27.4313C48.7417 27.4799 48.7318 27.5284 48.7106 27.572C48.6893 27.6156 48.6574 27.6528 48.618 27.68C48.5643 27.7081 48.505 27.723 48.4447 27.7235C48.3845 27.7239 48.3249 27.71 48.2708 27.6829Z" fill="#30A3F6"/>
</svg>
