<svg width="126" height="60" viewBox="0 0 126 60" fill="none" xmlns="http://www.w3.org/2000/svg">
<path d="M13.9161 0.199219C10.0932 0.199219 7.26439 3.55837 7.39101 7.20138C7.51252 10.7013 7.35467 15.2342 6.21794 18.9308C5.07781 22.6382 3.14957 24.9867 0 25.2882V28.6924C3.14957 28.9939 5.07781 31.3424 6.21794 35.0499C7.35467 38.7465 7.51252 43.2793 7.39101 46.7792C7.26439 50.4217 10.0932 53.7814 13.9167 53.7814H53.089C56.912 53.7814 59.7402 50.4223 59.6135 46.7792C59.492 43.2793 59.6499 38.7465 60.7866 35.0499C61.9273 31.3424 63.8504 28.9939 67 28.6924V25.2882C63.8504 24.9867 61.9273 22.6382 60.7866 18.9308C59.6499 15.2347 59.492 10.7013 59.6135 7.20138C59.7402 3.55894 56.912 0.199219 53.089 0.199219H13.9156H13.9161ZM45.4237 33.1825C45.4237 38.1987 41.6967 41.2409 35.5117 41.2409H24.9831C24.3559 41.2409 23.8475 40.7305 23.8475 40.1008V13.8798C23.8475 13.2501 24.3559 12.7397 24.9831 12.7397H35.4515C40.6088 12.7397 43.9935 15.5442 43.9935 19.8502C43.9935 22.8725 41.7166 25.5784 38.8157 26.0521V26.2099C42.7647 26.6449 45.4237 29.3901 45.4237 33.1825ZM34.3636 16.3537H28.3603V24.8664H33.4165C37.3252 24.8664 39.4806 23.2863 39.4806 20.4618C39.4806 17.8152 37.6273 16.3537 34.3636 16.3537ZM28.3603 28.2444V37.6258H34.5845C38.6539 37.6258 40.8098 35.9864 40.8098 32.9054C40.8098 29.8239 38.5937 28.2438 34.3227 28.2438H28.3603V28.2444Z" fill="#7E13F8"/>
</svg>
