<svg width="126" height="60" viewBox="0 0 126 60" fill="none" xmlns="http://www.w3.org/2000/svg">
<path d="M6.67188 11H19.1758C22.8458 11.0304 25.5052 12.0742 27.1541 14.1297C28.8029 16.1852 29.3469 18.9927 28.787 22.5523C28.5696 24.1788 28.0872 25.7741 27.3407 27.3389C26.625 28.9038 25.6303 30.3149 24.3547 31.5732C22.7992 33.1685 21.1354 34.181 19.3624 34.6109C17.5895 35.0407 15.754 35.2552 13.857 35.2552H8.2582L6.48525 44H0L6.67188 11ZM12.1307 16.2469L9.3313 30.0544C9.51792 30.0848 9.70455 30.1004 9.89117 30.1004C10.1086 30.1004 10.3269 30.1004 10.5444 30.1004C13.5304 30.1308 16.019 29.8399 18.0094 29.2259C19.9998 28.5816 21.3379 26.342 22.0219 22.5063C22.5817 19.2845 22.0219 17.4279 20.3422 16.9372C18.6934 16.4466 16.6256 16.2165 14.1369 16.2469C13.7637 16.2773 13.4063 16.2929 13.0638 16.2929C12.7531 16.2929 12.4265 16.2929 12.084 16.2929L12.1307 16.2469Z" fill="white"/>
<path d="M36.7444 2H43.2078L41.3812 10.7786H47.1889C50.3738 10.8401 52.7465 11.4836 54.308 12.7089C55.9005 13.9343 56.3688 16.2635 55.7131 19.695L52.5751 35H46.018L49.0155 20.3844C49.3275 18.8521 49.2338 17.7646 48.7345 17.1212C48.2352 16.4777 47.158 16.156 45.5028 16.156L40.304 16.11L36.4634 35H30L36.7444 2Z" fill="white"/>
<path d="M62.6719 11H75.1758C78.8458 11.0304 81.5052 12.0742 83.1541 14.1297C84.8029 16.1852 85.3469 18.9927 84.787 22.5523C84.5696 24.1788 84.0872 25.7741 83.3407 27.3389C82.625 28.9038 81.6303 30.3149 80.3547 31.5732C78.7992 33.1685 77.1354 34.181 75.3624 34.6109C73.5895 35.0407 71.754 35.2552 69.857 35.2552H64.2582L62.4852 44H56L62.6719 11ZM68.1307 16.2469L65.3313 30.0544C65.5179 30.0848 65.7045 30.1004 65.8912 30.1004C66.1086 30.1004 66.3269 30.1004 66.5444 30.1004C69.5304 30.1308 72.019 29.8399 74.0094 29.2259C75.9998 28.5816 77.3379 26.342 78.0219 22.5063C78.5817 19.2845 78.0219 17.4279 76.3422 16.9372C74.6934 16.4466 72.6256 16.2165 70.1369 16.2469C69.7637 16.2773 69.4063 16.2929 69.0638 16.2929C68.7531 16.2929 68.4265 16.2929 68.084 16.2929L68.1307 16.2469Z" fill="white"/>
</svg>
