<svg width="126" height="60" viewBox="0 0 126 60" fill="none" xmlns="http://www.w3.org/2000/svg">
<path d="M48.1789 27.5598C48.1789 23.6666 47.0953 21.6665 44.927 21.5568C44.0647 21.5151 43.2225 21.6559 42.4035 21.9817C41.7498 22.2215 41.3097 22.4587 41.0782 22.6983V31.9929C42.4646 32.8843 43.6959 33.2985 44.7686 33.2335C47.0402 33.0798 48.1771 31.1901 48.1771 27.5595L48.1789 27.5598ZM50.8514 27.7214C50.8514 29.6995 50.3986 31.3418 49.488 32.6467C48.473 34.1246 47.0663 34.8856 45.2679 34.9273C43.912 34.9716 42.5145 34.5364 41.079 33.624V42.0709L38.7539 41.2211V22.4717C39.1355 21.9922 39.6264 21.5802 40.2217 21.231C41.6054 20.4047 43.2883 19.9798 45.2665 19.959L45.2996 19.9929C47.1082 19.9694 48.5019 20.7303 49.4806 22.2734C50.3938 23.6887 50.8518 25.5035 50.8518 27.7202L50.8514 27.7214Z" fill="white"/>
<path d="M65.0635 33.2655C65.0635 35.9188 64.804 37.755 64.285 38.7791C63.7635 39.8008 62.7713 40.6166 61.3071 41.2239C60.1191 41.7033 58.8346 41.964 57.455 42.0084L57.0708 40.5073C58.4726 40.3118 59.4596 40.1164 60.033 39.9209C61.1599 39.53 61.9332 38.9305 62.3581 38.1278C62.699 37.4735 62.8668 36.2253 62.8668 34.3763V33.7559C61.2769 34.4961 59.6097 34.8637 57.8689 34.8637C56.7242 34.8637 55.7142 34.4963 54.8441 33.7559C53.8672 32.9505 53.3789 31.9288 53.3789 30.6916V20.7767L55.704 19.9609V29.94C55.704 31.0061 56.0399 31.827 56.7114 32.4029C57.383 32.9789 58.2531 33.2551 59.3189 33.2342C60.3848 33.2108 61.5269 32.7885 62.7405 31.9623V20.32H65.0656V33.2645L65.0635 33.2655Z" fill="white"/>
<path d="M74.1476 34.798C73.8704 34.8215 73.6159 34.8319 73.3818 34.8319C72.0667 34.8319 71.0416 34.5113 70.31 33.8677C69.5801 33.2238 69.2136 32.3352 69.2136 31.2015V21.8187H67.6211V20.32H69.2136V16.3412L71.5361 15.4941V20.3206H74.1486V21.8193H71.5361V31.1379C71.5361 32.0318 71.7702 32.6652 72.2382 33.0353C72.6401 33.3401 73.2787 33.5147 74.1486 33.5591V34.7998L74.1476 34.798Z" fill="white"/>
<path d="M88.2138 34.602H85.8887V25.4064C85.8887 24.4708 85.675 23.6655 85.25 22.993C84.7591 22.232 84.0774 21.8515 83.2023 21.8515C82.1365 21.8515 80.8033 22.4274 79.204 23.5794V34.6012H76.8789V12.6217L79.204 11.8711V21.8822C80.6896 20.7744 82.3124 20.2193 84.0766 20.2193C85.308 20.2193 86.3049 20.6442 87.0675 21.4913C87.8333 22.3384 88.2148 23.3938 88.2148 24.6545V34.5988L88.2138 34.602Z" fill="white"/>
<path d="M100.584 27.1857C100.584 25.6897 100.307 24.4557 99.7547 23.477C99.0983 22.286 98.0784 21.6579 96.6986 21.5927C94.1495 21.7439 92.8778 23.6152 92.8778 27.2026C92.8778 28.847 93.1424 30.2214 93.6766 31.3231C94.3583 32.7279 95.3811 33.421 96.7458 33.3978C99.305 33.3769 100.585 31.3076 100.585 27.1863L100.584 27.1857ZM103.131 27.2014C103.131 29.3306 102.599 31.1026 101.538 32.5171C100.37 34.1017 98.7585 34.8966 96.6994 34.8966C94.6592 34.8966 93.0691 34.1017 91.9207 32.5171C90.8802 31.1018 90.3613 29.3298 90.3613 27.2014C90.3613 25.1997 90.9235 23.5167 92.0478 22.145C93.2358 20.6906 94.7986 19.9609 96.7273 19.9609C98.6581 19.9609 100.23 20.6906 101.441 22.145C102.565 23.5159 103.127 25.1986 103.127 27.2014H103.131Z" fill="white"/>
<path d="M116.451 34.6033H114.126V24.8863C114.126 23.8202 113.813 22.9889 113.187 22.3894C112.561 21.7926 111.727 21.5033 110.687 21.5268C109.583 21.5476 108.532 21.9177 107.534 22.6346V34.603H105.209V22.3405C106.547 21.3423 107.778 20.6906 108.902 20.3858C109.963 20.1019 110.899 19.9609 111.705 19.9609C112.257 19.9609 112.776 20.0157 113.264 20.1251C114.178 20.3415 114.92 20.7428 115.493 21.3319C116.131 21.9835 116.449 22.7654 116.449 23.6801V34.603L116.451 34.6033Z" fill="white"/>
<path d="M15.7937 12.7103C14.5973 12.716 13.455 12.8205 12.4504 13.0028C9.48824 13.5389 8.9506 14.6606 8.9506 16.7303V19.463H15.9476V20.3737H8.9506H6.32509C4.29148 20.3737 2.50947 21.6262 1.95357 24.0076C1.31103 26.7376 1.28258 28.4436 1.95357 31.294C2.45101 33.4165 3.63902 34.9278 5.67262 34.9278H8.07865V31.6523C8.07865 29.2859 10.077 27.1976 12.4502 27.1976H19.4394C21.385 27.1976 22.9392 25.5563 22.9392 23.5557V16.7292C22.9392 14.7863 21.3393 13.328 19.4394 13.0017C18.2373 12.7967 16.99 12.7036 15.7934 12.7092L15.7937 12.7103ZM12.0094 14.908C12.7323 14.908 13.3224 15.5227 13.3224 16.2784C13.3224 17.0313 12.732 17.6405 12.0094 17.6405C11.2841 17.6405 10.6963 17.0316 10.6963 16.2784C10.6963 15.5227 11.2841 14.908 12.0094 14.908Z" fill="url(#paint0_linear_1946_52448)"/>
<path d="M23.8098 20.3711V23.5557C23.8098 26.024 21.7673 28.1014 19.4382 28.1014H12.449C10.5344 28.1014 8.94922 29.7801 8.94922 31.7432V38.5697C8.94922 40.5126 10.5984 41.6554 12.449 42.2116C14.664 42.879 16.7892 42.9996 19.4382 42.2116C21.1999 41.6891 22.9381 40.6372 22.9381 38.5697V35.837H15.9489V34.9263H22.9381H26.4379C28.4715 34.9263 29.2304 33.473 29.9377 31.2924C30.6682 29.0466 30.6371 26.8858 29.9377 24.006C29.435 21.9319 28.4751 20.3722 26.4379 20.3722H23.8124L23.8098 20.3711ZM19.8793 37.6606C20.6046 37.6606 21.1923 38.2695 21.1923 39.0227C21.1923 39.7784 20.6046 40.3931 19.8793 40.3931C19.1564 40.3931 18.5663 39.7784 18.5663 39.0227C18.5663 38.2697 19.1566 37.6606 19.8793 37.6606Z" fill="url(#paint1_linear_1946_52448)"/>
<path d="M120.993 18.1954H121.401V15.576H122.366V15.2637H120.027V15.576H120.993V18.1954ZM122.728 18.1954H123.076V15.803L123.832 18.1951H124.22L125.007 15.811V18.1954H125.387V15.2647H124.885L124.024 17.7763L123.29 15.2647H122.728V18.1954Z" fill="white"/>
<path opacity="0.4438" d="M25.4129 46.8591C25.4129 47.3532 24.4248 47.8271 22.666 48.1765C20.9073 48.5258 18.5219 48.7221 16.0346 48.7221C13.5473 48.7221 11.1619 48.5258 9.4031 48.1765C7.64432 47.8271 6.65625 47.3532 6.65625 46.8591C6.65625 46.365 7.64432 45.8911 9.4031 45.5418C11.1619 45.1924 13.5473 44.9961 16.0346 44.9961C18.5219 44.9961 20.9073 45.1924 22.666 45.5418C24.4248 45.8911 25.4129 46.365 25.4129 46.8591Z" fill="url(#paint2_radial_1946_52448)"/>
<defs>
<linearGradient id="paint0_linear_1946_52448" x1="1.46047" y1="12.7097" x2="17.9296" y2="26.4025" gradientUnits="userSpaceOnUse">
<stop stop-color="#5A9FD4"/>
<stop offset="1" stop-color="#306998"/>
</linearGradient>
<linearGradient id="paint1_linear_1946_52448" x1="19.7142" y1="38.8019" x2="13.7268" y2="30.6253" gradientUnits="userSpaceOnUse">
<stop stop-color="#FFD43B"/>
<stop offset="1" stop-color="#FFE873"/>
</linearGradient>
<radialGradient id="paint2_radial_1946_52448" cx="0" cy="0" r="1" gradientUnits="userSpaceOnUse" gradientTransform="translate(16.047 46.8516) rotate(-90) scale(1.86311 7.99513)">
<stop stop-color="#B8B8B8" stop-opacity="0.498"/>
<stop offset="1" stop-color="#7F7F7F" stop-opacity="0"/>
</radialGradient>
</defs>
</svg>
