<svg width="126" height="60" viewBox="0 0 126 60" fill="none" xmlns="http://www.w3.org/2000/svg">
<path d="M30.652 47.3155H30.4278V47.189H31.0314V47.3155H30.8087V47.9464H30.652V47.3155ZM31.856 47.3484H31.8525L31.6303 47.9466H31.5286L31.3079 47.3484H31.3052V47.9466H31.1575V47.1892H31.3748L31.5795 47.7255L31.7835 47.1892H32V47.9466H31.8559V47.3484H31.856ZM10.5799 31.828C10.5799 31.828 9.01989 32.7426 11.6901 33.0521C14.925 33.4241 16.5783 33.3708 20.1432 32.6906C20.1432 32.6906 21.0805 33.283 22.3894 33.7962C14.3979 37.2491 4.30298 33.5962 10.5799 31.828ZM9.60338 27.3223C9.60338 27.3223 7.85367 28.628 10.5259 28.9066C13.9815 29.266 16.7105 29.2954 21.4327 28.3787C21.4327 28.3787 22.0858 29.0463 23.1128 29.4113C13.4506 32.2596 2.68861 29.6359 9.60338 27.3223Z" fill="#5382A1"/>
<path d="M17.8373 19.6787C19.8065 21.9642 17.32 24.0208 17.32 24.0208C17.32 24.0208 22.3199 21.4188 20.0237 18.1603C17.879 15.1217 16.2344 13.6118 25.1378 8.40625C25.1378 8.40625 11.1624 11.925 17.8373 19.6787Z" fill="#F8981D"/>
<path d="M28.4046 35.1605C28.4046 35.1605 29.5591 36.1194 27.1332 36.8613C22.5204 38.27 7.93421 38.6954 3.88222 36.9174C2.42564 36.2786 5.15715 35.3921 6.01638 35.2061C6.91246 35.0102 7.42455 35.0467 7.42455 35.0467C5.80468 33.8963 -3.04564 37.3055 2.92903 38.2819C19.2228 40.9458 32.631 37.0824 28.4046 35.1605ZM11.3295 22.6535C11.3295 22.6535 3.91006 24.43 8.70211 25.0752C10.7255 25.3483 14.759 25.2865 18.5161 24.9691C21.5866 24.708 24.6698 24.1528 24.6698 24.1528C24.6698 24.1528 23.5871 24.6203 22.8037 25.1595C15.2694 27.1571 0.714439 26.2278 4.90463 24.1844C8.44827 22.4576 11.3295 22.6535 11.3295 22.6535ZM24.6392 30.1535C32.2982 26.1413 28.757 22.2855 26.2852 22.805C25.6794 22.9321 25.4093 23.0423 25.4093 23.0423C25.4093 23.0423 25.6342 22.6871 26.0637 22.5333C30.9536 20.8002 34.7142 27.6449 24.4852 30.3558C24.4852 30.3559 24.6037 30.249 24.6392 30.1535Z" fill="#5382A1"/>
<path d="M20.0225 0C20.0225 0 24.2642 4.2776 15.9995 10.8553C9.37199 16.1318 14.4882 19.1403 15.9967 22.5777C12.1281 19.0589 9.28914 15.9613 11.1938 13.0784C13.9893 8.84649 21.7339 6.79471 20.0225 0Z" fill="#F8981D"/>
<path d="M12.0827 41.026C19.4344 41.5004 30.7237 40.7628 30.9911 37.2559C30.9911 37.2559 30.4772 38.5853 24.9153 39.6411C18.6405 40.8315 10.9014 40.6925 6.31125 39.9296C6.31136 39.9295 7.25091 40.7136 12.0827 41.026ZM10.8778 54.4259C10.1843 55.0324 9.45185 55.3728 8.79453 55.3728C7.8563 55.3728 7.34939 54.8056 7.34939 53.8959C7.34939 52.9119 7.8925 52.1925 10.0714 52.1925H10.8777L10.8778 54.4259ZM12.7915 56.6026V49.8648C12.7915 48.1436 11.8177 47.0078 9.4699 47.0078C8.09925 47.0078 6.89859 47.349 5.92273 47.7842L6.20441 48.9769C6.97275 48.6926 7.96732 48.4279 8.94351 48.4279C10.296 48.4279 10.8778 48.9769 10.8778 50.1118V50.9634H10.2028C6.91675 50.9634 5.43441 52.2494 5.43441 54.1796C5.43441 55.8453 6.41126 56.7922 8.25054 56.7922C9.43282 56.7922 10.3154 56.3001 11.1404 55.58L11.2901 56.6027H12.7915V56.6026ZM19.1781 56.6026H16.7913L13.9189 47.1784H16.0032L17.7856 52.9687L18.1818 54.7101C19.0835 52.1924 19.7212 49.638 20.0402 47.1784H22.0677C21.5245 50.2818 20.547 53.6881 19.1781 56.6026ZM28.3341 54.4259C27.6393 55.0324 26.9055 55.3728 26.2481 55.3728C25.3116 55.3728 24.8033 54.8056 24.8033 53.8959C24.8033 52.9119 25.3478 52.1925 27.5265 52.1925H28.3341V54.4259ZM30.2475 56.6026V49.8648C30.2475 48.1436 29.2713 47.0078 26.9263 47.0078C25.5546 47.0078 24.3535 47.349 23.3781 47.7842L23.6593 48.9769C24.428 48.6926 25.4244 48.4279 26.3999 48.4279C27.7514 48.4279 28.3341 48.9769 28.3341 50.1118V50.9634H27.658C24.3709 50.9634 22.8892 52.2494 22.8892 54.1796C22.8892 55.8453 23.8653 56.7922 25.7043 56.7922C26.8872 56.7922 27.7694 56.3001 28.5959 55.58L28.7462 56.6027H30.2475V56.6026ZM3.33613 58.203C2.7906 59.006 1.90947 59.6413 0.944833 60.0007L0 58.8798C0.734234 58.5 1.36394 57.8866 1.65651 57.3152C1.90958 56.8071 2.01433 56.1522 2.01433 54.586V43.8268H4.04748V54.4386C4.04737 56.5324 3.88133 57.3782 3.33613 58.203Z" fill="#5382A1"/>
</svg>
