<svg width="126" height="60" viewBox="0 0 126 60" fill="none" xmlns="http://www.w3.org/2000/svg">
<path d="M28.4196 21.8908C28.4196 23.1105 28.5512 24.0995 28.7815 24.8248C29.0446 25.5501 29.3736 26.3413 29.8341 27.1984C29.9986 27.4622 30.0644 27.7259 30.0644 27.9567C30.0644 28.2864 29.867 28.616 29.4394 28.9457L27.367 30.3303C27.0709 30.5281 26.7749 30.627 26.5117 30.627C26.1828 30.627 25.8538 30.4622 25.5249 30.1655C25.0644 29.671 24.6696 29.1435 24.3407 28.616C24.0117 28.0556 23.6828 27.4292 23.3209 26.671C20.7551 29.7039 17.5315 31.2204 13.6499 31.2204C10.8867 31.2204 8.68277 30.4292 7.07093 28.8468C5.45909 27.2644 4.63672 25.1545 4.63672 22.5171C4.63672 19.7149 5.62356 17.4402 7.63014 15.7259C9.63672 14.0116 12.3012 13.1545 15.6894 13.1545C16.8078 13.1545 17.9591 13.2534 19.1762 13.4182C20.3933 13.5831 21.6433 13.8468 22.9591 14.1435V11.7369C22.9591 9.23141 22.4328 7.48416 21.413 6.46218C20.3604 5.4402 18.5841 4.9457 16.0512 4.9457C14.8999 4.9457 13.7157 5.07757 12.4986 5.37427C11.2815 5.67097 10.0972 6.03361 8.94593 6.49515C8.41961 6.72592 8.02488 6.85779 7.79461 6.92372C7.56435 6.98966 7.39988 7.02262 7.2683 7.02262C6.80777 7.02262 6.57751 6.69295 6.57751 6.00064V4.38526C6.57751 3.85779 6.6433 3.46218 6.80777 3.23141C6.97225 3.00064 7.2683 2.76987 7.72882 2.53911C8.88014 1.9457 10.2617 1.45119 11.8736 1.05559C13.4854 0.627017 15.1959 0.429215 17.0051 0.429215C20.9196 0.429215 23.7815 1.31932 25.6236 3.09954C27.4328 4.87976 28.3538 7.58306 28.3538 11.2094V21.8908H28.4196ZM15.0644 26.9017C16.1499 26.9017 17.2683 26.7039 18.4525 26.3083C19.6367 25.9127 20.6894 25.1875 21.5775 24.1984C22.1038 23.5721 22.4986 22.8798 22.6959 22.0886C22.8933 21.2973 23.0249 20.3413 23.0249 19.2204V17.8358C22.0709 17.605 21.0512 17.4072 19.9986 17.2754C18.9459 17.1435 17.9262 17.0776 16.9065 17.0776C14.7025 17.0776 13.0907 17.5061 12.0051 18.3962C10.9196 19.2864 10.3933 20.5391 10.3933 22.1875C10.3933 23.7369 10.788 24.8908 11.6104 25.682C12.3999 26.5061 13.5512 26.9017 15.0644 26.9017ZM41.4788 30.4622C40.8867 30.4622 40.492 30.3633 40.2288 30.1325C39.9657 29.9347 39.7354 29.4732 39.538 28.8468L31.8078 3.36328C31.6104 2.70394 31.5117 2.27537 31.5117 2.0446C31.5117 1.51713 31.7749 1.22042 32.3012 1.22042H35.5249C36.1499 1.22042 36.5775 1.31933 36.8078 1.55009C37.0709 1.7479 37.2683 2.20944 37.4657 2.83581L42.992 24.66L48.1236 2.83581C48.288 2.17647 48.4854 1.7479 48.7486 1.55009C49.0117 1.35229 49.4722 1.22042 50.0643 1.22042H52.6959C53.3209 1.22042 53.7486 1.31933 54.0117 1.55009C54.2749 1.7479 54.5051 2.20944 54.6367 2.83581L59.8341 24.9237L65.5249 2.83581C65.7222 2.17647 65.9525 1.7479 66.1828 1.55009C66.4459 1.35229 66.8736 1.22042 67.4657 1.22042H70.5249C71.0512 1.22042 71.3472 1.48416 71.3472 2.0446C71.3472 2.20944 71.3143 2.37427 71.2814 2.57207C71.2486 2.76987 71.1828 3.03361 71.0512 3.39625L63.1236 28.8798C62.9262 29.5391 62.6959 29.9677 62.4328 30.1655C62.1696 30.3633 61.742 30.4952 61.1828 30.4952H58.3538C57.7288 30.4952 57.3012 30.3962 57.038 30.1655C56.7749 29.9347 56.5446 29.5061 56.413 28.8468L51.3143 7.58306L46.2486 28.8138C46.0841 29.4732 45.8867 29.9017 45.6236 30.1325C45.3604 30.3633 44.8999 30.4622 44.3078 30.4622H41.4788ZM83.7486 31.3523C82.038 31.3523 80.3275 31.1545 78.6828 30.7589C77.038 30.3633 75.7551 29.9347 74.8999 29.4402C74.3736 29.1435 74.0117 28.8138 73.8801 28.5171C73.7486 28.2204 73.6828 27.8908 73.6828 27.5941V25.9127C73.6828 25.2204 73.9459 24.8908 74.4393 24.8908C74.6367 24.8908 74.8341 24.9237 75.0315 24.9897C75.2288 25.0556 75.5249 25.1875 75.8538 25.3193C76.9722 25.8138 78.1893 26.2094 79.4722 26.4732C80.788 26.7369 82.0709 26.8688 83.3867 26.8688C85.4591 26.8688 87.0709 26.5061 88.1893 25.7809C89.3078 25.0556 89.8999 24.0006 89.8999 22.649C89.8999 21.7259 89.6038 20.9677 89.0117 20.3413C88.4196 19.7149 87.3012 19.1545 85.6893 18.627L80.9196 17.1435C78.5183 16.3853 76.742 15.2644 75.6565 13.7809C74.5709 12.3303 74.0117 10.7149 74.0117 9.00064C74.0117 7.61603 74.3078 6.39625 74.8999 5.3413C75.492 4.28636 76.2814 3.36328 77.2683 2.63801C78.2551 1.87976 79.3736 1.31933 80.6893 0.923721C82.0051 0.528116 83.3867 0.363281 84.8341 0.363281C85.5578 0.363281 86.3143 0.396248 87.038 0.495149C87.7946 0.59405 88.4854 0.725919 89.1762 0.857787C89.8341 1.02262 90.4591 1.18746 91.0512 1.38526C91.6433 1.58306 92.1038 1.78086 92.4328 1.97867C92.8933 2.2424 93.2222 2.50614 93.4196 2.80284C93.617 3.06658 93.7157 3.42922 93.7157 3.89075V5.4402C93.7157 6.13251 93.4525 6.49515 92.9591 6.49515C92.6959 6.49515 92.2683 6.36328 91.7091 6.09955C89.8341 5.2424 87.7288 4.81383 85.3933 4.81383C83.5183 4.81383 82.038 5.11053 81.0183 5.73691C79.9986 6.36328 79.4722 7.31932 79.4722 8.67097C79.4722 9.59405 79.8012 10.3853 80.4591 11.0116C81.117 11.638 82.3341 12.2644 84.0775 12.8248L88.7486 14.3083C91.117 15.0666 92.8275 16.1215 93.8472 17.4732C94.867 18.8248 95.3604 20.3743 95.3604 22.0886C95.3604 23.5061 95.0643 24.7919 94.5051 25.9127C93.913 27.0336 93.1236 28.0226 92.1038 28.8138C91.0841 29.638 89.867 30.2314 88.4525 30.66C86.9722 31.1215 85.4262 31.3523 83.7486 31.3523Z" fill="white"/>
<path fill-rule="evenodd" clip-rule="evenodd" d="M89.9653 47.3731C79.1429 55.3841 63.4192 59.6368 49.8995 59.6368C30.9521 59.6368 13.8798 52.6148 0.985038 40.9445C-0.0346983 40.0214 0.886354 38.7687 2.10346 39.494C16.0508 47.6038 33.2548 52.5159 51.0508 52.5159C63.0574 52.5159 76.2482 50.0104 88.3864 44.8676C90.1956 44.0434 91.7416 46.0544 89.9653 47.3731Z" fill="#FF9900"/>
<path fill-rule="evenodd" clip-rule="evenodd" d="M94.4711 42.2311C93.0895 40.4508 85.3264 41.3739 81.8066 41.8025C80.754 41.9343 80.5895 41.0113 81.5435 40.319C87.7277 35.9673 97.8922 37.2201 99.0764 38.6706C100.261 40.1541 98.7474 50.3409 92.9579 55.2201C92.0698 55.9783 91.2145 55.5827 91.6093 54.5937C92.925 51.33 95.8527 43.9783 94.4711 42.2311Z" fill="#FF9900"/>
</svg>
