<svg width="126" height="60" viewBox="0 0 126 60" fill="none" xmlns="http://www.w3.org/2000/svg">
<path d="M7.48659 36.5855V34.3084C7.48659 32.5913 7.2764 32.089 6.62579 30.6616L3.21967 23.1744H0.808594L5.17149 32.7457V36.5855H7.48659ZM8.99859 29.6576L11.8306 23.1738H9.47728L6.64522 29.6576H8.99859ZM33.1859 36.7784C34.2575 36.7784 35.1377 36.2767 35.75 35.3309L35.8649 36.5855H37.9698V23.1744H35.6929V28.0176C35.1189 27.149 34.2769 26.6865 33.2819 26.6865C31.081 26.6865 29.5501 28.558 29.5501 31.7998C29.5501 35.0031 31.0427 36.7784 33.1859 36.7784ZM47.1742 35.9294V34.0579C46.4659 34.54 45.2795 34.9645 44.1697 34.9645C42.5046 34.9645 41.8734 34.1736 41.7774 32.5521H47.2696V31.3367C47.2696 27.9595 45.7965 26.6865 43.5191 26.6865C40.7441 26.6865 39.4241 28.8281 39.4241 31.7612C39.4241 35.1385 41.0697 36.7784 43.9783 36.7784C45.4326 36.7784 46.5042 36.3925 47.1742 35.9294ZM18.5281 29.9663C18.5281 27.6121 17.3417 26.7245 14.9306 26.7245C13.438 26.7245 12.2328 27.3615 11.5439 27.8633V29.8511C12.2711 29.2526 13.3809 28.558 14.6627 28.558C15.7531 28.558 16.2507 28.9439 16.2507 29.9859V30.6034H15.8874C12.4047 30.6034 10.855 31.7422 10.855 33.7681C10.855 35.6396 12.0414 36.7208 13.8019 36.7208C15.1408 36.7208 15.7155 36.2767 16.1553 35.8136H16.2507C16.2701 36.0641 16.3466 36.3925 16.4232 36.5855H18.6429C18.5665 35.7967 18.5282 35.0047 18.5281 34.2122V29.9669V29.9663ZM22.6614 29.619C23.0823 29.0983 23.7518 28.6547 24.5749 28.6547C25.3786 28.6547 25.7419 29.0015 25.7419 29.7354V36.5855H28.0193V29.5032C28.0193 27.5735 27.2539 26.7245 25.3974 26.7245C24.0391 26.7245 23.2354 27.2268 22.7762 27.6899H22.6614L22.6036 26.8788H20.3839V36.5855H22.6614V29.619ZM54.1772 36.5855H56.742L53.6038 31.5873L56.3204 26.8788H54.0436L52.3979 29.812L50.5609 26.8788H47.9968L50.9054 31.5297L47.882 36.5855H50.1971L52.13 33.305L54.1772 36.5855ZM33.8559 28.5004C35.0806 28.5004 35.6929 29.4842 35.6929 31.7226C35.6929 33.9807 35.0423 34.9645 33.7599 34.9645C32.5158 34.9645 31.9035 33.9997 31.9035 31.7998C31.9035 29.5032 32.5541 28.4998 33.8559 28.4998V28.5004ZM43.4808 28.5004C44.6101 28.5004 44.9545 29.4456 44.9545 30.6616V30.8546H41.778C41.8351 29.3108 42.3904 28.5004 43.4808 28.5004ZM16.2512 34.2698C15.9639 34.6944 15.4281 35.0417 14.6244 35.0417C13.6677 35.0417 13.189 34.4824 13.189 33.6333C13.189 32.5135 13.9738 32.1282 15.9256 32.1282H16.2507V34.2698H16.2512Z" fill="white"/>
<path d="M63.2969 29.9062C63.2969 26.627 65.9329 23.9688 69.1847 23.9688C72.4366 23.9688 75.0726 26.627 75.0726 29.9062C75.0726 33.1855 72.4366 35.8438 69.1847 35.8438C65.9329 35.8438 63.2969 33.1855 63.2969 29.9062Z" fill="white"/>
<path d="M69.1833 38.8125C66.9883 38.7591 66.1199 37.2794 65.8549 35.8509C65.7107 35.0742 65.7737 33.7828 65.8549 33.3215C65.9862 32.5704 66.1982 31.4904 66.4331 30.2376C66.7687 28.4421 67.6602 27.4208 69.5849 27.0563L72.7325 26.4506C72.8161 25.9792 72.9739 24.7311 72.8303 23.9622C72.5624 22.5176 71.459 21.0232 69.2187 21C64.3394 21 60.3516 24.9858 60.3516 29.9062C60.3516 34.8267 64.3041 38.8125 69.1833 38.8125Z" fill="url(#paint0_linear_1949_37394)"/>
<path d="M69.1842 21C71.3786 21.0534 72.4649 22.536 72.7298 23.9646C72.8741 24.7412 72.5938 26.0303 72.5126 26.491C72.3813 27.2421 72.1693 28.3221 71.9344 29.5749C71.5988 31.3704 70.7068 32.3917 68.7826 32.7562L65.8534 33.3363C65.7698 33.8072 65.4948 35.0808 65.6385 35.8497C65.9064 37.2937 66.9085 38.7893 69.1488 38.8125C74.0281 38.8125 78.0159 34.8267 78.0159 29.9062C78.0159 24.9858 74.0634 21 69.1842 21Z" fill="url(#paint1_linear_1949_37394)"/>
<path d="M86.8127 36.778C88.2475 36.778 89.2237 36.2573 89.8166 35.8518V33.9803C89.0512 34.5396 88.2092 34.9641 86.9846 34.9641C84.8797 34.9641 83.8846 33.247 83.8846 29.8893C83.8846 26.4349 84.8414 24.795 87.0994 24.795C88.1521 24.795 89.1277 25.2581 89.8166 25.7016V23.8295C89.2043 23.386 88.2092 22.9805 86.9846 22.9805C83.4448 22.9805 81.5312 25.6048 81.5312 29.8893C81.5312 34.289 83.5213 36.778 86.8127 36.778ZM93.6278 23.1734H91.351V36.5851H93.6278V23.1734ZM99.402 26.6861C96.8956 26.6861 95.154 28.4804 95.154 31.7418C95.154 34.9837 96.8956 36.778 99.402 36.778C101.909 36.778 103.65 34.9831 103.65 31.7222C103.65 28.4804 101.909 26.6861 99.402 26.6861ZM99.402 34.9641C98.1391 34.9641 97.5079 33.9803 97.5079 31.7418C97.5079 29.4838 98.1391 28.5 99.402 28.5C100.665 28.5 101.297 29.4838 101.297 31.7222C101.297 33.9803 100.665 34.9641 99.402 34.9641ZM110.442 33.8449C110.021 34.3656 109.351 34.8098 108.528 34.8098C107.725 34.8098 107.361 34.4624 107.361 33.7291V26.8784H105.084V33.9607C105.084 35.8904 105.849 36.7394 107.705 36.7394C109.064 36.7394 109.868 36.2377 110.327 35.7746H110.442L110.499 36.5851H112.719V26.8784H110.442V33.8449ZM117.888 36.778C118.96 36.778 119.84 36.2763 120.452 35.3305L120.567 36.5851H122.672V23.1734H120.395V28.0173C119.821 27.1486 118.979 26.6861 117.984 26.6861C115.783 26.6861 114.252 28.5576 114.252 31.7994C114.252 35.0027 115.745 36.778 117.888 36.778ZM118.558 28.5C119.782 28.5 120.395 29.4838 120.395 31.7222C120.395 33.9803 119.744 34.9641 118.462 34.9641C117.218 34.9641 116.606 33.9993 116.606 31.7994C116.606 29.5028 117.256 28.4994 118.558 28.4994V28.5Z" fill="white"/>
<defs>
<linearGradient id="paint0_linear_1949_37394" x1="60.3516" y1="38.8125" x2="74.3895" y2="22.1141" gradientUnits="userSpaceOnUse">
<stop stop-color="#D2DFFF"/>
<stop offset="1" stop-color="#4E7FFF"/>
</linearGradient>
<linearGradient id="paint1_linear_1949_37394" x1="78.0159" y1="21" x2="63.7633" y2="37.1989" gradientUnits="userSpaceOnUse">
<stop stop-color="#D2DFFF"/>
<stop offset="1" stop-color="#4E7FFF"/>
</linearGradient>
</defs>
</svg>
