<svg width="126" height="60" viewBox="0 0 126 60" fill="none" xmlns="http://www.w3.org/2000/svg">
<g clip-path="url(#clip0_1949_54646)">
<path d="M75.5149 21.0409C72.7522 21.0409 70.6949 22.4071 70.6949 25.6952C70.6949 28.1726 72.0508 29.8923 75.3663 29.8923C78.1763 29.8923 80.0848 28.2248 80.0848 25.5929C80.0848 22.6103 78.3769 21.0409 75.5149 21.0409ZM69.9895 44.2566C69.3358 45.0646 68.6843 45.9232 68.6843 46.9364C68.6843 48.9578 71.2439 49.5661 74.76 49.5661C77.6727 49.5661 81.6402 49.3607 81.6402 46.6335C81.6402 45.0125 79.7315 44.9121 77.3196 44.7598L69.9895 44.2566ZM84.8537 21.1939C85.7561 22.3574 86.7117 23.976 86.7117 26.3023C86.7117 31.9157 82.3426 35.2028 76.0167 35.2028C74.408 35.2028 72.9516 35.001 72.0486 34.7485L70.3909 37.4284L75.3117 37.7312C84 38.2886 89.1206 38.542 89.1206 45.2658C89.1206 51.0832 84.0499 54.3685 75.3117 54.3685C66.2226 54.3685 62.7578 52.0418 62.7578 48.0471C62.7578 45.7704 63.7624 44.5594 65.52 42.888C63.8622 42.1823 63.3106 40.9187 63.3106 39.5526C63.3106 38.4393 63.8623 37.4281 64.7676 36.4665C65.6711 35.5066 66.6751 34.5444 67.8805 33.4321C65.4202 32.2186 63.5617 29.5888 63.5617 25.8459C63.5617 20.0308 67.3786 16.0371 75.0603 16.0371C77.22 16.0371 78.5264 16.2373 79.6814 16.5426H89.4744V20.8402L84.8537 21.1939Z" fill="white"/>
<path d="M98.3115 12.0031C95.4484 12.0031 93.7918 10.3327 93.7918 7.44901C93.7918 4.56894 95.4484 3 98.3115 3C101.224 3 102.881 4.56894 102.881 7.44901C102.881 10.3327 101.224 12.0031 98.3115 12.0031ZM91.8324 42.3945V38.4013L94.3943 38.0484C95.0977 37.9457 95.1975 37.7952 95.1975 37.0348V22.1669C95.1975 21.6117 95.0475 21.2562 94.5438 21.1057L91.8324 20.1439L92.3846 16.0491H102.78V37.0352C102.78 37.8459 102.829 37.9461 103.584 38.0487L106.146 38.4017V42.3949H91.832" fill="white"/>
<path d="M126.004 40.4354C123.843 41.4961 120.68 42.4571 117.817 42.4571C111.841 42.4571 109.582 40.032 109.582 34.3149V21.0661C109.582 20.7633 109.582 20.5601 109.179 20.5601H105.664V16.0594C110.084 15.5523 111.841 13.3267 112.393 7.81445H117.165V14.9981C117.165 15.3508 117.165 15.5036 117.567 15.5036H124.647V20.56H117.165V32.6462C117.165 35.6304 117.869 36.7926 120.579 36.7926C121.987 36.7926 123.441 36.4396 124.647 35.9841L126.004 40.4354Z" fill="white"/>
<path d="M51.5983 27.164L28.6357 4.04179C27.3145 2.71003 25.1698 2.71003 23.847 4.04179L19.079 8.84391L25.127 14.9347C26.533 14.4566 28.1446 14.7771 29.2648 15.9055C30.3908 17.0409 30.7069 18.6777 30.2202 20.0984L36.0494 25.9688C37.4597 25.4794 39.0868 25.7956 40.2129 26.9316C41.7872 28.5167 41.7872 31.085 40.2129 32.6705C38.6383 34.2564 36.0879 34.2564 34.5125 32.6705C33.3287 31.4774 33.0359 29.7258 33.6355 28.2569L28.1991 22.7821L28.1987 37.1889C28.5825 37.3803 28.9447 37.6357 29.2646 37.9564C30.8385 39.5412 30.8385 42.1091 29.2646 43.6966C27.6902 45.2814 25.1387 45.2814 23.566 43.6966C21.9919 42.1093 21.9919 39.5414 23.566 37.9564C23.9551 37.5653 24.4052 37.2693 24.8855 37.0709V22.5302C24.405 22.3326 23.9554 22.0388 23.5658 21.6446C22.3734 20.4448 22.0863 18.6825 22.6978 17.2079L16.7357 11.2027L0.992119 27.0572C-0.330706 28.3899 -0.330706 30.5497 0.992119 31.8816L23.9533 55.0038C25.2753 56.3356 27.4192 56.3356 28.743 55.0038L51.598 31.9908C52.9204 30.6584 52.9204 28.498 51.598 27.1659" fill="#F05133"/>
</g>
<defs>
<clipPath id="clip0_1949_54646">
<rect width="126" height="60" fill="white"/>
</clipPath>
</defs>
</svg>
