<svg width="178" height="60" viewBox="0 0 178 60" fill="none" xmlns="http://www.w3.org/2000/svg">
<path fill-rule="evenodd" clip-rule="evenodd" d="M12.6197 32.0828L17.0607 32.0524L14.8907 27.5258L12.115 22.1041C11.7618 21.4328 11.5094 20.9445 11.2065 20.2731C10.6514 19.1643 7.72429 13.6002 7.57295 12.9289H12.9224L15.2943 8.20897C15.5466 7.47651 16.0512 6.61201 16.4046 5.89992C16.7578 5.16747 17.1112 4.08926 17.6158 3.65197L19.382 0.0306474L9.08682 0L3.93921 10.0398C3.586 10.7212 3.2831 11.3418 2.87938 12.064C2.57648 12.7454 -0.0980494 17.6687 0.00277897 18.1875L7.4214 32.0824H12.6195L12.6197 32.0828Z" fill="white"/>
<path fill-rule="evenodd" clip-rule="evenodd" d="M15.2962 8.20934C16.0029 9.94883 18.0215 13.5395 19.0308 15.5129C19.6364 16.7233 20.242 17.9439 20.8476 19.1646C21.1505 19.7648 21.4532 20.3751 21.7561 20.9854C22.059 21.5956 22.5132 22.1551 22.6646 22.8061H17.1637L14.8927 27.526L17.0627 32.0526L12.6217 32.083L10.8555 35.7043L21.1507 35.735L23.2198 31.7272C23.977 30.3744 24.5826 29.0214 25.2385 27.6786C25.7935 26.6512 30.3861 18.2288 30.1842 17.588C30.1337 17.2931 29.7805 16.927 29.6291 16.6217C29.4273 16.2556 29.3262 15.9911 29.1246 15.6147L22.6648 3.65234H17.618C17.1134 4.08984 16.76 5.16805 16.4068 5.9003C16.0536 6.61238 15.5488 7.47689 15.2965 8.20934H15.2962Z" fill="white"/>
<path fill-rule="evenodd" clip-rule="evenodd" d="M38.0547 25.0949H41.436L41.7389 8.36187C41.7389 9.74532 41.9408 11.1897 42.0922 12.5324L43.4044 25.0949H47.3408C47.3408 23.7623 47.6437 22.1145 47.795 20.9448C47.9464 19.4799 48.0979 18.0458 48.2493 16.7031L49.0567 9.2673C49.1073 8.59594 48.9557 8.79936 49.3596 8.36207V23.2641C49.3091 25.4816 48.7035 25.0951 53.1447 25.0951V2.12667H47.1897C46.8365 3.65246 46.3822 10.9967 46.0795 13.3158C45.8777 14.6382 45.9282 16.1743 45.5748 16.9269C45.5748 16.9573 45.5748 16.998 45.5242 17.0285C45.3224 16.0622 45.2213 14.333 45.1205 13.336L44.0102 2.12646H38.0551V25.0949H38.0547Z" fill="white"/>
<path fill-rule="evenodd" clip-rule="evenodd" d="M100.585 12.1666C100.585 13.6924 99.7266 17.09 99.424 18.7682L98.1117 25.0951C98.8687 25.0951 101.745 25.2782 102.099 24.9528C102.301 24.7391 102.755 22.0742 102.856 21.5859L104.016 15.4624C104.168 14.6995 103.865 15.1267 104.369 14.7503V25.0953H108.508L108.811 14.7503L110.627 25.0953H114.867C114.867 23.305 112.293 14.7098 112.293 12.3193C112.293 11.414 112.697 10.4475 112.898 9.70499C113.201 8.38263 114.816 2.93048 114.867 2.12686H110.93C110.526 2.91012 109.315 8.38263 108.962 9.76608L108.659 10.7935V2.12707H104.369V10.7935C104.369 10.763 104.319 10.6715 104.319 10.6919L102.502 3.07302C102.25 1.79139 102.603 2.12707 98.1113 2.12707C98.1113 3.58169 100.584 10.6411 100.584 12.1669L100.585 12.1666Z" fill="white"/>
<path fill-rule="evenodd" clip-rule="evenodd" d="M76.0059 25.0949H80.2955L82.5665 13.9973C82.7179 13.6616 82.617 13.8549 82.7179 13.682V25.0949H86.4019V2.12646H82.2636L81.7085 4.90344C81.4056 6.35806 79.9926 12.3189 79.9926 13.2344L79.8413 2.12646H76.0059V25.0949Z" fill="white"/>
<path fill-rule="evenodd" clip-rule="evenodd" d="M115.522 25.0952H119.609V5.93113H121.426V25.0952H125.716V2.58461C125.716 2.23864 125.615 2.12695 125.262 2.12695H115.521V25.0954L115.522 25.0952Z" fill="white"/>
<path fill-rule="evenodd" clip-rule="evenodd" d="M87.1584 2.58432V25.0949H91.3975V14.2922H93.4162V25.0949H97.5039V2.12646H93.4162V10.4878H91.3975V2.12646H87.6124C87.2592 2.12646 87.1582 2.23836 87.1582 2.58412L87.1584 2.58432Z" fill="white"/>
<path fill-rule="evenodd" clip-rule="evenodd" d="M142.319 21.5958C141.966 21.5958 141.562 21.1889 141.562 20.8329V6.38871C141.562 5.44276 142.572 5.65626 143.076 5.77844C143.278 6.14456 143.379 6.43972 143.379 6.99899V20.3752C143.379 21.077 143.076 21.5958 142.32 21.5958H142.319ZM137.475 6.99899V20.2226C137.475 22.847 139.14 25.4002 141.411 25.4002C143.733 25.4002 145.095 25.7155 146.559 23.7014C147.215 22.8369 147.669 21.6976 147.669 20.2226V7.30422C147.669 4.58833 146.105 1.82164 143.682 1.82164C141.361 1.82164 140.049 1.50632 138.534 3.52041C137.878 4.38512 137.475 5.52442 137.475 6.99919V6.99899Z" fill="white"/>
<path fill-rule="evenodd" clip-rule="evenodd" d="M58.0399 20.07V7.15167C58.0399 4.95452 59.8567 5.52427 59.8567 6.38877V20.8329C59.8567 21.6976 58.0399 22.2672 58.0399 20.07ZM54.0529 6.54119V20.6803C54.0529 22.9182 55.8697 25.4002 58.0399 25.4002C60.6138 25.4002 61.1689 25.6851 62.8846 23.9964C63.4397 23.4166 64.1463 22.2164 64.1463 21.138V6.08333C64.1463 4.23194 62.2285 1.82129 60.1593 1.82129H58.0397C55.8697 1.82129 54.0527 4.30331 54.0527 6.54098L54.0529 6.54119Z" fill="white"/>
<path fill-rule="evenodd" clip-rule="evenodd" d="M157.258 2.58425V24.6372C157.258 24.9829 157.359 25.0948 157.712 25.0948H161.396L161.699 14.2922L163.819 25.0948H167.957C167.856 24.1896 167.503 22.8977 167.251 21.9618C166.998 20.8632 166.796 19.7951 166.594 18.8187C166.241 16.9673 165.333 13.926 165.333 12.1662C165.333 11.1692 165.736 10.3962 165.938 9.58254C166.191 8.76884 166.493 7.89405 166.695 7.1108C166.998 6.01222 168.007 2.94029 168.108 2.12659H164.121C163.768 2.76731 161.85 10.7728 161.85 11.5561L161.547 4.26286C161.547 1.69959 162.254 2.1268 157.712 2.1268C157.359 2.1268 157.258 2.23869 157.258 2.58445L157.258 2.58425Z" fill="white"/>
<path fill-rule="evenodd" clip-rule="evenodd" d="M65.207 6.54126V20.6804C65.207 22.9082 66.9733 25.4003 69.1435 25.4003C71.0613 25.4003 72.1209 25.6444 73.4836 24.5356L74.0387 24.0065C75.7544 22.0636 75.2499 19.2766 75.2499 15.9708C69.9004 15.9708 71.0107 14.9129 71.0107 21.138C70.5565 21.4433 70.6575 21.5957 70.0519 21.5957C69.3455 21.5957 69.1435 20.5479 69.1435 19.7647V7.45656C69.1435 6.7344 69.3453 6.35799 69.4464 5.77816C70.3548 5.57473 69.7996 5.53401 70.8594 5.77816C71.1623 7.14124 71.0107 9.04344 71.0107 10.4878H75.2499C75.2499 7.61926 75.7041 4.95417 73.9882 3.22496C72.3227 1.53648 71.7172 1.82136 69.1435 1.82136C66.9735 1.82136 65.207 4.31346 65.207 6.54105V6.54126Z" fill="white"/>
<path fill-rule="evenodd" clip-rule="evenodd" d="M131.368 12.7768H130.611V5.62588C133.084 5.62588 132.579 7.08049 132.579 11.0984C132.579 12.0036 132.276 12.7768 131.368 12.7768ZM126.473 2.58438V25.095H130.157C130.51 25.095 130.611 24.9831 130.611 24.6373V16.4286C132.781 16.4286 134.194 16.7235 135.658 14.9332C137.071 13.1633 136.667 9.75566 136.667 7.15166C136.667 1.30275 131.923 2.12673 126.927 2.12673C126.574 2.12673 126.473 2.23862 126.473 2.58438H126.473Z" fill="white"/>
<path fill-rule="evenodd" clip-rule="evenodd" d="M148.729 25.0949H156.803V21.4431H152.715V14.1396H156.803V10.4878H152.715V5.62561H156.803C156.803 3.53007 157.106 2.12646 156.349 2.12646H148.729V25.0949Z" fill="white"/>
<path fill-rule="evenodd" clip-rule="evenodd" d="M168.259 2.58432C168.259 6.64294 167.553 5.93085 170.985 5.93085V25.0949H174.972C175.325 25.0949 175.426 24.983 175.426 24.6373V5.93085H178V2.12646H168.714C168.361 2.12646 168.26 2.23836 168.26 2.58412L168.259 2.58432Z" fill="white"/>
<path fill-rule="evenodd" clip-rule="evenodd" d="M88.3691 35.735C89.4795 35.735 89.2776 35.9385 89.2776 33.4564C89.2776 32.5308 89.1263 32.3478 89.1263 31.473C89.1263 31.5036 89.1768 31.5238 89.1768 31.5748L89.9337 33.5889C90.1356 34.2399 90.4888 34.9723 90.6404 35.7352H91.5488L92.9619 31.7782V35.7352H93.7188V30.4153C92.3058 30.4153 92.6085 30.3543 92.3058 31.3004L91.4983 33.5484C91.347 34.1282 91.347 34.3824 90.9433 34.6673C90.8422 33.4772 89.8834 31.6972 89.5807 30.4153H88.3696V35.7352L88.3691 35.735Z" fill="white"/>
<path fill-rule="evenodd" clip-rule="evenodd" d="M120.215 35.7349H121.275C121.426 35.2466 123.596 32.0017 123.899 31.7779V35.7349H124.807V30.415H123.748C123.596 30.8931 121.931 33.3243 121.527 33.9753C121.426 34.138 121.426 34.1176 121.325 34.2601C121.123 34.5755 121.275 34.3416 121.123 34.5144V30.415H120.215V35.7349Z" fill="white"/>
<path fill-rule="evenodd" clip-rule="evenodd" d="M82.264 33.4566C82.264 32.2969 82.3145 31.0865 84.0302 30.9645C86.402 30.7915 86.8563 35.1249 83.9292 35.1249C83.0712 35.1249 82.2637 34.3417 82.2637 33.4566H82.264ZM81.3555 32.9989C81.3555 34.8197 82.5666 35.786 83.8283 35.8878H84.3834C85.6956 35.7759 86.8563 34.7993 86.8563 32.9989C86.8563 31.707 85.7965 30.2627 84.5348 30.2627C82.819 30.2627 81.3555 30.8018 81.3555 32.9989Z" fill="white"/>
<path fill-rule="evenodd" clip-rule="evenodd" d="M113.959 35.7348C115.423 35.7348 115.322 35.0635 116.886 32.6934L117.643 31.6252V35.7346H118.4V30.4148C117.24 30.4148 117.441 30.4454 116.18 32.4796C115.927 32.8966 115.725 33.1815 115.473 33.5782L114.716 34.6665V30.4146H113.959V35.7344L113.959 35.7348Z" fill="white"/>
<path fill-rule="evenodd" clip-rule="evenodd" d="M75.8535 35.7351H76.762C76.762 33.9348 76.5601 33.8126 77.5189 33.1515C77.7713 33.3142 79.2349 35.2368 79.3862 35.7351H80.4461C80.2947 35.196 78.6293 33.2835 78.175 32.541C78.8311 32.1037 79.7394 31.0152 80.4461 30.415C77.9732 30.415 78.9825 31.5441 76.762 32.6936V30.415H75.8535V35.7349V35.7351Z" fill="white"/>
<path fill-rule="evenodd" clip-rule="evenodd" d="M54.6582 35.7349H55.4151V31.0253H58.1909V35.2773C58.1909 35.8164 58.4938 35.7349 59.0994 35.7349V30.415H54.6582V35.7349Z" fill="white"/>
<path fill-rule="evenodd" clip-rule="evenodd" d="M95.5371 35.7351H96.4456V31.0253H99.1708V35.7351H99.9278V30.415H95.5371V35.7351Z" fill="white"/>
<path fill-rule="evenodd" clip-rule="evenodd" d="M107.75 35.7351H108.507V33.3039H111.384V35.7351H112.141V30.415H111.384V32.541H108.507V30.415H107.75V35.7351Z" fill="white"/>
<path fill-rule="evenodd" clip-rule="evenodd" d="M103.914 31.3303C104.065 32.0424 104.469 32.7239 104.52 33.4563H103.005L103.914 31.3303ZM101.34 35.7349H102.249C102.4 35.1144 102.652 34.8093 102.703 34.2192H104.974L105.478 35.7246L106.336 35.7349L104.822 31.6255C104.469 30.6693 104.671 30.415 103.762 30.415C103.258 30.415 103.157 31.0457 103.005 31.4729L101.34 35.7349H101.34Z" fill="white"/>
<path fill-rule="evenodd" clip-rule="evenodd" d="M69.2944 31.4729L69.9505 33.4462L68.3861 33.4563C68.4872 33.019 68.588 32.9273 68.7393 32.4392C68.9412 31.8493 68.8907 31.7882 69.2944 31.4729ZM66.7207 35.7349H67.4776C67.6795 35.3688 67.9822 34.6567 68.0832 34.2192H70.2029C70.4048 34.5446 70.4553 34.8091 70.6066 35.2059C70.9095 35.8873 70.7076 35.7349 71.6159 35.7349C71.5149 34.6464 70.1019 31.9305 69.7486 30.415H68.6888C68.3859 31.8493 67.0234 34.4839 66.7207 35.7349Z" fill="white"/>
<path fill-rule="evenodd" clip-rule="evenodd" d="M60.916 35.7349H61.6729V31.0253C65.4075 31.0253 64.6001 30.0386 64.6001 35.7349H65.357V30.415H60.916V35.7349Z" fill="white"/>
<path fill-rule="evenodd" clip-rule="evenodd" d="M45.2212 32.8462H43.8585V31.0255C45.8771 31.0255 46.2809 30.8628 46.2809 32.0833C46.2809 32.5817 45.7258 32.8462 45.221 32.8462H45.2212ZM43.1016 35.7351H43.8585V33.4565C45.7258 33.4565 47.1893 33.8024 47.1893 31.7781C47.1893 29.9981 44.8678 30.415 43.1016 30.415V35.7349V35.7351Z" fill="white"/>
<path fill-rule="evenodd" clip-rule="evenodd" d="M49.3589 35.1244C49.3589 35.7854 49.3083 35.8873 49.9645 35.8873C51.1251 35.8873 51.428 34.3004 51.8823 33.4052C52.387 32.3778 52.7907 31.3811 53.2953 30.4146H52.3868L50.7719 33.7206C50.7214 33.6901 50.6709 33.5579 50.6709 33.5171C50.5698 33.3645 50.5195 33.2425 50.469 33.1002L49.2073 30.4148H48.2988C48.7531 31.2795 49.1568 32.1236 49.611 33.0494C49.8129 33.4562 50.1661 34.026 50.2671 34.3718C50.57 35.0839 50.2166 35.1246 49.3587 35.1246L49.3589 35.1244Z" fill="white"/>
<path fill-rule="evenodd" clip-rule="evenodd" d="M38.0547 35.7351H38.8116V31.0253H41.7387V30.415H38.0547V35.7351Z" fill="white"/>
<path fill-rule="evenodd" clip-rule="evenodd" d="M123.595 28.8896C122.939 29.0727 122.838 30.0798 121.879 29.2253C121.425 28.8286 122.131 28.9812 121.273 28.8896C121.425 30.2935 122.686 30.2425 123.242 29.7747C123.545 29.5409 123.545 29.4086 123.595 28.8896Z" fill="white"/>
</svg>
