<svg width="178" height="60" viewBox="0 0 178 60" fill="none" xmlns="http://www.w3.org/2000/svg">
<path fill-rule="evenodd" clip-rule="evenodd" d="M121.064 19.2613C121.064 7.94537 138.877 6.18337 138.877 20.4363C138.877 30.1429 121.064 31.7266 121.064 19.2613ZM114.543 19.2613C114.543 31.9569 130.877 40.0798 140.826 30.1177C155.144 15.8134 133.499 -5.87325 119.114 8.40543C117.098 10.4234 114.543 15.5065 114.543 19.2613Z" fill="white"/>
<path fill-rule="evenodd" clip-rule="evenodd" d="M150.709 34.6649C158.91 34.6649 157.229 36.7337 157.229 22.2248H169.732C170.135 20.3856 170.337 19.4147 171.48 18.0865V34.6649C176.118 34.6649 178 35.329 178 32.9023V5.62174C178 3.1951 176.118 3.8592 171.48 3.8592V16.2993H157.229C157.229 1.79032 158.91 3.8592 150.709 3.8592V34.6654V34.6649Z" fill="white"/>
<path fill-rule="evenodd" clip-rule="evenodd" d="M64.7343 13.3352H65.9443C66.6834 16.5791 68.0953 18.8274 68.9021 22.2245H61.7765C62.5833 18.9806 63.9947 16.7323 64.7343 13.3352ZM50.5508 34.6641H57.0714C57.2733 32.3392 58.2815 31.1898 58.8192 28.738H67.1549C67.9618 27.1287 68.7008 25.7239 68.9027 23.3995C71.0536 24.9575 72.1291 30.6538 74.2806 34.6646H80.1962C79.8598 30.6029 70.0454 8.8654 68.9032 3.8584H61.7776C61.2398 6.33591 60.1644 8.71168 59.1562 11.2915C57.4757 15.7104 50.8205 31.2921 50.5519 34.6641H50.5508Z" fill="white"/>
<path fill-rule="evenodd" clip-rule="evenodd" d="M0.13457 8.58476L4.16785 12.8762C7.59611 11.8292 6.38607 10.373 11.4275 10.373C15.5954 10.373 18.8218 13.0037 19.6954 16.299H7.25969V22.225H17.9476C18.0822 20.1305 18.9558 17.857 20.3004 16.8865C20.3004 24.115 17.8809 28.1511 10.2175 28.1511C7.39426 28.1511 6.65467 26.4142 4.30187 25.7758L0 29.7861C1.94908 31.1401 5.37734 34.6651 10.8225 34.6651C18.4186 34.6651 26.216 28.3814 26.216 21.05C26.216 15.8138 26.082 11.9818 21.5105 7.99724C12.7043 0.410978 6.11693 4.59962 0.134023 8.58476H0.13457Z" fill="white"/>
<path fill-rule="evenodd" clip-rule="evenodd" d="M83.1523 34.6647H89.673C90.1434 32.5444 97.0672 14.4342 98.5459 12.7477L106.881 34.6647H113.402C112.864 32.5701 111.251 28.8147 110.511 26.8738C109.368 24.0128 108.494 21.7393 107.352 18.7509C106.478 16.3243 105.335 13.8467 104.327 11.1389C101.101 2.93943 103.453 3.85899 96.1936 3.85899C93.9081 3.85899 89.9421 16.4265 89.1353 18.7509C88.1944 21.4073 87.1189 23.8345 86.1107 26.3629C85.1693 28.7386 83.7579 32.1614 83.1529 34.6647H83.1523Z" fill="white"/>
<path fill-rule="evenodd" clip-rule="evenodd" d="M29.1738 10.3725H36.9045V34.6646H42.8196V10.3725H50.5503V3.8584H29.1738V10.3725Z" fill="white"/>
</svg>
