<svg width="178" height="60" viewBox="0 0 178 60" fill="none" xmlns="http://www.w3.org/2000/svg">
<path fill-rule="evenodd" clip-rule="evenodd" d="M28.9361 15.7211C28.9361 0.358624 49.6706 -0.344151 49.6706 14.6978C49.6706 19.3337 48.9574 23.7846 44.4742 26.1518C38.259 29.456 28.9361 26.1518 28.9361 15.7211ZM24.5039 14.0197C24.5039 19.8762 24.7586 23.0572 28.987 27.1998C36.8325 34.8934 54.4594 31.6507 54.4594 15.7211C54.4594 11.2332 52.8292 7.30015 50.6385 4.9329C49.4668 3.67533 48.3461 2.51636 46.7158 1.66559C41.3666 -1.1948 32.808 -0.220752 28.6304 4.24247C26.8473 6.17822 24.5039 10.4071 24.5039 14.0197Z" fill="white"/>
<path fill-rule="evenodd" clip-rule="evenodd" d="M66.0247 26.9404H60.9302V17.0768C64.9548 17.0768 71.1191 16.2877 71.1191 22.1813C71.1191 25.0664 68.8776 26.9405 66.0247 26.9405V26.9404ZM63.6303 13.341H60.9302V3.8227C63.6303 3.8227 67.2983 3.87199 68.6229 5.99267C70.457 8.9147 69.2343 13.341 63.6303 13.341ZM56.498 1.11018V30.6762C62.8152 30.6762 68.47 31.5884 72.4437 28.6048C78.0986 24.388 75.2967 15.141 70.1003 14.6971C70.7626 13.8218 71.272 13.8711 72.0872 12.9217C74.4307 10.1353 76.6213 0.0868379 61.5926 0.0868379C58.0775 0.0868379 56.4982 -0.406306 56.4982 1.11018H56.498Z" fill="white"/>
<path fill-rule="evenodd" clip-rule="evenodd" d="M86.4542 26.9411H82.022V17.0775C86.2504 17.0775 92.2109 16.1898 92.2109 22.5148C92.2109 23.834 91.243 25.215 90.4788 25.8438C89.5109 26.5958 88.0844 26.9411 86.4543 26.9411H86.4542ZM85.4353 13.3417H82.022V4.16864C84.6711 4.16864 87.473 3.47822 89.2562 5.45091C91.0392 7.48524 90.8863 13.3417 85.4353 13.3417ZM77.5898 30.6768C83.6523 30.6768 90.1732 31.6631 93.8412 28.2232C97.2546 25.0176 97.5601 20.5296 94.9621 17.0651C93.4847 15.0554 91.396 14.6978 90.8864 14.3649C95.3187 13.3292 99.2414 0.0874023 83.0409 0.0874023H77.5898V30.6767V30.6768Z" fill="white"/>
<path fill-rule="evenodd" clip-rule="evenodd" d="M163.379 14.6974H161.698V4.84617C161.698 2.36799 170.511 4.04481 170.511 8.58203C170.511 12.9714 168.27 14.6974 163.379 14.6974ZM157.266 0.432236V30.6763H161.698V18.1002C165.977 18.1002 165.519 18.0633 168.932 23.7718C170.358 26.1267 171.683 28.3214 172.906 30.6763H178L171.887 20.1347C171.021 18.84 170.206 18.088 169.492 16.7441C171.836 15.5234 173.16 14.9687 174.383 12.4288C175.402 10.2342 175.453 7.16413 174.332 5.11744C171.53 -0.073259 165.824 0.0869675 158.947 0.0869675C158.437 0.0869675 157.673 0.271897 157.266 0.432236Z" fill="white"/>
<path fill-rule="evenodd" clip-rule="evenodd" d="M121.504 30.6768H137.144V27.2739C132.966 27.2739 130.012 26.941 125.936 26.941V17.0774H135.819V13.3416H125.936V4.16853H135.463C135.819 2.541 136.685 2.08491 136.838 0.0874023H121.504V30.6767V30.6768Z" fill="white"/>
<path fill-rule="evenodd" clip-rule="evenodd" d="M139.23 1.11044V30.6764H155.227V26.9405H143.612V17.077H153.495V13.3411H143.612V4.16811H153.852C153.954 2.72562 154.565 1.78851 154.871 0.43225C152.069 0.43225 149.114 0.518595 146.363 0.444601C144.682 0.395309 144.427 0.111683 142.644 0.074743C141.065 0.0254513 139.23 -0.332169 139.23 1.11044Z" fill="white"/>
<path fill-rule="evenodd" clip-rule="evenodd" d="M105.505 19.457V30.6768H109.581V19.457C109.581 17.7556 115.745 7.85499 117.07 5.19187C117.783 3.72468 119.311 1.80128 119.464 0.0874023C117.325 0.0874023 116.407 0.432671 114.675 0.432671C114.013 3.30542 108.562 11.5045 107.9 14.3649C106.473 13.4032 101.022 2.02315 99.6976 0.0874023H95.3164C95.8258 2.40536 105.505 17.8541 105.505 19.4569V19.457Z" fill="white"/>
<path fill-rule="evenodd" clip-rule="evenodd" d="M17.6776 2.13366C17.6776 6.32572 17.4229 8.50793 15.2322 10.9246L14.7738 11.4548C14.7228 11.5041 14.621 11.5657 14.621 11.615C14.1116 12.0711 13.704 12.4164 13.0418 12.7862C11.1568 13.8466 0 15.0425 0 26.2622V31.3543H4.43216C4.43216 26.8541 3.71901 22.0702 8.04924 19.3824C14.7739 15.2644 22.11 18.4083 22.11 0.432129H17.6778V2.13354L17.6776 2.13366Z" fill="white"/>
<path fill-rule="evenodd" clip-rule="evenodd" d="M17.3204 20.48V30.6765C17.3204 32.0573 18.3902 31.6998 21.0903 31.6998C22.7715 31.6998 22.1091 28.2229 22.1091 24.8939C22.1091 22.1815 22.1091 19.4567 22.1091 16.7441C21.6507 16.8674 17.3203 19.5183 17.3203 20.48H17.3204Z" fill="white"/>
<path fill-rule="evenodd" clip-rule="evenodd" d="M0 15.043C1.27364 14.1922 3.00563 12.3675 4.43216 11.9853V0.0874023H0V15.043Z" fill="white"/>
</svg>
