<svg width="178" height="60" viewBox="0 0 178 60" fill="none" xmlns="http://www.w3.org/2000/svg">
<path fill-rule="evenodd" clip-rule="evenodd" d="M14.9311 12.504L2.13044 25H0L12.8007 12.504L0 0.0084954H2.13044L14.9311 12.504Z" fill="white"/>
<path fill-rule="evenodd" clip-rule="evenodd" d="M26.3413 9.77669L36.3799 0H38.51L27.4246 10.8402L28.0931 11.475L39.8282 0H41.9586L16.3753 24.9911H14.2453L27.0456 12.4871L14.2453 0H16.3753L21.0333 4.55377L25.6916 0.00849637H27.8221L22.0989 5.59983L22.8031 6.2945L29.2483 0H31.3787L23.8683 7.34133L24.5722 8.02712L32.823 0H34.9534L25.6555 9.07355L26.3413 9.77669Z" fill="white"/>
<path fill-rule="evenodd" clip-rule="evenodd" d="M18.4877 12.504L5.68741 25H3.55658L16.3576 12.504L3.55658 0.0084954H5.68741L18.4877 12.504Z" fill="white"/>
<path fill-rule="evenodd" clip-rule="evenodd" d="M22.0447 12.504L9.24402 25H7.11316L19.9139 12.504L7.11316 0.0084954H9.24402L22.0447 12.504Z" fill="white"/>
<path fill-rule="evenodd" clip-rule="evenodd" d="M25.6013 12.504L12.8007 25H10.6702L23.4705 12.504L10.6702 0.0084954H12.8007L25.6013 12.504Z" fill="white"/>
<path fill-rule="evenodd" clip-rule="evenodd" d="M168.711 7.84411L166.726 13.4335H170.747L168.711 7.84411ZM167.363 3.01385H170.065L178 21.549H174.182L172.146 16.7648H165.428L163.342 21.549H159.524L167.363 3.01385ZM139.225 21.549V3.01385H143.949L149.013 17.191L154.137 3.01385H158.916V21.549H155.434V7.60161L150.519 21.549H147.567L142.706 7.60161V21.549H139.225ZM129.615 7.84411L127.631 13.4335H131.651L129.615 7.84411ZM128.267 3.01385H130.969L138.904 21.549H135.087L133.051 16.7648H126.333L124.246 21.549H120.429L128.267 3.01385ZM106.232 3.01385H109.714V10.4529H116.483V3.01385H119.94V21.549H116.483V13.759H109.714V21.549H106.232V3.01385ZM89.4224 12.4608C89.4651 13.4207 89.6907 14.2892 90.1016 15.07C90.5085 15.8504 91.0343 16.5099 91.6749 17.0447C92.3156 17.5826 92.9898 17.9873 93.7018 18.2591C94.4105 18.5306 95.0725 18.6685 95.6869 18.6685C96.8066 18.6685 97.85 18.3889 98.8171 17.834C99.7883 17.2783 100.564 16.5145 101.15 15.5461C101.735 14.5773 102.049 13.5127 102.1 12.3604C102.1 11.2835 101.849 10.2691 101.353 9.31726C100.857 8.36581 100.149 7.58886 99.2239 6.99227C98.3044 6.3953 97.2438 6.06553 96.0388 5.99835C95.3178 5.99835 94.5721 6.13234 93.8003 6.39492C93.0284 6.66213 92.3115 7.05869 91.6495 7.5935C90.9843 8.1275 90.4494 8.80363 90.0377 9.63C89.6267 10.4529 89.4224 11.3966 89.4224 12.4608ZM85.9879 12.6072C85.9879 10.524 86.467 8.73339 87.4292 7.2259C88.3881 5.71917 89.6308 4.58352 91.1491 3.81587C92.6625 3.0517 94.2284 2.66749 95.8354 2.66749C97.1503 2.66749 98.4061 2.93045 99.6021 3.45213C100.798 3.97844 101.846 4.69667 102.745 5.61027C103.648 6.52002 104.347 7.56802 104.852 8.75347C105.356 9.93508 105.607 11.1707 105.607 12.4566C105.607 12.5187 105.603 12.6068 105.595 12.7195C105.586 12.8361 105.582 12.9238 105.582 12.9825C105.523 14.0892 105.133 15.3495 104.411 16.7648C103.691 18.18 102.588 19.4071 101.112 20.4423C99.6365 21.4815 97.809 21.9993 95.6287 21.9993C94.0209 21.9699 92.6002 21.661 91.3706 21.0683C90.1402 20.4798 89.1263 19.7118 88.329 18.7638C87.5358 17.8205 86.9468 16.806 86.5646 15.7252C86.1782 14.6483 85.9879 13.6092 85.9879 12.6072ZM75.8107 3.01385H79.2927V11.0796L85.171 3.01385H89.3445L82.2196 12.1064L89.3445 21.549H85.171L79.2927 13.3837V21.549H75.8107V3.01385ZM59.0013 12.4608C59.0433 13.4207 59.2684 14.2892 59.68 15.07C60.087 15.8504 60.6129 16.5099 61.2531 17.0447C61.8937 17.5826 62.5681 17.9873 63.2806 18.2591C63.9892 18.5306 64.6507 18.6685 65.2654 18.6685C66.3851 18.6685 67.4284 18.3889 68.3958 17.834C69.3668 17.2783 70.1429 16.5145 70.7281 15.5461C71.3134 14.5773 71.6272 13.5127 71.6779 12.3604C71.6779 11.2835 71.4276 10.2691 70.9316 9.31726C70.4355 8.36581 69.7273 7.58886 68.8023 6.99227C67.8824 6.3953 66.8219 6.06553 65.6173 5.99835C64.8965 5.99835 64.1499 6.13234 63.378 6.39492C62.6058 6.66213 61.8894 7.05869 61.2276 7.5935C60.5618 8.1275 60.0273 8.80363 59.6156 9.63C59.2048 10.4529 59.0013 11.3966 59.0013 12.4608ZM55.5657 12.6072C55.5657 10.524 56.0448 8.73339 57.0079 7.2259C57.9659 5.71917 59.2091 4.58352 60.7272 3.81587C62.2409 3.0517 63.8062 2.66749 65.4138 2.66749C66.7284 2.66749 67.9842 2.93045 69.1802 3.45213C70.3758 3.97844 71.4237 4.69667 72.3224 5.61027C73.2258 6.52002 73.9261 7.56802 74.4305 8.75347C74.9352 9.93508 75.1854 11.1707 75.1854 12.4566C75.1854 12.5187 75.181 12.6068 75.1728 12.7195C75.1641 12.8361 75.1598 12.9238 75.1598 12.9825C75.1009 14.0892 74.7105 15.3495 73.9898 16.7648C73.2686 18.18 72.1661 19.4071 70.6904 20.4423C69.2139 21.4815 67.3868 21.9993 65.2061 21.9993C63.5987 21.9699 62.1781 21.661 60.9483 21.0683C59.7181 20.4798 58.7047 19.7118 57.907 18.7638C57.114 17.8205 56.5244 16.806 56.1427 15.7252C55.757 14.6483 55.5657 13.6092 55.5657 12.6072ZM42.4331 3.01385H46.3016L50.3727 11.4758L54.5208 3.01385H58.334L52.1292 14.7109V21.549H48.6468V14.7109L42.4331 3.01385Z" fill="white"/>
</svg>
