<svg width="178" height="60" viewBox="0 0 178 60" fill="none" xmlns="http://www.w3.org/2000/svg">
<path fill-rule="evenodd" clip-rule="evenodd" d="M40.6567 46.6809H68.3924C80.8982 46.6809 87.2131 37.5645 87.2956 24.8747H68.8465C68.6401 36.854 63.3159 35.5139 57.5789 35.5139L57.6614 24.9763C55.1438 24.692 43.9174 24.8747 40.5742 24.8747L40.6567 46.6809Z" fill="white"/>
<path fill-rule="evenodd" clip-rule="evenodd" d="M40.6973 23.1283L57.6193 23.1081V13.6465C60.9212 13.6465 64.7596 13.0983 66.5344 15.2302C68.0202 17.0372 68.7218 20.1843 68.9282 23.0877L87.171 23.108C86.7995 17.5042 85.2311 12.2658 82.4659 8.65171C80.3609 5.89031 75.9034 1.56568 70.2903 1.74841L40.6973 1.6875V23.1282V23.1283Z" fill="white"/>
<path fill-rule="evenodd" clip-rule="evenodd" d="M100.585 24.8953C101.617 26.2556 104.547 28.4078 106.239 29.5448C118.043 37.5851 101.617 36.976 93.5684 32.9153L95.7558 45.5848C98.6037 46.6203 106.404 47.3512 109.706 47.3919C115.897 47.4528 123.492 45.9706 126.587 40.5699C130.879 32.956 124.317 24.875 121.139 24.875L100.585 24.8953H100.585Z" fill="white"/>
<path fill-rule="evenodd" clip-rule="evenodd" d="M8.04975 24.8751C8.83395 26.0324 12.012 28.3876 13.4978 29.4637C15.3138 30.7835 18.1616 32.1236 17.6251 34.9863C12.7136 37.0371 5.65582 34.7833 1.0332 32.956L3.22068 45.6661C14.0755 48.1635 31.4104 49.1786 34.7123 38.844C35.6203 35.9406 35.6615 32.6513 34.3408 30.093C33.6392 28.753 33.0613 28.022 32.0295 27.0881C31.1214 26.2556 30.5024 24.9968 28.9753 24.875H8.04965L8.04975 24.8751Z" fill="white"/>
<path fill-rule="evenodd" clip-rule="evenodd" d="M27.4903 23.048C26.0045 21.2815 16.5941 16.7132 17.9149 14.0534C19.6483 12.2666 23.1979 12.4494 26.2521 12.9367C30.2556 13.5661 31.37 15.2514 33.3098 16.2868L31.4938 2.07417C27.4078 1.0184 16.8418 0.124992 12.6732 0.896573C7.18383 1.91171 1.90084 5.38368 0.456264 9.54595C-0.534297 12.3478 0.208696 15.434 1.52944 17.6878C5.98692 25.119 7.14262 23.1089 16.9244 23.0885C20.4739 23.0683 23.9822 23.0683 27.4904 23.048H27.4903Z" fill="white"/>
<path fill-rule="evenodd" clip-rule="evenodd" d="M119.902 23.0075C116.105 19.3122 110.327 17.7894 110.327 14.1754C113.422 11.7998 119.118 12.5308 122.502 14.1551C123.823 14.7845 124.731 15.5966 125.928 16.0839L123.988 2.09467C119.985 1.01863 109.212 0.145499 105.126 0.896808C99.5957 1.93231 94.4778 5.36364 92.9506 9.56645C91.8775 12.4902 92.7856 15.4545 94.0238 17.688C94.8492 19.2311 97.532 22.9263 99.1416 23.1091L119.902 23.0076L119.902 23.0075Z" fill="white"/>
<path fill-rule="evenodd" clip-rule="evenodd" d="M40.6971 23.1289V1.6882L70.2901 1.74911C69.4233 1.20091 42.9671 1.03844 40.5732 1.52574L40.4082 21.9716C40.4082 21.9716 40.4082 22.4184 40.4495 22.4996C40.532 23.068 40.532 22.8448 40.6972 23.1289H40.6971Z" fill="white"/>
</svg>
