<svg width="178" height="60" viewBox="0 0 178 60" fill="none" xmlns="http://www.w3.org/2000/svg">
<path fill-rule="evenodd" clip-rule="evenodd" d="M46.2895 21.8684C45.5662 21.8684 45.394 21.9024 44.6707 21.7322C42.5008 21.2046 41.1232 19.2814 41.1232 17.0689C41.1232 16.5073 41.261 15.8435 41.3643 15.4011C41.8465 13.6822 42.8798 12.4738 44.1885 11.3846C44.6707 10.9931 45.4628 10.5506 46.0139 10.2784C48.3904 9.08701 51.3868 9.25719 53.4877 10.84C54.7277 11.7591 54.4176 11.8101 54.0388 12.5419C53.9011 12.7972 53.7977 13.0525 53.66 13.2908L52.8678 14.7715C52.7301 14.9927 52.5923 15.265 52.489 15.4862C52.1446 16.1329 51.5591 17.035 51.2146 17.6477C50.9047 18.1072 49.7336 19.8431 49.2859 20.3196C48.907 20.7111 48.5281 21.0514 48.046 21.3408C47.6327 21.5621 46.9094 21.8684 46.2895 21.8684V21.8684ZM64.0613 12.0483L62.7525 12.0143C62.2014 12.0143 61.8571 12.0654 61.8571 11.5208V1.25823C61.8571 1.12202 61.8915 1.12202 61.8915 1.00292L65.2323 1.01995C66.8855 1.19013 68.0565 1.92192 69.0554 3.07921C70.3642 4.64497 70.5019 7.04468 69.6753 8.86575C68.7109 10.9591 66.3 12.0483 64.0613 12.0483ZM60.8238 17.0179C60.5827 16.8648 60.376 16.6265 60.1693 16.4393L56.4497 12.661C55.6575 11.8952 55.6919 12.0654 56.3808 10.6187C56.5874 10.2102 56.7596 9.83583 56.9663 9.42737L58.9295 5.18965C59.0327 4.96839 59.1017 4.81523 59.205 4.59397L60.066 2.78993C60.2726 2.33039 60.3415 2.26228 60.8581 2.38147C60.9959 2.61975 60.927 3.692 60.927 4.04938V7.77657C60.927 8.45737 60.8581 8.95088 60.8581 9.59763C60.8581 12.1164 60.8237 14.4821 60.8237 17.0179H60.8238ZM54.8654 10.9251C54.7965 10.8571 54.7276 10.806 54.6243 10.7209L53.8665 10.1422C51.8 8.69565 48.4592 8.55944 46.1172 9.66574C43.1208 11.0613 40.8477 13.5972 40.8477 17.1542C40.8477 19.1795 41.8809 21.1026 43.4652 22.1067C45.325 23.3151 47.4949 23.0428 49.148 21.8344C49.8713 21.2898 50.4569 20.6431 51.0423 19.9453C51.3178 19.6049 51.5934 19.2304 51.8345 18.8731L52.9366 17.1542C53.0743 16.9329 53.1777 16.7627 53.281 16.5585C53.9009 15.5714 54.4176 14.5162 54.9686 13.5291C55.4163 12.7463 55.3475 12.7292 56.1052 13.461L56.794 14.0567C57.3451 14.5843 57.965 15.0438 58.5161 15.5544C58.6538 15.6906 58.6883 15.7246 58.826 15.8607L60.5137 17.3754C60.617 17.4605 60.8237 17.5456 60.8237 17.6987V22.0216C60.8237 22.2939 60.7204 22.4641 60.5482 22.5832C60.376 22.6854 60.2382 22.6683 60.066 22.7364C59.9282 22.7875 59.9971 22.7364 59.9282 22.8555C59.9971 22.8895 59.9971 22.9066 60.1005 22.9066H66.6099C68.9864 22.9066 70.9495 22.362 72.4306 21.4599C74.6004 20.1324 75.978 17.2902 74.7382 14.7884C74.0149 13.3248 73.0161 12.3717 71.604 11.6399C71.1906 11.4527 70.8118 11.4527 70.7773 11.1634C71.3629 11.0443 72.3961 9.86997 72.706 9.37637C74.4625 6.7554 73.6704 3.09633 70.8117 1.68372C69.8818 1.22418 69.0552 1.01995 68.0564 0.900845C67.712 0.866793 67.712 0.900845 67.402 0.917872L67.6086 0.985978C67.7464 1.003 67.8152 1.003 67.9186 1.02003C68.0908 1.03706 68.2974 1.08805 68.5041 1.13913C69.5029 1.36039 70.3984 1.87093 71.0872 2.56867C72.8093 4.27064 73.1537 7.40215 71.8105 9.41034C71.5349 9.85286 71.3283 10.0741 70.9495 10.4484C70.7428 10.6697 69.9162 11.1122 69.9162 11.3675C69.9162 11.759 70.2262 11.7419 70.5706 11.844C72.4993 12.4737 73.877 14.7202 73.877 16.8646C73.877 18.4304 73.257 19.5877 72.2927 20.6088C72.1205 20.762 72.0172 20.8301 71.845 20.9832C71.225 21.5789 70.7428 21.647 70.2262 22.0214C69.7785 22.3448 67.8841 22.7022 67.4364 22.7022H64.9566C64.0267 22.7022 64.2678 21.4257 64.2678 20.796V12.8482C64.0612 12.746 63.9233 12.763 63.6134 12.7291C63.0623 12.678 63.2345 12.5759 63.2345 14.465C63.2345 15.4691 63.1657 16.3711 63.1657 17.4093V21.8683C63.2 23.0596 61.9602 22.9575 61.8913 22.1747C61.8569 21.8003 61.8913 21.2727 61.8913 20.8982C61.8913 20.4557 61.8569 20.1834 61.8569 19.7069V12.4907C61.8569 12.0992 62.098 12.1674 62.408 12.2014C62.6835 12.2184 62.959 12.2355 63.2346 12.2865C65.6111 12.6268 68.5041 11.6738 69.9507 9.80169C70.5018 9.0699 70.9151 8.32099 71.1217 7.2318C71.3283 6.00641 71.1562 5.01938 70.7084 4.13434C70.295 3.30039 69.744 2.67075 69.0208 2.10913C67.8153 1.20707 66.1965 0.866707 64.6467 0.866707C64.3023 0.866707 64.13 0.78166 63.7857 0.815628C62.8213 0.900675 61.7536 0.866707 60.7893 0.866707C60.4104 0.866707 60.1693 0.747607 59.8939 0.883734C59.6183 1.03689 59.0328 2.43246 58.8261 2.80687L56.2086 8.23602C55.7609 9.15503 55.3475 10.057 54.8654 10.925V10.9251Z" fill="white"/>
<path fill-rule="evenodd" clip-rule="evenodd" d="M77.1133 29.6289C77.6643 29.6289 78.6287 29.731 78.6287 30.4118V40.385C78.6287 41.1508 77.871 41.1678 77.1133 41.1678L82.0729 41.27C81.9007 41.0317 81.5219 41.287 80.9708 41.0487C80.3853 40.8105 80.5231 40.0616 80.5231 39.3979C80.5231 39.2957 81.4185 38.1214 81.5563 37.9343L83.3473 35.4665C83.5883 35.1601 86.0682 31.7053 86.2404 31.6032C86.2404 33.4413 86.2404 35.2963 86.2404 37.1515C86.2404 38.0364 86.3093 39.0576 86.2404 39.9426C86.2404 40.3511 86.2404 40.7425 85.9304 40.9807C85.6549 41.185 85.1383 41.1679 84.6906 41.1679H89.6502C88.8924 41.1679 88.1347 41.1168 88.1347 40.385V30.5139C88.1347 29.7651 88.8925 29.629 89.6502 29.629H84.6906C86.2405 29.629 86.2405 30.0885 86.2405 31.2458C86.2405 31.3649 80.592 39.0576 80.5232 39.1087V30.8544C80.4888 29.7992 80.9365 29.629 82.0731 29.629H77.1134L77.1133 29.6289Z" fill="white"/>
<path fill-rule="evenodd" clip-rule="evenodd" d="M95.3012 32.9141C95.3012 31.927 95.3012 31.3313 95.9556 30.4974C96.7822 29.4932 97.7465 29.6804 99.1242 29.6804C99.6064 29.6804 99.7442 30.225 99.7442 30.7186V35.3818C98.4009 35.3818 97.0577 35.569 96.0934 34.684C95.9212 34.5138 95.6456 34.1735 95.5423 33.9352C95.4389 33.6799 95.3012 33.2544 95.3012 32.914V32.9141ZM97.3677 35.518C97.3333 35.535 97.3333 35.518 97.3333 35.535C97.2988 35.5861 97.3333 35.552 97.1267 35.6031C96.2657 35.8754 95.5768 36.3519 95.0257 37.0838L94.509 37.8837C93.9235 38.9049 93.3725 41.0663 92.4425 41.0663C91.9604 41.0663 91.9948 40.6067 91.6504 40.5727C92.0637 41.3726 92.8559 41.662 93.958 41.3045C96.4378 40.4705 96.1278 35.518 98.2976 35.518H99.7442C99.7442 37.1007 99.813 38.7856 99.7098 40.3343C99.6753 41.1342 99.1587 41.1683 98.1943 41.1683V41.3214L103.154 41.2193C102.121 41.2193 101.57 41.1002 101.57 40.1301V30.7526C101.57 29.7484 102.155 29.6804 103.154 29.6804V29.5783C101.845 29.5783 96.9545 29.4762 95.9212 29.7314C94.6813 30.0208 93.5448 30.7696 93.4414 32.1311C93.3037 33.5947 93.9236 34.4627 95.3012 35.0754C95.68 35.2626 96.7822 35.518 97.3677 35.518Z" fill="white"/>
<path fill-rule="evenodd" clip-rule="evenodd" d="M57.0353 41.372C56.2087 41.372 55.6921 41.304 55.0033 40.6402C53.109 38.7171 53.0402 33.8495 54.0734 31.6541C54.349 31.0244 54.5556 30.616 55.1411 30.0884C56.1744 29.1013 57.9653 29.3396 58.7575 30.3607C59.6874 31.5011 59.9629 32.6073 60.1352 34.1901C60.3418 36.1302 60.1008 38.3598 59.1364 39.9766C58.7919 40.5552 57.9309 41.3722 57.0354 41.3722L57.0353 41.372ZM51.4902 35.2792C51.4902 37.5937 52.3169 39.8743 54.4522 40.9635C55.52 41.4911 56.7254 41.6102 57.9308 41.372C60.5828 40.8615 62.0983 38.3086 62.0983 35.7217C62.0983 33.8666 61.8227 32.437 60.6517 31.0414C60.204 30.4969 59.7218 30.1564 59.1019 29.8501C57.0698 28.8289 54.3834 29.3566 52.9369 31.0755C52.1447 32.0115 51.4903 33.5432 51.4903 35.2792H51.4902Z" fill="white"/>
<path fill-rule="evenodd" clip-rule="evenodd" d="M70.0549 36.4024C68.9528 36.4024 68.2984 35.9429 68.2984 34.8367V30.6159C68.2984 29.5097 69.5727 29.6799 70.3649 29.6799C73.5335 29.6799 73.5335 36.4024 70.0549 36.4024ZM64.8887 29.6289C65.6464 29.6289 66.4041 29.731 66.4041 30.4628V40.3849C66.4041 41.1508 65.6808 41.1678 64.8887 41.1678H70.0204C68.2639 41.1678 68.2984 40.9295 68.2984 39.4489C68.2984 38.3086 68.2984 37.1514 68.2984 36.0111C69.0217 36.1813 68.7117 36.5046 70.7437 36.5046C71.7425 36.5046 72.638 36.0621 73.3613 35.5005C74.0157 35.0069 74.5668 33.9347 74.5668 33.0667C74.5668 31.8413 74.3945 31.3308 73.5335 30.4798C73.0857 30.0203 72.0869 29.6289 71.2259 29.5778C69.2283 29.4417 66.9896 29.5267 64.8887 29.5267V29.6289Z" fill="white"/>
<path fill-rule="evenodd" clip-rule="evenodd" d="M38.334 33.1685H38.4372C38.4717 32.658 39.0917 31.1602 39.4016 30.7178C40.1594 29.6626 41.2959 29.6796 42.5702 29.6796C42.7769 29.6796 42.8113 30.0029 42.8113 30.2242V40.1294C42.8113 41.1335 42.1914 41.1675 41.227 41.1675H46.1867C44.8091 41.1675 44.6368 40.9632 44.6368 39.6528V30.122C44.6368 29.5604 44.8434 29.6795 45.6356 29.6795C47.2544 29.6795 48.0809 30.4113 48.5976 31.841C48.7009 32.1303 48.9764 32.8281 48.9764 33.1684L48.7009 29.2881C48.4943 29.3392 48.3909 29.5264 47.9087 29.5264H39.505C38.7472 29.5264 38.7817 28.9988 38.7128 29.5604L38.334 33.1685Z" fill="white"/>
<path fill-rule="evenodd" clip-rule="evenodd" d="M31.2047 41.5082C32.3413 41.5082 33.4089 41.2529 34.2355 40.487C34.8211 39.9084 34.9244 39.8403 35.3377 39.0063C35.4409 38.7851 36.0265 37.4235 35.5788 37.0151L35.5444 36.998C34.8211 37.1682 35.5444 38.0873 34.3734 39.8572C33.3746 41.3719 31.4458 41.7974 29.9304 40.7251C28.5872 39.7721 28.0706 37.4405 28.0706 35.8577C28.0706 33.9516 28.2428 31.3136 29.8271 30.0882C31.3081 28.9309 33.0646 29.5436 34.0979 30.9562C34.7523 31.8071 35.0623 32.6581 35.3378 33.8494H35.4411C35.4411 33.3048 35.0623 29.3904 35.0623 29.3394C34.7868 29.5436 34.959 30.0712 34.3735 30.0712C33.6846 30.0712 32.6514 29.3394 31.4115 29.3394C29.6205 29.3394 28.3806 30.1563 27.5884 31.1434C26.7274 32.1816 26.383 33.3559 26.2107 34.6663C26.0385 35.6024 26.1763 36.9129 26.4518 37.7979C27.0374 39.8232 28.8628 41.508 31.2048 41.508L31.2047 41.5082Z" fill="white"/>
<path fill-rule="evenodd" clip-rule="evenodd" d="M17.6699 31.5007C17.7388 31.739 17.8421 31.9601 17.911 32.1814L19.4953 36.2319C19.5986 36.4872 19.6675 36.7255 19.7708 36.9467H15.4656L17.4977 31.824C17.5321 31.739 17.5321 31.739 17.6009 31.6538C17.6009 31.6368 17.6009 31.6028 17.6009 31.5858C17.6353 31.5858 17.6353 31.5688 17.6353 31.5518V31.5347C17.6697 31.5177 17.6697 31.5008 17.6697 31.5008L17.6699 31.5007ZM12.4004 41.1675C12.5381 41.3376 12.7104 41.2696 13.1925 41.2696L15.9135 41.1675C13.4336 41.1675 14.5014 39.3634 15.1557 37.6786C15.259 37.4573 15.3623 37.2871 15.3968 37.0488H19.8398C19.9431 37.5594 21.2174 40.2314 21.2174 40.674C21.2174 41.1504 20.2875 41.1675 19.7709 41.1675C19.9086 41.3376 20.3908 41.2696 20.8041 41.2696L24.3516 41.1675C23.1806 41.1675 23.0772 40.5377 22.664 39.5506C22.5607 39.2953 22.4574 39.006 22.354 38.7507L20.7353 34.8193C20.5975 34.547 20.5286 34.3088 20.3908 34.0194L18.4621 29.2881C18.3243 29.3902 18.221 29.7476 18.1177 30.0199C18.0143 30.2751 17.9111 30.5474 17.7733 30.8198C17.5666 31.3814 17.3599 31.9091 17.1533 32.4366C16.7056 33.4918 14.398 39.5506 13.8125 40.3165C13.5025 40.742 13.1237 41.1675 12.4004 41.1675Z" fill="white"/>
<path fill-rule="evenodd" clip-rule="evenodd" d="M63.1668 1.54727C63.1668 2.55141 63.1324 6.87426 63.2012 7.41886C63.3389 8.20173 63.0979 11.2141 63.2701 11.6056C63.3389 11.6737 64.2688 11.6906 64.2688 11.3673V1.70043C64.2688 1.30899 64.0277 1.39403 63.3389 1.39403C63.2012 1.39403 63.1667 1.42809 63.1667 1.54719L63.1668 1.54727Z" fill="white"/>
<path fill-rule="evenodd" clip-rule="evenodd" d="M111.625 35.7213C113.76 37.1509 113.485 37.6104 113.829 37.8827C114.105 37.3552 114.346 37.0488 114.759 36.6404C115.138 36.2489 115.896 35.8405 115.999 35.6703C115.517 35.398 115.172 35.1427 114.759 34.7512C114.553 34.53 114.449 34.4449 114.243 34.1726C114.139 33.9854 113.898 33.73 113.829 33.5088C113.726 33.5938 113.691 33.696 113.623 33.8152C112.934 34.9895 111.832 35.4661 111.625 35.7213H111.625Z" fill="white"/>
<path fill-rule="evenodd" clip-rule="evenodd" d="M8.51322e-05 35.6703C0.172308 35.9086 1.03333 36.2489 1.72214 37.185C1.82549 37.3211 2.10098 37.7125 2.16985 37.8827C2.2732 37.7806 2.44542 37.4743 2.61764 37.253C3.1687 36.5042 3.58194 36.2318 4.37409 35.7213C4.20195 35.483 3.2031 35.1086 2.41094 33.8491C2.30768 33.713 2.2732 33.5939 2.16985 33.5088C2.06658 33.8321 1.48104 34.5129 1.23995 34.7511C0.895505 35.0915 0.447795 35.4319 0 35.6702L8.51322e-05 35.6703Z" fill="white"/>
<path fill-rule="evenodd" clip-rule="evenodd" d="M12.5703 49.0651H24.5904V48.6396H12.5703V49.0651Z" fill="white"/>
<path fill-rule="evenodd" clip-rule="evenodd" d="M90.6855 49.0651H102.637V48.6396H90.6855V49.0651Z" fill="white"/>
<path fill-rule="evenodd" clip-rule="evenodd" d="M64.7865 49.0645L64.8209 49.0815C64.8209 49.0815 64.7865 49.0815 64.7865 49.0645ZM64.2009 48.3837C64.3387 48.5369 64.3043 48.4348 64.5454 48.4859C64.5454 48.8773 64.132 49.9495 64.0977 50.3069H64.4421C64.6142 49.9324 64.6487 49.6091 64.8898 49.2516C65.062 48.9794 65.2686 48.5369 65.6476 48.5369C65.6476 48.8942 65.3031 49.8814 65.1998 50.3069H65.5442C65.6131 49.9154 66.1642 48.5709 66.6808 48.5369C66.853 48.7581 66.3709 49.558 66.3709 50.2048C66.3709 50.6473 67.1286 50.1707 67.163 49.8133C66.9564 49.8644 66.9219 49.9835 66.7497 50.1026C66.7497 49.8303 66.853 49.5751 66.9219 49.3368C66.9908 49.1496 67.3352 48.2305 66.853 48.2305C66.4742 48.2305 66.1642 48.741 65.992 49.0304L65.8887 49.1665C65.8887 48.9282 66.2676 48.2305 65.751 48.2305C65.441 48.2305 65.0966 48.673 64.9589 48.8772C64.9589 48.8942 64.9589 48.9113 64.9245 48.9113L64.8556 49.0304C64.8556 48.758 65.0278 48.5027 65.0622 48.2305C64.7866 48.2645 64.4767 48.3667 64.2012 48.3836L64.2009 48.3837Z" fill="white"/>
<path fill-rule="evenodd" clip-rule="evenodd" d="M77.2522 49.4735C77.2522 49.8649 77.08 49.933 77.1833 50.3414H77.4588C77.3899 50.4605 77.321 50.4776 77.2177 50.5456C77.2177 51.1924 77.1144 50.835 77.0111 51.1924C77.7 51.1243 77.4588 50.5967 77.631 50.3245L77.941 49.848C77.941 49.6608 77.8376 49.7969 77.7688 49.865C77.631 50.0182 77.7688 50.0352 77.5277 50.0522C77.5277 49.7799 77.9065 48.6566 78.0099 48.2822H77.5965C77.5621 48.7417 76.9421 50.0011 76.3911 50.0522C76.3911 49.5927 76.6322 49.0481 76.7355 48.6226C76.9077 47.9078 76.0466 48.2822 75.9434 48.7757C76.1156 48.7417 76.0466 48.7587 76.15 48.6396C76.1844 48.6056 76.3566 48.4184 76.3566 48.5546L76.3222 48.6737C76.3222 48.7587 76.3222 48.8098 76.2877 48.912C76.1844 49.2183 75.8744 50.1203 76.0466 50.3075C76.3911 50.4607 76.6322 50.2395 76.8044 50.0692L77.2521 49.4736L77.2522 49.4735Z" fill="white"/>
<path fill-rule="evenodd" clip-rule="evenodd" d="M71.3627 50.2046C70.9838 50.2046 71.156 50.2046 70.9493 50.0514C71.156 49.5919 71.2938 48.4857 72.0171 48.4857C72.6026 48.4857 72.0171 50.2046 71.3627 50.2046ZM71.3627 48.6388C71.3971 48.4516 71.4315 48.4005 71.4659 48.2304C71.2248 48.2474 70.9149 48.3325 70.6738 48.3325V48.4347C70.8804 48.4347 70.846 48.4177 70.9837 48.4858C70.9837 48.8091 70.5016 50.2728 70.3982 50.6812C70.2949 50.9876 70.2949 51.1748 69.916 51.1918H71.0181C70.7082 51.1918 70.6048 51.2088 70.7082 50.8174C70.7426 50.7153 70.8459 50.3068 70.8804 50.2557C71.6725 50.6302 72.3614 49.8303 72.5336 49.3197C72.7058 48.9283 72.7058 48.4687 72.3614 48.2816C71.9481 48.0774 71.6037 48.4858 71.3627 48.639V48.6388Z" fill="white"/>
<path fill-rule="evenodd" clip-rule="evenodd" d="M57.5188 50.2047C57.4155 50.2047 57.14 50.1877 57.14 50.0515C57.14 49.8473 57.4844 48.4858 58.1732 48.4858C58.7588 48.4858 58.2076 50.2047 57.5188 50.2047ZM56.8644 48.3326V48.4347C57.2433 48.4347 57.2089 48.4347 56.9678 49.2856L56.5545 50.7323C56.4511 51.0216 56.4511 51.1918 56.0723 51.1918H57.1744C57.071 51.1918 56.8644 51.2088 56.8644 51.0897C56.8644 50.8684 56.9678 50.3919 57.0366 50.2557C58.1044 50.7662 59.1376 49.1154 58.6899 48.4347C58.3455 47.9071 57.6567 48.5368 57.5189 48.6389C57.5533 48.4517 57.5878 48.4007 57.6222 48.2305C57.3811 48.2475 57.0711 48.3326 56.8644 48.3326V48.3326Z" fill="white"/>
<path fill-rule="evenodd" clip-rule="evenodd" d="M43.5342 49.864C43.5342 48.3833 44.7741 47.9579 44.7741 48.8259C44.7741 50.1023 43.5342 50.6809 43.5342 49.864ZM43.9819 47.1069C44.0508 47.3111 44.2919 47.1919 44.533 47.5834C44.7741 47.8898 44.7396 47.9918 44.8085 48.3833C44.7052 48.3322 44.5674 48.2301 44.4297 48.2301C43.8442 48.2301 42.9487 49.03 43.1554 49.864C43.3965 50.8171 45.2219 50.4256 45.2219 48.6386C45.2219 48.1791 45.0152 47.8557 44.8085 47.6004C44.7397 47.4813 44.1196 46.9366 43.9819 47.1069Z" fill="white"/>
<path fill-rule="evenodd" clip-rule="evenodd" d="M49.7678 48.3837C50.3877 48.3837 49.6989 50.1367 49.0789 50.0857C48.9067 50.0687 48.8378 49.8814 48.8378 49.6772C48.9067 49.2517 49.2855 48.3838 49.7677 48.3838L49.7678 48.3837ZM48.459 49.8133C48.459 50.5451 49.1134 50.5281 49.7333 49.8133C49.6989 50.2218 49.5612 50.3409 49.9399 50.3409C50.1122 50.3409 50.56 50.0345 50.4566 49.8133C50.2155 49.9665 50.3877 50.0857 50.0778 50.1026C50.1122 49.6601 50.5255 48.605 50.56 48.2305C50.3533 48.2475 50.3533 48.2815 50.1122 48.2815V48.4858C49.9744 48.3836 50.0089 48.2305 49.7333 48.2305C49.0789 48.2305 48.459 49.1325 48.459 49.8133V49.8133Z" fill="white"/>
<path fill-rule="evenodd" clip-rule="evenodd" d="M52.3174 49.1667C52.0763 49.1667 52.0419 49.1667 51.8352 49.0647C51.8008 48.9115 51.6975 48.6051 52.0418 48.452C52.2141 48.3498 52.4207 48.3839 52.6618 48.3839C52.4895 48.7583 52.5585 49.1667 52.3173 49.1667H52.3174ZM51.3875 48.8264C51.3875 48.9795 51.3875 49.0647 51.5597 49.1667C51.6286 49.2348 51.6975 49.2518 51.8352 49.2689L51.0431 50.1029C50.802 50.3071 50.8365 50.171 50.7676 50.3411C51.422 50.3411 51.3186 50.3582 51.6286 49.9497C51.7319 49.8136 51.8352 49.7455 51.9386 49.6093C52.0763 49.4392 52.1107 49.3711 52.3863 49.3711C52.3519 49.5242 52.0074 50.3922 52.3174 50.3922C52.593 50.3922 52.9718 50.1029 53.0063 49.9497C53.0407 49.8476 53.0407 49.7966 52.9374 49.8817C52.7652 49.9838 52.8341 50.0859 52.5586 50.1029C52.593 49.7456 53.0408 48.5883 53.0752 48.2308C52.3864 48.2308 51.3876 48.1968 51.3876 48.8265L51.3875 48.8264Z" fill="white"/>
<path fill-rule="evenodd" clip-rule="evenodd" d="M82.419 49.1667C82.1779 49.1667 82.1435 49.1667 81.9368 49.0647C81.7646 48.4179 82.2467 48.3839 82.7634 48.3839C82.729 48.4689 82.6601 48.6732 82.6257 48.7923C82.5913 48.9795 82.5913 49.1667 82.4191 49.1667H82.419ZM81.4891 48.8264C81.4891 49.0987 81.6957 49.2518 81.9368 49.2689L81.1446 50.1199C80.9035 50.3071 80.938 50.1369 80.8691 50.3411C81.3857 50.3411 81.3857 50.4262 81.7302 49.9497C81.9024 49.7455 82.1779 49.3711 82.4879 49.3711C82.4535 49.6944 82.2813 49.9327 82.2813 50.256C82.2813 50.5283 82.9012 50.3241 83.1079 49.9837C83.2112 49.7965 83.1079 49.8305 83.0391 49.8816C82.8668 49.9837 82.9357 50.0858 82.6602 50.1029C82.6946 49.8816 82.8669 49.405 82.9013 49.1668C82.9702 48.9116 83.1424 48.5202 83.1768 48.2308C82.488 48.2308 81.4892 48.1968 81.4892 48.8265L81.4891 48.8264Z" fill="white"/>
<path fill-rule="evenodd" clip-rule="evenodd" d="M73.6352 50.0009C73.3597 48.8946 74.7029 47.8565 74.7029 48.6734C74.7029 49.2009 74.4962 49.7455 74.0829 50.0009C73.8763 50.12 73.8418 50.1029 73.6352 50.0009ZM73.1875 49.7115C73.1875 50.12 73.1875 50.3412 73.6697 50.3412C74.0485 50.3412 74.2896 49.9327 74.4618 49.8136C74.3586 50.3582 74.4274 50.3412 74.7029 50.3412C74.8407 50.3412 75.1851 50.0689 75.2196 49.9327C75.254 49.7626 75.1507 49.8477 75.0474 49.9498C74.9441 50.0689 75.0474 50.0519 74.8063 50.1029C74.8063 49.7455 75.1851 48.7074 75.2885 48.2308C75.0819 48.2478 75.1163 48.2819 74.8752 48.2819C74.8408 48.5371 74.9096 48.3839 74.7719 48.435C74.2552 47.6862 73.1876 49.0817 73.1876 49.7114L73.1875 49.7115Z" fill="white"/>
<path fill-rule="evenodd" clip-rule="evenodd" d="M78.5957 48.7752C78.9745 48.7411 78.6301 48.5709 79.0434 48.5369C78.9745 49.1836 78.2857 50.392 78.9401 50.392C79.3879 50.392 79.8012 49.5921 79.9734 49.4219C79.939 49.8984 79.5946 50.3409 80.0078 50.3409C80.2834 50.3409 80.5589 50.0345 80.5933 49.8134C80.4211 49.8644 80.5245 49.8304 80.4211 49.9665C80.0078 50.443 80.2834 49.6771 80.3178 49.524L80.6623 48.3326H80.249C80.249 48.7752 79.629 50.0856 79.0435 50.1026C79.0435 49.6942 79.4223 48.8432 79.4223 48.4348C79.4223 48.0263 78.6991 48.3837 78.5957 48.7752Z" fill="white"/>
<path fill-rule="evenodd" clip-rule="evenodd" d="M45.9447 48.3836V48.4858C46.358 48.4858 46.358 48.4177 46.048 49.4218C45.9792 49.609 45.9447 49.7792 45.8758 49.9834C45.7725 50.3068 45.7381 50.3408 46.1513 50.3408C46.2202 50.0175 46.3579 49.677 46.4269 49.3197H47.1846C47.1158 49.8642 46.9091 49.7961 47.0124 50.3408C47.4257 50.3408 47.7012 50.1877 47.8046 49.8133C47.529 49.8814 47.6668 50.0345 47.3568 50.0515L47.8734 48.2815H47.4601C47.4601 48.4858 47.2879 49.0304 47.219 49.1665H46.4957C46.5646 48.9113 46.7368 48.5027 46.7368 48.2305C46.5302 48.2475 46.1513 48.3326 45.9447 48.3836Z" fill="white"/>
<path fill-rule="evenodd" clip-rule="evenodd" d="M68.6755 50.2556C67.8145 50.2556 68.5377 48.3835 69.1232 48.3835C69.9842 48.3835 69.2609 50.2556 68.6755 50.2556ZM68.5377 50.3918C68.8822 50.3918 69.261 50.1876 69.4676 50.0004C69.8465 49.5919 70.1221 48.8601 69.7087 48.4176C69.3299 48.0092 68.3655 48.2815 67.9867 49.1155C67.6422 49.8983 68.1244 50.3919 68.5377 50.3919V50.3918Z" fill="white"/>
<path fill-rule="evenodd" clip-rule="evenodd" d="M33.5127 50.2559C33.0994 50.2559 33.0994 49.5241 33.3061 49.4049C34.1671 48.9455 34.236 50.2559 33.5127 50.2559ZM33.2716 49.2688C33.4093 49.0475 33.3405 49.0475 33.5472 48.7072C34.1327 47.7541 34.9249 48.8774 33.2716 49.2688ZM33.5127 50.392C34.3393 50.392 34.8559 49.439 33.926 49.2177L33.9604 49.2007L34.1326 49.0986C35.4758 48.4859 33.857 47.686 33.0649 48.8433C32.6861 49.3879 32.6516 50.392 33.5126 50.392H33.5127Z" fill="white"/>
<path fill-rule="evenodd" clip-rule="evenodd" d="M39.1254 49.3197C39.2287 49.1155 39.2632 48.8942 39.4009 48.7241C39.7109 48.3156 40.1931 48.2815 40.1931 48.5879C40.1931 48.9964 39.5732 49.3027 39.1254 49.3197ZM38.6777 49.6091C38.6777 50.8686 40.262 50.2558 40.3998 49.7623C40.0554 49.8304 40.021 50.1026 39.5732 50.1026C39.0565 50.1026 39.1254 49.6261 39.1254 49.4729C40.3653 49.4388 41.1231 48.2305 40.0209 48.2305C39.642 48.2305 39.3665 48.4347 39.1254 48.69C38.9532 48.8772 38.6777 49.2516 38.6777 49.6091Z" fill="white"/>
<path fill-rule="evenodd" clip-rule="evenodd" d="M59.8944 49.3198C59.8944 48.9454 60.3077 48.3838 60.6865 48.3838C60.8243 48.3838 60.8243 48.4008 60.9276 48.4349C60.9276 48.7923 60.8243 48.9284 60.6177 49.0646C60.4454 49.1837 60.17 49.3029 59.8944 49.3198ZM59.4122 49.6602C59.4122 50.409 60.1355 50.5281 60.7554 50.1367C60.9276 50.0345 61.0654 49.9665 61.1342 49.7623C60.8243 49.8304 60.7209 50.1026 60.3421 50.1026C59.8599 50.1026 59.8254 49.7452 59.8254 49.4729C61.0998 49.4388 61.8575 48.2305 60.7209 48.2305C60.101 48.2305 59.4121 49.0304 59.4121 49.6601L59.4122 49.6602Z" fill="white"/>
<path fill-rule="evenodd" clip-rule="evenodd" d="M35.992 50.2558C35.441 50.2558 35.5443 49.2177 36.3365 49.2177C36.7498 49.2177 36.5087 50.2558 35.992 50.2558ZM35.3032 48.4858C35.4065 48.4517 35.441 48.4347 35.5787 48.4347C35.5787 48.724 35.5443 48.8601 35.4754 49.0985C35.2343 49.7282 35.0621 50.3408 36.0264 50.3408C36.9219 50.3408 37.4385 48.9793 36.3364 48.9793C36.0608 48.9793 35.992 49.1665 35.7853 49.2176C35.8542 48.8942 35.992 48.5538 36.0953 48.2305C35.8542 48.2305 35.8542 48.2475 35.6475 48.2986C35.4064 48.3497 35.3375 48.2815 35.3032 48.4858H35.3032Z" fill="white"/>
<path fill-rule="evenodd" clip-rule="evenodd" d="M41.1925 48.8262C41.5025 48.7922 41.4681 48.3837 41.9158 48.3837C42.3635 48.3837 42.5702 49.1155 41.4681 49.1155V49.2687C42.1569 49.2687 42.1225 49.8303 41.8469 50.0686C41.4681 50.3579 41.158 50.1367 40.9514 49.9835L40.917 49.9665C40.5382 49.8133 41.227 50.7834 42.088 50.2558C42.4669 50.0515 42.6046 49.5751 42.1224 49.3027L41.9847 49.2177C42.9834 49.1325 42.8457 48.0433 41.7436 48.2986C41.6403 48.3326 41.7092 48.3497 41.5714 48.3156C41.4336 48.2986 41.537 48.3667 41.4681 48.2305H41.3303C41.3303 48.4347 41.2615 48.69 41.1926 48.8261L41.1925 48.8262Z" fill="white"/>
<path fill-rule="evenodd" clip-rule="evenodd" d="M62.3048 50.3412C62.6836 50.3412 62.7181 50.3752 63.0625 50.1369C63.2348 50.0519 63.3725 49.9497 63.4414 49.7625C63.1658 49.7795 62.9936 50.1539 62.6492 50.1539C61.8571 50.1539 62.167 49.0988 62.4426 48.7413C62.7181 48.435 62.8214 48.384 63.338 48.384C63.3036 48.4861 63.0281 48.9286 63.2691 48.9286C63.8202 48.9286 63.7513 48.0266 62.8558 48.2478C62.3048 48.384 61.7537 48.9796 61.7537 49.6774C61.7193 50.0008 61.9259 50.3412 62.3048 50.3412Z" fill="white"/>
<path fill-rule="evenodd" clip-rule="evenodd" d="M37.164 48.3837L37.5084 48.4859C37.5084 49.0305 36.7851 50.392 37.2673 50.392C37.5084 50.392 37.9217 50.0856 37.9562 49.8133C37.6118 49.8984 37.8873 50.0176 37.5085 50.1026C37.5085 49.6771 37.9562 48.6731 37.9562 48.2305C37.7151 48.2815 37.4051 48.3667 37.164 48.3836L37.164 48.3837Z" fill="white"/>
</svg>
