<svg width="178" height="60" viewBox="0 0 178 60" fill="none" xmlns="http://www.w3.org/2000/svg">
<path d="M1.33382 0.241156C1.33382 0.33659 1.1558 0.374763 0.888775 0.317503C0.666254 0.260243 0.354724 0.412936 0.221211 0.661064C-0.31284 1.51997 0.221211 29.482 0.755262 30.0164C1.1558 30.4172 1.55634 30.4936 3.203 30.5318C6.3183 30.589 6.3628 30.5699 5.78424 27.8596C5.51722 26.409 5.38371 21.5801 5.47271 15.4723C5.60623 5.73813 5.65073 5.45183 6.54082 4.57384C7.34189 3.81037 7.74243 3.65768 9.07756 3.56224C11.3473 3.37138 12.3709 3.58133 12.8604 4.3448C13.0829 4.72653 13.3055 10.2808 13.35 17.6291C13.35 24.5767 13.439 30.2836 13.4835 30.3027C13.528 30.3218 14.3736 30.3981 15.3527 30.4554C18.6905 30.6844 18.468 31.6579 18.6015 17.3619C18.6905 8.00944 18.6015 4.30662 18.2009 3.75311C17.3554 2.45521 15.0856 0.603803 14.0175 0.298416C12.3264 -0.178751 9.07756 -0.00697108 7.4309 0.661064C6.14028 1.1764 6.00677 1.19549 5.47271 0.871017C5.16119 0.68015 4.89416 0.45111 4.89416 0.355676C4.89416 0.260243 4.58263 0.222069 4.2266 0.298416C3.87056 0.355676 3.55903 0.317503 3.55903 0.222069C3.55903 0.107549 3.06948 0.0312023 2.44642 0.0312023C1.82336 0.0312023 1.33382 0.126636 1.33382 0.241156Z" fill="white"/>
<path d="M30.7956 0.546545C29.7275 1.21458 29.3715 1.84444 29.0155 3.67676C28.7484 4.87923 28.4814 5.22279 27.4578 5.75721C26.3897 6.29164 25.4996 6.94059 25.1436 7.47502C25.0991 7.53228 24.8321 7.91401 24.565 8.33392C23.764 9.44095 23.3634 18.8889 23.942 22.8398C24.476 26.2182 25.1436 27.6306 26.9683 28.9666C28.7484 30.2836 29.683 30.5508 32.4868 30.4936C33.8219 30.4745 35.3796 30.3409 35.8691 30.1882C36.9372 29.9019 40.0525 27.7451 40.0525 27.3061C40.0525 27.1534 40.2305 26.9435 40.4531 26.848C41.3876 26.4281 41.7437 23.3742 41.6547 16.4458C41.5657 12.3994 41.3876 8.792 41.2096 8.42935C40.7201 7.39867 39.0289 5.81447 38.0053 5.45183C37.0707 5.12735 36.4922 4.28754 36.4922 3.21868C36.4922 1.29093 34.979 0.0312045 32.7538 0.0312045C32.0417 0.0312045 31.3297 0.222071 30.7956 0.546545ZM33.8219 3.63859C33.8219 4.44023 33.5549 4.6311 32.6648 4.47841C31.9082 4.36389 31.8192 3.25686 32.5758 2.93238C33.3769 2.58882 33.8219 2.85604 33.8219 3.63859ZM33.7329 8.60113C33.5549 9.51729 32.3088 9.55547 32.1308 8.65839C31.9082 7.72314 32.3088 7.3605 33.1989 7.68497C33.6439 7.83767 33.8219 8.16214 33.7329 8.60113ZM29.8165 10.1281C29.8165 10.8152 31.5967 11.9413 32.7983 12.0177C34.0889 12.094 35.4241 11.4451 36.0026 10.4144C36.2697 9.95629 36.6257 9.57456 36.7147 9.57456C37.0707 9.57456 36.9372 18.5453 36.5367 22.4581C36.1361 26.409 35.5576 27.3252 33.2879 27.726C31.9972 27.955 31.8637 27.936 30.9291 27.4397C30.3506 27.1343 29.683 26.4281 29.416 25.8364C28.7929 24.4622 28.7484 9.30734 29.3715 9.47912C29.6385 9.53638 29.8165 9.84177 29.8165 10.1281Z" fill="white"/>
<path d="M50.9116 0.947363C48.3748 2.01622 46.9062 3.3332 46.2831 5.08918C46.0606 5.85265 45.8381 10.5861 45.8381 15.9304C45.8381 24.8248 45.8826 25.5119 46.7282 26.7908C47.6182 28.2032 50.1105 30.0355 51.4901 30.3409C51.9352 30.4363 53.4483 30.5318 54.9169 30.5318C57.3202 30.5318 57.6317 30.4936 59.1893 29.8446C62.4382 28.4704 64.4409 25.302 63.9068 22.3245C63.7733 21.4465 63.5063 19.9768 63.3727 19.0606C63.0612 17.2665 62.4382 16.8275 60.2575 16.8275C58.0322 16.8275 57.8987 17.1711 58.3438 22.9352C58.6108 26.1418 57.4982 27.7069 55.0059 27.7069C53.6708 27.7069 51.7571 26.7144 51.3121 25.8173C51.0896 25.4356 51.0006 20.7403 51.0006 15.396C51.0451 6.40616 51.1341 5.58543 51.8907 4.6311C53.3148 2.87512 55.896 2.4743 57.6762 3.71493C58.3883 4.23028 58.5218 4.65018 58.4328 6.46342C58.3438 8.56296 58.3883 8.62022 59.3674 8.73474C59.9459 8.792 61.0585 8.81108 61.9041 8.77291L63.4173 8.71565L63.8178 7.37958C64.3518 5.52817 63.5508 3.16142 61.8596 1.749C60.1684 0.298415 59.3674 0.0884616 55.8515 0.0693749C53.0033 0.0693749 52.9142 0.0884617 50.9116 0.947363Z" fill="white"/>
<path d="M76.012 0.355677C74.9884 0.871018 74.3208 1.92079 73.9203 3.65768C73.6087 4.89831 73.2972 5.31822 72.4516 5.71904C70.894 6.46342 69.5588 7.79949 69.0693 9.09739C68.4017 10.777 68.5352 22.878 69.2028 24.9584C69.9594 27.2679 70.2264 27.6497 71.7841 28.8521C73.6532 30.2836 74.4543 30.5127 77.3471 30.5318C79.3943 30.5318 79.9728 30.4554 81.2635 29.9592C82.109 29.6347 82.7766 29.272 82.7766 29.1193C82.7766 28.9666 82.9546 28.8521 83.1326 28.8521C83.3552 28.8521 84.1117 28.2795 84.8238 27.5542L86.1144 26.2754L86.2034 17.591C86.2925 11.884 86.1589 8.63931 85.8474 8.14305C85.2243 7.11237 83.5777 5.56635 83.1771 5.56635C82.3761 5.56635 81.664 4.61201 81.4415 3.18051C81.13 1.21458 79.9283 0.145724 78.0592 0.069377C77.2136 0.0312036 76.457 0.145724 76.012 0.355677ZM78.6822 3.67676C78.5932 4.09667 78.3262 4.32571 77.8811 4.32571C77.0356 4.32571 76.7685 3.60042 77.4361 3.06599C78.1482 2.51247 78.8602 2.85604 78.6822 3.67676ZM78.7712 8.44844C78.7712 8.90652 78.3262 9.38369 77.8811 9.38369C77.3026 9.38369 76.902 8.29575 77.2581 7.81858C77.5251 7.41776 77.5696 7.41776 78.1482 7.76132C78.5042 7.95218 78.7712 8.27666 78.7712 8.44844ZM74.8103 10.4144C76.012 12.4948 79.3943 12.5903 80.8629 10.5671C81.2635 9.99446 81.3525 11.4069 81.3525 17.591C81.3525 26.0845 81.1745 26.7908 78.7267 27.5733C77.1246 28.0696 75.9675 27.8596 74.9439 26.8862C74.2318 26.1609 74.1428 25.3402 73.9648 17.82C73.8758 13.2965 73.9203 9.57455 74.0538 9.57455C74.1873 9.57455 74.5433 9.95629 74.8103 10.4144Z" fill="white"/>
<path d="M97.5075 0.374762C95.8609 0.85193 94.3477 2.03531 93.4131 3.6195C92.4785 5.18461 92.345 6.71155 91.9445 20.8357L91.7665 27.0389L90.6094 27.4206C89.6303 27.7642 89.4523 27.9741 89.4523 28.8903C89.4523 30.2455 90.2088 30.6272 92.5676 30.5127C94.6147 30.4172 95.1043 30.3027 95.8609 29.6538C96.8845 28.7949 96.9735 27.955 97.2405 17.4001C97.552 4.30662 97.641 3.92489 100.178 3.35229C101.379 3.10416 101.602 3.10416 102.804 3.40955C105.251 4.02032 105.251 4.02032 105.251 17.5528C105.251 29.6728 105.296 30.0355 106.097 30.3027C106.72 30.4936 107.076 30.5127 107.298 30.36C107.432 30.2455 108.055 30.1882 108.634 30.2264L109.702 30.2836L110.058 18.8316C110.369 8.44844 110.191 5.01283 109.301 3.56224C108.278 1.82535 106.809 0.79467 104.673 0.336589C103.026 -0.0260584 98.8427 -0.00697174 97.5075 0.374762Z" fill="white"/>
<path d="M117.223 0.164809C114.642 0.298416 114.597 0.584716 114.597 13.9645V25.8937L115.621 27.2298C117.089 29.1002 119.226 30.5318 120.205 30.2836C120.427 30.2073 120.605 30.2455 120.605 30.3409C120.605 30.6844 125.234 30.5318 126.346 30.1691C127.459 29.7874 128.616 29.6919 128.616 29.9782C128.616 30.0546 129.15 30.1118 129.862 30.0928C130.53 30.0737 131.509 30.0355 132.087 30.0355L133.066 29.9973V15.1288C133.066 -1.4003 133.378 0.0312024 129.996 0.0312024H128.304L128.037 5.89082C127.859 9.13556 127.726 14.8425 127.726 18.6026C127.726 25.092 127.681 25.4547 126.791 26.2563C124.833 28.0696 122.83 28.1841 120.917 26.5617L119.715 25.5119L119.893 13.7736C119.938 7.32232 120.16 1.63449 120.338 1.11914C120.561 0.56563 120.516 0.222069 120.205 0.222069C119.982 0.222069 119.537 0.183896 119.181 0.164809C118.87 0.126636 117.979 0.126636 117.223 0.164809Z" fill="white"/>
<path d="M135.47 0.508371C135.203 0.966452 135.47 3.23777 135.781 3.35229C136.627 3.65768 138.273 3.84854 140.143 3.84854H142.412L142.457 16.1022C142.501 22.8589 142.635 28.8521 142.768 29.4247L143.08 30.4745L145.172 30.4554C146.329 30.4554 147.397 30.4172 147.486 30.36C147.575 30.3218 147.797 24.5767 147.975 17.591C148.153 10.1281 148.42 4.59292 148.687 4.17302C149.132 3.44772 149.221 3.42864 150.868 3.50498C151.803 3.54316 152.47 3.50498 152.337 3.40955C152.203 3.31412 152.559 3.27594 153.138 3.29503C155.007 3.40955 155.319 3.16142 155.319 1.63449V0.222071H151.58C148.153 0.222071 147.708 0.260244 146.551 0.718325L145.35 1.19549L144.193 0.641978C143.035 0.0884637 141.567 -0.0833167 140.988 0.298417C140.766 0.451111 140.632 0.432024 140.632 0.260244C140.632 0.0884637 140.41 0.069377 139.787 0.222071C138.674 0.470198 137.072 0.470198 137.072 0.222071C137.072 -0.17875 135.737 0.0502903 135.47 0.508371Z" fill="white"/>
<path d="M166.178 0.279329C164.753 0.603803 162.128 2.03531 161.727 2.66517C161.638 2.83695 161.282 3.50498 160.882 4.13484C160.437 4.9174 160.214 6.31073 160.214 8.52478C160.17 11.9031 160.526 12.9529 162.35 14.728L163.24 15.606L162.172 16.4458C161.594 16.9229 161.149 17.4764 161.104 17.6864C161.104 17.9154 160.837 18.2017 160.57 18.3163C160.125 18.5071 159.992 19.5951 159.992 22.4199C159.992 26.5045 160.392 27.4588 162.439 28.6994C162.929 28.9857 163.329 29.272 163.329 29.3484C163.329 29.4056 163.952 29.711 164.664 29.9973C165.822 30.4745 166.356 30.5318 168.803 30.5318C171.518 30.5318 171.607 30.5127 173.565 29.6156C176.414 28.3368 177.793 26.5235 177.793 24.0804C177.793 21.7328 177.437 17.7818 177.215 17.3428C177.081 17.0947 176.547 17.0184 174.678 17.0184C172.631 17.0184 172.319 17.0756 172.052 17.4383C171.652 18.1445 171.741 20.3013 172.23 21.0266C172.497 21.3892 172.809 22.4581 172.898 23.3742C173.076 24.7294 172.942 25.2447 172.23 26.0655C171.34 27.0389 171.296 27.058 169.426 27.0961C167.157 27.1343 166.801 27.0389 165.955 26.18C165.154 25.3211 165.154 19.7669 165.955 18.698C166.489 18.0109 168.314 17.2856 169.07 17.4764C170.005 17.7246 171.029 17.0375 171.207 16.0449C171.429 14.8234 171.073 14.5371 169.07 14.3653C166.712 14.1744 165.466 12.8956 165.199 10.4335C164.976 8.16214 165.688 5.24187 166.667 4.36388C167.379 3.71493 170.45 2.85603 170.45 3.31411C170.45 3.42863 170.584 3.46681 170.762 3.40955C170.895 3.3332 171.34 3.46681 171.741 3.71493C172.275 4.02032 172.453 4.61201 172.497 5.85265C172.586 8.5057 172.364 8.29574 174.767 8.14305C178.06 7.95218 178.149 7.87584 177.927 5.47091C177.749 3.69585 177.526 3.19959 176.503 2.28343C175.835 1.67266 174.589 0.928277 173.743 0.622889C172.408 0.164808 171.785 0.0693749 169.604 0.0693749C168.18 0.0693749 166.667 0.164808 166.178 0.279329Z" fill="white"/>
</svg>
