<svg width="178" height="61" viewBox="0 0 178 61" fill="none" xmlns="http://www.w3.org/2000/svg">
<path d="M8.93991 54.1793C8.43767 55.7726 6.95605 57.0673 4.74619 57.0673C2.23498 57.0673 0 55.2747 0 52.1627C0 49.2747 2.15964 47.3577 4.52018 47.3577C7.38296 47.3577 9.04036 49.2249 9.04036 52.1129C9.04036 52.337 9.01525 52.5859 8.99013 52.81H2.20987C2.23498 53.4573 2.51121 54.0797 2.98834 54.5278C3.46547 54.976 4.09327 55.2249 4.74619 55.2C5.24843 55.2498 5.77578 55.1004 6.20269 54.8017C6.6296 54.5029 6.93094 54.0797 7.08161 53.5818L8.93991 54.1793ZM6.83049 51.2166C6.78027 50.1461 6.07713 49.2 4.54529 49.2C3.96771 49.2 3.41525 49.3992 3.01345 49.7726C2.58655 50.1461 2.33543 50.6689 2.2852 51.2415H6.83049V51.2166Z" fill="white"/>
<path d="M10.5471 56.5693V47.6067H12.7067V48.8017C12.983 48.3536 13.3848 47.9801 13.887 47.7063C14.3641 47.4573 14.9166 47.3328 15.4691 47.3328C17.7543 47.3328 18.8341 48.9013 18.8341 50.8681V56.5693H16.6242V51.2664C16.6242 50.171 16.0969 49.2996 14.7157 49.2996C13.4601 49.2996 12.7821 50.2457 12.7821 51.4158V56.5693H10.5471Z" fill="white"/>
<path d="M28.7785 54.1793C28.2762 55.7726 26.7946 57.0673 24.5848 57.0673C22.0735 57.0673 19.8386 55.2747 19.8386 52.1627C19.8386 49.2747 21.9982 47.3577 24.3587 47.3577C27.2215 47.3577 28.8789 49.2249 28.8789 52.1129C28.8789 52.337 28.8538 52.5859 28.8287 52.81H22.0484C22.0735 53.4573 22.3498 54.0797 22.8018 54.5278C23.2789 54.976 23.9067 55.2249 24.5596 55.2C25.0619 55.2498 25.5892 55.1004 26.0161 54.8017C26.4431 54.5029 26.7444 54.0797 26.8951 53.5818L28.7785 54.1793ZM26.6691 51.2166C26.6188 50.1461 25.9157 49.2 24.3839 49.2C23.8063 49.1751 23.2538 49.3992 22.852 49.7726C22.4251 50.1461 22.174 50.6689 22.1238 51.2415H26.6691V51.2166Z" fill="white"/>
<path d="M35.9103 49.5984C35.6592 49.5735 35.4081 49.5486 35.1821 49.5486C33.4493 49.5486 32.6457 50.5195 32.6457 52.2125V56.5693H30.3857V47.4573H32.5704V48.9013C32.8215 48.4034 33.1982 48.005 33.7004 47.7312C34.1776 47.4573 34.7552 47.3328 35.3076 47.3577C35.5085 47.3577 35.7094 47.3826 35.9103 47.4075V49.5984Z" fill="white"/>
<path d="M38.4215 56.6938C38.4969 57.2415 38.7731 57.7643 39.2 58.1129C39.6269 58.4863 40.1794 58.6606 40.7318 58.6357C42.4646 58.6357 43.3184 57.7395 43.3184 55.8971V54.9262C42.9166 55.6482 42.0126 56.2706 40.6816 56.2706C38.2457 56.2706 36.4628 54.3785 36.4628 51.8141C36.4628 49.3743 38.1704 47.3577 40.6816 47.3577C42.113 47.3577 42.9919 47.9303 43.3937 48.7021V47.532H45.5031V55.8224C45.5031 58.2623 44.2475 60.5527 40.8072 60.5527C38.3964 60.5527 36.6888 59.0341 36.4628 57.1917L38.4215 56.6938ZM43.3435 51.839C43.3435 50.2706 42.339 49.2498 41.0081 49.2498C39.652 49.2498 38.6224 50.2706 38.6224 51.839C38.6224 53.4075 39.5767 54.4282 41.0081 54.4282C42.4395 54.4282 43.3435 53.4075 43.3435 51.839Z" fill="white"/>
<path d="M56 52.2125C56 55.0258 53.9659 57.0673 51.2287 57.0673C48.4915 57.0673 46.4574 55.0258 46.4574 52.2125C46.4574 49.3992 48.4664 47.3577 51.2287 47.3577C53.991 47.3577 56 49.3992 56 52.2125ZM53.7901 52.2125C53.7901 50.3204 52.5848 49.3494 51.2287 49.3494C49.8726 49.3494 48.6673 50.3204 48.6673 52.2125C48.6673 54.1046 49.8978 55.1253 51.2287 55.1253C52.5596 55.1253 53.7901 54.1295 53.7901 52.2125Z" fill="white"/>
<path d="M22.4753 34.5361C22.4753 34.5361 14.1883 34.6108 14.113 34.5361C5.04753 34.0382 5.82601 27.1668 5.77578 27.117C6.4287 19.3245 14.0628 19.7727 14.0628 19.698C17.9803 19.8473 20.0897 21.5154 21.2197 23.1336C22.0735 24.3785 22.5004 25.8224 22.5004 27.3162L22.4753 34.5361ZM14.0126 15.7146C14.0126 15.8141 2.23498 15.1171 1.25561 27.1419C1.35605 27.1917 0.175785 37.7727 14.113 38.5693C14.2135 38.6689 26.9704 38.5693 26.9704 38.5693V27.4407C26.9955 25.1502 26.3175 22.9096 25.0117 20.9926C23.304 18.5029 20.0646 15.9386 14.0126 15.7146Z" fill="white"/>
<path d="M42.113 34.561C38.1955 34.4117 36.0861 32.7436 34.9812 31.1253C34.1274 29.8805 33.7004 28.4366 33.7004 26.9428V19.7478C33.7004 19.7478 41.9874 19.698 42.0377 19.7478C51.1031 20.2457 50.3247 27.1171 50.4 27.1668C49.7722 34.9594 42.113 34.5112 42.113 34.561ZM42.0628 15.7395C42.0126 15.6897 37.1408 15.6897 33.3991 15.7146V10.8847H29.1803V26.8681C29.1552 29.1585 29.8332 31.3992 31.139 33.3162C32.8717 35.8059 36.1112 38.3453 42.1632 38.5942C42.1632 38.4946 53.9408 39.1917 54.9202 27.1668C54.8197 27.1171 56 16.5112 42.0628 15.7395Z" fill="white"/>
<path fill-rule="evenodd" clip-rule="evenodd" d="M31.3399 0.552734C34.6547 1.69796 36.5381 7.17514 33.4493 9.16684C32.4951 5.60668 28.0502 6.45315 29.4314 9.81415C24.635 5.65647 32.0682 3.11705 31.3399 0.552734Z" fill="white"/>
</svg>
