<svg width="179" height="60" viewBox="0 0 179 60" fill="none" xmlns="http://www.w3.org/2000/svg">
<path d="M69.2249 58.6105L91.4185 36.7869L55.163 1.12402L32.9694 22.9476L24.0156 14.1354L1 36.7869H47.0312L69.2249 58.6105Z" fill="black" stroke="white" stroke-width="0.394283" stroke-miterlimit="10"/>
<path d="M69.2249 58.6116L91.4185 36.7881H47.0312L69.2249 58.6116Z" fill="url(#paint0_linear_1809_11610)"/>
<path d="M32.9694 22.946L24.0156 14.1338L1 36.7853H47.0312L32.9694 22.946Z" fill="url(#paint1_linear_1809_11610)"/>
<path d="M55.1624 1.12402L32.9688 22.9476L47.0306 36.7869H91.4178L55.1624 1.12402Z" fill="black"/>
<path d="M9.1118 48.691C9.78701 48.6614 10.3154 48.8093 10.6677 49.0754C11.02 49.3415 11.1961 49.7555 11.1961 50.3174C11.1961 50.968 11.0493 51.4411 10.7264 51.7664C10.4035 52.0917 9.93379 52.2691 9.34666 52.2691H6V51.5298H6.99813V46.7393H6V46H10.609L10.9319 47.5673L10.1686 47.7447L9.93379 46.7393H7.82011V48.7501L9.1118 48.691ZM9.05309 51.5298C9.43473 51.5298 9.75765 51.4411 9.96315 51.2637C10.1686 51.0863 10.2861 50.7905 10.2861 50.4061C10.2861 50.0513 10.198 49.7851 9.9925 49.6373C9.78701 49.4894 9.5228 49.4303 9.14116 49.4303L7.82011 49.4598V51.5002H9.05309V51.5298Z" fill="white"/>
<path d="M16.2177 51.7396C15.9241 51.9761 15.6599 52.1536 15.3664 52.2719C15.0728 52.3901 14.7499 52.4493 14.3682 52.4493C13.8692 52.4493 13.4582 52.3606 13.0765 52.1536C12.7243 51.9466 12.4307 51.6804 12.2252 51.3256C12.0197 50.9707 11.9316 50.5272 11.9316 50.0244C11.9316 49.5217 12.0197 49.1077 12.2252 48.7529C12.4013 48.398 12.6949 48.1023 13.0472 47.8953C13.3995 47.6883 13.8105 47.5996 14.2508 47.5996C14.6912 47.5996 15.0434 47.6883 15.337 47.8658C15.6306 48.0432 15.8654 48.3093 16.0416 48.6346C16.2177 48.9599 16.2764 49.3443 16.2764 49.8175C16.2764 49.8766 16.2764 49.9357 16.2764 50.0244C16.2764 50.0836 16.2764 50.1723 16.2471 50.2315L12.7243 50.261C12.7536 50.6159 12.8417 50.9116 12.9885 51.1482C13.1353 51.3847 13.3408 51.5326 13.5756 51.6509C13.8105 51.7692 14.0747 51.7987 14.3389 51.7987C14.6618 51.7987 14.926 51.7692 15.1609 51.6804C15.3957 51.5917 15.6306 51.4734 15.8361 51.296L16.2177 51.7396ZM15.4544 49.5513C15.4544 49.1669 15.337 48.8416 15.1022 48.5755C14.8673 48.3093 14.5737 48.2206 14.2215 48.2206C13.8398 48.2206 13.5169 48.3389 13.2527 48.5755C12.9591 48.812 12.8123 49.1373 12.7536 49.5513H15.4544Z" fill="white"/>
<path d="M16.9219 47.7197H19.1824V48.3703H18.742V51.6231H20.3567V48.3703H19.8282V47.7197H21.619V48.3703H21.1493V51.6231H22.7346V48.3703H22.2942V47.7197H24.5547V48.3703H23.5565V51.6231H24.5547V52.2737H16.9513V51.6231H17.9201V48.3703H16.8926V47.7197H16.9219Z" fill="white"/>
<path d="M27.7812 52.2691V51.5298H28.8087L30.5701 46.7393H29.5133V46H31.5683L33.4764 51.5298H34.4746V52.2691H31.9205V51.5298H32.5957L32.2435 50.554H29.9243L29.572 51.5298H30.2472V52.2691H27.7812ZM30.1885 49.8443H31.9499L31.0986 47.0941L30.1885 49.8443Z" fill="white"/>
<path d="M34.7405 54.4844V53.8338H35.6212V48.5406L34.623 48.2153L34.8285 47.5352L36.2377 48.0379C36.4725 47.89 36.7074 47.7717 36.9422 47.7126C37.1771 47.6239 37.4119 47.5943 37.6468 47.5943C38.3513 47.5943 38.9091 47.8013 39.2908 48.2153C39.7017 48.6293 39.9072 49.1911 39.9072 49.9009C39.9072 50.4036 39.8192 50.8471 39.6137 51.2316C39.4082 51.616 39.144 51.9413 38.7917 52.1483C38.4394 52.3553 38.0578 52.4735 37.5881 52.4735C37.1771 52.4735 36.7954 52.4144 36.4138 52.2961V53.8634H37.2945V54.514H34.7405V54.4844ZM37.6174 51.7638C38.0871 51.7638 38.4394 51.5864 38.7036 51.2611C38.9678 50.9358 39.0853 50.4627 39.0853 49.8713C39.0853 49.339 38.9678 48.925 38.733 48.6589C38.4981 48.3927 38.1458 48.2449 37.6468 48.2449C37.4413 48.2449 37.2064 48.2744 36.9716 48.3632C36.7367 48.4519 36.5606 48.5406 36.4432 48.6589V51.5273C36.5606 51.616 36.7367 51.6751 36.9422 51.7047C37.2064 51.7343 37.4119 51.7638 37.6174 51.7638Z" fill="white"/>
<path d="M44.1644 50.2912C44.0176 50.3799 43.8121 50.4982 43.5772 50.5869C43.3424 50.6756 43.0195 50.7347 42.6378 50.7347C42.2856 50.7347 41.992 50.6756 41.7865 50.5573C41.581 50.439 41.4342 50.2912 41.3168 50.1433C41.1994 49.9659 41.1406 49.7885 41.1113 49.5815C41.0819 49.3745 41.0819 49.1675 41.0819 48.9605V48.3986H40.1719V47.748H42.4617V48.3986H41.8746V48.8718C41.8746 49.1083 41.9039 49.3153 41.9333 49.4928C41.9626 49.6702 42.0507 49.818 42.1975 49.9067C42.3443 49.9955 42.5791 50.0546 42.8727 50.0546C43.1663 50.0546 43.4011 50.025 43.6066 49.9363C43.8121 49.8476 43.9882 49.7589 44.0763 49.6997V48.4578H43.5185V47.8072H45.8084V48.4578H44.8983V51.681H45.8084V52.3316H43.1956V51.681H44.1057V50.2912H44.1644Z" fill="white"/>
<path d="M49.8876 51.9721C49.4179 52.2974 48.9188 52.4452 48.3904 52.4452C47.8033 52.4452 47.3629 52.3269 47.04 52.0904C46.7465 51.8538 46.5703 51.499 46.5703 51.0258C46.5703 50.1091 47.1281 49.636 48.3317 49.636H49.6821C49.6821 49.1628 49.594 48.808 49.4179 48.5714C49.2418 48.3348 48.9776 48.2165 48.6253 48.2165C48.4491 48.2165 48.3024 48.2165 48.1262 48.2461C47.9501 48.2757 47.8033 48.3053 47.6859 48.3348L47.5684 48.9263L46.8932 48.808L47.0694 47.8321C47.3336 47.7434 47.5978 47.6547 47.862 47.5956C48.1262 47.5364 48.3611 47.5068 48.5959 47.5068C49.2418 47.5068 49.7115 47.6843 50.0344 48.0096C50.3573 48.3644 50.5335 48.8671 50.5335 49.5473V51.4102L51.5316 51.7355L51.3261 52.4157L49.8876 51.9721ZM48.3611 50.2865C48.0675 50.2865 47.8326 50.3457 47.6565 50.464C47.4804 50.5822 47.4217 50.7597 47.4217 50.9962C47.4217 51.499 47.7739 51.7355 48.4491 51.7355C48.9482 51.7355 49.3592 51.5877 49.7115 51.3215V50.2865H48.3611Z" fill="white"/>
<defs>
<linearGradient id="paint0_linear_1809_11610" x1="64.7118" y1="28.8962" x2="79.8052" y2="54.8491" gradientUnits="userSpaceOnUse">
<stop stop-color="white"/>
<stop offset="0.1348" stop-color="#FBFBFB"/>
<stop offset="0.2615" stop-color="#F0F0F0"/>
<stop offset="0.3851" stop-color="#DDDDDD"/>
<stop offset="0.5069" stop-color="#C2C2C2"/>
<stop offset="0.6272" stop-color="#A0A0A0"/>
<stop offset="0.7465" stop-color="#757575"/>
<stop offset="0.865" stop-color="#434343"/>
<stop offset="0.98" stop-color="#0B0B0B"/>
<stop offset="1"/>
</linearGradient>
<linearGradient id="paint1_linear_1809_11610" x1="31.3591" y1="45.587" x2="10.6007" y2="21.0276" gradientUnits="userSpaceOnUse">
<stop stop-color="white"/>
<stop offset="0.1875" stop-color="#FCFCFC"/>
<stop offset="0.3207" stop-color="#F3F3F3"/>
<stop offset="0.4371" stop-color="#E3E3E3"/>
<stop offset="0.544" stop-color="#CDCDCD"/>
<stop offset="0.6443" stop-color="#B0B0B0"/>
<stop offset="0.7397" stop-color="#8D8D8D"/>
<stop offset="0.8313" stop-color="#646464"/>
<stop offset="0.9175" stop-color="#353535"/>
<stop offset="1"/>
</linearGradient>
</defs>
</svg>
